<?xml version="1.0" encoding="UTF-8" standalone="no"?>
<!DOCTYPE svg PUBLIC "-//W3C//DTD SVG 1.1//EN" "http://www.w3.org/Graphics/SVG/1.1/DTD/svg11.dtd">
<svg width="100%" height="100%" viewBox="0 0 300 177" version="1.1" xmlns="http://www.w3.org/2000/svg" xmlns:xlink="http://www.w3.org/1999/xlink" xml:space="preserve" xmlns:serif="http://www.serif.com/" style="fill-rule:evenodd;clip-rule:evenodd;stroke-linejoin:round;stroke-miterlimit:2;">
    <g transform="matrix(1,0,0,1,-170,-46.5273)">
        <g id="Серо-золотистый---RGB" serif:id="Серо-золотистый - RGB" transform="matrix(0.289204,0,0,0.578468,-168.069,-622.113)">
            <g id="Линии" transform="matrix(3.45776,0,0,1.82258,581.141,319.343)">
                <path d="M217.08,607.131C219.751,607.145 222.426,607.302 225.095,607.522L225.275,607.538C238.359,609.452 250.812,614.768 263.299,616.942C263.299,616.942 266.984,617.739 269.671,618.225C282.872,620.611 296.405,620.803 309.309,618.794C312.795,618.234 316.278,617.656 319.763,617.086L320,617.048C306.891,621.724 293.903,625.85 279.317,626.661C273.408,626.99 267.571,626.798 261.802,626.095C254.353,625.188 245.69,621.921 238.282,619.799C236.534,619.298 234.773,618.841 233.003,618.428C230.114,617.755 227.196,617.206 224.263,616.763C224.263,616.763 220.263,616 217.404,615.542C205.265,613.597 192.816,613.518 180.703,615.349C177.209,615.894 173.718,616.458 170.225,617.013L170,617.048C184.819,611.67 200.022,607.267 216.012,607.133C216.368,607.132 216.724,607.131 217.08,607.131ZM256.04,587.464C263.882,587.488 271.696,587.916 279.47,588.714L279.756,588.744C295.035,590.804 310.06,594.668 324.773,599.088C334.931,602.116 345.285,604.482 355.768,606.165C355.768,606.165 363.306,607.506 368.894,608.265C395.169,611.831 422.026,611.407 448.66,606.483C455.621,605.18 462.574,603.834 469.531,602.508L470,602.42C447.088,608.958 424.422,615.131 400.07,616.716C385.107,617.69 370.047,617.216 355.359,615.364C355.359,615.364 349.603,614.469 345.053,613.565C323.389,609.264 302.449,601.161 279.252,597.933C279.252,597.933 273.716,597.041 269.286,596.48C243.096,593.16 216.306,593.792 190.844,598.497C184.043,599.769 177.245,601.057 170.445,602.337L170,602.42C194.438,595.374 219.063,588.924 245.117,587.7C248.765,587.528 252.386,587.46 256.04,587.464ZM367.08,577.875C369.751,577.889 372.426,578.046 375.095,578.266L375.275,578.281C388.359,580.196 400.812,585.511 413.299,587.686C413.299,587.686 416.984,588.483 419.671,588.968C432.872,591.355 446.405,591.547 459.309,589.537C462.795,588.977 466.278,588.399 469.763,587.83L470,587.792C456.891,592.468 443.903,596.594 429.317,597.405C423.408,597.734 417.571,597.542 411.802,596.839C404.353,595.932 395.69,592.665 388.282,590.543C386.534,590.042 384.773,589.585 383.003,589.172C380.114,588.499 377.196,587.949 374.263,587.507C374.263,587.507 370.263,586.743 367.404,586.285C355.265,584.341 342.816,584.261 330.703,586.092C327.209,586.638 323.718,587.202 320.225,587.757L320,587.792C334.819,582.414 350.022,578.011 366.012,577.877C366.368,577.875 366.724,577.875 367.08,577.875Z" style="fill:rgb(255,225,92);"/>
            </g>
            <g id="Riviera" transform="matrix(3.45776,0,0,1.7287,581.141,366.135)">
                <path d="M191.14,564.578L178.075,564.578L178.075,511.717C178.075,508.326 177.609,505.816 176.678,504.187C175.747,502.558 173.886,501.744 171.093,501.744L170.096,501.744L170.096,498.751L197.623,498.751C204.405,498.751 210.589,499.998 216.174,502.492C221.759,504.985 224.552,509.756 224.552,516.804C224.552,521.658 223.072,525.365 220.114,527.924C217.155,530.484 213.248,532.396 208.395,533.659L218.867,551.113C222.79,557.696 226.912,561.353 231.234,562.084L231.234,564.578C230.702,564.844 229.738,565.076 228.342,565.276C226.946,565.475 225.616,565.575 224.352,565.575C220.762,565.575 217.437,564.478 214.379,562.284C211.32,560.09 208.228,556.366 205.103,551.113L195.13,534.457L191.14,534.457L191.14,564.578ZM437.49,530.169L432.004,530.169C432.004,527.908 432.154,525.98 432.453,524.384C432.752,522.788 433.434,521.392 434.498,520.195C436.559,517.868 441.546,516.704 449.458,516.704C456.107,516.704 461.177,518.449 464.668,521.94C468.159,525.431 469.904,530.667 469.904,537.649L469.904,564.578L461.427,564.578L457.936,560.09L457.437,560.09C456.44,561.619 454.894,562.915 452.8,563.979C450.705,565.043 448.261,565.575 445.469,565.575C440.083,565.575 435.911,564.362 432.952,561.935C429.993,559.508 428.514,556.233 428.514,552.111C428.514,548.786 429.295,546.027 430.857,543.832C432.42,541.638 435.163,539.976 439.086,538.846C443.009,537.715 448.461,537.15 455.443,537.15L456.939,537.15C456.939,531.365 456.141,527.26 454.545,524.833C452.949,522.406 450.589,521.192 447.464,521.192C444.87,521.192 442.743,521.824 441.08,523.087C439.418,524.351 438.221,526.711 437.49,530.169ZM350.32,542.935C350.32,549.252 351.284,553.856 353.212,556.748C355.141,559.641 357.833,561.087 361.291,561.087C364.483,561.087 367.159,560.372 369.32,558.943C371.481,557.513 373.559,555.468 375.553,552.809L378.645,555.103C376.717,558.095 374.307,560.588 371.414,562.583C368.522,564.578 364.649,565.575 359.795,565.575C355.207,565.575 351.184,564.511 347.727,562.384C344.269,560.256 341.593,557.347 339.698,553.657C337.803,549.966 336.856,545.794 336.856,541.14C336.856,535.953 337.803,531.532 339.698,527.875C341.593,524.218 344.203,521.442 347.527,519.547C350.852,517.652 354.609,516.704 358.798,516.704C362.92,516.704 366.644,517.535 369.968,519.198C373.293,520.86 375.919,523.204 377.847,526.229C379.776,529.254 380.74,532.728 380.74,536.651L380.341,542.935L350.32,542.935ZM284.793,565.575L281.202,565.575L264.347,529.171C262.552,525.448 261.022,522.838 259.759,521.342C258.496,519.846 257.066,519.031 255.47,518.898L255.47,516.904L259.161,516.704C263.615,516.704 267.356,517.568 270.381,519.297C273.406,521.026 276.049,524.317 278.31,529.171L287.087,548.321L300.651,517.701L306.037,517.701L284.793,565.575ZM327.381,564.578L314.415,564.578L314.415,530.667C314.415,527.276 313.949,524.766 313.018,523.137C312.088,521.508 310.226,520.694 307.433,520.694L306.436,520.694L306.436,517.701L318.404,517.701C320.798,517.701 322.626,518.1 323.89,518.898C325.153,519.696 326.051,521.009 326.583,522.838C327.115,524.666 327.381,527.276 327.381,530.667L327.381,564.578ZM250.882,564.578L237.917,564.578L237.917,530.667C237.917,527.276 237.451,524.766 236.52,523.137C235.589,521.508 233.728,520.694 230.935,520.694L229.938,520.694L229.938,517.701L241.906,517.701C244.3,517.701 246.128,518.1 247.392,518.898C248.655,519.696 249.553,521.009 250.085,522.838C250.616,524.666 250.882,527.276 250.882,530.667L250.882,564.578ZM404.876,564.578L391.91,564.578L391.91,530.667C391.91,527.276 391.461,524.766 390.564,523.137C389.666,521.508 387.821,520.694 385.028,520.694L384.031,520.694L384.031,517.701L393.905,517.701C396.166,517.701 397.944,517.984 399.241,518.549C400.537,519.114 401.551,520.062 402.283,521.392C405.873,518.267 410.062,516.704 414.85,516.704C417.709,516.704 420.069,517.369 421.931,518.699C423.128,519.563 423.992,520.511 424.524,521.541C425.056,522.572 425.322,523.12 425.322,523.187L420.235,527.077C419.504,526.013 418.54,525.099 417.343,524.334C416.146,523.569 414.816,523.187 413.354,523.187C409.497,523.187 406.538,524.218 404.477,526.279C404.743,528.407 404.876,530.002 404.876,531.066L404.876,564.578ZM456.939,541.638L455.443,541.638C450.722,541.638 447.297,542.486 445.17,544.182C443.042,545.877 441.978,548.52 441.978,552.111C441.978,554.837 442.543,556.931 443.674,558.394C444.804,559.857 446.4,560.588 448.461,560.588C450.456,560.588 452.201,559.923 453.697,558.594C455.193,557.264 456.274,555.768 456.939,554.105L456.939,541.638ZM367.275,538.447C367.275,532.197 366.544,527.758 365.081,525.132C363.618,522.505 361.524,521.192 358.798,521.192C356.271,521.192 354.226,522.539 352.664,525.232C351.101,527.924 350.32,532.33 350.32,538.447L367.275,538.447ZM197.124,530.468C200.848,530.468 204.023,529.354 206.649,527.127C209.276,524.899 210.589,521.392 210.589,516.604C210.589,511.817 209.292,508.31 206.699,506.082C204.106,503.855 200.981,502.741 197.324,502.741C195.595,502.741 193.534,502.974 191.14,503.439L191.14,530.468L197.124,530.468ZM320.898,512.316C318.504,512.316 316.659,511.584 315.362,510.121C314.066,508.659 313.417,506.863 313.417,504.736C313.417,503.007 313.933,501.644 314.963,500.646C315.994,499.649 317.307,499.15 318.903,499.15C321.297,499.15 323.142,499.882 324.438,501.345C325.735,502.807 326.383,504.603 326.383,506.73C326.383,508.459 325.868,509.822 324.837,510.82C323.807,511.817 322.493,512.316 320.898,512.316ZM244.4,512.316C242.006,512.316 240.161,511.584 238.864,510.121C237.568,508.659 236.919,506.863 236.919,504.736C236.919,503.007 237.435,501.644 238.465,500.646C239.496,499.649 240.809,499.15 242.405,499.15C244.798,499.15 246.644,499.882 247.94,501.345C249.237,502.807 249.885,504.603 249.885,506.73C249.885,508.459 249.37,509.822 248.339,510.82C247.309,511.817 245.995,512.316 244.4,512.316Z" style="fill:rgb(255,225,92);fill-rule:nonzero;"/>
            </g>
            <g id="Phuket" transform="matrix(3.45776,0,0,1.7287,581.141,366.135)">
                <path d="M464.665,465.154L468.64,465.154L468.64,466.78L464.665,466.78L464.665,477.44C464.665,478.741 464.821,479.639 465.134,480.133C465.448,480.626 465.917,480.873 466.544,480.873C467.531,480.873 468.483,480.548 469.398,479.898L469.904,480.91C468.7,481.97 467.134,482.5 465.207,482.5C463.544,482.5 462.256,482.048 461.34,481.144C460.425,480.241 459.967,478.934 459.967,477.224L459.967,466.78L457.799,466.78L457.799,465.154L459.967,465.154L459.967,461.902L461.774,459.734L464.665,459.734L464.665,465.154ZM444.862,474.297C444.862,476.585 445.211,478.254 445.91,479.302C446.609,480.349 447.584,480.873 448.837,480.873C449.993,480.873 450.963,480.614 451.746,480.096C452.529,479.579 453.282,478.838 454.004,477.874L455.125,478.705C454.426,479.789 453.553,480.693 452.505,481.415C451.457,482.138 450.054,482.5 448.295,482.5C446.633,482.5 445.175,482.114 443.923,481.343C442.67,480.572 441.7,479.518 441.014,478.181C440.327,476.844 439.984,475.333 439.984,473.646C439.984,471.767 440.327,470.165 441.014,468.84C441.7,467.515 442.646,466.509 443.85,465.823C445.055,465.136 446.416,464.793 447.934,464.793C449.427,464.793 450.776,465.094 451.981,465.696C453.185,466.299 454.137,467.148 454.836,468.244C455.534,469.34 455.884,470.599 455.884,472.02L455.739,474.297L444.862,474.297ZM414.905,480.512C413.677,481.837 412.171,482.5 410.388,482.5C408.1,482.5 406.413,481.97 405.329,480.91C404.245,479.85 403.703,478.163 403.703,475.851L403.703,469.852C403.703,468.623 403.534,467.714 403.197,467.124C402.86,466.533 402.185,466.238 401.173,466.238L400.812,466.238L400.812,465.154L405.148,465.154C406.016,465.154 406.678,465.299 407.136,465.588C407.594,465.877 407.919,466.353 408.112,467.015C408.304,467.678 408.401,468.623 408.401,469.852L408.401,475.887C408.401,477.693 408.654,478.976 409.16,479.735C409.665,480.494 410.436,480.873 411.472,480.873C412.243,480.873 412.9,480.633 413.442,480.151C413.984,479.669 414.411,479.127 414.725,478.525L414.725,465.154L419.422,465.154L419.422,482.138L416.351,482.138L415.086,480.512L414.905,480.512ZM428.456,482.138L423.759,482.138L423.759,462.986C423.759,461.757 423.59,460.848 423.253,460.258C422.915,459.668 422.241,459.372 421.229,459.372L420.868,459.372L420.868,458.288L425.204,458.288C426.071,458.288 426.734,458.433 427.191,458.722C427.649,459.011 427.974,459.487 428.167,460.149C428.36,460.812 428.456,461.757 428.456,462.986L428.456,473.285L432.829,467.937C433.648,466.949 434.419,466.238 435.141,465.805C435.864,465.371 436.828,465.154 438.032,465.154L438.755,465.154L438.755,466.094C438.032,466.094 437.382,466.238 436.804,466.527C436.226,466.816 435.671,467.274 435.141,467.901L431.636,472.165L436.442,478.525C437.599,480.09 438.719,481.006 439.803,481.271L439.803,482.138C439.61,482.235 439.255,482.319 438.737,482.391C438.219,482.463 437.743,482.5 437.31,482.5C436.25,482.5 435.28,482.277 434.401,481.831C433.521,481.385 432.696,480.645 431.925,479.609L428.456,475.056L428.456,482.138ZM368.796,482.138L364.098,482.138L364.098,462.986C364.098,461.757 363.929,460.848 363.592,460.258C363.255,459.668 362.58,459.372 361.568,459.372L361.207,459.372L361.207,458.288L371.144,458.288C373.626,458.288 375.872,458.776 377.884,459.752C379.895,460.728 380.901,462.661 380.901,465.552C380.901,467.431 380.377,468.888 379.329,469.924C378.281,470.96 377.107,471.647 375.806,471.984C374.505,472.321 373.313,472.49 372.228,472.49L368.796,472.49L368.796,482.138ZM388.381,482.138L383.684,482.138L383.684,462.986C383.684,461.757 383.515,460.848 383.178,460.258C382.84,459.668 382.166,459.372 381.154,459.372L380.793,459.372L380.793,458.288L385.129,458.288C385.996,458.288 386.659,458.433 387.117,458.722C387.574,459.011 387.899,459.487 388.092,460.149C388.285,460.812 388.381,461.757 388.381,462.986L388.381,466.166C388.839,465.805 389.429,465.485 390.152,465.208C390.875,464.931 391.609,464.793 392.356,464.793C394.308,464.793 395.94,465.293 397.253,466.292C398.566,467.292 399.222,468.997 399.222,471.406L399.222,482.138L394.524,482.138L394.524,471.586C394.524,469.852 394.217,468.587 393.603,467.792C392.989,466.997 392.212,466.6 391.272,466.6C390.333,466.6 389.369,467.021 388.381,467.864L388.381,482.138ZM451.005,472.671C451.005,470.406 450.74,468.798 450.21,467.846C449.68,466.895 448.921,466.419 447.934,466.419C447.018,466.419 446.277,466.907 445.711,467.882C445.145,468.858 444.862,470.454 444.862,472.671L451.005,472.671ZM370.964,471.044C372.385,471.044 373.553,470.611 374.469,469.743C375.384,468.876 375.842,467.419 375.842,465.371C375.842,463.347 375.39,461.902 374.487,461.035C373.584,460.167 372.469,459.734 371.144,459.734C370.446,459.734 369.663,459.818 368.796,459.987L368.796,471.044L370.964,471.044Z" style="fill:rgb(255,225,92);fill-rule:nonzero;"/>
            </g>
            <g id="Круг" transform="matrix(1.80791,0,0,0.903861,-9911.64,-288.605)">
                <circle cx="6470.13" cy="1624.05" r="6.93" style="fill:rgb(255,225,92);"/>
            </g>
            <g id="Andaman" transform="matrix(3.45776,0,0,1.7287,581.141,366.135)">
                <path d="M258.123,482.138L253.462,482.138L253.462,480.006C252.064,481.765 250.101,482.644 247.571,482.644C245.162,482.644 243.097,481.723 241.374,479.88C239.652,478.037 238.79,475.778 238.79,473.104C238.79,470.43 239.652,468.172 241.374,466.329C243.097,464.486 245.162,463.564 247.571,463.564C250.101,463.564 252.064,464.444 253.462,466.202L253.462,464.07L258.123,464.07L258.123,482.138ZM311.532,482.138L306.871,482.138L306.871,480.006C305.474,481.765 303.51,482.644 300.981,482.644C298.572,482.644 296.506,481.723 294.783,479.88C293.061,478.037 292.2,475.778 292.2,473.104C292.2,470.43 293.061,468.172 294.783,466.329C296.506,464.486 298.572,463.564 300.981,463.564C303.51,463.564 305.474,464.444 306.871,466.202L306.871,464.07L311.532,464.07L311.532,482.138ZM235.466,482.138L230.804,482.138L230.804,480.006C229.431,481.765 227.48,482.644 224.95,482.644C222.517,482.644 220.439,481.723 218.717,479.88C216.994,478.037 216.133,475.778 216.133,473.104C216.133,470.43 216.994,468.172 218.717,466.329C220.439,464.486 222.517,463.564 224.95,463.564C227.48,463.564 229.431,464.444 230.804,466.202L230.804,456.843L235.466,456.843L235.466,482.138ZM194.018,482.138L188.597,482.138L187.08,477.585L176.998,477.585L175.48,482.138L170.096,482.138L178.949,456.843L185.128,456.843L194.018,482.138ZM200.92,482.138L196.258,482.138L196.258,464.07L200.92,464.07L200.92,466.094C202.052,464.407 203.847,463.564 206.304,463.564C208.279,463.564 209.912,464.227 211.2,465.552C212.489,466.877 213.134,468.708 213.134,471.044L213.134,482.138L208.472,482.138L208.472,471.623C208.472,470.418 208.147,469.497 207.497,468.858C206.846,468.22 205.979,467.901 204.895,467.901C203.69,467.901 202.727,468.274 202.004,469.021C201.281,469.768 200.92,470.888 200.92,472.381L200.92,482.138ZM320.422,482.138L315.76,482.138L315.76,464.07L320.422,464.07L320.422,466.094C321.554,464.407 323.349,463.564 325.806,463.564C327.782,463.564 329.414,464.227 330.703,465.552C331.991,466.877 332.636,468.708 332.636,471.044L332.636,482.138L327.974,482.138L327.974,471.623C327.974,470.418 327.649,469.497 326.999,468.858C326.348,468.22 325.481,467.901 324.397,467.901C323.192,467.901 322.229,468.274 321.506,469.021C320.783,469.768 320.422,470.888 320.422,472.381L320.422,482.138ZM267.013,482.138L262.351,482.138L262.351,464.07L267.013,464.07L267.013,465.985C268.097,464.371 269.771,463.564 272.036,463.564C274.252,463.564 275.89,464.431 276.95,466.166C278.155,464.431 279.949,463.564 282.334,463.564C284.406,463.564 286.062,464.239 287.303,465.588C288.544,466.937 289.164,468.744 289.164,471.008L289.164,482.138L284.503,482.138L284.503,471.333C284.503,470.249 284.238,469.406 283.708,468.804C283.178,468.202 282.431,467.901 281.467,467.901C280.407,467.901 279.582,468.25 278.992,468.949C278.402,469.647 278.106,470.659 278.106,471.984L278.106,482.138L273.445,482.138L273.445,471.333C273.445,470.249 273.18,469.406 272.65,468.804C272.12,468.202 271.373,467.901 270.409,467.901C269.374,467.901 268.548,468.25 267.934,468.949C267.32,469.647 267.013,470.659 267.013,471.984L267.013,482.138ZM244.861,476.772C245.801,477.724 246.993,478.199 248.439,478.199C249.884,478.199 251.083,477.724 252.034,476.772C252.986,475.82 253.462,474.598 253.462,473.104C253.462,471.611 252.986,470.388 252.034,469.436C251.083,468.485 249.884,468.009 248.439,468.009C246.993,468.009 245.801,468.485 244.861,469.436C243.922,470.388 243.452,471.611 243.452,473.104C243.452,474.598 243.922,475.82 244.861,476.772ZM298.27,476.772C299.21,477.724 300.402,478.199 301.848,478.199C303.293,478.199 304.492,477.724 305.443,476.772C306.395,475.82 306.871,474.598 306.871,473.104C306.871,471.611 306.395,470.388 305.443,469.436C304.492,468.485 303.293,468.009 301.848,468.009C300.402,468.009 299.21,468.485 298.27,469.436C297.331,470.388 296.861,471.611 296.861,473.104C296.861,474.598 297.331,475.82 298.27,476.772ZM222.222,476.772C223.174,477.724 224.372,478.199 225.818,478.199C227.263,478.199 228.455,477.724 229.395,476.772C230.335,475.82 230.804,474.598 230.804,473.104C230.804,471.611 230.335,470.388 229.395,469.436C228.455,468.485 227.263,468.009 225.818,468.009C224.372,468.009 223.174,468.485 222.222,469.436C221.27,470.388 220.795,471.611 220.795,473.104C220.795,474.598 221.27,475.82 222.222,476.772ZM178.588,472.923L185.526,472.923L182.057,462.589L178.588,472.923Z" style="fill:rgb(234,234,235);fill-rule:nonzero;"/>
            </g>
        </g>
    </g>
</svg>
