<?xml version="1.0" encoding="UTF-8" standalone="no"?>
<!DOCTYPE svg PUBLIC "-//W3C//DTD SVG 1.1//EN" "http://www.w3.org/Graphics/SVG/1.1/DTD/svg11.dtd">
<svg width="100%" height="100%" viewBox="0 0 221 195" version="1.1" xmlns="http://www.w3.org/2000/svg" xmlns:xlink="http://www.w3.org/1999/xlink" xml:space="preserve" xmlns:serif="http://www.serif.com/" style="fill-rule:evenodd;clip-rule:evenodd;stroke-linejoin:round;stroke-miterlimit:2;">
    <g transform="matrix(1,0,0,1,-5093.74,-2173.11)">
        <g transform="matrix(1,0,0,1,3968.31,1692.13)">
            <g transform="matrix(1,0,0,1,-3968.31,-1692.13)">
                <path d="M5203.53,2358.06C5201.89,2363.12 5197.31,2367.44 5191.44,2367.47C5191.44,2367.47 5189.24,2367.16 5187.15,2366.46C5182.35,2364.86 5181.71,2364.5 5176.33,2362.36C5176.33,2362.36 5182.95,2359.69 5182.95,2359.69C5185.99,2358.62 5188.25,2357.21 5191.42,2357.21C5193.07,2357.21 5194.27,2355.01 5194.27,2355.01L5195.29,2353.37C5197.2,2350.65 5197.19,2350.61 5199.82,2347.25C5201.1,2345.62 5202.43,2344.03 5203.73,2342.41C5203.73,2342.41 5203.75,2342.33 5203.77,2342.37C5203.78,2342.37 5203.79,2342.38 5203.81,2342.41C5207.49,2346.85 5208.05,2347.37 5211.05,2351.42C5211.81,2352.45 5213.13,2354.82 5213.47,2355.55C5214.13,2356.9 5216.3,2357.21 5216.3,2357.21L5218.18,2357.68C5221.35,2358.65 5221.4,2358.63 5225.4,2360.1C5227.34,2360.81 5229.27,2361.58 5231.21,2362.32C5231.21,2362.32 5225.39,2364.58 5225.39,2364.58C5222.39,2365.63 5219.38,2366.7 5216.27,2367.47C5210.67,2367.47 5205.34,2363.69 5203.58,2358.37C5203.58,2358.37 5203.56,2358.26 5203.53,2358.06ZM5093.73,2342.37C5093.74,2342.38 5093.76,2342.39 5093.78,2342.41C5097.45,2346.85 5098.01,2347.37 5101.01,2351.42C5101.77,2352.45 5103.09,2354.82 5103.44,2355.55C5104.09,2356.9 5106.26,2357.21 5106.26,2357.21L5108.14,2357.68C5111.32,2358.65 5111.36,2358.63 5115.36,2360.1C5117.31,2360.81 5119.23,2361.58 5121.17,2362.32C5121.17,2362.32 5115.36,2364.58 5115.36,2364.58C5112.35,2365.63 5109.35,2366.7 5106.24,2367.47C5100.82,2367.47 5095.66,2363.94 5093.73,2358.9L5093.73,2342.37ZM5148.49,2358.06C5146.84,2363.12 5142.27,2367.44 5136.4,2367.47C5136.4,2367.47 5134.2,2367.16 5132.11,2366.46C5127.31,2364.86 5126.67,2364.5 5121.29,2362.36C5121.29,2362.36 5127.91,2359.69 5127.91,2359.69C5130.95,2358.62 5133.2,2357.21 5136.37,2357.21C5138.03,2357.21 5139.23,2355.01 5139.23,2355.01L5140.25,2353.37C5142.15,2350.65 5142.15,2350.61 5144.78,2347.25C5146.06,2345.62 5147.39,2344.03 5148.69,2342.41C5148.69,2342.41 5148.71,2342.33 5148.72,2342.37C5148.73,2342.37 5148.75,2342.38 5148.77,2342.41C5152.45,2346.85 5153,2347.37 5156,2351.42C5156.76,2352.45 5158.09,2354.82 5158.43,2355.55C5159.09,2356.9 5161.26,2357.21 5161.26,2357.21L5163.14,2357.68C5166.31,2358.65 5166.36,2358.63 5170.35,2360.1C5172.3,2360.81 5174.23,2361.58 5176.16,2362.32C5176.16,2362.32 5170.35,2364.58 5170.35,2364.58C5167.35,2365.63 5164.34,2366.7 5161.23,2367.47C5155.63,2367.47 5150.3,2363.69 5148.54,2358.37C5148.54,2358.37 5148.52,2358.26 5148.49,2358.06ZM5258.53,2358.06C5256.88,2363.12 5252.31,2367.44 5246.44,2367.47C5246.44,2367.47 5244.23,2367.16 5242.15,2366.46C5237.35,2364.86 5236.71,2364.5 5231.33,2362.36C5231.33,2362.36 5237.95,2359.69 5237.95,2359.69C5240.98,2358.62 5243.24,2357.21 5246.41,2357.21C5248.06,2357.21 5249.26,2355.01 5249.26,2355.01L5250.29,2353.37C5252.19,2350.65 5252.19,2350.61 5254.82,2347.25C5256.1,2345.62 5257.42,2344.03 5258.72,2342.41C5258.72,2342.41 5258.75,2342.33 5258.76,2342.37C5258.77,2342.37 5258.78,2342.38 5258.81,2342.41C5262.48,2346.85 5263.04,2347.37 5266.04,2351.42C5266.8,2352.45 5268.12,2354.82 5268.47,2355.55C5269.12,2356.9 5271.29,2357.21 5271.29,2357.21L5273.17,2357.68C5276.35,2358.65 5276.39,2358.63 5280.39,2360.1C5282.34,2360.81 5284.26,2361.58 5286.2,2362.32C5286.2,2362.32 5280.39,2364.58 5280.39,2364.58C5277.38,2365.63 5274.38,2366.7 5271.27,2367.47C5265.66,2367.47 5260.34,2363.69 5258.58,2358.37C5258.58,2358.37 5258.56,2358.26 5258.53,2358.06ZM5313.76,2358.9C5313.69,2358.73 5313.63,2358.55 5313.57,2358.37C5313.57,2358.37 5313.55,2358.26 5313.52,2358.06C5311.87,2363.12 5307.3,2367.44 5301.43,2367.47C5301.43,2367.47 5299.23,2367.16 5297.14,2366.46C5292.34,2364.86 5291.7,2364.5 5286.32,2362.36C5286.32,2362.36 5292.94,2359.69 5292.94,2359.69C5295.98,2358.62 5298.24,2357.21 5301.4,2357.21C5303.06,2357.21 5304.26,2355.01 5304.26,2355.01L5305.28,2353.37C5307.19,2350.65 5307.18,2350.61 5309.81,2347.25C5311.09,2345.62 5312.41,2344.03 5313.72,2342.41C5313.72,2342.41 5313.74,2342.33 5313.76,2342.37L5313.76,2342.37L5313.76,2358.9ZM5248.23,2330.07C5245.13,2334.96 5244.83,2335.62 5241.88,2339.74C5241.15,2340.77 5239.55,2342.72 5238.67,2343.32C5234.18,2346.34 5227.9,2346.26 5223.39,2342.98L5222.14,2341.49C5220.14,2338.84 5220.08,2338.82 5217.71,2335.28C5216.55,2333.56 5215.44,2331.81 5214.31,2330.07C5214.31,2330.07 5220.34,2331.65 5220.34,2331.65C5223.48,2332.6 5226.94,2333.1 5229.7,2334.88C5231.28,2335.88 5233.48,2334.42 5233.48,2334.42L5235.13,2333.74C5237.65,2332.86 5238.13,2332.66 5241.3,2331.79C5243.59,2331.17 5245.9,2330.62 5248.2,2330.03C5248.2,2330.03 5248.31,2329.95 5248.23,2330.07ZM5138.19,2330.07C5135.1,2334.96 5134.79,2335.62 5131.85,2339.74C5131.11,2340.77 5129.51,2342.72 5128.63,2343.32C5124.14,2346.34 5117.87,2346.26 5113.36,2342.98L5112.11,2341.49C5110.11,2338.84 5110.05,2338.82 5107.68,2335.28C5106.52,2333.56 5105.41,2331.81 5104.27,2330.07C5104.27,2330.07 5110.31,2331.65 5110.31,2331.65C5113.44,2332.6 5116.91,2333.1 5119.66,2334.88C5121.24,2335.88 5123.44,2334.42 5123.44,2334.42L5125.09,2333.74C5127.62,2332.86 5128.09,2332.66 5131.27,2331.79C5133.56,2331.17 5135.86,2330.62 5138.16,2330.03C5138.16,2330.03 5138.27,2329.95 5138.19,2330.07ZM5303.22,2330.07C5300.13,2334.96 5299.82,2335.62 5296.88,2339.74C5296.14,2340.77 5294.54,2342.72 5293.66,2343.32C5289.18,2346.34 5282.9,2346.26 5278.39,2342.98L5277.14,2341.49C5275.14,2338.84 5275.08,2338.82 5272.7,2335.28C5271.55,2333.56 5270.44,2331.81 5269.3,2330.07C5269.3,2330.07 5275.34,2331.65 5275.34,2331.65C5278.47,2332.6 5281.94,2333.1 5284.69,2334.88C5286.28,2335.88 5288.47,2334.42 5288.47,2334.42L5290.12,2333.74C5292.65,2332.86 5293.12,2332.66 5296.3,2331.79C5298.59,2331.17 5300.9,2330.62 5303.19,2330.03C5303.19,2330.03 5303.3,2329.95 5303.22,2330.07ZM5193.19,2330.07C5190.09,2334.96 5189.78,2335.62 5186.84,2339.74C5186.11,2340.77 5184.5,2342.72 5183.63,2343.32C5179.14,2346.34 5172.86,2346.26 5168.35,2342.98L5167.1,2341.49C5165.1,2338.84 5165.04,2338.82 5162.67,2335.28C5161.51,2333.56 5160.4,2331.81 5159.27,2330.07C5159.27,2330.07 5165.3,2331.65 5165.3,2331.65C5168.44,2332.6 5171.9,2333.1 5174.65,2334.88C5176.24,2335.88 5178.43,2334.42 5178.43,2334.42L5180.08,2333.74C5182.61,2332.86 5183.08,2332.66 5186.26,2331.79C5188.55,2331.17 5190.86,2330.62 5193.16,2330.03C5193.16,2330.03 5193.26,2329.95 5193.19,2330.07ZM5203.53,2305.76C5201.89,2310.82 5197.31,2315.13 5191.44,2315.16C5191.44,2315.16 5189.24,2314.85 5187.15,2314.16C5182.35,2312.55 5181.71,2312.2 5176.33,2310.06C5176.33,2310.06 5182.95,2307.39 5182.95,2307.39C5185.99,2306.32 5188.25,2304.91 5191.42,2304.91C5193.07,2304.91 5194.27,2302.71 5194.27,2302.71L5195.29,2301.07C5197.2,2298.35 5197.19,2298.3 5199.82,2294.95C5201.1,2293.32 5202.43,2291.72 5203.73,2290.11C5203.73,2290.11 5203.75,2290.03 5203.77,2290.06C5203.78,2290.07 5203.79,2290.08 5203.81,2290.11C5207.49,2294.55 5208.05,2295.06 5211.05,2299.12C5211.81,2300.15 5213.13,2302.51 5213.47,2303.24C5214.13,2304.6 5216.3,2304.91 5216.3,2304.91L5218.18,2305.38C5221.35,2306.35 5221.4,2306.33 5225.4,2307.79C5227.34,2308.51 5229.27,2309.27 5231.21,2310.01C5231.21,2310.01 5225.39,2312.28 5225.39,2312.28C5222.39,2313.32 5219.38,2314.4 5216.27,2315.16C5210.67,2315.16 5205.34,2311.39 5203.58,2306.07C5203.58,2306.07 5203.56,2305.96 5203.53,2305.76ZM5148.49,2305.76C5146.84,2310.82 5142.27,2315.13 5136.4,2315.16C5136.4,2315.16 5134.2,2314.85 5132.11,2314.16C5127.31,2312.55 5126.67,2312.2 5121.29,2310.06C5121.29,2310.06 5127.91,2307.39 5127.91,2307.39C5130.95,2306.32 5133.2,2304.91 5136.37,2304.91C5138.03,2304.91 5139.23,2302.71 5139.23,2302.71L5140.25,2301.07C5142.15,2298.35 5142.15,2298.3 5144.78,2294.95C5146.06,2293.32 5147.39,2291.72 5148.69,2290.11C5148.69,2290.11 5148.71,2290.03 5148.72,2290.06C5148.73,2290.07 5148.75,2290.08 5148.77,2290.11C5152.45,2294.55 5153,2295.06 5156,2299.12C5156.76,2300.15 5158.09,2302.51 5158.43,2303.24C5159.09,2304.6 5161.26,2304.91 5161.26,2304.91L5163.14,2305.38C5166.31,2306.35 5166.36,2306.33 5170.35,2307.79C5172.3,2308.51 5174.23,2309.27 5176.16,2310.01C5176.16,2310.01 5170.35,2312.28 5170.35,2312.28C5167.35,2313.32 5164.34,2314.4 5161.23,2315.16C5155.63,2315.16 5150.3,2311.39 5148.54,2306.07C5148.54,2306.07 5148.52,2305.96 5148.49,2305.76ZM5093.73,2290.07C5093.74,2290.07 5093.76,2290.09 5093.78,2290.11C5097.45,2294.55 5098.01,2295.06 5101.01,2299.12C5101.77,2300.15 5103.09,2302.51 5103.44,2303.24C5104.09,2304.6 5106.26,2304.91 5106.26,2304.91L5108.14,2305.38C5111.32,2306.35 5111.36,2306.33 5115.36,2307.79C5117.31,2308.51 5119.23,2309.27 5121.17,2310.01C5121.17,2310.01 5115.36,2312.28 5115.36,2312.28C5112.35,2313.32 5109.35,2314.4 5106.24,2315.16C5100.82,2315.16 5095.66,2311.64 5093.73,2306.6L5093.73,2290.07ZM5258.53,2305.76C5256.88,2310.82 5252.31,2315.13 5246.44,2315.16C5246.44,2315.16 5244.23,2314.85 5242.15,2314.16C5237.35,2312.55 5236.71,2312.2 5231.33,2310.06C5231.33,2310.06 5237.95,2307.39 5237.95,2307.39C5240.98,2306.32 5243.24,2304.91 5246.41,2304.91C5248.06,2304.91 5249.26,2302.71 5249.26,2302.71L5250.29,2301.07C5252.19,2298.35 5252.19,2298.3 5254.82,2294.95C5256.1,2293.32 5257.42,2291.72 5258.72,2290.11C5258.72,2290.11 5258.75,2290.03 5258.76,2290.06C5258.77,2290.07 5258.78,2290.08 5258.81,2290.11C5262.48,2294.55 5263.04,2295.06 5266.04,2299.12C5266.8,2300.15 5268.12,2302.51 5268.47,2303.24C5269.12,2304.6 5271.29,2304.91 5271.29,2304.91L5273.17,2305.38C5276.35,2306.35 5276.39,2306.33 5280.39,2307.79C5282.34,2308.51 5284.26,2309.27 5286.2,2310.01C5286.2,2310.01 5280.39,2312.28 5280.39,2312.28C5277.38,2313.32 5274.38,2314.4 5271.27,2315.16C5265.66,2315.16 5260.34,2311.39 5258.58,2306.07C5258.58,2306.07 5258.56,2305.96 5258.53,2305.76ZM5313.76,2306.6C5313.69,2306.42 5313.63,2306.25 5313.57,2306.07C5313.57,2306.07 5313.55,2305.96 5313.52,2305.76C5311.87,2310.82 5307.3,2315.13 5301.43,2315.16C5301.43,2315.16 5299.23,2314.85 5297.14,2314.16C5292.34,2312.55 5291.7,2312.2 5286.32,2310.06C5286.32,2310.06 5292.94,2307.39 5292.94,2307.39C5295.98,2306.32 5298.24,2304.91 5301.4,2304.91C5303.06,2304.91 5304.26,2302.71 5304.26,2302.71L5305.28,2301.07C5307.19,2298.35 5307.18,2298.3 5309.81,2294.95C5311.09,2293.32 5312.41,2291.72 5313.72,2290.11C5313.72,2290.11 5313.74,2290.03 5313.76,2290.06L5313.76,2290.07L5313.76,2306.6ZM5248.23,2277.77C5245.13,2282.65 5244.83,2283.32 5241.88,2287.44C5241.15,2288.47 5239.55,2290.42 5238.67,2291.01C5234.18,2294.04 5227.9,2293.95 5223.39,2290.68L5222.14,2289.19C5220.14,2286.54 5220.08,2286.51 5217.71,2282.98C5216.55,2281.26 5215.44,2279.51 5214.31,2277.77C5214.31,2277.77 5220.34,2279.35 5220.34,2279.35C5223.48,2280.3 5226.94,2280.8 5229.7,2282.57C5231.28,2283.57 5233.48,2282.12 5233.48,2282.12L5235.13,2281.44C5237.65,2280.55 5238.13,2280.36 5241.3,2279.49C5243.59,2278.87 5245.9,2278.32 5248.2,2277.73C5248.2,2277.73 5248.31,2277.64 5248.23,2277.77ZM5138.19,2277.77C5135.1,2282.65 5134.79,2283.32 5131.85,2287.44C5131.11,2288.47 5129.51,2290.42 5128.63,2291.01C5124.14,2294.04 5117.87,2293.95 5113.36,2290.68L5112.11,2289.19C5110.11,2286.54 5110.05,2286.51 5107.68,2282.98C5106.52,2281.26 5105.41,2279.51 5104.27,2277.77C5104.27,2277.77 5110.31,2279.35 5110.31,2279.35C5113.44,2280.3 5116.91,2280.8 5119.66,2282.57C5121.24,2283.57 5123.44,2282.12 5123.44,2282.12L5125.09,2281.44C5127.62,2280.55 5128.09,2280.36 5131.27,2279.49C5133.56,2278.87 5135.86,2278.32 5138.16,2277.73C5138.16,2277.73 5138.27,2277.64 5138.19,2277.77ZM5193.19,2277.77C5190.09,2282.65 5189.78,2283.32 5186.84,2287.44C5186.11,2288.47 5184.5,2290.42 5183.63,2291.01C5179.14,2294.04 5172.86,2293.95 5168.35,2290.68L5167.1,2289.19C5165.1,2286.54 5165.04,2286.51 5162.67,2282.98C5161.51,2281.26 5160.4,2279.51 5159.27,2277.77C5159.27,2277.77 5165.3,2279.35 5165.3,2279.35C5168.44,2280.3 5171.9,2280.8 5174.65,2282.57C5176.24,2283.57 5178.43,2282.12 5178.43,2282.12L5180.08,2281.44C5182.61,2280.55 5183.08,2280.36 5186.26,2279.49C5188.55,2278.87 5190.86,2278.32 5193.16,2277.73C5193.16,2277.73 5193.26,2277.64 5193.19,2277.77ZM5303.22,2277.77C5300.13,2282.65 5299.82,2283.32 5296.88,2287.44C5296.14,2288.47 5294.54,2290.42 5293.66,2291.01C5289.18,2294.04 5282.9,2293.95 5278.39,2290.68L5277.14,2289.19C5275.14,2286.54 5275.08,2286.51 5272.7,2282.98C5271.55,2281.26 5270.44,2279.51 5269.3,2277.77C5269.3,2277.77 5275.34,2279.35 5275.34,2279.35C5278.47,2280.3 5281.94,2280.8 5284.69,2282.57C5286.28,2283.57 5288.47,2282.12 5288.47,2282.12L5290.12,2281.44C5292.65,2280.55 5293.12,2280.36 5296.3,2279.49C5298.59,2278.87 5300.9,2278.32 5303.19,2277.73C5303.19,2277.73 5303.3,2277.64 5303.22,2277.77ZM5231.03,2253.46C5229.38,2258.52 5224.81,2262.83 5218.94,2262.86C5218.94,2262.86 5216.74,2262.55 5214.65,2261.85C5209.85,2260.25 5209.21,2259.89 5203.83,2257.76C5203.83,2257.76 5210.45,2255.08 5210.45,2255.08C5213.49,2254.02 5215.74,2252.61 5218.91,2252.61C5220.57,2252.61 5221.77,2250.41 5221.77,2250.41L5222.79,2248.77C5224.69,2246.05 5224.69,2246 5227.32,2242.65C5228.6,2241.02 5229.92,2239.42 5231.23,2237.81C5231.23,2237.81 5231.25,2237.72 5231.26,2237.76C5231.27,2237.76 5231.29,2237.78 5231.31,2237.8C5234.99,2242.24 5235.54,2242.76 5238.54,2246.82C5239.3,2247.84 5240.63,2250.21 5240.97,2250.94C5241.62,2252.3 5243.8,2252.61 5243.8,2252.61L5245.67,2253.07C5248.85,2254.04 5248.89,2254.03 5252.89,2255.49C5254.84,2256.2 5256.77,2256.97 5258.7,2257.71C5258.7,2257.71 5252.89,2259.98 5252.89,2259.98C5249.89,2261.02 5246.88,2262.09 5243.77,2262.86C5238.16,2262.86 5232.84,2259.09 5231.08,2253.77C5231.08,2253.77 5231.06,2253.66 5231.03,2253.46ZM5176.24,2237.78C5176.25,2237.76 5176.26,2237.74 5176.27,2237.76C5176.28,2237.76 5176.29,2237.78 5176.32,2237.8C5179.99,2242.24 5180.55,2242.76 5183.55,2246.82C5184.31,2247.84 5185.63,2250.21 5185.98,2250.94C5186.63,2252.3 5188.8,2252.61 5188.8,2252.61L5190.68,2253.07C5193.85,2254.04 5193.9,2254.03 5197.9,2255.49C5199.85,2256.2 5201.77,2256.97 5203.71,2257.71C5203.71,2257.71 5197.89,2259.98 5197.89,2259.98C5194.89,2261.02 5191.88,2262.09 5188.78,2262.86L5188.73,2262.86L5188.73,2262.86C5183.12,2262.86 5177.8,2259.09 5176.04,2253.77C5176.04,2253.77 5176.02,2253.69 5176,2253.56C5174.33,2258.57 5169.78,2262.83 5163.94,2262.86L5163.94,2262.86L5163.9,2262.86C5163.9,2262.86 5161.7,2262.55 5159.61,2261.85C5154.81,2260.25 5154.17,2259.89 5148.79,2257.76C5148.79,2257.76 5155.41,2255.08 5155.41,2255.08C5158.45,2254.02 5160.7,2252.61 5163.87,2252.61C5165.53,2252.61 5166.72,2250.41 5166.72,2250.41L5167.75,2248.77C5169.65,2246.05 5169.65,2246 5172.28,2242.65C5173.56,2241.02 5174.88,2239.42 5176.18,2237.81C5176.18,2237.81 5176.21,2237.72 5176.22,2237.76C5176.23,2237.76 5176.23,2237.77 5176.24,2237.78ZM5286.02,2253.46C5284.38,2258.52 5279.8,2262.83 5273.93,2262.86C5273.93,2262.86 5271.73,2262.55 5269.64,2261.85C5264.84,2260.25 5264.2,2259.89 5258.82,2257.76C5258.82,2257.76 5265.44,2255.08 5265.44,2255.08C5268.48,2254.02 5270.74,2252.61 5273.91,2252.61C5275.56,2252.61 5276.76,2250.41 5276.76,2250.41L5277.78,2248.77C5279.69,2246.05 5279.69,2246 5282.31,2242.65C5283.6,2241.02 5284.92,2239.42 5286.22,2237.81C5286.22,2237.81 5286.24,2237.72 5286.26,2237.76C5286.27,2237.76 5286.28,2237.78 5286.3,2237.8C5289.98,2242.24 5290.54,2242.76 5293.54,2246.82C5294.3,2247.84 5295.62,2250.21 5295.96,2250.94C5296.62,2252.3 5298.79,2252.61 5298.79,2252.61L5300.67,2253.07C5303.84,2254.04 5303.89,2254.03 5307.89,2255.49C5309.83,2256.2 5311.76,2256.97 5313.7,2257.71C5313.7,2257.71 5307.88,2259.98 5307.88,2259.98C5304.88,2261.02 5301.87,2262.09 5298.76,2262.86C5293.16,2262.86 5287.83,2259.09 5286.07,2253.77C5286.07,2253.77 5286.05,2253.66 5286.02,2253.46ZM5120.99,2253.46C5119.35,2258.52 5114.77,2262.83 5108.9,2262.86C5108.9,2262.86 5106.7,2262.55 5104.61,2261.85C5099.81,2260.25 5099.17,2259.89 5093.79,2257.76C5093.79,2257.76 5100.41,2255.08 5100.41,2255.08C5103.45,2254.02 5105.71,2252.61 5108.88,2252.61C5110.53,2252.61 5111.73,2250.41 5111.73,2250.41L5112.75,2248.77C5114.66,2246.05 5114.65,2246 5117.28,2242.65C5118.56,2241.02 5119.89,2239.42 5121.19,2237.81C5121.19,2237.81 5121.21,2237.72 5121.23,2237.76C5121.24,2237.76 5121.25,2237.78 5121.27,2237.8C5124.95,2242.24 5125.51,2242.76 5128.51,2246.82C5129.27,2247.84 5130.59,2250.21 5130.93,2250.94C5131.59,2252.3 5133.76,2252.61 5133.76,2252.61L5135.64,2253.07C5138.81,2254.04 5138.86,2254.03 5142.86,2255.49C5144.8,2256.2 5146.73,2256.97 5148.67,2257.71C5148.67,2257.71 5142.85,2259.98 5142.85,2259.98C5139.85,2261.02 5136.84,2262.09 5133.73,2262.86C5128.13,2262.86 5122.8,2259.09 5121.04,2253.77C5121.04,2253.77 5121.02,2253.66 5120.99,2253.46ZM5093.73,2230.61C5094.9,2230.51 5095.94,2229.82 5095.94,2229.82L5097.59,2229.14C5100.12,2228.25 5100.59,2228.05 5103.77,2227.19C5106.06,2226.57 5108.37,2226.01 5110.67,2225.43C5110.67,2225.43 5110.77,2225.34 5110.7,2225.46C5107.6,2230.35 5107.29,2231.02 5104.35,2235.14C5103.61,2236.16 5102.01,2238.12 5101.13,2238.71C5098.95,2240.18 5096.35,2240.91 5093.73,2240.91L5093.73,2230.61ZM5275.73,2225.46C5272.63,2230.35 5272.32,2231.02 5269.38,2235.14C5268.65,2236.16 5267.04,2238.12 5266.16,2238.71C5261.68,2241.73 5255.4,2241.65 5250.89,2238.37L5249.64,2236.89C5247.64,2234.24 5247.58,2234.21 5245.21,2230.68C5244.05,2228.96 5242.94,2227.2 5241.81,2225.47C5241.81,2225.47 5247.84,2227.05 5247.84,2227.05C5250.98,2227.99 5254.44,2228.49 5257.19,2230.27C5258.78,2231.27 5260.97,2229.82 5260.97,2229.82L5262.62,2229.14C5265.15,2228.25 5265.62,2228.05 5268.8,2227.19C5271.09,2226.57 5273.4,2226.01 5275.7,2225.43C5275.7,2225.43 5275.8,2225.34 5275.73,2225.46ZM5165.69,2225.46C5162.59,2230.35 5162.29,2231.02 5159.34,2235.14C5158.61,2236.16 5157.01,2238.12 5156.13,2238.71C5151.64,2241.73 5145.37,2241.65 5140.85,2238.37L5139.6,2236.89C5137.6,2234.24 5137.55,2234.21 5135.17,2230.68C5134.01,2228.96 5132.9,2227.2 5131.77,2225.47C5131.77,2225.47 5137.81,2227.05 5137.81,2227.05C5140.94,2227.99 5144.4,2228.49 5147.16,2230.27C5148.74,2231.27 5150.94,2229.82 5150.94,2229.82L5152.59,2229.14C5155.11,2228.25 5155.59,2228.05 5158.76,2227.19C5161.05,2226.57 5163.36,2226.01 5165.66,2225.43C5165.66,2225.43 5165.77,2225.34 5165.69,2225.46ZM5220.73,2225.46C5217.64,2230.35 5217.33,2231.02 5214.39,2235.14C5213.65,2236.16 5212.05,2238.12 5211.17,2238.71C5206.68,2241.73 5200.41,2241.65 5195.9,2238.37L5194.65,2236.89C5192.65,2234.24 5192.59,2234.21 5190.21,2230.68C5189.06,2228.96 5187.95,2227.2 5186.81,2225.47C5186.81,2225.47 5192.85,2227.05 5192.85,2227.05C5195.98,2227.99 5199.44,2228.49 5202.2,2230.27C5203.78,2231.27 5205.98,2229.82 5205.98,2229.82L5207.63,2229.14C5210.16,2228.25 5210.63,2228.05 5213.8,2227.19C5216.09,2226.57 5218.4,2226.01 5220.7,2225.43C5220.7,2225.43 5220.81,2225.34 5220.73,2225.46ZM5313.76,2240.91C5310.99,2240.9 5308.2,2240.06 5305.88,2238.37L5304.63,2236.89C5302.63,2234.24 5302.58,2234.21 5300.2,2230.68C5299.04,2228.96 5297.93,2227.2 5296.8,2225.47C5296.8,2225.47 5302.84,2227.05 5302.84,2227.05C5305.97,2227.99 5309.43,2228.49 5312.19,2230.27C5312.68,2230.58 5313.23,2230.66 5313.76,2230.61L5313.76,2240.91ZM5231.03,2201.16C5229.38,2206.21 5224.81,2210.53 5218.94,2210.56C5218.94,2210.56 5216.74,2210.25 5214.65,2209.55C5209.85,2207.95 5209.21,2207.59 5203.83,2205.46C5203.83,2205.46 5210.45,2202.78 5210.45,2202.78C5213.49,2201.72 5215.74,2200.31 5218.91,2200.3C5220.57,2200.3 5221.77,2198.11 5221.77,2198.11L5222.79,2196.47C5224.69,2193.75 5224.69,2193.7 5227.32,2190.35C5228.6,2188.72 5229.92,2187.12 5231.23,2185.5C5231.23,2185.5 5231.25,2185.42 5231.26,2185.46C5231.27,2185.46 5231.29,2185.48 5231.31,2185.5C5234.99,2189.94 5235.54,2190.46 5238.54,2194.51C5239.3,2195.54 5240.63,2197.91 5240.97,2198.64C5241.62,2200 5243.8,2200.3 5243.8,2200.3L5245.67,2200.77C5248.85,2201.74 5248.89,2201.72 5252.89,2203.19C5254.84,2203.9 5256.77,2204.67 5258.7,2205.41C5258.7,2205.41 5252.89,2207.68 5252.89,2207.68C5249.89,2208.72 5246.88,2209.79 5243.77,2210.56C5238.16,2210.56 5232.84,2206.79 5231.08,2201.46C5231.08,2201.46 5231.06,2201.35 5231.03,2201.16ZM5120.99,2201.16C5119.35,2206.21 5114.77,2210.53 5108.9,2210.56C5108.9,2210.56 5106.7,2210.25 5104.61,2209.55C5099.81,2207.95 5099.17,2207.59 5093.79,2205.46C5093.79,2205.46 5100.41,2202.78 5100.41,2202.78C5103.45,2201.72 5105.71,2200.31 5108.88,2200.3C5110.53,2200.3 5111.73,2198.11 5111.73,2198.11L5112.75,2196.47C5114.66,2193.75 5114.65,2193.7 5117.28,2190.35C5118.56,2188.72 5119.89,2187.12 5121.19,2185.5C5121.19,2185.5 5121.21,2185.42 5121.23,2185.46C5121.24,2185.46 5121.25,2185.48 5121.27,2185.5C5124.95,2189.94 5125.51,2190.46 5128.51,2194.51C5129.27,2195.54 5130.59,2197.91 5130.93,2198.64C5131.59,2200 5133.76,2200.3 5133.76,2200.3L5135.64,2200.77C5138.81,2201.74 5138.86,2201.72 5142.86,2203.19C5144.8,2203.9 5146.73,2204.67 5148.67,2205.41C5148.67,2205.41 5142.85,2207.68 5142.85,2207.68C5139.85,2208.72 5136.84,2209.79 5133.73,2210.56C5128.13,2210.56 5122.8,2206.79 5121.04,2201.46C5121.04,2201.46 5121.02,2201.35 5120.99,2201.16ZM5286.02,2201.16C5284.38,2206.21 5279.8,2210.53 5273.93,2210.56C5273.93,2210.56 5271.73,2210.25 5269.64,2209.55C5264.84,2207.95 5264.2,2207.59 5258.82,2205.46C5258.82,2205.46 5265.44,2202.78 5265.44,2202.78C5268.48,2201.72 5270.74,2200.31 5273.91,2200.3C5275.56,2200.3 5276.76,2198.11 5276.76,2198.11L5277.78,2196.47C5279.69,2193.75 5279.69,2193.7 5282.31,2190.35C5283.6,2188.72 5284.92,2187.12 5286.22,2185.5C5286.22,2185.5 5286.24,2185.42 5286.26,2185.46C5286.27,2185.46 5286.28,2185.48 5286.3,2185.5C5289.98,2189.94 5290.54,2190.46 5293.54,2194.51C5294.3,2195.54 5295.62,2197.91 5295.96,2198.64C5296.62,2200 5298.79,2200.3 5298.79,2200.3L5300.67,2200.77C5303.84,2201.74 5303.89,2201.72 5307.89,2203.19C5309.83,2203.9 5311.76,2204.67 5313.7,2205.41C5313.7,2205.41 5307.88,2207.68 5307.88,2207.68C5304.88,2208.72 5301.87,2209.79 5298.76,2210.56C5293.16,2210.56 5287.83,2206.79 5286.07,2201.46C5286.07,2201.46 5286.05,2201.35 5286.02,2201.16ZM5176.24,2185.47C5176.25,2185.45 5176.26,2185.44 5176.27,2185.46C5176.28,2185.46 5176.29,2185.48 5176.32,2185.5C5179.99,2189.94 5180.55,2190.46 5183.55,2194.51C5184.31,2195.54 5185.63,2197.91 5185.98,2198.64C5186.63,2200 5188.8,2200.3 5188.8,2200.3L5190.68,2200.77C5193.85,2201.74 5193.9,2201.72 5197.9,2203.19C5199.85,2203.9 5201.77,2204.67 5203.71,2205.41C5203.71,2205.41 5197.89,2207.68 5197.89,2207.68C5194.89,2208.72 5191.88,2209.79 5188.78,2210.56L5188.73,2210.56L5188.73,2210.56C5183.12,2210.56 5177.8,2206.79 5176.04,2201.46C5176.04,2201.46 5176.02,2201.39 5176,2201.25C5174.33,2206.27 5169.78,2210.53 5163.94,2210.56L5163.94,2210.56L5163.9,2210.56C5163.9,2210.56 5161.7,2210.25 5159.61,2209.55C5154.81,2207.95 5154.17,2207.59 5148.79,2205.46C5148.79,2205.46 5155.41,2202.78 5155.41,2202.78C5158.45,2201.72 5160.7,2200.31 5163.87,2200.3C5165.53,2200.3 5166.72,2198.11 5166.72,2198.11L5167.75,2196.47C5169.65,2193.75 5169.65,2193.7 5172.28,2190.35C5173.56,2188.72 5174.88,2187.12 5176.18,2185.5C5176.18,2185.5 5176.21,2185.42 5176.22,2185.46C5176.23,2185.46 5176.23,2185.47 5176.24,2185.47ZM5110.72,2173.11C5110.72,2173.12 5110.71,2173.13 5110.7,2173.16C5107.6,2178.05 5107.29,2178.72 5104.35,2182.83C5103.61,2183.86 5102.01,2185.82 5101.13,2186.41C5098.95,2187.88 5096.35,2188.61 5093.73,2188.6L5093.73,2178.31C5094.9,2178.2 5095.94,2177.51 5095.94,2177.51L5097.59,2176.84C5100.12,2175.95 5100.59,2175.75 5103.77,2174.89C5106.06,2174.26 5108.37,2173.71 5110.67,2173.12C5110.67,2173.12 5110.68,2173.11 5110.69,2173.11L5110.72,2173.11ZM5275.75,2173.11C5275.75,2173.12 5275.74,2173.13 5275.73,2173.16C5272.63,2178.05 5272.32,2178.72 5269.38,2182.83C5268.65,2183.86 5267.04,2185.82 5266.16,2186.41C5261.68,2189.43 5255.4,2189.35 5250.89,2186.07L5249.64,2184.59C5247.64,2181.93 5247.58,2181.91 5245.21,2178.38C5244.05,2176.65 5242.94,2174.9 5241.81,2173.16C5241.81,2173.16 5247.84,2174.74 5247.84,2174.74C5250.98,2175.69 5254.44,2176.19 5257.19,2177.97C5258.78,2178.97 5260.97,2177.51 5260.97,2177.51L5262.62,2176.84C5265.15,2175.95 5265.62,2175.75 5268.8,2174.89C5271.09,2174.26 5273.4,2173.71 5275.7,2173.12C5275.7,2173.12 5275.71,2173.11 5275.72,2173.11L5275.75,2173.11ZM5220.76,2173.11C5220.76,2173.12 5220.75,2173.13 5220.73,2173.16C5217.64,2178.05 5217.33,2178.72 5214.39,2182.83C5213.65,2183.86 5212.05,2185.82 5211.17,2186.41C5206.68,2189.43 5200.41,2189.35 5195.9,2186.07L5194.65,2184.59C5192.65,2181.93 5192.59,2181.91 5190.21,2178.38C5189.06,2176.65 5187.95,2174.9 5186.81,2173.16C5186.81,2173.16 5192.85,2174.74 5192.85,2174.74C5195.98,2175.69 5199.44,2176.19 5202.2,2177.97C5203.78,2178.97 5205.98,2177.51 5205.98,2177.51L5207.63,2176.84C5210.16,2175.95 5210.63,2175.75 5213.8,2174.89C5216.09,2174.26 5218.4,2173.71 5220.7,2173.12C5220.7,2173.12 5220.71,2173.11 5220.72,2173.11L5220.76,2173.11ZM5165.72,2173.11C5165.72,2173.12 5165.71,2173.13 5165.69,2173.16C5162.59,2178.05 5162.29,2178.72 5159.34,2182.83C5158.61,2183.86 5157.01,2185.82 5156.13,2186.41C5151.64,2189.43 5145.37,2189.35 5140.85,2186.07L5139.6,2184.59C5137.6,2181.93 5137.55,2181.91 5135.17,2178.38C5134.01,2176.65 5132.9,2174.9 5131.77,2173.16C5131.77,2173.16 5137.81,2174.74 5137.81,2174.74C5140.94,2175.69 5144.4,2176.19 5147.16,2177.97C5148.74,2178.97 5150.94,2177.51 5150.94,2177.51L5152.59,2176.84C5155.11,2175.95 5155.59,2175.75 5158.76,2174.89C5161.05,2174.26 5163.36,2173.71 5165.66,2173.12C5165.66,2173.12 5165.67,2173.11 5165.68,2173.11L5165.72,2173.11ZM5313.76,2188.6C5310.99,2188.6 5308.2,2187.76 5305.88,2186.07L5304.63,2184.59C5302.63,2181.93 5302.58,2181.91 5300.2,2178.38C5299.04,2176.65 5297.93,2174.9 5296.8,2173.16C5296.8,2173.16 5302.84,2174.74 5302.84,2174.74C5305.97,2175.69 5309.43,2176.19 5312.19,2177.97C5312.68,2178.28 5313.23,2178.35 5313.76,2178.31L5313.76,2188.6Z"/>
            </g>
        </g>
    </g>
</svg>
