<svg xmlns="http://www.w3.org/2000/svg" xmlns:xlink="http://www.w3.org/1999/xlink" viewBox="0 0 545.81 470.75"><defs><style>.cls-1,.cls-10,.cls-11,.cls-12,.cls-13,.cls-14,.cls-15,.cls-16,.cls-17,.cls-20,.cls-21,.cls-22,.cls-23,.cls-24,.cls-25,.cls-26,.cls-5,.cls-6,.cls-7,.cls-8,.cls-9{fill:none;}.cls-2{fill:#dcebf2;}.cls-3,.cls-33{opacity:0.7;}.cls-3{fill:url(#New_Pattern);}.cls-19,.cls-28,.cls-4{fill:#fff;}.cls-10,.cls-11,.cls-12,.cls-13,.cls-14,.cls-15,.cls-16,.cls-17,.cls-18,.cls-19,.cls-20,.cls-21,.cls-22,.cls-23,.cls-24,.cls-25,.cls-26,.cls-27,.cls-28,.cls-29,.cls-5,.cls-6,.cls-7,.cls-8,.cls-9{stroke:#2583b0;}.cls-18,.cls-19,.cls-20,.cls-21,.cls-25,.cls-28,.cls-29,.cls-5{stroke-miterlimit:10;}.cls-15,.cls-18,.cls-27,.cls-5{stroke-width:7.5px;}.cls-6{stroke-width:5.46px;}.cls-11,.cls-12,.cls-13,.cls-14,.cls-17,.cls-20,.cls-28,.cls-29,.cls-7{stroke-width:1.36px;}.cls-8{stroke-width:1.11px;}.cls-9{stroke-width:1.42px;}.cls-10{stroke-width:1.36px;}.cls-11{stroke-dasharray:6.78 6.78 6.78 6.78;}.cls-12{stroke-dasharray:6.78 6.78 6.78 6.78 6.78 6.78;}.cls-13{stroke-dasharray:1.56 1.56 1.56 1.56;}.cls-14{stroke-dasharray:5.19 5.19 5.19 5.19;}.cls-16{stroke-width:1.66px;}.cls-17{stroke-dasharray:5.46 5.46 5.46 5.46 5.46 5.46;}.cls-18,.cls-29{fill:#f6eedc;}.cls-19{stroke-width:1.37px;}.cls-21{stroke-width:1.37px;}.cls-22{stroke-width:1.28px;}.cls-23{stroke-width:1.26px;}.cls-24{stroke-width:1.65px;}.cls-25{stroke-width:13.79px;}.cls-26{stroke-width:1.16px;}.cls-27,.cls-32{fill:#8b5e3c;}.cls-30{fill:#2583b0;}.cls-31{fill:#a97c50;}.cls-34{fill:#eee9e1;}</style><pattern id="New_Pattern" data-name="New Pattern" x="-2.67" y="-5.47" width="54" height="54" patternUnits="userSpaceOnUse" viewBox="0 0 54 54"><rect class="cls-1" width="54" height="54"/><path class="cls-2" d="M48.75,59.06A1,1,0,0,1,48,60.47c-.87.13-2,.41-2,.85a3.32,3.32,0,0,1-2.47,3,14.9,14.9,0,0,1,5.17-5.37c.24-.17-.05-.94.15-1.34.65-1.33,2.65.12,2.84-2.29,0-.24-.41-.5-.66-.75,2.11.6,1.86-2.13,3.75-2.25v1.5a3.65,3.65,0,0,0-2.26.74C50.18,55.69,52.58,58.6,48.75,59.06Z"/><path class="cls-2" d="M22.58,55.48c-.76.5-1.32,4.69-2.07,5.25-.29.22-.75.69-.75.94,0,.5-.27.44-.27.94,0,1-.74,2.31-2.11,2-.37-.08-.67-1,1.37-2.15.22-.13,0-.91.14-1.34,2-5.28,3.87-9.6,4.44-8.28Z"/><path class="cls-2" d="M28.33,56.49a3.85,3.85,0,0,1-.44-1.24l-3.28.67c-.9-1,1.11-1.39,2.49-2.05a24,24,0,0,1,2.7-1.42C29.62,53.55,28.65,55.17,28.33,56.49Z"/><path class="cls-2" d="M48.75,59.06A1,1,0,0,1,48,60.47c-.87.13-2,.41-2,.85a3.32,3.32,0,0,1-2.47,3,14.9,14.9,0,0,1,5.17-5.37c.24-.17-.05-.94.15-1.34.65-1.33,2.65.12,2.84-2.29,0-.24-.41-.5-.66-.75,2.11.6,1.86-2.13,3.75-2.25v1.5a3.65,3.65,0,0,0-2.26.74C50.18,55.69,52.58,58.6,48.75,59.06Z"/><path class="cls-2" d="M3.94,60.56c-.35-2,2.65-5.84,3.56-7.5a1.83,1.83,0,0,1,.25,1.69c-.38,2-2.63,3.29-2.61,5.85-.57.94-.5,1.56-2.14,1.46Z"/><path class="cls-2" d="M11.44,55.31a3.35,3.35,0,0,0-.75-2.25,1,1,0,0,1,1.39.76A3.51,3.51,0,0,1,11.44,55.31Z"/><path class="cls-2" d="M2.25,55.13C.46,54.89,2,53.54,1.5,52.88,3.69,53,.93,54.73,2.25,55.13Z"/><path class="cls-2" d="M13.6,56.2c1.65-1.24,2.27-4.91,4.15-5.7-1.52,1.15-1.67,4.89-2.88,6.19-2.32,2.49-5.58,3.82-7.29,6.92-.62,1.12.7,2.71-.83,3.7-.26-2.43-.23-5,1.66-6.55S11.61,57.69,13.6,56.2Z"/><path class="cls-2" d="M36.5,55.75c-.44.49-1.18-.08-1.32-.68-.23-1-1.2-2.6-.08-3a3.77,3.77,0,0,0,3,.75C35.52,52.8,37.22,55,36.5,55.75Z"/><path class="cls-2" d="M44,56.45c.16.3.75-.1,1-.45-1.06-.61.11-2.17-1.2-2.39-.48-.09-1,.48-1.72.38C42.65,55.09,43.36,55.32,44,56.45Z"/><path class="cls-2" d="M-5.25,59.06A1,1,0,0,1-6,60.47c-.87.13-2,.41-2,.85a3.32,3.32,0,0,1-2.47,3,14.9,14.9,0,0,1,5.17-5.37c.24-.17,0-.94.15-1.34.65-1.33,2.65.12,2.84-2.29,0-.24-.41-.5-.66-.75,2.11.6,1.86-2.13,3.75-2.25v1.5a3.65,3.65,0,0,0-2.26.74C-3.82,55.69-1.42,58.6-5.25,59.06Z"/><path class="cls-2" d="M-5.25,59.06A1,1,0,0,1-6,60.47c-.87.13-2,.41-2,.85a3.32,3.32,0,0,1-2.47,3,14.9,14.9,0,0,1,5.17-5.37c.24-.17,0-.94.15-1.34.65-1.33,2.65.12,2.84-2.29,0-.24-.41-.5-.66-.75,2.11.6,1.86-2.13,3.75-2.25v1.5a3.65,3.65,0,0,0-2.26.74C-3.82,55.69-1.42,58.6-5.25,59.06Z"/><path class="cls-2" d="M48.75,59.06A1,1,0,0,1,48,60.47c-.87.13-2,.41-2,.85a3.32,3.32,0,0,1-2.47,3,14.9,14.9,0,0,1,5.17-5.37c.24-.17-.05-.94.15-1.34.65-1.33,2.65.12,2.84-2.29,0-.24-.41-.5-.66-.75,2.11.6,1.86-2.13,3.75-2.25v1.5a3.65,3.65,0,0,0-2.26.74C50.18,55.69,52.58,58.6,48.75,59.06Z"/><path class="cls-2" d="M53.27,43.18c.83-.31,1.72.69,2.13.49,2.15-1,2-3.56,4.68-1.39,0,0,.61-.43.57-.64-.12-.76-.91-1.41-.6-2.25.21-.58.8-.7,1.41-.9,1.86-.62-.47-2.49,2.19-3.82.3-.15.33-1.41,0-2-.79-1.26-2.34-.79-3.63-.82a3.59,3.59,0,0,0,3-1.5l-.75,1.5,3,1.5c-.5.25-1.23.4-1.38.79-.35.87.15,2.08-.26,2.89-.1.2-1-.1-1.26.15-1.22,1.43-.6,4-1.83,4.85-2,1.41-6.05.95-7,4.14-.17.56,1.14,1.27,2,1.32s1.85-.67,2.24-2.14a2,2,0,0,0,.81,2.09c1.47.57,1.36-2.45,2.9-2a1.4,1.4,0,0,1,.66,1.33c-.12.38-.87.71-1.37.71-.25,0-.59-.62-.71-.56-1.53.66-3.58.47-4.47,2.18a3.4,3.4,0,0,0-.07,1.47c-.82-.06-2.15.28-2.06-.74s1-2,.46-3c-.21-.41-.9-.55-1.4-.8Z"/><path class="cls-2" d="M54.75,34.13c-1.59.17-.68-.91-.75-1.5Z"/><path class="cls-2" d="M54.38,9.38c-.11,2.44-.18,1.64-2.63,2.43.5-.25,2-.94,2.1-1.32.24-.78-.08-1.13.32-1.83-.18-.75-1.48-.75-.79-1.78,1-1.53.21-3.75,2.13-4.54.43-.18.24.47.74.47C56.25,4.88,54.47,7.16,54.38,9.38Z"/><path class="cls-2" d="M52.5,37.31c.52-1.46,1.83-1.34,3-1.5C54.77,36.85,53.6,37,52.5,37.31Z"/><path class="cls-2" d="M48.75,5.06A1,1,0,0,1,48,6.47c-.87.13-2,.41-2,.85a3.32,3.32,0,0,1-2.47,3,14.9,14.9,0,0,1,5.17-5.37c.24-.17-.05-.94.15-1.34.65-1.33,2.65.12,2.84-2.29,0-.24-.41-.5-.66-.75,2.11.6,1.86-2.13,3.75-2.25v1.5a3.65,3.65,0,0,0-2.26.74C50.18,1.69,52.58,4.6,48.75,5.06Z"/><path class="cls-2" d="M54.6,22.29c-.14.87-1.78,1.1-1.83,1.55-.22,1.86-.91,2.24-1.77,3.72-.25-.25-.67-.49-.67-.75,0-1,1.48-1.57,1.77-2.39.89-2.45.71-6.23,1.28-7.17.16.09,1.36-1.25,1.75-1.62Z"/><path class="cls-2" d="M55.5,50.63c-.82-.06-2.15.28-2.06-.74s1-2,.46-3c-.21-.41-.9-.55-1.4-.8-.81,2.27-3.32,3.35-3.8,6-.14.76-.51,2.1-1.28,1.34s1.1-1,1.12-1.35c.16-2.91,1.88-4.94,3.78-6.91.38-.38,0-1.65,1-2,.83-.31,1.72.69,2.13.49l-.06.33a3.65,3.65,0,0,0-1.84,2.2c-.17.56,1.14,1.27,2,1.32Z"/><path class="cls-2" d="M22.58,55.48c-.76.5-1.32,4.69-2.07,5.25-.29.22-.75.69-.75.94,0,.5-.27.44-.27.94,0,1-.74,2.31-2.11,2-.37-.08-.67-1,1.37-2.15.22-.13,0-.91.14-1.34,2-5.28,3.87-9.6,4.44-8.28Z"/><path class="cls-2" d="M28.33,56.49a3.85,3.85,0,0,1-.44-1.24l-3.28.67c-.9-1,1.11-1.39,2.49-2.05a24,24,0,0,1,2.7-1.42C29.62,53.55,28.65,55.17,28.33,56.49Z"/><path class="cls-2" d="M48.75,59.06A1,1,0,0,1,48,60.47c-.87.13-2,.41-2,.85a3.32,3.32,0,0,1-2.47,3,14.9,14.9,0,0,1,5.17-5.37c.24-.17-.05-.94.15-1.34.65-1.33,2.65.12,2.84-2.29,0-.24-.41-.5-.66-.75,2.11.6,1.86-2.13,3.75-2.25v1.5a3.65,3.65,0,0,0-2.26.74C50.18,55.69,52.58,58.6,48.75,59.06Z"/><path class="cls-2" d="M3.94,60.56c-.35-2,2.65-5.84,3.56-7.5a1.83,1.83,0,0,1,.25,1.69c-.38,2-2.63,3.29-2.61,5.85-.57.94-.5,1.56-2.14,1.46Z"/><path class="cls-2" d="M11.44,55.31a3.35,3.35,0,0,0-.75-2.25,1,1,0,0,1,1.39.76A3.51,3.51,0,0,1,11.44,55.31Z"/><path class="cls-2" d="M2.25,55.13C.46,54.89,2,53.54,1.5,52.88,3.69,53,.93,54.73,2.25,55.13Z"/><path class="cls-2" d="M13.6,56.2c1.65-1.24,2.27-4.91,4.15-5.7-1.52,1.15-1.67,4.89-2.88,6.19-2.32,2.49-5.58,3.82-7.29,6.92-.62,1.12.7,2.71-.83,3.7-.26-2.43-.23-5,1.66-6.55S11.61,57.69,13.6,56.2Z"/><path class="cls-2" d="M36.5,55.75c-.44.49-1.18-.08-1.32-.68-.23-1-1.2-2.6-.08-3a3.77,3.77,0,0,0,3,.75C35.52,52.8,37.22,55,36.5,55.75Z"/><path class="cls-2" d="M44,56.45c.16.3.75-.1,1-.45-1.06-.61.11-2.17-1.2-2.39-.48-.09-1,.48-1.72.38C42.65,55.09,43.36,55.32,44,56.45Z"/><path class="cls-2" d="M-5.25,59.06A1,1,0,0,1-6,60.47c-.87.13-2,.41-2,.85a3.32,3.32,0,0,1-2.47,3,14.9,14.9,0,0,1,5.17-5.37c.24-.17,0-.94.15-1.34.65-1.33,2.65.12,2.84-2.29,0-.24-.41-.5-.66-.75,2.11.6,1.86-2.13,3.75-2.25v1.5a3.65,3.65,0,0,0-2.26.74C-3.82,55.69-1.42,58.6-5.25,59.06Z"/><path class="cls-2" d="M53.27,43.18c.83-.31,1.72.69,2.13.49,2.15-1,2-3.56,4.68-1.39,0,0,.61-.43.57-.64-.12-.76-.91-1.41-.6-2.25.21-.58.8-.7,1.41-.9,1.86-.62-.47-2.49,2.19-3.82.3-.15.33-1.41,0-2-.79-1.26-2.34-.79-3.63-.82a3.59,3.59,0,0,0,3-1.5l-.75,1.5,3,1.5c-.5.25-1.23.4-1.38.79-.35.87.15,2.08-.26,2.89-.1.2-1-.1-1.26.15-1.22,1.43-.6,4-1.83,4.85-2,1.41-6.05.95-7,4.14-.17.56,1.14,1.27,2,1.32s1.85-.67,2.24-2.14a2,2,0,0,0,.81,2.09c1.47.57,1.36-2.45,2.9-2a1.4,1.4,0,0,1,.66,1.33c-.12.38-.87.71-1.37.71-.25,0-.58-.62-.71-.56-1.53.66-3.58.47-4.47,2.18a3.4,3.4,0,0,0-.07,1.47c-.82-.06-2.15.28-2.06-.74s1-2,.46-3c-.21-.41-.9-.55-1.4-.8Z"/><path class="cls-2" d="M54.75,34.13c-1.59.17-.68-.91-.75-1.5Z"/><path class="cls-2" d="M54.38,9.38c-.11,2.44-.18,1.64-2.63,2.43.5-.25,2-.94,2.1-1.32.24-.78-.08-1.13.32-1.83-.18-.75-1.48-.75-.79-1.78,1-1.53.21-3.75,2.13-4.54.43-.18.24.47.74.47C56.25,4.88,54.47,7.16,54.38,9.38Z"/><path class="cls-2" d="M52.5,37.31c.52-1.46,1.83-1.34,3-1.5C54.77,36.85,53.6,37,52.5,37.31Z"/><path class="cls-2" d="M5.63,29.06a2.35,2.35,0,0,1-.75,0,5,5,0,0,1,1.5-2.25c.26.5.75,1.08.63,1.46S6.16,28.89,5.63,29.06Z"/><path class="cls-2" d="M22.58,1.48c-.76.5-1.32,4.69-2.07,5.25-.29.22-.75.69-.75.94,0,.5-.27.44-.27.94,0,1-.74,2.31-2.11,2-.37-.08-.67-1,1.37-2.15.22-.13,0-.91.14-1.34,2-5.28,3.87-9.6,4.44-8.28Z"/><path class="cls-2" d="M14.26,10c-.71-.25-1.69-1.08-1.59-1.33.92-2.32,1.82-3.3,2.75-3.34s-1.21,1.44-1.7,2.47,1.94,2.48,1.52,3.09S14.78,10.57,14.26,10Z"/><path class="cls-2" d="M12,11.06c-.58,1.92-.39,2.11-3,3,.76-.23.56.06.75-2.25C9.77,11.52,11.5,11.31,12,11.06Z"/><path class="cls-2" d="M9.73,20.06c-.2.52-.45,1.32-.74,1.34-2,.19-2.41,1.72-3,3.16,1.3.36,2.23,1.67,3.75,1.5-.7.41-1.49,1.14-2.17.64-.25-.18,0-1.18-.13-1.24-2.87-1-2.15-3.13-.58-4.51.16-.15,1,.63,1.3.47,1.26-.71-.48-4.54.83-3.61.65.7,1.68,1.46,2.83-.12.5-.68.17-1.88.17-2.88.38-.75,2.06-.32,2.1.76C14.19,18.15,10.64,17.76,9.73,20.06Z"/><path class="cls-2" d="M18.74,17.8c-.23.29-.49.68-.74.68s-.5-.42-.75-.67c.5-.25,1.32-.47,1.34-.76.12-1.46-.23-3.15-2.09-3.74C19.54,12.4,20.38,15.74,18.74,17.8Z"/><path class="cls-2" d="M21.92,19.33c.31-3.9-.54-6,3.58-4.52.94,1.32-1.82.21-2.12.82-.15.31,1.68,1,1.56,1.43s-2.11.39-2.35.81c-.43.75.25,1.5.66,2.19C22.75,19.81,21.91,19.54,21.92,19.33Z"/><path class="cls-2" d="M26.21,20c-.13.05-.46-.4-.71-.65.8-.42,1.3-2.11,2.08-1.33S27,20.25,26.21,20Z"/><path class="cls-2" d="M15.5,26.75c-.44.49-1.18-.08-1.32-.68-.23-1-1.2-2.6-.08-3a3.77,3.77,0,0,0,3,.75C14.52,23.8,16.22,26,15.5,26.75Z"/><path class="cls-2" d="M31,16.13c2.79-.38,3-2.79,4.58-4.23.27-.26,1,.08,1.35-.17a2.84,2.84,0,0,0,.82-2.92C39,10.47,40.38,8.19,41.3,9c1.68,1.53,1.51,4,4,5-.39,1.91-2.09,2.94-3,4.5.81-2.62,2.84-5.43-.75-6.75.25-.25.67-.5.67-.75a1.67,1.67,0,0,0-.72-1.38,2.24,2.24,0,0,0-2.84.69c-1,1.78-1.51,1.92-2.89,3.18-.67.62,0,2.41-1,3.51-.25-.25-.63-.83-.73-.65-1,1.78-2.27,1.59-2.64.47Z"/><path class="cls-2" d="M30.43,12.32h0c-.19-.15-1.25.41-1.27.69-.08,1.62-.38,3.27-2.41,3,2.41-2,3.1-4.92,4.41-7.55.44-.89-2.66-3.14-1.41-3.89L32,5.5c.65-.7,1.42-1.16,3,0-1.07,0-2.33-.2-2.89.81C31.18,8,32,8.89,31.84,10.74c0,.29-1.07.42-1.22.8A2.68,2.68,0,0,0,30.43,12.32Z"/><path class="cls-2" d="M28.33,2.49a3.85,3.85,0,0,1-.44-1.24l-3.28.67c-.9-1,1.11-1.39,2.49-2a24,24,0,0,1,2.7-1.42C29.62-.45,28.65,1.17,28.33,2.49Z"/><path class="cls-2" d="M38.25,41.06c.48-1.06,1.43-.69,2.25-.75C40,41.25,39.14,41.23,38.25,41.06Z"/><path class="cls-2" d="M47.57,2.07c-.46,4.31-.57,0-.82,0,.71-.28,1.75-.24,1.5-1.5A4.83,4.83,0,0,0,47.57,2.07Z"/><path class="cls-2" d="M48.75,5.06A1,1,0,0,1,48,6.47c-.87.13-2,.41-2,.85a3.32,3.32,0,0,1-2.47,3,14.9,14.9,0,0,1,5.17-5.37c.24-.17-.05-.94.15-1.34.65-1.33,2.65.12,2.84-2.29,0-.24-.41-.5-.66-.75,2.11.6,1.86-2.13,3.75-2.25v1.5a3.65,3.65,0,0,0-2.26.74C50.18,1.69,52.58,4.6,48.75,5.06Z"/><path class="cls-2" d="M50.94,11.05c-.2.91-.59,2-1.47,2.12-.69.13-1.47,1.07-2.22-1.36,2.33.75,3-1.21,3.75-3A9.85,9.85,0,0,1,50.94,11.05Z"/><path class="cls-2" d="M47.32,18.6a3.35,3.35,0,0,0-.07,1.46,2.41,2.41,0,0,1-.58-2.87c.28-.38,1.33-.13,2.08-.13A6.9,6.9,0,0,0,47.32,18.6Z"/><path class="cls-2" d="M34.75,22.31c0-.49.26-1.24.06-1.36-.77-.48-1.91-.32-2.9-.42.27-.23.51-.55.83-.62.86-.22,1.72.86,2,.69,2-1.12,4.17-4.7,5.79-6.33.23.28-1,2.61-1,2.67C37.74,19.18,36.48,20.15,34.75,22.31Z"/><path class="cls-2" d="M38.78,24.23c-.66-.43-2-.4-1.34-1.47,1.28-2.15,4.12-2.17,5.87-3.82.44,2.11,3.16,1.61,4.42,3.07.25.3,0,.93.12,1.42.18.77.21,1.76,1.46,1.51l-.75.75c-1.33-2-1.62.21-3,0,.5-.25,1.26-.42,1.37-.79a3.37,3.37,0,0,0-.65-3.67c-.41-.37-1.11-.81-1.39-.65-.9.5-1,1.74-.83,2.86-1.22-1.13-1.78-3.79-3.62-2.78a10.4,10.4,0,0,0-2.15,2.22c-1.09,1.33,2.43.94,2,2.81A9.62,9.62,0,0,0,38.78,24.23Z"/><path class="cls-2" d="M31.85,24.51c.14.18,1-.3,1.25-.09.46.47,1.83,1.12,2,1.86.45-.35,1.18-.67,1.18-1,0-1-2.46-1.16-3.88-1.65a2.09,2.09,0,0,1-1.22-1.94C31.35,22.64,31.29,23.8,31.85,24.51Z"/><path class="cls-2" d="M28.41,24.09c.49,1.61-.85,1.1-1.41.16-.37-.94-.92-3.74,1.5-3.85.24,0,.5.41.75.66C28.72,21.51,26.7,18.5,28.41,24.09Z"/><path class="cls-2" d="M3.94,6.56C3.59,4.61,6.59.72,7.5-.94A1.83,1.83,0,0,1,7.75.75C7.37,2.73,5.12,4,5.14,6.6c-.57.94-.5,1.56-2.14,1.46Z"/><path class="cls-2" d="M1.25,14.38c2.29-1.27,0-1.4,2.69-2.57,1.31.38,1.6,2,1.69,3.38,0,.32-.38,1.37-.38,1.87-.25-.5-.5-1-.75-1.5s-.45-1.78-.62-1.81A3.91,3.91,0,0,0,1.25,14.38Z"/><path class="cls-2" d="M17.13,2.38V.88a3.31,3.31,0,0,0,2.25.75Z"/><path class="cls-2" d="M3.84,21.41c.5,1.6-.84,1.09-1.4.15-.38-.93-.92-3.74,1.5-3.85.24,0,.5.41.75.67C4.16,18.83,2.13,15.82,3.84,21.41Z"/><path class="cls-2" d="M-.73,43.18c.83-.31,1.72.69,2.13.49,2.15-1,2-3.56,4.68-1.39,0,0,.61-.43.57-.64-.12-.76-.91-1.41-.6-2.25.21-.58.8-.7,1.41-.9C9.32,37.87,7,36,9.65,34.67c.3-.15.33-1.41,0-2-.79-1.26-2.34-.79-3.63-.82a3.59,3.59,0,0,0,3-1.5l-.75,1.5,3,1.5c-.5.25-1.23.4-1.38.79-.35.87.15,2.08-.26,2.89-.1.2-1-.1-1.26.15-1.22,1.43-.6,4-1.83,4.85-2,1.41-6,.95-7,4.14-.17.56,1.14,1.27,2,1.32s1.85-.67,2.24-2.14a2,2,0,0,0,.81,2.09C6,48,5.92,45,7.46,45.5a1.4,1.4,0,0,1,.66,1.33c-.12.38-.87.71-1.37.71-.25,0-.59-.62-.71-.56-1.53.66-3.58.47-4.47,2.18a3.4,3.4,0,0,0-.07,1.47c-.82-.06-2.15.28-2.06-.74s1-2,.46-3c-.21-.41-.9-.55-1.4-.8Z"/><path class="cls-2" d="M10.21,50.63c.38-.14.54-.88.79-1.38l1.5.75c1.33-3.25,3.59-7.42,7.5-7.5V44a2.08,2.08,0,0,0-2.13.82c-.69,1.18,1.55,1.87-.12,3.68,0-1.3.41-3.13-.83-3.5-1.49-.45-2.48,1.86-2.17,3.5-.5,0-1.27-.13-1.36.07-.92,2-3.3,2.38-3.89,4.43-1.23-1.35-3.39-1.65-3.75-3.75C7.58,48.76,8.58,51.22,10.21,50.63Z"/><path class="cls-2" d="M.75,34.13c-1.59.17-.68-.91-.75-1.5Z"/><path class="cls-2" d="M4.62,34a2.7,2.7,0,0,1,.63,2.34c-.5-.26-1.34-.52-1.33-.75C4,34,2.41,32.77,3,31.13,4,31.86,4,33.16,4.62,34Z"/><path class="cls-2" d="M.75,29.63c-.21-1.67,1.11-.28,1.5-.75Z"/><path class="cls-2" d="M14.33,31.13c-.13,2.54,1.82,4,3.67,5.25A3.26,3.26,0,0,0,15.74,35c-.23,0-.49.57-.74.57-.5,0-1.31-.38-1.34-.68-.14-1.45-.78-2.94.45-4.59.15-.21-.36-.89-.61-1.39l-1.5.75-1.5-3c2.28.32,2.59,3,4.5,3.75C14.75,30.63,14.34,30.87,14.33,31.13Z"/><path class="cls-2" d="M19.14,34.59c1.28.13,1.25-1,1.26-1.64s-.45-1,1.18-2.58c.32-.3.38-1.38.72-2.11l.82.67c-.48.3-1.16.51-1.32.93-.24.64.32,1.67,0,2.09C21.2,32.64,20,33,20,34.52c0,.23.66.52.62.63a5.94,5.94,0,0,0-.35,3.1C18.71,37.38,19.24,35.89,19.14,34.59Z"/><path class="cls-2" d="M26.47,31.78c-1.25,1.56-2.87-.09-3.78,1.9,1.31-.46.53.35,2.95.78-.05-.55-.29-1.4-.09-1.52,2.43-1.4,1.17-4.49,3-6.38l-1-.23a9,9,0,0,1-.92,3.07C24.91,30.53,27.55,30.43,26.47,31.78Z"/><path class="cls-2" d="M21.15,40.69c-1.82-1.47-1.77.4-3.15.19.25-.51.5-1,.75-1.5,1.28,1.65,2.58-.61,3.57.21C23.12,40.24,21.38,40.88,21.15,40.69Z"/><path class="cls-2" d="M22.63,44.71c0,.28-1,.4-1.24.81-1,2.15-.33,2.76.74,4.43a1,1,0,0,1-1.41-.76c-.21-1.27.59-1.16-.72-2.44-.38-.37,1.33-1.34,1.65-2.18.62-1.61,2-2.1,2.79-3.51.29-.49,1.28.17,1.2.63C25.35,43.38,22.81,41.13,22.63,44.71Z"/><path class="cls-2" d="M23,8c-.41-.29.31-.92.89-1.19.65,1.51,3.21.43,3.24,2.14,0,.63-.94,1.19-1,2.08C24.74,10,24.56,9.07,23,8Z"/><path class="cls-2" d="M29.25,40.5c.75,1.64-1.22,1-1.51,1.83C26.67,40.42,29.61,41.83,29.25,40.5Z"/><path class="cls-2" d="M31.09,41.29,32.6,42c.24-.51.75-1.12.6-1.45-1-2.15.3-4.38.95-6.37a1.59,1.59,0,0,0,2.17-.82c.93-1.8,2.85-4.58,3-6.68-.55.1-1.41.11-1.48.36C37,30.26,34.33,35.2,30.75,36c-.12,0-.21.62-.11.93.27.84,1.47.86,1.75,1.42C32.93,39.42,31.79,40.38,31.09,41.29Z"/><path class="cls-2" d="M29.37,31.88c.12.49-.31,1.11.24,1.64.88-2.17.92-4.64,3.28-6.27-.95-.67-1.59.12-2.32.49C31.71,29.5,28.9,30.06,29.37,31.88Z"/><path class="cls-2" d="M33.81,46.91c-.59,1.15,1.46,2.89,2.13,2.72a2,2,0,0,0,1.56-2.75c3.07.15,6.8,3.27,4.31,5.82-.52.53-1.85-.17-2.81-.57a2.75,2.75,0,0,0,2.11-3.69A2.17,2.17,0,0,0,39,47.6c-2,.15-1.13,2-2.28,3a2.28,2.28,0,0,1-1.46.69c-.88-.07-1.55-.89-2.33-1.27-.3-.15-1.1.25-1.34.67a1.53,1.53,0,0,0,.66,2.2c-1.26.25-1.47-.91-1.34-1.47.32-1.37,2.83-1.19,2.77-3,0-1-.71-1.86-2.18-2.25,3.29.7,2.51-3,4.86-3.75,1.49-.51.78.82.64,1.37C36.63,45.2,34.48,45.6,33.81,46.91Z"/><path class="cls-2" d="M38.76,37.67a6.71,6.71,0,0,0-1.51.71c1.21-.85,0-2.11,2.14-3.22.5-.26.29-1.51-.64-2,.25-.26.5-.5.75-.75-.34,1.83.4,3.51.75,5.25A5.7,5.7,0,0,0,38.76,37.67Z"/><path class="cls-2" d="M44.17,34.38a4,4,0,0,1-.67,1.5c-.25-.26-.7-.6-.65-.7a5.93,5.93,0,0,0,.65-3A7.71,7.71,0,0,1,44.17,34.38Z"/><path class="cls-2" d="M43.12,28.67c-1.28.32-1.38-.84-1.38-1.48s.82-1.14,1.3-.66,0,1.7,2.34,1.41C44.62,28.19,43.91,28.47,43.12,28.67Z"/><path class="cls-2" d="M47.12,29.13c-.7.8-1,2.95-2,2S46.24,29.76,47.12,29.13Z"/><path class="cls-2" d="M47.08,49.09c-.22.94-.5,2.76-2,2.14-.18-.07-.06-.85-.06-1.35,1.27.06,2.73-.33,2.83-2.26,0-.23-1.11-.42-1.18-.77-.15-.69-1.08-1.47,1.35-2.22C47,46,47.44,47.59,47.08,49.09Z"/><path class="cls-2" d="M.38,9.38C.27,11.82.2,11-2.25,11.81c.5-.25,2-.94,2.1-1.32.24-.78-.08-1.13.32-1.83C0,7.91-1.31,7.91-.63,6.88c1-1.53.22-3.75,2.14-4.54.43-.18.24.47.74.47C2.25,4.88.47,7.16.38,9.38Z"/><path class="cls-2" d="M48.54,34.16c.31-3.89-.54-6,3.58-4.51.94,1.31-1.81.21-2.11.82-.15.3,1.67,1.05,1.55,1.43s-2.11.39-2.35.8c-.43.75.26,1.5.66,2.2C49.37,34.65,48.53,34.38,48.54,34.16Z"/><path class="cls-2" d="M46.88,38.63c-1.3-.19-1.34.84-1.42,1.53,0,.23.61.58.56.69-.73,1.56-2.4.54-3.65.8.5,0,1.21.16,1.38-.08,1-1.38,2.83-3.57.87-5.17,1,1.23,3.16.41,3.75,2.25A10.57,10.57,0,0,1,46.88,38.63Z"/><path class="cls-2" d="M43.3,45.65c-1.53.06-3.27.56-4.88.18a3.64,3.64,0,0,1,1.32-.75c.5,0,.51.75.89.63s.53-1.2.8-1.22c1.59-.08,3-.77,4.49-.91-.25.5-.39,1.2-.8,1.4A4.21,4.21,0,0,1,43.3,45.65Z"/><path class="cls-2" d="M50.25,42c-.21.45-1-.14-1.33-.67,1.37-.9-.14-3.23,1.54-3.57.62-.12,1.33.72,2.21.57C52,40,51,40.32,50.25,42Z"/><path class="cls-2" d="M21.5,22.73c-1.29-.19-1.34.84-1.41,1.53,0,.22.61.58.56.69-.73,1.55-2.4.54-3.65.8.5,0,1.21.16,1.38-.08.95-1.38,2.83-3.57.87-5.17,1,1.23,3.15.41,3.75,2.25A10.73,10.73,0,0,1,21.5,22.73Z"/><path class="cls-2" d="M16.5,30.75c.52-1.46,1.83-1.35,3-1.5C18.77,30.29,17.6,30.46,16.5,30.75Z"/><path class="cls-2" d="M2.39,26.71c-.12.05-.45-.4-.7-.65.8-.42,1.3-2.11,2.07-1.33S3.19,27,2.39,26.71Z"/><path class="cls-2" d="M2.25,39c.48-1.06,1.43-.7,2.25-.75C4,39.18,3.14,39.16,2.25,39Z"/><path class="cls-2" d="M27.35,38.61c-.47.46-.44.61-.74.72-.84.3-1.54-.3-2.23-.7,2.57.54,3.59-1.55,3-3.75.5.25,1.33.49,1.33.75C28.71,36.63,27.94,37.62,27.35,38.61Z"/><path class="cls-2" d="M40.24,6.28c-.46.47-.44.61-.74.72-.84.3-1.53-.3-2.23-.7,2.57.54,3.59-1.55,3-3.75.5.25,1.33.5,1.33.75C41.6,4.3,40.83,5.3,40.24,6.28Z"/><path class="cls-2" d="M15.75,39.75A3.35,3.35,0,0,0,15,37.5a1,1,0,0,1,1.4.76A3.58,3.58,0,0,1,15.75,39.75Z"/><path class="cls-2" d="M11.44,1.31a3.35,3.35,0,0,0-.75-2.25,1,1,0,0,1,1.39.76A3.51,3.51,0,0,1,11.44,1.31Z"/><path class="cls-2" d="M-1.5,37.31C-1,35.85.33,36,1.5,35.81.77,36.85-.4,37-1.5,37.31Z"/><path class="cls-2" d="M2.25,1.13C.46.89,2-.46,1.5-1.13,3.69-1,.93.73,2.25,1.13Z"/><path class="cls-2" d="M54.6,22.29c-.14.87-1.78,1.1-1.83,1.55-.22,1.86-.91,2.24-1.77,3.72-.25-.25-.67-.49-.67-.75,0-1,1.48-1.57,1.77-2.39.89-2.45.71-6.23,1.28-7.17.16.09,1.36-1.25,1.75-1.62Z"/><path class="cls-2" d="M13.6,2.2C15.25,1,15.87-2.71,17.75-3.5c-1.52,1.15-1.67,4.89-2.88,6.19C12.55,5.18,9.29,6.51,7.58,9.61c-.62,1.12.7,2.71-.83,3.7-.26-2.43-.23-5,1.66-6.55S11.61,3.69,13.6,2.2Z"/><path class="cls-2" d="M34,1.26c-.7.79-1,3-2,2S33.12,1.89,34,1.26Z"/><path class="cls-2" d="M36.5,1.75c-.44.49-1.18-.08-1.32-.68-.23-1-1.2-2.6-.08-3a3.77,3.77,0,0,0,3,.75C35.52-1.2,37.22,1,36.5,1.75Z"/><path class="cls-2" d="M44,2.45c.16.3.75-.1,1-.45-1.06-.61.11-2.17-1.2-2.39-.48-.09-1,.48-1.72.38C42.65,1.09,43.36,1.32,44,2.45Z"/><path class="cls-2" d="M20.75,13c.52-1.46,1.83-1.35,3-1.5C23,12.54,21.85,12.71,20.75,13Z"/><path class="cls-2" d="M51,15.75c.48-1.06,1.43-.7,2.25-.75C52.73,15.93,51.89,15.91,51,15.75Z"/><path class="cls-2" d="M55.5,50.63c-.82-.06-2.15.28-2.06-.74s1-2,.46-3c-.21-.41-.9-.55-1.4-.8-.81,2.27-3.32,3.35-3.8,6-.14.76-.51,2.1-1.28,1.34s1.1-1,1.12-1.35c.16-2.91,1.88-4.94,3.78-6.91.38-.38,0-1.65,1-2,.83-.31,1.72.69,2.13.49l-.06.33a3.65,3.65,0,0,0-1.84,2.2c-.17.56,1.14,1.27,2,1.32Z"/><path class="cls-2" d="M26.75,6.5A3.35,3.35,0,0,0,26,4.25,1,1,0,0,1,27.4,5,3.58,3.58,0,0,1,26.75,6.5Z"/><path class="cls-2" d="M24.23,22.91c1.68,0,.11,1.13.52,1.59C24.57,24,24.4,23.44,24.23,22.91Z"/><path class="cls-2" d="M50.25,21.75a3.35,3.35,0,0,0-.75-2.25,1,1,0,0,1,1.4.76A3.58,3.58,0,0,1,50.25,21.75Z"/><path class="cls-2" d="M43.75,7.5a3.26,3.26,0,0,1,1.06-2.12,1,1,0,0,0-1.49.55A3.5,3.5,0,0,0,43.75,7.5Z"/><path class="cls-2" d="M9.26,2.92C10,4.56,8,4,7.75,4.75,6.67,2.84,9.62,4.25,9.26,2.92Z"/><path class="cls-2" d="M35.5,9c-1.59.17-.68-.91-.75-1.5Z"/><path class="cls-2" d="M26,50.35c1.27-.34.9-1.31.69-2-.06-.22-.78-.29-.78-.42.05-1.71,2-1.44,3-2.17-.45.2-1.17.33-1.23.62-.33,1.64-1.19,4.4,1.24,5.09-1.36-.75-3,.87-4.33-.58A10.29,10.29,0,0,1,26,50.35Z"/><path class="cls-2" d="M11.25,24.5c-1.59.17-.68-.91-.75-1.5Z"/><path class="cls-2" d="M13.5,19c.48-1.06,1.43-.7,2.25-.75C15.23,19.18,14.39,19.16,13.5,19Z"/><path class="cls-2" d="M35,30.5c-1.59.17-.68-.91-.75-1.5Z"/><path class="cls-2" d="M30.48,45c.12-.59-.27-1-.6-1.51.58-.14,1.07.13,1.12.51S30.68,44.67,30.48,45Z"/><path class="cls-2" d="M25.07,45.26c-.46,4.3-.57,0-.82,0C25,45,26,45,25.75,43.75A4.73,4.73,0,0,0,25.07,45.26Z"/><path class="cls-2" d="M9.59,39.25c2.5-.76.26-1.37,3.15-2,1.21.64,1.16,2.27,1,3.65,0,.32-.65,1.27-.76,1.76l-.42-1.63c-.15-.55-.07-1.83-.24-1.9A3.88,3.88,0,0,0,9.59,39.25Z"/><path class="cls-2" d="M10.34,45.73c.35,1.27,1.41.8,2,.47s.59-1.27-.06-1.45-1.49.83-2.38-1.34C10,44.19,10.13,45,10.34,45.73Z"/><path class="cls-2" d="M-5.25,5.06A1,1,0,0,1-6,6.47c-.87.13-2,.41-2,.85a3.32,3.32,0,0,1-2.47,3A14.9,14.9,0,0,1-5.33,4.94c.24-.17,0-.94.15-1.34.65-1.33,2.65.12,2.84-2.29,0-.24-.41-.5-.66-.75,2.11.6,1.86-2.13,3.75-2.25v1.5A3.65,3.65,0,0,0-1.51.55C-3.82,1.69-1.42,4.6-5.25,5.06Z"/><path class="cls-2" d="M.6,22.29c-.14.87-1.78,1.1-1.83,1.55-.22,1.86-.91,2.24-1.77,3.72-.25-.25-.67-.49-.67-.75,0-1,1.48-1.57,1.77-2.39C-1,22-1.19,18.19-.63,17.25c.17.09,1.37-1.25,1.76-1.62Z"/><path class="cls-2" d="M1.5,50.63c-.82-.06-2.15.28-2.06-.74s1-2,.46-3c-.21-.41-.9-.55-1.4-.8-.81,2.27-3.32,3.35-3.8,6-.14.76-.51,2.1-1.28,1.34s1.1-1,1.12-1.35c.16-2.91,1.88-4.94,3.78-6.91.38-.38-.05-1.65,1-2,.83-.31,1.72.69,2.13.49L1.34,44A3.65,3.65,0,0,0-.5,46.2c-.17.56,1.14,1.27,2,1.32Z"/><path class="cls-2" d="M-5.25,59.06A1,1,0,0,1-6,60.47c-.87.13-2,.41-2,.85a3.32,3.32,0,0,1-2.47,3,14.9,14.9,0,0,1,5.17-5.37c.24-.17,0-.94.15-1.34.65-1.33,2.65.12,2.84-2.29,0-.24-.41-.5-.66-.75,2.11.6,1.86-2.13,3.75-2.25v1.5a3.65,3.65,0,0,0-2.26.74C-3.82,55.69-1.42,58.6-5.25,59.06Z"/><path class="cls-2" d="M-.73,43.18c.83-.31,1.72.69,2.13.49,2.15-1,2-3.56,4.68-1.39,0,0,.61-.43.57-.64-.12-.76-.91-1.41-.6-2.25.21-.58.8-.7,1.41-.9C9.32,37.87,7,36,9.65,34.67c.3-.15.33-1.41,0-2-.79-1.26-2.34-.79-3.63-.82a3.59,3.59,0,0,0,3-1.5l-.75,1.5,3,1.5c-.5.25-1.23.4-1.38.79-.35.87.15,2.08-.26,2.89-.1.2-1-.1-1.26.15-1.22,1.43-.6,4-1.83,4.85-2,1.41-6,.95-7,4.14-.17.56,1.14,1.27,2,1.32s1.85-.67,2.24-2.14a2,2,0,0,0,.81,2.09C6,48,5.92,45,7.46,45.5a1.4,1.4,0,0,1,.66,1.33c-.12.38-.87.71-1.37.71-.25,0-.58-.62-.71-.56-1.53.66-3.58.47-4.47,2.18a3.4,3.4,0,0,0-.07,1.47c-.82-.06-2.15.28-2.06-.74s1-2,.46-3c-.21-.41-.9-.55-1.4-.8Z"/><path class="cls-2" d="M.75,34.13c-1.59.17-.68-.91-.75-1.5Z"/><path class="cls-2" d="M.38,9.38C.27,11.82.2,11-2.25,11.81c.5-.25,2-.94,2.1-1.32.24-.78-.08-1.13.32-1.83C0,7.91-1.31,7.91-.63,6.88c1-1.53.22-3.75,2.14-4.54.43-.18.24.47.74.47C2.25,4.88.47,7.16.38,9.38Z"/><path class="cls-2" d="M-1.5,37.31C-1,35.85.33,36,1.5,35.81.77,36.85-.4,37-1.5,37.31Z"/><path class="cls-2" d="M-5.25,5.06A1,1,0,0,1-6,6.47c-.87.13-2,.41-2,.85a3.32,3.32,0,0,1-2.47,3A14.9,14.9,0,0,1-5.33,4.94c.24-.17,0-.94.15-1.34.65-1.33,2.65.12,2.84-2.29,0-.24-.41-.5-.66-.75,2.11.6,1.86-2.13,3.75-2.25v1.5A3.65,3.65,0,0,0-1.51.55C-3.82,1.69-1.42,4.6-5.25,5.06Z"/><path class="cls-2" d="M.6,22.29c-.14.87-1.78,1.1-1.83,1.55-.22,1.86-.91,2.24-1.77,3.72-.25-.25-.67-.49-.67-.75,0-1,1.48-1.57,1.77-2.39C-1,22-1.19,18.19-.63,17.25c.17.09,1.37-1.25,1.76-1.62Z"/><path class="cls-2" d="M1.5,50.63c-.82-.06-2.15.28-2.06-.74s1-2,.46-3c-.21-.41-.9-.55-1.4-.8-.81,2.27-3.32,3.35-3.8,6-.14.76-.51,2.1-1.28,1.34s1.1-1,1.12-1.35c.16-2.91,1.88-4.94,3.78-6.91.38-.38-.05-1.65,1-2,.83-.31,1.72.69,2.13.49L1.34,44A3.65,3.65,0,0,0-.5,46.2c-.17.56,1.14,1.27,2,1.32Z"/><path class="cls-2" d="M48.75,5.06A1,1,0,0,1,48,6.47c-.87.13-2,.41-2,.85a3.32,3.32,0,0,1-2.47,3,14.9,14.9,0,0,1,5.17-5.37c.24-.17-.05-.94.15-1.34.65-1.33,2.65.12,2.84-2.29,0-.24-.41-.5-.66-.75,2.11.6,1.86-2.13,3.75-2.25v1.5a3.65,3.65,0,0,0-2.26.74C50.18,1.69,52.58,4.6,48.75,5.06Z"/><path class="cls-2" d="M22.58,1.48c-.76.5-1.32,4.69-2.07,5.25-.29.22-.75.69-.75.94,0,.5-.27.44-.27.94,0,1-.74,2.31-2.11,2-.37-.08-.67-1,1.37-2.15.22-.13,0-.91.14-1.34,2-5.28,3.87-9.6,4.44-8.28Z"/><path class="cls-2" d="M28.33,2.49a3.85,3.85,0,0,1-.44-1.24l-3.28.67c-.9-1,1.11-1.39,2.49-2a24,24,0,0,1,2.7-1.42C29.62-.45,28.65,1.17,28.33,2.49Z"/><path class="cls-2" d="M48.75,5.06A1,1,0,0,1,48,6.47c-.87.13-2,.41-2,.85a3.32,3.32,0,0,1-2.47,3,14.9,14.9,0,0,1,5.17-5.37c.24-.17-.05-.94.15-1.34.65-1.33,2.65.12,2.84-2.29,0-.24-.41-.5-.66-.75,2.11.6,1.86-2.13,3.75-2.25v1.5a3.65,3.65,0,0,0-2.26.74C50.18,1.69,52.58,4.6,48.75,5.06Z"/><path class="cls-2" d="M3.94,6.56C3.59,4.61,6.59.72,7.5-.94A1.83,1.83,0,0,1,7.75.75C7.37,2.73,5.12,4,5.14,6.6c-.57.94-.5,1.56-2.14,1.46Z"/><path class="cls-2" d="M11.44,1.31a3.35,3.35,0,0,0-.75-2.25,1,1,0,0,1,1.39.76A3.51,3.51,0,0,1,11.44,1.31Z"/><path class="cls-2" d="M2.25,1.13C.46.89,2-.46,1.5-1.13,3.69-1,.93.73,2.25,1.13Z"/><path class="cls-2" d="M13.6,2.2C15.25,1,15.87-2.71,17.75-3.5c-1.52,1.15-1.67,4.89-2.88,6.19C12.55,5.18,9.29,6.51,7.58,9.61c-.62,1.12.7,2.71-.83,3.7-.26-2.43-.23-5,1.66-6.55S11.61,3.69,13.6,2.2Z"/><path class="cls-2" d="M36.5,1.75c-.44.49-1.18-.08-1.32-.68-.23-1-1.2-2.6-.08-3a3.77,3.77,0,0,0,3,.75C35.52-1.2,37.22,1,36.5,1.75Z"/><path class="cls-2" d="M44,2.45c.16.3.75-.1,1-.45-1.06-.61.11-2.17-1.2-2.39-.48-.09-1,.48-1.72.38C42.65,1.09,43.36,1.32,44,2.45Z"/><path class="cls-2" d="M-5.25,5.06A1,1,0,0,1-6,6.47c-.87.13-2,.41-2,.85a3.32,3.32,0,0,1-2.47,3A14.9,14.9,0,0,1-5.33,4.94c.24-.17,0-.94.15-1.34.65-1.33,2.65.12,2.84-2.29,0-.24-.41-.5-.66-.75,2.11.6,1.86-2.13,3.75-2.25v1.5A3.65,3.65,0,0,0-1.51.55C-3.82,1.69-1.42,4.6-5.25,5.06Z"/><path class="cls-2" d="M-5.25,5.06A1,1,0,0,1-6,6.47c-.87.13-2,.41-2,.85a3.32,3.32,0,0,1-2.47,3A14.9,14.9,0,0,1-5.33,4.94c.24-.17,0-.94.15-1.34.65-1.33,2.65.12,2.84-2.29,0-.24-.41-.5-.66-.75,2.11.6,1.86-2.13,3.75-2.25v1.5A3.65,3.65,0,0,0-1.51.55C-3.82,1.69-1.42,4.6-5.25,5.06Z"/></pattern></defs><title>river1</title><g id="bg"><polygon class="cls-3" points="48.41 4.11 541.82 4.11 541.82 324.42 391.76 325.09 391.76 424.82 235.25 426.77 235.25 463.3 87.02 463.3 87.03 120.44 48.41 120.44 48.41 4.11"/></g><g id="thresholds"><path id="_2nd" data-name="2nd" class="cls-4" d="M50.92,83l35,.08s.52-7.79-2-13a33.53,33.53,0,0,0-13-14c-3-1.76-7.23-4.25-11-5a51.13,51.13,0,0,0-9-1Z" transform="translate(-2.67 -5.47)"/><path id="main" class="cls-4" d="M89,134h35s.5,7.8-2,13a33.56,33.56,0,0,1-13,14c-3,1.75-7.24,4.23-11,5a51,51,0,0,1-9,1Z" transform="translate(-2.67 -5.47)"/><rect class="cls-4" x="365.49" y="252.53" width="22.52" height="13.76"/><rect class="cls-4" x="366.16" y="198.37" width="21.85" height="16.39"/><polygon class="cls-4" points="378.33 222.53 378.33 243.53 359.5 252.53 359.5 214.53 378.33 222.53"/></g><g id="drwng"><polyline class="cls-5" points="87.02 159.02 87.02 463.3 235.25 463.3 235.25 324.68"/><path class="cls-5" d="M162.13,335.74" transform="translate(-2.67 -5.47)"/><path class="cls-5" d="M126.21,335.74" transform="translate(-2.67 -5.47)"/><line class="cls-5" x1="85.67" y1="323.91" x2="100.23" y2="323.91"/><line class="cls-5" x1="150.55" y1="323.91" x2="165.11" y2="323.91"/><line class="cls-5" x1="132.13" y1="3.75" x2="132.13" y2="48.59"/><line class="cls-5" x1="286.29" y1="4.42" x2="286.29" y2="45.49"/><line class="cls-5" x1="346.13" y1="324.79" x2="545.81" y2="324.79"/><polyline class="cls-5" points="545.08 3.75 48.41 3.75 48.41 44.55"/><line class="cls-5" x1="362.01" y1="324.42" x2="361.75" y2="357.02"/><polyline class="cls-5" points="361.75 392.22 361.75 424.82 391.76 424.82 391.76 179.41"/><line class="cls-6" x1="379.68" y1="426.78" x2="237.65" y2="426.78"/><path class="cls-7" d="M164.6,126.61a29,29,0,0,1-29,29V125.05" transform="translate(-2.67 -5.47)"/><rect class="cls-7" x="131.73" y="119.58" width="1.22" height="30.52"/><path class="cls-7" d="M168,293.48A34.07,34.07,0,0,0,202,327.55v-35.9" transform="translate(-2.67 -5.47)"/><rect class="cls-7" x="199.35" y="286.17" width="1.44" height="35.9"/><polyline class="cls-7" points="122.37 193.72 122.37 216.19 158.47 216.16"/><path class="cls-7" d="M160.63,227a33.81,33.81,0,0,0-33.81,33.81h35.63" transform="translate(-2.67 -5.47)"/><rect class="cls-7" x="124.15" y="255.32" width="35.62" height="1.43"/><path class="cls-7" d="M399.74,142.1a28.18,28.18,0,0,1-28.18-28.18h29.69" transform="translate(-2.67 -5.47)"/><rect class="cls-7" x="368.89" y="107.26" width="29.68" height="1.19"/><path class="cls-7" d="M363.25,361.73a34.07,34.07,0,0,0-34.07,34.08h35.9" transform="translate(-2.67 -5.47)"/><rect class="cls-7" x="326.51" y="390.33" width="35.9" height="1.44"/><rect class="cls-7" x="96.65" y="193.77" width="22.44" height="9.41"/><path class="cls-7" d="M110.87,231.75c-4.65,0-8.43-5.12-8.43-11.44s3.78-11.44,8.43-11.44,8.44,5.12,8.44,11.44S115.53,231.75,110.87,231.75Z" transform="translate(-2.67 -5.47)"/><path class="cls-7" d="M153.5,211.06c0,4.65-5.12,8.43-11.44,8.43s-11.44-3.78-11.44-8.43,5.12-8.44,11.44-8.44S153.5,206.4,153.5,211.06Z" transform="translate(-2.67 -5.47)"/><path class="cls-7" d="M206,25a3,3,0,1,1,3-3A3,3,0,0,1,206,25Z" transform="translate(-2.67 -5.47)"/><path class="cls-7" d="M191.68,26.41A4.31,4.31,0,1,1,196,22.1,4.3,4.3,0,0,1,191.68,26.41Z" transform="translate(-2.67 -5.47)"/><path class="cls-7" d="M191.68,35.84a3,3,0,1,1,3-3A3,3,0,0,1,191.68,35.84Z" transform="translate(-2.67 -5.47)"/><rect class="cls-7" x="179.43" y="6.37" width="33.42" height="27.98"/><path class="cls-7" d="M206.27,36.68a4.31,4.31,0,1,1,4.31-4.31A4.31,4.31,0,0,1,206.27,36.68Z" transform="translate(-2.67 -5.47)"/><polyline class="cls-8" points="170.89 5.7 170.89 31.28 179.56 31.28"/><polyline class="cls-7" points="167.82 6.6 167.82 36.51 134.67 36.51"/><rect class="cls-7" x="57.01" y="13.26" width="33.33" height="28.83"/><rect class="cls-9" x="90.32" y="13.26" width="36.09" height="28.83"/><rect class="cls-10" x="93.41" y="16.15" width="30.04" height="22.88"/><line class="cls-7" x1="243.68" y1="113.27" x2="245.6" y2="111.33"/><line class="cls-11" x1="250.38" y1="106.51" x2="267.1" y2="89.66"/><polyline class="cls-12" points="269.49 87.25 277.11 79.57 277.11 53.08"/><polyline class="cls-7" points="277.11 49.69 277.11 46.96 274.38 46.96"/><line class="cls-13" x1="272.82" y1="46.96" x2="267.34" y2="46.96"/><polyline class="cls-7" points="266.56 46.96 263.83 46.96 263.83 44.23"/><polyline class="cls-14" points="263.83 39.04 263.82 34.37 254.86 24.3"/><line class="cls-7" x1="253.13" y1="22.36" x2="251.32" y2="20.32"/><polyline class="cls-7" points="289.57 45.4 289.57 84.96 249.14 127.55 210.75 127.55 210.75 113.26 213.77 113.27 213.77 93.81 233.95 93.81 255.03 73.44 255.03 30.56 213.13 30.56"/><line class="cls-15" x1="131.01" y1="79.18" x2="131.01" y2="85.34"/><path class="cls-16" d="M132.35,49a37.57,37.57,0,0,1,37.56,37.57H130.33" transform="translate(-2.67 -5.47)"/><path class="cls-7" d="M53.32,50A34.07,34.07,0,0,1,87.39,84.11H51.49" transform="translate(-2.67 -5.47)"/><rect class="cls-7" x="48.81" y="78.64" width="35.9" height="1.44"/><rect class="cls-7" x="50.34" y="89.49" width="39.64" height="24.25"/><path class="cls-7" d="M91.72,107.55A15.86,15.86,0,1,1,75.86,91.7,15.86,15.86,0,0,1,91.72,107.55Z" transform="translate(-2.67 -5.47)"/><path class="cls-17" d="M172.86,115.06" transform="translate(-2.67 -5.47)"/><path class="cls-17" d="M130,115.06" transform="translate(-2.67 -5.47)"/><line class="cls-18" x1="87.04" y1="124.1" x2="87.04" y2="132.27"/><path class="cls-7" d="M91.07,167.38a33.4,33.4,0,0,0,33.4-33.4H89.28" transform="translate(-2.67 -5.47)"/><rect class="cls-7" x="86.6" y="127.1" width="35.18" height="1.41"/><rect class="cls-19" x="132.88" y="455.79" width="57.02" height="14.27"/><line class="cls-20" x1="138.58" y1="455.95" x2="138.58" y2="470.28"/><line class="cls-20" x1="184.72" y1="455.95" x2="184.72" y2="470.28"/><line class="cls-21" x1="133.09" y1="463.06" x2="189.83" y2="463.06"/><line class="cls-7" x1="51.56" y1="10.22" x2="129.93" y2="10.22"/><polyline class="cls-9" points="269.42 87.72 253.78 71.49 231.47 91.56 247.55 108.86"/><polyline class="cls-7" points="210.61 120.7 244.36 120.7 283.18 81.11 283.18 45.21"/><path class="cls-22" d="M257.92,101.07a2.21,2.21,0,0,1,.27,3.06l-6.86,6.39a2.2,2.2,0,0,1-3-.49l-8.22-8.81a2.2,2.2,0,0,1-.27-3l6.86-6.4a2.21,2.21,0,0,1,3,.48Z" transform="translate(-2.67 -5.47)"/><path class="cls-23" d="M268.24,91.25c.92,1,1.07,2.37.34,3.06L262,100.52c-.73.69-2,.45-3-.55l-8.22-9c-.92-1-1.07-2.36-.34-3l6.54-6.22c.73-.69,2.06-.44,3,.55Z" transform="translate(-2.67 -5.47)"/><line class="cls-17" x1="227.77" y1="94.58" x2="227.77" y2="120.66"/><path class="cls-24" d="M90.81,201.12" transform="translate(-2.67 -5.47)"/><line class="cls-15" x1="211.02" y1="265.2" x2="203.88" y2="265.2"/><line class="cls-5" x1="397.51" y1="4.11" x2="397.51" y2="108.31"/><polyline class="cls-5" points="397.18 103.04 428.51 103.04 428.51 141.95 397.51 141.95"/><line class="cls-5" x1="396.52" y1="135.68" x2="396.52" y2="148.21"/><line class="cls-5" x1="425.87" y1="142.03" x2="433.79" y2="142.03"/><polyline class="cls-5" points="475.99 4.77 475.99 141.95 504.68 141.95 467.09 141.95"/><line class="cls-5" x1="541.82" y1="0.49" x2="541.82" y2="327.91"/><line class="cls-25" x1="534.77" y1="141.62" x2="541.37" y2="141.62"/><path class="cls-7" d="M433.92,145.06a37.57,37.57,0,0,1,37.56-37.57v39.59" transform="translate(-2.67 -5.47)"/><rect class="cls-7" x="468.81" y="102.02" width="1.59" height="39.58"/><path class="cls-7" d="M502.89,145.06a37.57,37.57,0,0,1,37.57-37.57v39.59" transform="translate(-2.67 -5.47)"/><rect class="cls-7" x="537.78" y="102.02" width="1.59" height="39.58"/><rect class="cls-7" x="478.95" y="60.29" width="9.41" height="22.44"/><path class="cls-7" d="M514.13,76.66c0,4.66-5.12,8.44-11.44,8.44s-11.44-3.78-11.44-8.44,5.12-8.43,11.44-8.43S514.13,72,514.13,76.66Z" transform="translate(-2.67 -5.47)"/><path class="cls-7" d="M491.3,100.82c4.65,0,8.43,5.12,8.43,11.44S496,123.7,491.3,123.7s-8.44-5.12-8.44-11.44S486.64,100.82,491.3,100.82Z" transform="translate(-2.67 -5.47)"/><path class="cls-7" d="M400.68,192.34a37.56,37.56,0,0,0,37.56-37.56H398.66" transform="translate(-2.67 -5.47)"/><rect class="cls-7" x="395.98" y="147.71" width="39.58" height="1.59"/><rect class="cls-19" x="438.82" y="318.24" width="57.02" height="14.27"/><line class="cls-20" x1="444.52" y1="318.4" x2="444.52" y2="332.73"/><line class="cls-20" x1="490.66" y1="318.4" x2="490.66" y2="332.73"/><line class="cls-21" x1="439.03" y1="325.51" x2="495.76" y2="325.51"/><polyline class="cls-7" points="99.21 324.68 108.96 334.95 120.44 324.85"/><polyline class="cls-7" points="131.66 324.68 141.42 334.95 152.89 324.85"/><line class="cls-17" x1="89.79" y1="311.15" x2="161.87" y2="311.15"/><polyline class="cls-5" points="87.06 295.11 158.41 295.11 158.41 323.22 158.41 257.63 158.41 285.74 164.53 285.74"/><polyline class="cls-15" points="85.97 188.08 158.05 188.08 158.05 219.43"/><polyline class="cls-15" points="207.78 185.56 207.06 324.66 250.93 324.66"/><line class="cls-5" x1="151.92" y1="257.41" x2="151.92" y2="291.51"/><line class="cls-7" x1="89.58" y1="258.71" x2="155.89" y2="258.71"/><path class="cls-26" d="M134.6,295.06c7.56,0,13.68-6.42,13.68-14.33s-6.12-14.33-13.68-14.33H111.12c-7.56,0-13.69,6.42-13.69,14.33s6.13,14.33,13.69,14.33Z" transform="translate(-2.67 -5.47)"/><polyline class="cls-15" points="132.59 120.44 87.03 120.44 87.03 132.19"/><polyline class="cls-15" points="49.52 80.44 49.52 120.44 129.91 120.44 131.25 120.44 125.55 120.27 125.55 88.28 125.55 85.5 170.26 85.5 170.26 120.44 162.23 120.44"/><line class="cls-17" x1="128.06" y1="103.55" x2="167.25" y2="103.55"/><line class="cls-17" x1="213.33" y1="19.65" x2="250.81" y2="19.65"/><line class="cls-27" x1="206.27" y1="284.91" x2="200.41" y2="284.91"/><rect class="cls-28" x="257.69" y="321.24" width="44.33" height="5.41"/><rect class="cls-28" x="294.45" y="322.38" width="44.33" height="5.41"/><rect class="cls-29" x="250.67" y="318.36" width="7.21" height="11.17"/><rect class="cls-29" x="338.6" y="318.36" width="7.21" height="11.17"/><rect class="cls-7" x="370.02" y="199.37" width="13.06" height="13.06"/><polygon class="cls-30" points="358.62 214.76 378.41 223.15 378.41 243.67 358.61 252.53 389.14 252.53 389.14 214.76 358.62 214.76"/><rect class="cls-31" x="334.99" y="203.94" width="24.51" height="55.5"/><polyline class="cls-15" points="390.85 194.57 362.74 194.57 362.74 214.03"/><polyline class="cls-15" points="390.85 269.53 362.02 269.53 362.02 253.31"/><path class="cls-7" d="M522.37,43.52c7.55,0,13.68-6.42,13.68-14.33s-6.13-14.33-13.68-14.33H498.88c-7.56,0-13.68,6.41-13.68,14.33s6.12,14.33,13.68,14.33Z" transform="translate(-2.67 -5.47)"/><line class="cls-7" x1="477.7" y1="42.49" x2="540.77" y2="42.49"/><rect class="cls-7" x="476.62" y="90.42" width="21.26" height="49.01"/><line class="cls-20" x1="476.26" y1="124.65" x2="497.52" y2="124.65"/></g><g id="txt"><path class="cls-32" d="M2.89,64.24a3.08,3.08,0,0,0,1.56.44c.89,0,1.41-.47,1.41-1.15s-.36-1-1.27-1.34c-1.1-.38-1.78-.95-1.78-1.9A1.94,1.94,0,0,1,5,58.46a3.06,3.06,0,0,1,1.49.33l-.24.71A2.68,2.68,0,0,0,5,59.18c-.92,0-1.27.55-1.27,1,0,.63.41.94,1.34,1.3,1.14.44,1.72,1,1.72,2S6,65.4,4.39,65.4A3.48,3.48,0,0,1,2.67,65Z" transform="translate(-2.67 -5.47)"/><path class="cls-32" d="M8.46,63a1.55,1.55,0,0,0,1.66,1.68,3.18,3.18,0,0,0,1.34-.25l.15.63a3.92,3.92,0,0,1-1.61.3A2.25,2.25,0,0,1,7.62,63a2.35,2.35,0,0,1,2.27-2.6,2,2,0,0,1,2,2.27,3.32,3.32,0,0,1,0,.41ZM11,62.42A1.25,1.25,0,0,0,9.82,61a1.46,1.46,0,0,0-1.35,1.43Z" transform="translate(-2.67 -5.47)"/><path class="cls-32" d="M16.43,65.12A3.24,3.24,0,0,1,15,65.4a2.3,2.3,0,0,1-2.41-2.47,2.46,2.46,0,0,1,2.6-2.56,2.94,2.94,0,0,1,1.22.25l-.2.68a2,2,0,0,0-1-.23,1.82,1.82,0,0,0,0,3.63,2.5,2.5,0,0,0,1.08-.24Z" transform="translate(-2.67 -5.47)"/><path class="cls-32" d="M21.78,62.84a2.37,2.37,0,0,1-2.41,2.57,2.3,2.3,0,0,1-2.32-2.49,2.36,2.36,0,0,1,2.4-2.56A2.29,2.29,0,0,1,21.78,62.84Zm-3.84,0c0,1.06.61,1.86,1.47,1.86s1.47-.79,1.47-1.88c0-.81-.41-1.85-1.45-1.85S17.94,62,17.94,62.89Z" transform="translate(-2.67 -5.47)"/><path class="cls-32" d="M22.89,61.78c0-.5,0-.91,0-1.31h.78l.05.8h0a1.78,1.78,0,0,1,1.6-.91c.67,0,1.71.4,1.71,2.06V65.3h-.88V62.51c0-.77-.29-1.42-1.12-1.42a1.25,1.25,0,0,0-1.18.89,1.37,1.37,0,0,0-.06.42v2.9h-.88Z" transform="translate(-2.67 -5.47)"/><path class="cls-32" d="M32.62,58.21v5.84c0,.43,0,.92,0,1.25h-.79l0-.84h0a1.79,1.79,0,0,1-1.65,1A2.21,2.21,0,0,1,28.09,63a2.31,2.31,0,0,1,2.17-2.59,1.62,1.62,0,0,1,1.46.74h0V58.21Zm-.88,4.22a1.55,1.55,0,0,0,0-.37,1.3,1.3,0,0,0-1.27-1c-.91,0-1.45.8-1.45,1.86s.48,1.79,1.43,1.79a1.32,1.32,0,0,0,1.29-1.05,1.53,1.53,0,0,0,0-.38Z" transform="translate(-2.67 -5.47)"/><path class="cls-32" d="M39.72,62.15H37.1v2.42H40v.73H36.23V58.57h3.64v.73H37.1v2.13h2.62Z" transform="translate(-2.67 -5.47)"/><path class="cls-32" d="M41.12,61.78c0-.5,0-.91,0-1.31h.78l0,.8h0a1.78,1.78,0,0,1,1.6-.91c.67,0,1.71.4,1.71,2.06V65.3h-.88V62.51c0-.77-.29-1.42-1.12-1.42a1.25,1.25,0,0,0-1.18.89,1.37,1.37,0,0,0-.06.42v2.9h-.88Z" transform="translate(-2.67 -5.47)"/><path class="cls-32" d="M47.69,59.08v1.39H49v.67H47.69v2.6c0,.6.17.94.66.94a2,2,0,0,0,.51-.06l0,.66a2.15,2.15,0,0,1-.78.12,1.22,1.22,0,0,1-.95-.37,1.79,1.79,0,0,1-.34-1.26V61.14h-.75v-.67h.75V59.31Z" transform="translate(-2.67 -5.47)"/><path class="cls-32" d="M49.94,62c0-.57,0-1.06,0-1.51h.77l0,1h0a1.45,1.45,0,0,1,1.34-1.06,1,1,0,0,1,.25,0v.83a1.32,1.32,0,0,0-.3,0,1.23,1.23,0,0,0-1.18,1.12,2.48,2.48,0,0,0,0,.41V65.3h-.87Z" transform="translate(-2.67 -5.47)"/><path class="cls-32" d="M53.78,60.47l1.06,2.85c.11.32.23.7.31,1h0c.09-.29.19-.66.31-1l1-2.83h.93l-1.32,3.44a7.37,7.37,0,0,1-1.66,3,2.38,2.38,0,0,1-1.08.57l-.22-.74a2.33,2.33,0,0,0,.77-.43,2.67,2.67,0,0,0,.74-1,.63.63,0,0,0,.07-.21.77.77,0,0,0-.06-.23l-1.79-4.45Z" transform="translate(-2.67 -5.47)"/><path class="cls-32" d="M15.82,77.3l.48-3.63c.09-.64.24-1.63.37-2.28h-.05c-.3.68-.67,1.48-1,2.16l-2,3.71h-.64l-.5-3.63c-.1-.77-.17-1.55-.21-2.24h0c-.15.62-.36,1.64-.52,2.28l-.92,3.63H10l1.75-6.73H12.8l.53,3.86c.07.57.15,1.18.16,1.68h0c.21-.5.5-1.1.79-1.66l2.09-3.88h1.07l-.85,6.73Z" transform="translate(-2.67 -5.47)"/><path class="cls-32" d="M22.66,72.47,22,75.89c-.1.54-.17,1-.22,1.41H21l.13-.91h0a2.15,2.15,0,0,1-1.71,1c-.62,0-1.27-.3-1.27-1.4a4.43,4.43,0,0,1,.09-.81l.52-2.73h.83l-.51,2.69a3.28,3.28,0,0,0-.09.71c0,.5.21.84.78.84a2,2,0,0,0,1.57-1.77l.47-2.47Z" transform="translate(-2.67 -5.47)"/><path class="cls-32" d="M28.35,70.21l-1.06,5.56a12.19,12.19,0,0,0-.21,1.53h-.76l.13-1h0a2.06,2.06,0,0,1-1.74,1.07c-.94,0-1.45-.77-1.45-1.76a3.17,3.17,0,0,1,3-3.29,2.19,2.19,0,0,1,.86.17l.43-2.32Zm-1.39,3a1.62,1.62,0,0,0-.8-.19,2.37,2.37,0,0,0-2.06,2.51c0,.58.2,1.19.91,1.19s1.41-.73,1.62-1.82Z" transform="translate(-2.67 -5.47)"/><path class="cls-32" d="M28.45,77.3,29,74.18c.12-.63.2-1.26.25-1.71H30c0,.34-.08.67-.13,1h0a1.75,1.75,0,0,1,1.48-1.15l.23,0-.16.82a.65.65,0,0,0-.22,0c-.72,0-1.36.87-1.57,2l-.4,2.13Z" transform="translate(-2.67 -5.47)"/><path class="cls-32" d="M36.21,74.37a2.9,2.9,0,0,1-2.68,3,1.85,1.85,0,0,1-1.89-2,2.89,2.89,0,0,1,2.68-3.06A1.84,1.84,0,0,1,36.21,74.37Zm-3.71,1c0,.79.43,1.36,1.14,1.36,1,0,1.72-1.26,1.72-2.39A1.2,1.2,0,0,0,34.23,73C33.19,73,32.49,74.28,32.5,75.39Z" transform="translate(-2.67 -5.47)"/><path class="cls-32" d="M41.46,74.37a2.9,2.9,0,0,1-2.68,3,1.85,1.85,0,0,1-1.89-2,2.89,2.89,0,0,1,2.68-3.06A1.84,1.84,0,0,1,41.46,74.37Zm-3.71,1c0,.79.43,1.36,1.14,1.36,1,0,1.72-1.26,1.72-2.39A1.2,1.2,0,0,0,39.48,73C38.44,73,37.74,74.28,37.75,75.39Z" transform="translate(-2.67 -5.47)"/><path class="cls-32" d="M42,77.3l.65-3.42c.1-.55.17-1,.22-1.41h.73l-.13.91h0a2.07,2.07,0,0,1,1.7-1,1.05,1.05,0,0,1,1.13,1.07,2.09,2.09,0,0,1,1.78-1.07,1.14,1.14,0,0,1,1.16,1.27,4.92,4.92,0,0,1-.08.81l-.54,2.86h-.81l.52-2.79a3.2,3.2,0,0,0,.07-.63c0-.5-.19-.84-.72-.84s-1.31.71-1.51,1.78l-.47,2.48H45l.54-2.84a3.09,3.09,0,0,0,.06-.58c0-.42-.11-.84-.72-.84s-1.36.8-1.55,1.83l-.45,2.43Z" transform="translate(-2.67 -5.47)"/><path class="cls-32" d="M117.35,313.08a4.32,4.32,0,0,1-1.78.32,3.15,3.15,0,0,1-3.33-3.4,3.35,3.35,0,0,1,3.52-3.54,3.61,3.61,0,0,1,1.6.3l-.21.71a3.17,3.17,0,0,0-1.36-.28,2.5,2.5,0,0,0-2.63,2.77,2.45,2.45,0,0,0,2.59,2.71,3.48,3.48,0,0,0,1.42-.28Z" transform="translate(-2.67 -5.47)"/><path class="cls-32" d="M118.41,306.21h.88v7.09h-.88Z" transform="translate(-2.67 -5.47)"/><path class="cls-32" d="M125.15,310.84a2.37,2.37,0,0,1-2.41,2.57,2.3,2.3,0,0,1-2.32-2.49,2.36,2.36,0,0,1,2.4-2.56A2.29,2.29,0,0,1,125.15,310.84Zm-3.84.05c0,1.06.61,1.86,1.47,1.86s1.47-.79,1.47-1.87c0-.83-.41-1.86-1.45-1.86S121.31,310,121.31,310.89Z" transform="translate(-2.67 -5.47)"/><path class="cls-32" d="M126.14,312.4a2.31,2.31,0,0,0,1.16.35c.64,0,.94-.32.94-.72s-.25-.65-.9-.89c-.87-.31-1.28-.78-1.28-1.36a1.49,1.49,0,0,1,1.67-1.42,2.42,2.42,0,0,1,1.19.3l-.22.63a2,2,0,0,0-1-.27c-.52,0-.81.3-.81.66s.29.57.92.81c.84.32,1.27.74,1.27,1.46s-.66,1.45-1.81,1.45a2.76,2.76,0,0,1-1.36-.33Z" transform="translate(-2.67 -5.47)"/><path class="cls-32" d="M130.71,311a1.55,1.55,0,0,0,1.66,1.68,3.18,3.18,0,0,0,1.34-.25l.15.63a3.92,3.92,0,0,1-1.61.3,2.25,2.25,0,0,1-2.38-2.44,2.35,2.35,0,0,1,2.27-2.6,2,2,0,0,1,2,2.27,3.16,3.16,0,0,1,0,.41Zm2.58-.62a1.25,1.25,0,0,0-1.22-1.43,1.45,1.45,0,0,0-1.35,1.43Z" transform="translate(-2.67 -5.47)"/><path class="cls-32" d="M136.29,307.08v1.39h1.26v.67h-1.26v2.6c0,.6.17.94.66.94a2,2,0,0,0,.51-.06l0,.66a2.15,2.15,0,0,1-.78.12,1.22,1.22,0,0,1-.95-.37,1.79,1.79,0,0,1-.34-1.26v-2.63h-.75v-.67h.75v-1.16Z" transform="translate(-2.67 -5.47)"/><path class="cls-32" d="M90.84,60.16h1v7.21h3.45v.87H90.84Z" transform="translate(-2.67 -5.47)"/><path class="cls-32" d="M99.68,68.24l-.09-.73h0a2.16,2.16,0,0,1-1.78.86A1.65,1.65,0,0,1,96,66.71c0-1.41,1.24-2.17,3.49-2.16v-.12a1.2,1.2,0,0,0-1.32-1.35,2.84,2.84,0,0,0-1.51.44l-.24-.7a3.6,3.6,0,0,1,1.9-.51c1.78,0,2.21,1.21,2.21,2.37v2.17a7.38,7.38,0,0,0,.1,1.39Zm-.16-3c-1.15,0-2.46.18-2.46,1.31a.93.93,0,0,0,1,1,1.45,1.45,0,0,0,1.4-1,.92.92,0,0,0,.06-.33Z" transform="translate(-2.67 -5.47)"/><path class="cls-32" d="M107.1,66.66c0,.6,0,1.13.05,1.58h-.93l-.06-.95h0a2.16,2.16,0,0,1-1.92,1.08c-.91,0-2-.5-2-2.54V62.44h1.06v3.21c0,1.1.33,1.85,1.29,1.85a1.52,1.52,0,0,0,1.39-1,1.57,1.57,0,0,0,.1-.54V62.44h1Z" transform="translate(-2.67 -5.47)"/><path class="cls-32" d="M108.86,64c0-.6,0-1.09,0-1.57h.94l.06,1h0a2.14,2.14,0,0,1,1.92-1.09c.8,0,2,.48,2,2.47v3.46h-1V64.9c0-.94-.35-1.72-1.35-1.72A1.5,1.5,0,0,0,110,64.26a1.45,1.45,0,0,0-.07.49v3.49h-1.06Z" transform="translate(-2.67 -5.47)"/><path class="cls-32" d="M120.53,59.73v7c0,.52,0,1.11,0,1.5h-1l0-1h0a2.14,2.14,0,0,1-2,1.14c-1.4,0-2.48-1.18-2.48-3,0-1.93,1.19-3.11,2.6-3.11a1.94,1.94,0,0,1,1.75.88h0V59.73Zm-1,5.07a1.65,1.65,0,0,0,0-.44,1.55,1.55,0,0,0-1.52-1.23c-1.1,0-1.74,1-1.74,2.25s.57,2.14,1.71,2.14a1.67,1.67,0,0,0,1.6-1.71Z" transform="translate(-2.67 -5.47)"/><path class="cls-32" d="M122.29,64.25c0-.69,0-1.27-.05-1.81h.92l0,1.14h0a1.74,1.74,0,0,1,1.6-1.27,1.32,1.32,0,0,1,.3,0v1a1.23,1.23,0,0,0-.36,0,1.47,1.47,0,0,0-1.41,1.36,2.38,2.38,0,0,0,0,.49v3.09h-1Z" transform="translate(-2.67 -5.47)"/><path class="cls-32" d="M126.9,62.44l1.27,3.43c.13.38.27.84.37,1.18h0c.11-.34.23-.79.37-1.21l1.16-3.4h1.11l-1.58,4.14c-.76,2-1.27,3-2,3.63a2.82,2.82,0,0,1-1.3.68l-.26-.88a3,3,0,0,0,.92-.52,3.22,3.22,0,0,0,.89-1.18.64.64,0,0,0,.08-.25.81.81,0,0,0-.07-.27l-2.15-5.35Z" transform="translate(-2.67 -5.47)"/><path class="cls-32" d="M104.69,75.59a3.83,3.83,0,0,0-.79,0,3.17,3.17,0,0,0-2.71,2.77h0A2.37,2.37,0,0,1,105.46,80a2.6,2.6,0,0,1-2.59,2.74c-1.67,0-2.76-1.29-2.76-3.32a4.89,4.89,0,0,1,1.32-3.51,4.22,4.22,0,0,1,2.5-1.15,4.73,4.73,0,0,1,.76-.06Zm-.3,4.5a1.58,1.58,0,0,0-1.6-1.79,1.73,1.73,0,0,0-1.51,1,.84.84,0,0,0-.12.47c0,1.28.61,2.23,1.71,2.23C103.78,82,104.39,81.2,104.39,80.09Z" transform="translate(-2.67 -5.47)"/><path class="cls-32" d="M108.07,74.43a14.53,14.53,0,0,1-1.13,2.84l-.67.08a17.86,17.86,0,0,0,.71-2.82Z" transform="translate(-2.67 -5.47)"/><path class="cls-32" d="M109.71,76.84l.83,1.24.59,1h0c.19-.35.39-.65.58-1l.81-1.23h1.14l-2,2.8,2,3h-1.2l-.85-1.31c-.23-.33-.42-.65-.62-1h0c-.19.35-.39.66-.61,1l-.84,1.31h-1.16l2.06-3-2-2.84Z" transform="translate(-2.67 -5.47)"/><path class="cls-32" d="M115.05,81.9a4.43,4.43,0,0,0,.85,0,2.9,2.9,0,0,0,1.63-.75,3.44,3.44,0,0,0,1-2.08h0a2.29,2.29,0,0,1-1.84.84,2.26,2.26,0,0,1-2.3-2.39,2.68,2.68,0,0,1,2.66-2.77c1.6,0,2.58,1.3,2.58,3.29a4.91,4.91,0,0,1-1.34,3.66,3.85,3.85,0,0,1-2.27,1,5,5,0,0,1-1,.06Zm.39-4.49a1.5,1.5,0,0,0,1.49,1.66,1.75,1.75,0,0,0,1.54-.82.66.66,0,0,0,.1-.38c0-1.33-.5-2.35-1.6-2.35C116.07,75.52,115.44,76.31,115.44,77.41Z" transform="translate(-2.67 -5.47)"/><path class="cls-32" d="M122.26,74.43a14,14,0,0,1-1.12,2.84l-.68.08a15.92,15.92,0,0,0,.71-2.82Z" transform="translate(-2.67 -5.47)"/><path class="cls-32" d="M187.5,59.16h1v3.9h0c.21-.32.43-.6.63-.87l2.47-3H193l-2.93,3.43,3.16,4.65H192l-2.66-4-.77.89v3.08h-1Z" transform="translate(-2.67 -5.47)"/><path class="cls-32" d="M195.26,59.81a.62.62,0,0,1-.67.64.63.63,0,0,1-.64-.64.64.64,0,0,1,.66-.66A.62.62,0,0,1,195.26,59.81Zm-1.17,7.43v-5.8h1v5.8Z" transform="translate(-2.67 -5.47)"/><path class="cls-32" d="M198.17,59.77v1.67h1.51v.8h-1.51v3.13c0,.72.2,1.13.79,1.13a2.68,2.68,0,0,0,.61-.07l.05.79a2.73,2.73,0,0,1-.94.14,1.45,1.45,0,0,1-1.14-.44,2.15,2.15,0,0,1-.41-1.51V62.24h-.9v-.8h.9V60.05Z" transform="translate(-2.67 -5.47)"/><path class="cls-32" d="M204.93,67a4,4,0,0,1-1.67.33,2.76,2.76,0,0,1-2.89-3,3,3,0,0,1,3.12-3.08,3.45,3.45,0,0,1,1.47.3l-.24.81a2.54,2.54,0,0,0-1.23-.27,2.19,2.19,0,0,0,0,4.36,2.86,2.86,0,0,0,1.29-.29Z" transform="translate(-2.67 -5.47)"/><path class="cls-32" d="M206.17,58.73h1.06v3.62h0a2,2,0,0,1,.75-.74,2.22,2.22,0,0,1,1.08-.3c.78,0,2,.48,2,2.48v3.45h-1.05V63.91c0-.94-.35-1.73-1.35-1.73a1.51,1.51,0,0,0-1.41,1.06,1.26,1.26,0,0,0-.07.5v3.5h-1.06Z" transform="translate(-2.67 -5.47)"/><path class="cls-32" d="M213.42,64.53a1.86,1.86,0,0,0,2,2,4,4,0,0,0,1.61-.3l.18.75a4.72,4.72,0,0,1-1.94.36,2.69,2.69,0,0,1-2.85-2.92c0-1.76,1-3.13,2.72-3.13a2.45,2.45,0,0,1,2.4,2.73,4.68,4.68,0,0,1,0,.49Zm3.09-.75a1.5,1.5,0,0,0-1.46-1.72,1.74,1.74,0,0,0-1.62,1.72Z" transform="translate(-2.67 -5.47)"/><path class="cls-32" d="M218.84,63c0-.6,0-1.09-.05-1.57h.94l.06,1h0a2.14,2.14,0,0,1,1.92-1.09c.81,0,2.05.48,2.05,2.47v3.46h-1.05V63.9c0-.94-.35-1.72-1.35-1.72A1.5,1.5,0,0,0,220,63.26a1.45,1.45,0,0,0-.07.49v3.49h-1.06Z" transform="translate(-2.67 -5.47)"/><path class="cls-32" d="M189.26,74.83h0l-1.35.73-.21-.8,1.7-.91h.9v7.79h-1Z" transform="translate(-2.67 -5.47)"/><path class="cls-32" d="M195.41,74.83h0l-1.36.73-.2-.8,1.7-.91h.9v7.79h-1Z" transform="translate(-2.67 -5.47)"/><path class="cls-32" d="M200.94,73.43a14,14,0,0,1-1.12,2.84l-.68.08a15.92,15.92,0,0,0,.71-2.82Z" transform="translate(-2.67 -5.47)"/><path class="cls-32" d="M202.59,75.84l.83,1.24c.21.33.39.63.58,1h0c.19-.35.38-.65.57-1l.82-1.23h1.14l-2,2.8,2,3h-1.2l-.85-1.31c-.23-.33-.42-.65-.63-1h0c-.19.35-.39.66-.61,1l-.84,1.31h-1.16l2.06-3-2-2.84Z" transform="translate(-2.67 -5.47)"/><path class="cls-32" d="M207.93,80.9a4.43,4.43,0,0,0,.85,0,2.9,2.9,0,0,0,1.63-.75,3.38,3.38,0,0,0,1-2.08h0a2.3,2.3,0,0,1-1.84.84,2.26,2.26,0,0,1-2.3-2.39,2.68,2.68,0,0,1,2.66-2.77c1.6,0,2.58,1.3,2.58,3.29a5,5,0,0,1-1.34,3.66,3.85,3.85,0,0,1-2.27,1,5,5,0,0,1-1,.06Zm.38-4.49a1.51,1.51,0,0,0,1.5,1.66,1.75,1.75,0,0,0,1.54-.82.67.67,0,0,0,.09-.38c0-1.33-.49-2.35-1.59-2.35C209,74.52,208.31,75.31,208.31,76.41Z" transform="translate(-2.67 -5.47)"/><path class="cls-32" d="M215.14,73.43A13.93,13.93,0,0,1,214,76.27l-.67.08a16.83,16.83,0,0,0,.71-2.82Z" transform="translate(-2.67 -5.47)"/><path class="cls-32" d="M220.41,74.59a3.89,3.89,0,0,0-.8,0,3.17,3.17,0,0,0-2.71,2.77h0A2.37,2.37,0,0,1,221.17,79a2.6,2.6,0,0,1-2.59,2.74c-1.66,0-2.76-1.29-2.76-3.32a4.94,4.94,0,0,1,1.32-3.51,4.22,4.22,0,0,1,2.5-1.15,4.76,4.76,0,0,1,.77-.06Zm-.3,4.5a1.59,1.59,0,0,0-1.61-1.79,1.73,1.73,0,0,0-1.51,1,.93.93,0,0,0-.12.47c0,1.28.61,2.23,1.71,2.23C219.49,81,220.11,80.2,220.11,79.09Z" transform="translate(-2.67 -5.47)"/><path class="cls-32" d="M223.77,73.43a14.58,14.58,0,0,1-1.12,2.84l-.67.08a17.86,17.86,0,0,0,.71-2.82Zm1.77,0a14.63,14.63,0,0,1-1.11,2.84l-.68.08a15.92,15.92,0,0,0,.71-2.82Z" transform="translate(-2.67 -5.47)"/><path class="cls-32" d="M314.58,51.27a14.44,14.44,0,0,1,2.22-.17,4.65,4.65,0,0,1,3.28,1,3.71,3.71,0,0,1,1.14,2.9,4.25,4.25,0,0,1-1.17,3.14,4.94,4.94,0,0,1-3.57,1.16,17.16,17.16,0,0,1-1.9-.09Zm1.05,7.14a6.32,6.32,0,0,0,1.05.06A3.1,3.1,0,0,0,320.12,55c0-1.9-1.06-3.11-3.27-3.11a6,6,0,0,0-1.22.1Z" transform="translate(-2.67 -5.47)"/><path class="cls-32" d="M323.71,51.81a.65.65,0,0,1-1.3,0,.64.64,0,0,1,.66-.66A.62.62,0,0,1,323.71,51.81Zm-1.17,7.43v-5.8h1.06v5.8Z" transform="translate(-2.67 -5.47)"/><path class="cls-32" d="M325.35,55c0-.6,0-1.09-.05-1.57h.94l.05,1h0a2.14,2.14,0,0,1,1.92-1.09c.8,0,2.05.48,2.05,2.47v3.46h-1.06V55.9c0-.94-.34-1.72-1.34-1.72a1.51,1.51,0,0,0-1.42,1.08,1.75,1.75,0,0,0-.07.49v3.49h-1Z" transform="translate(-2.67 -5.47)"/><path class="cls-32" d="M333.18,51.81a.61.61,0,0,1-.67.64.63.63,0,0,1-.64-.64.64.64,0,0,1,.67-.66A.62.62,0,0,1,333.18,51.81ZM332,59.24v-5.8h1.05v5.8Z" transform="translate(-2.67 -5.47)"/><path class="cls-32" d="M334.82,55c0-.6,0-1.09-.05-1.57h.93l.06,1h0a2.13,2.13,0,0,1,1.92-1.09c.8,0,2.05.48,2.05,2.47v3.46H338.7V55.9c0-.94-.35-1.72-1.34-1.72a1.5,1.5,0,0,0-1.42,1.08,1.45,1.45,0,0,0-.07.49v3.49h-1.05Z" transform="translate(-2.67 -5.47)"/><path class="cls-32" d="M346.48,53.44c0,.42-.05.88-.05,1.59V58.4a3.35,3.35,0,0,1-.83,2.65,3.06,3.06,0,0,1-2.11.7,3.76,3.76,0,0,1-1.93-.48l.26-.8a3.32,3.32,0,0,0,1.71.45c1.08,0,1.87-.56,1.87-2v-.64h0a2.05,2.05,0,0,1-1.84,1,2.6,2.6,0,0,1-2.48-2.83,2.79,2.79,0,0,1,2.62-3.08,1.92,1.92,0,0,1,1.81,1h0l.05-.87Zm-1.1,2.29a1.77,1.77,0,0,0-.05-.48,1.54,1.54,0,0,0-1.48-1.12c-1,0-1.73.85-1.73,2.2,0,1.14.58,2.08,1.72,2.08a1.53,1.53,0,0,0,1.46-1.07,1.87,1.87,0,0,0,.08-.57Z" transform="translate(-2.67 -5.47)"/><path class="cls-32" d="M350.76,51.27a10.77,10.77,0,0,1,2-.17,3.26,3.26,0,0,1,2.33.66,2,2,0,0,1,.64,1.53,2.13,2.13,0,0,1-1.52,2.07v0A2,2,0,0,1,355.4,57a13,13,0,0,0,.63,2.22H355a10.79,10.79,0,0,1-.54-1.93c-.24-1.11-.67-1.53-1.62-1.57h-1v3.5h-1.05ZM351.81,55h1.06c1.12,0,1.83-.61,1.83-1.54s-.76-1.5-1.86-1.51a4,4,0,0,0-1,.1Z" transform="translate(-2.67 -5.47)"/><path class="cls-32" d="M362.48,56.29a2.83,2.83,0,0,1-2.89,3.08,2.76,2.76,0,0,1-2.78-3,2.83,2.83,0,0,1,2.88-3.08A2.74,2.74,0,0,1,362.48,56.29Zm-4.6.06c0,1.27.73,2.23,1.76,2.23s1.76-.94,1.76-2.25c0-1-.49-2.23-1.73-2.23S357.88,55.25,357.88,56.35Z" transform="translate(-2.67 -5.47)"/><path class="cls-32" d="M369.07,56.29a2.83,2.83,0,0,1-2.89,3.08,2.76,2.76,0,0,1-2.78-3,2.83,2.83,0,0,1,2.88-3.08A2.74,2.74,0,0,1,369.07,56.29Zm-4.6.06c0,1.27.73,2.23,1.76,2.23s1.76-.94,1.76-2.25c0-1-.49-2.23-1.74-2.23S364.47,55.25,364.47,56.35Z" transform="translate(-2.67 -5.47)"/><path class="cls-32" d="M370.41,55c0-.6,0-1.09-.05-1.57h.92l.05.93h0a2,2,0,0,1,1.82-1.06,1.71,1.71,0,0,1,1.64,1.16h0a2.44,2.44,0,0,1,.64-.76,2,2,0,0,1,1.29-.4c.76,0,1.9.5,1.9,2.51v3.42h-1V56c0-1.12-.41-1.79-1.26-1.79a1.35,1.35,0,0,0-1.24,1,1.63,1.63,0,0,0-.09.53v3.58h-1V55.76c0-.92-.41-1.59-1.21-1.59a1.45,1.45,0,0,0-1.31,1,1.49,1.49,0,0,0-.08.52v3.5h-1Z" transform="translate(-2.67 -5.47)"/><path class="cls-32" d="M323.37,72.9a4.53,4.53,0,0,0,.86,0,2.93,2.93,0,0,0,1.63-.75,3.49,3.49,0,0,0,1-2.08h0a2.34,2.34,0,0,1-4.14-1.55,2.68,2.68,0,0,1,2.67-2.77C327,65.71,328,67,328,69a4.91,4.91,0,0,1-1.35,3.66,3.82,3.82,0,0,1-2.26,1,5.15,5.15,0,0,1-1,.06Zm.39-4.49a1.51,1.51,0,0,0,1.5,1.66,1.74,1.74,0,0,0,1.53-.82.66.66,0,0,0,.1-.38c0-1.33-.49-2.35-1.6-2.35C324.39,66.52,323.76,67.31,323.76,68.41Z" transform="translate(-2.67 -5.47)"/><path class="cls-32" d="M330.58,65.43a14,14,0,0,1-1.12,2.84l-.67.08a16.85,16.85,0,0,0,.7-2.82Z" transform="translate(-2.67 -5.47)"/><path class="cls-32" d="M335.85,66.59a3.83,3.83,0,0,0-.79,0,3.16,3.16,0,0,0-2.71,2.77h0a2.35,2.35,0,0,1,1.89-.9A2.31,2.31,0,0,1,336.62,71,2.6,2.6,0,0,1,334,73.77c-1.67,0-2.76-1.29-2.76-3.32a4.89,4.89,0,0,1,1.32-3.51,4.22,4.22,0,0,1,2.49-1.15,4.93,4.93,0,0,1,.77-.06Zm-.3,4.5A1.58,1.58,0,0,0,334,69.3a1.76,1.76,0,0,0-1.52,1,.93.93,0,0,0-.12.47c0,1.28.62,2.23,1.72,2.23C334.94,73,335.55,72.2,335.55,71.09Z" transform="translate(-2.67 -5.47)"/><path class="cls-32" d="M339.21,65.43a14.63,14.63,0,0,1-1.11,2.84l-.67.08a17.88,17.88,0,0,0,.7-2.82Zm1.78,0a14.58,14.58,0,0,1-1.12,2.84l-.67.08a16.83,16.83,0,0,0,.71-2.82Z" transform="translate(-2.67 -5.47)"/><path class="cls-32" d="M342.63,67.84l.83,1.24c.22.33.4.63.59,1h0c.2-.35.39-.65.58-1l.82-1.23h1.14l-2,2.8,2,3h-1.2l-.86-1.31c-.22-.33-.41-.65-.62-1h0c-.19.35-.4.66-.61,1l-.84,1.31h-1.17l2.06-3-2-2.84Z" transform="translate(-2.67 -5.47)"/><path class="cls-32" d="M349.65,66.83h0l-1.36.73-.2-.8,1.7-.91h.9v7.79h-1Z" transform="translate(-2.67 -5.47)"/><path class="cls-32" d="M358.7,69.66c0,2.65-1,4.11-2.71,4.11-1.53,0-2.56-1.42-2.58-4s1.13-4.06,2.71-4.06S358.7,67.18,358.7,69.66Zm-4.24.12c0,2,.63,3.18,1.59,3.18s1.59-1.26,1.59-3.25-.49-3.18-1.58-3.18C355.14,66.53,354.46,67.66,354.46,69.78Z" transform="translate(-2.67 -5.47)"/><path class="cls-32" d="M361.34,65.43a13.93,13.93,0,0,1-1.13,2.84l-.67.08a15.92,15.92,0,0,0,.71-2.82Z" transform="translate(-2.67 -5.47)"/><path class="cls-32" d="M367.22,65.85v.69l-3.4,7.1h-1.09l3.39-6.89v0H362.3v-.87Z" transform="translate(-2.67 -5.47)"/><path class="cls-32" d="M370,65.43a14.58,14.58,0,0,1-1.12,2.84l-.67.08a17.86,17.86,0,0,0,.71-2.82Zm1.77,0a14.63,14.63,0,0,1-1.11,2.84l-.67.08a16.85,16.85,0,0,0,.7-2.82Z" transform="translate(-2.67 -5.47)"/><path class="cls-32" d="M249.19,193.16h1.05v7.21h3.45v.87h-4.5Z" transform="translate(-2.67 -5.47)"/><path class="cls-32" d="M256,193.81a.63.63,0,0,1-.68.64.62.62,0,0,1-.63-.64.64.64,0,0,1,.66-.66A.63.63,0,0,1,256,193.81Zm-1.18,7.43v-5.8h1.06v5.8Z" transform="translate(-2.67 -5.47)"/><path class="cls-32" d="M258,195.44l1.13,3.26a13.28,13.28,0,0,1,.47,1.49h0c.13-.48.3-1,.49-1.49l1.13-3.26h1.1l-2.28,5.8h-1l-2.2-5.8Z" transform="translate(-2.67 -5.47)"/><path class="cls-32" d="M264.57,193.81a.65.65,0,0,1-1.3,0,.64.64,0,0,1,.66-.66A.62.62,0,0,1,264.57,193.81Zm-1.17,7.43v-5.8h1.06v5.8Z" transform="translate(-2.67 -5.47)"/><path class="cls-32" d="M266.21,197c0-.6,0-1.09,0-1.57h.94l.06,1h0a2.14,2.14,0,0,1,1.92-1.09c.8,0,2,.48,2,2.47v3.46h-1.06V197.9c0-.94-.34-1.72-1.34-1.72a1.5,1.5,0,0,0-1.42,1.08,1.75,1.75,0,0,0-.07.49v3.49h-1.05Z" transform="translate(-2.67 -5.47)"/><path class="cls-32" d="M277.87,195.44c0,.42-.05.88-.05,1.59v3.37a3.31,3.31,0,0,1-.83,2.65,3.06,3.06,0,0,1-2.11.7,3.78,3.78,0,0,1-1.93-.48l.26-.8a3.32,3.32,0,0,0,1.71.45c1.08,0,1.87-.56,1.87-2v-.64h0a2.08,2.08,0,0,1-1.85,1,2.59,2.59,0,0,1-2.47-2.83,2.78,2.78,0,0,1,2.61-3.08,1.92,1.92,0,0,1,1.81,1h0l0-.87Zm-1.09,2.29a1.44,1.44,0,0,0-.06-.48,1.53,1.53,0,0,0-1.48-1.12c-1,0-1.73.85-1.73,2.2,0,1.14.58,2.08,1.72,2.08a1.52,1.52,0,0,0,1.46-1.07,1.88,1.88,0,0,0,.09-.57Z" transform="translate(-2.67 -5.47)"/><path class="cls-32" d="M282.16,193.27a10.58,10.58,0,0,1,2-.17,3.31,3.31,0,0,1,2.34.66,2,2,0,0,1,.63,1.53,2.13,2.13,0,0,1-1.52,2.07v0A2,2,0,0,1,286.8,199a12.33,12.33,0,0,0,.62,2.22h-1.08a10.79,10.79,0,0,1-.54-1.93c-.24-1.11-.67-1.53-1.62-1.57h-1v3.5h-1Zm1,3.68h1.07c1.11,0,1.82-.61,1.82-1.54s-.76-1.5-1.86-1.51a4.15,4.15,0,0,0-1,.1Z" transform="translate(-2.67 -5.47)"/><path class="cls-32" d="M293.88,198.29a2.83,2.83,0,0,1-2.89,3.08,2.76,2.76,0,0,1-2.79-3,2.83,2.83,0,0,1,2.88-3.08A2.75,2.75,0,0,1,293.88,198.29Zm-4.61.06c0,1.27.73,2.23,1.76,2.23s1.77-.94,1.77-2.25c0-1-.5-2.23-1.74-2.23S289.27,197.25,289.27,198.35Z" transform="translate(-2.67 -5.47)"/><path class="cls-32" d="M300.46,198.29a2.83,2.83,0,0,1-2.89,3.08,2.76,2.76,0,0,1-2.78-3,2.83,2.83,0,0,1,2.88-3.08A2.74,2.74,0,0,1,300.46,198.29Zm-4.6.06c0,1.27.73,2.23,1.76,2.23s1.76-.94,1.76-2.25c0-1-.49-2.23-1.73-2.23S295.86,197.25,295.86,198.35Z" transform="translate(-2.67 -5.47)"/><path class="cls-32" d="M301.8,197c0-.6,0-1.09-.05-1.57h.92l.05.93h0a2,2,0,0,1,1.82-1.06,1.71,1.71,0,0,1,1.64,1.16h0a2.46,2.46,0,0,1,.65-.76,2,2,0,0,1,1.28-.4c.77,0,1.91.5,1.91,2.51v3.42h-1V198c0-1.12-.4-1.79-1.26-1.79a1.36,1.36,0,0,0-1.24,1,1.63,1.63,0,0,0-.09.53v3.58h-1v-3.48c0-.92-.4-1.59-1.21-1.59a1.45,1.45,0,0,0-1.31,1.05,1.49,1.49,0,0,0-.08.52v3.5h-1Z" transform="translate(-2.67 -5.47)"/><path class="cls-32" d="M265.38,208.83h0l-1.35.73-.2-.8,1.7-.91h.9v7.79h-1Z" transform="translate(-2.67 -5.47)"/><path class="cls-32" d="M272.51,215.64v-2.12h-3.63v-.7l3.48-5h1.14v4.84h1.09v.83H273.5v2.12Zm0-2.95v-2.6c0-.41,0-.82,0-1.22h0c-.24.45-.44.79-.65,1.15L270,212.67v0Z" transform="translate(-2.67 -5.47)"/><path class="cls-32" d="M277.07,207.43a14.53,14.53,0,0,1-1.13,2.84l-.67.08a17.86,17.86,0,0,0,.71-2.82Z" transform="translate(-2.67 -5.47)"/><path class="cls-32" d="M278.71,209.84l.83,1.24.59.95h0c.19-.35.39-.65.58-1l.81-1.23h1.14l-2,2.8,2,3h-1.2l-.85-1.31c-.23-.33-.42-.65-.62-1h0c-.19.35-.39.66-.61,1l-.84,1.31h-1.16l2.06-3-2-2.84Z" transform="translate(-2.67 -5.47)"/><path class="cls-32" d="M285.73,208.83h0l-1.36.73-.2-.8,1.7-.91h.9v7.79h-1Z" transform="translate(-2.67 -5.47)"/><path class="cls-32" d="M294.25,208.73h-3l-.3,2a3.52,3.52,0,0,1,.64-.05,3.28,3.28,0,0,1,1.68.42,2.22,2.22,0,0,1,1.11,2,2.7,2.7,0,0,1-2.9,2.66,3.8,3.8,0,0,1-1.94-.48l.26-.8a3.54,3.54,0,0,0,1.67.43,1.72,1.72,0,0,0,1.85-1.69c0-1-.69-1.73-2.25-1.73a7.14,7.14,0,0,0-1.07.09l.5-3.74h3.73Z" transform="translate(-2.67 -5.47)"/><path class="cls-32" d="M297.42,207.43a13.93,13.93,0,0,1-1.13,2.84l-.67.08a16.83,16.83,0,0,0,.71-2.82Z" transform="translate(-2.67 -5.47)"/><g class="cls-33"><path class="cls-34" d="M346.42,258.88v-4h.8v3h2.47v-2.81h.79v2.81h3.35v1Z" transform="translate(-2.67 -5.47)"/><path class="cls-34" d="M347,252.23a.6.6,0,1,1,0,1.2.58.58,0,0,1-.6-.6A.57.57,0,0,1,347,252.23Zm6.82,1.08h-5.32v-1h5.32Z" transform="translate(-2.67 -5.47)"/><path class="cls-34" d="M350.17,250.21c-.63,0-1.17,0-1.66,0v-.85l1,0v0a1.6,1.6,0,0,1-1.16-1.48,1.12,1.12,0,0,1,0-.27h.91a1.61,1.61,0,0,0,0,.33,1.36,1.36,0,0,0,1.24,1.3,3.15,3.15,0,0,0,.46,0h2.83v1Z" transform="translate(-2.67 -5.47)"/><path class="cls-34" d="M351.35,245.65a1.7,1.7,0,0,0,1.85-1.82,3.43,3.43,0,0,0-.28-1.48l.69-.16a4.19,4.19,0,0,1,.33,1.77,2.47,2.47,0,0,1-2.68,2.62,2.58,2.58,0,0,1-2.87-2.5,2.26,2.26,0,0,1,2.51-2.2,4,4,0,0,1,.45,0Zm-.69-2.83a1.37,1.37,0,0,0-1.58,1.34,1.59,1.59,0,0,0,1.58,1.48Z" transform="translate(-2.67 -5.47)"/><path class="cls-34" d="M350.25,240.15c-.68,0-1.23,0-1.74,0v-.87l.91,0v0a2.08,2.08,0,0,1-1-1.89c0-1.29,1.09-2.25,2.71-2.25,1.91,0,2.86,1.16,2.86,2.42a1.87,1.87,0,0,1-.84,1.64v0H356v1Zm1.42-1a1.6,1.6,0,0,0,.39,0,1.5,1.5,0,0,0,1.14-1.45c0-1-.84-1.62-2.06-1.62-1.07,0-2,.57-2,1.59a1.54,1.54,0,0,0,1.2,1.46,1.68,1.68,0,0,0,.39.07Z" transform="translate(-2.67 -5.47)"/><path class="cls-34" d="M346,233.37v-1h7.81v1Z" transform="translate(-2.67 -5.47)"/><path class="cls-34" d="M353.83,227.3l-.67.07v0A2,2,0,0,1,354,229a1.52,1.52,0,0,1-1.53,1.63c-1.29,0-2-1.14-2-3.2h-.11a1.1,1.1,0,0,0-1.24,1.21,2.69,2.69,0,0,0,.4,1.39l-.64.22a3.37,3.37,0,0,1-.47-1.75c0-1.63,1.11-2,2.18-2h2a8.14,8.14,0,0,0,1.27-.08Zm-2.71.14c0,1.05.16,2.25,1.2,2.25a.85.85,0,0,0,.92-.91,1.34,1.34,0,0,0-.89-1.29,1.12,1.12,0,0,0-.31-.05Z" transform="translate(-2.67 -5.47)"/><path class="cls-34" d="M353.64,220.62a3.6,3.6,0,0,1,.3,1.53,2.53,2.53,0,0,1-2.71,2.65,2.71,2.71,0,0,1-2.83-2.86,3.26,3.26,0,0,1,.27-1.34l.75.22a2.25,2.25,0,0,0-.25,1.12,1.84,1.84,0,0,0,2,1.88,1.82,1.82,0,0,0,2-1.85,2.8,2.8,0,0,0-.26-1.19Z" transform="translate(-2.67 -5.47)"/><path class="cls-34" d="M351.35,218.48a1.7,1.7,0,0,0,1.85-1.82,3.46,3.46,0,0,0-.28-1.48l.69-.16a4.19,4.19,0,0,1,.33,1.77,2.47,2.47,0,0,1-2.68,2.62,2.58,2.58,0,0,1-2.87-2.5,2.26,2.26,0,0,1,2.51-2.2,4,4,0,0,1,.45,0Zm-.69-2.83a1.38,1.38,0,0,0-1.58,1.34,1.59,1.59,0,0,0,1.58,1.48Z" transform="translate(-2.67 -5.47)"/></g><path class="cls-32" d="M280.93,359.25a12.57,12.57,0,0,1,2-.15,3.34,3.34,0,0,1,2.27.67,2.18,2.18,0,0,1,.71,1.69,2.38,2.38,0,0,1-.63,1.73,3.34,3.34,0,0,1-2.47.89A3.58,3.58,0,0,1,282,364v3.24h-1Zm1,3.9a3.52,3.52,0,0,0,.87.09c1.26,0,2-.61,2-1.73s-.75-1.58-1.9-1.58a4.36,4.36,0,0,0-1,.08Z" transform="translate(-2.67 -5.47)"/><path class="cls-32" d="M290.18,367.24l-.08-.73h0a2.14,2.14,0,0,1-1.77.86,1.65,1.65,0,0,1-1.78-1.66c0-1.41,1.25-2.17,3.49-2.16v-.12a1.2,1.2,0,0,0-1.32-1.35,2.84,2.84,0,0,0-1.51.44l-.24-.7a3.63,3.63,0,0,1,1.91-.51c1.77,0,2.2,1.21,2.2,2.37v2.17a8.32,8.32,0,0,0,.1,1.39Zm-.16-3c-1.15,0-2.45.18-2.45,1.31a.93.93,0,0,0,1,1,1.42,1.42,0,0,0,1.4-1,1,1,0,0,0,.06-.33Z" transform="translate(-2.67 -5.47)"/><path class="cls-32" d="M294,359.77v1.67h1.51v.8H294v3.13c0,.72.21,1.13.79,1.13a2.78,2.78,0,0,0,.62-.07l0,.79a2.63,2.63,0,0,1-.93.14,1.45,1.45,0,0,1-1.14-.44,2.15,2.15,0,0,1-.41-1.51v-3.17H292v-.8h.9v-1.39Z" transform="translate(-2.67 -5.47)"/><path class="cls-32" d="M297.85,359.81a.66.66,0,0,1-1.31,0,.64.64,0,0,1,.66-.66A.62.62,0,0,1,297.85,359.81Zm-1.18,7.43v-5.8h1.06v5.8Z" transform="translate(-2.67 -5.47)"/><path class="cls-32" d="M304.73,364.29a2.83,2.83,0,0,1-2.89,3.08,2.76,2.76,0,0,1-2.78-3,2.83,2.83,0,0,1,2.88-3.08A2.74,2.74,0,0,1,304.73,364.29Zm-4.6.06c0,1.27.73,2.23,1.76,2.23s1.77-.95,1.77-2.25c0-1-.5-2.23-1.74-2.23S300.13,363.25,300.13,364.35Z" transform="translate(-2.67 -5.47)"/><path class="cls-32" d="M277.65,380.9a4.53,4.53,0,0,0,.86,0,2.93,2.93,0,0,0,1.63-.75,3.49,3.49,0,0,0,1-2.08h0a2.34,2.34,0,0,1-4.14-1.55,2.68,2.68,0,0,1,2.67-2.77c1.59,0,2.58,1.3,2.58,3.29a4.91,4.91,0,0,1-1.35,3.66,3.85,3.85,0,0,1-2.26,1,5.15,5.15,0,0,1-1,.06Zm.39-4.49a1.51,1.51,0,0,0,1.5,1.66,1.74,1.74,0,0,0,1.53-.82.66.66,0,0,0,.1-.38c0-1.33-.49-2.35-1.6-2.35C278.67,374.52,278,375.31,278,376.41Z" transform="translate(-2.67 -5.47)"/><path class="cls-32" d="M284.87,373.43a14.53,14.53,0,0,1-1.13,2.84l-.67.08a17,17,0,0,0,.7-2.81Z" transform="translate(-2.67 -5.47)"/><path class="cls-32" d="M285.59,379.66a2.21,2.21,0,0,1,1.54-2.08v0a1.93,1.93,0,0,1-1.23-1.75,2.18,2.18,0,0,1,2.41-2.08,2,2,0,0,1,2.26,1.92,2,2,0,0,1-1.28,1.83v0a2.17,2.17,0,0,1,1.57,2,2.4,2.4,0,0,1-2.65,2.26C286.57,381.77,285.59,380.8,285.59,379.66Zm4.19,0c0-.95-.66-1.41-1.71-1.71a1.7,1.7,0,0,0-1.4,1.61,1.44,1.44,0,0,0,1.55,1.49A1.41,1.41,0,0,0,289.78,379.62Zm-2.9-3.9c0,.78.59,1.2,1.49,1.44a1.55,1.55,0,0,0,1.19-1.42,1.22,1.22,0,0,0-1.32-1.27A1.24,1.24,0,0,0,286.88,375.72Z" transform="translate(-2.67 -5.47)"/><path class="cls-32" d="M293.49,373.43a14.63,14.63,0,0,1-1.11,2.84l-.67.08a18,18,0,0,0,.7-2.81Zm1.78,0a14.58,14.58,0,0,1-1.12,2.84l-.67.08a17,17,0,0,0,.71-2.81Z" transform="translate(-2.67 -5.47)"/><path class="cls-32" d="M296.91,375.84l.83,1.24c.22.33.4.63.59.95h0c.2-.35.39-.65.58-1l.82-1.23h1.13l-2,2.8,2,3h-1.2l-.86-1.31c-.22-.33-.42-.65-.62-1h0c-.2.35-.4.66-.62,1l-.84,1.31h-1.16l2.07-3-2-2.84Z" transform="translate(-2.67 -5.47)"/><path class="cls-32" d="M301.54,379.66a2.22,2.22,0,0,1,1.55-2.08v0a1.93,1.93,0,0,1-1.23-1.75,2.18,2.18,0,0,1,2.41-2.08,2,2,0,0,1,2.26,1.92,2,2,0,0,1-1.28,1.83v0a2.17,2.17,0,0,1,1.57,2,2.4,2.4,0,0,1-2.65,2.26C302.53,381.77,301.54,380.8,301.54,379.66Zm4.2,0c0-.95-.66-1.41-1.71-1.71a1.71,1.71,0,0,0-1.41,1.61,1.45,1.45,0,0,0,1.56,1.49A1.41,1.41,0,0,0,305.74,379.62Zm-2.9-3.9c0,.78.59,1.2,1.49,1.44a1.55,1.55,0,0,0,1.19-1.42,1.22,1.22,0,0,0-1.32-1.27A1.24,1.24,0,0,0,302.84,375.72Z" transform="translate(-2.67 -5.47)"/><path class="cls-32" d="M309.46,373.43a14,14,0,0,1-1.12,2.84l-.67.08a17,17,0,0,0,.7-2.81Z" transform="translate(-2.67 -5.47)"/><path class="cls-32" d="M138.36,388.27a9.65,9.65,0,0,1,1.9-.17,3.31,3.31,0,0,1,2.22.59,1.69,1.69,0,0,1,.68,1.42,1.93,1.93,0,0,1-1.37,1.78v0a2.08,2.08,0,0,1,1.67,2,2.19,2.19,0,0,1-.69,1.62,4.07,4.07,0,0,1-2.79.75,12.11,12.11,0,0,1-1.62-.09Zm1,3.31h.95c1.1,0,1.75-.58,1.75-1.36,0-1-.72-1.32-1.78-1.32a5,5,0,0,0-.92.07Zm0,3.87a5.06,5.06,0,0,0,.88.05c1.08,0,2.07-.4,2.07-1.57s-.95-1.56-2.09-1.56h-.86Z" transform="translate(-2.67 -5.47)"/><path class="cls-32" d="M145.46,393.53a1.87,1.87,0,0,0,2,2,4,4,0,0,0,1.61-.3l.18.75a4.67,4.67,0,0,1-1.93.36,2.69,2.69,0,0,1-2.86-2.92c0-1.76,1-3.13,2.73-3.13a2.46,2.46,0,0,1,2.4,2.73,4.15,4.15,0,0,1,0,.49Zm3.1-.75a1.51,1.51,0,0,0-1.47-1.72,1.75,1.75,0,0,0-1.62,1.72Z" transform="translate(-2.67 -5.47)"/><path class="cls-32" d="M155.9,387.73v7c0,.52,0,1.11,0,1.5H155l-.05-1h0a2.15,2.15,0,0,1-2,1.14c-1.4,0-2.48-1.18-2.48-2.95,0-1.93,1.18-3.11,2.6-3.11a1.92,1.92,0,0,1,1.75.88h0v-3.46Zm-1.06,5.07a2.18,2.18,0,0,0,0-.44,1.56,1.56,0,0,0-1.53-1.23c-1.09,0-1.74,1-1.74,2.25s.58,2.14,1.72,2.14a1.6,1.6,0,0,0,1.55-1.26,2.09,2.09,0,0,0,0-.45Z" transform="translate(-2.67 -5.47)"/><path class="cls-32" d="M157.65,392.25c0-.69,0-1.27,0-1.81h.92l0,1.14h.05a1.75,1.75,0,0,1,1.61-1.27,1.39,1.39,0,0,1,.3,0v1a1.32,1.32,0,0,0-.36,0,1.5,1.5,0,0,0-1.42,1.36,3.47,3.47,0,0,0,0,.49v3.09h-1Z" transform="translate(-2.67 -5.47)"/><path class="cls-32" d="M166.71,393.29a2.83,2.83,0,0,1-2.89,3.08,2.76,2.76,0,0,1-2.78-3,2.83,2.83,0,0,1,2.88-3.08A2.75,2.75,0,0,1,166.71,393.29Zm-4.61.06c0,1.27.74,2.23,1.77,2.23s1.76-.95,1.76-2.25c0-1-.49-2.23-1.74-2.23S162.1,392.25,162.1,393.35Z" transform="translate(-2.67 -5.47)"/><path class="cls-32" d="M173.3,393.29a2.83,2.83,0,0,1-2.89,3.08,2.76,2.76,0,0,1-2.78-3,2.83,2.83,0,0,1,2.87-3.08A2.75,2.75,0,0,1,173.3,393.29Zm-4.61.06c0,1.27.73,2.23,1.77,2.23s1.76-.95,1.76-2.25c0-1-.49-2.23-1.74-2.23S168.69,392.25,168.69,393.35Z" transform="translate(-2.67 -5.47)"/><path class="cls-32" d="M174.63,392c0-.6,0-1.09,0-1.57h.92l.05.93h0a2,2,0,0,1,1.83-1.06,1.71,1.71,0,0,1,1.64,1.16h0a2.35,2.35,0,0,1,.65-.76,2,2,0,0,1,1.28-.4c.77,0,1.91.5,1.91,2.51v3.42h-1V393c0-1.12-.41-1.79-1.26-1.79a1.36,1.36,0,0,0-1.25,1,1.64,1.64,0,0,0-.08.53v3.58h-1v-3.48c0-.92-.41-1.59-1.21-1.59a1.45,1.45,0,0,0-1.31,1.05,1.5,1.5,0,0,0-.09.52v3.5h-1Z" transform="translate(-2.67 -5.47)"/><path class="cls-32" d="M146.38,403.83h0l-1.35.73-.2-.8,1.7-.91h.9v7.79h-1Z" transform="translate(-2.67 -5.47)"/><path class="cls-32" d="M150.24,410.64V410l.83-.8c2-1.89,2.89-2.9,2.9-4.08a1.39,1.39,0,0,0-1.54-1.52,2.66,2.66,0,0,0-1.66.66l-.33-.74a3.38,3.38,0,0,1,2.2-.8A2.2,2.2,0,0,1,155,405c0,1.44-1,2.6-2.69,4.19l-.62.57v0h3.5v.87Z" transform="translate(-2.67 -5.47)"/><path class="cls-32" d="M158.07,402.43a14.53,14.53,0,0,1-1.13,2.84l-.67.08a18,18,0,0,0,.71-2.81Z" transform="translate(-2.67 -5.47)"/><path class="cls-32" d="M159.71,404.84l.83,1.24.59.95h0c.19-.35.39-.65.58-1l.81-1.23h1.14l-2,2.8,2,3h-1.2l-.85-1.31c-.23-.33-.42-.65-.62-1h0c-.19.35-.39.66-.61,1l-.84,1.31h-1.16l2.06-3-2-2.84Z" transform="translate(-2.67 -5.47)"/><path class="cls-32" d="M166.73,403.83h0l-1.36.73-.2-.8,1.7-.91h.9v7.79h-1Z" transform="translate(-2.67 -5.47)"/><path class="cls-32" d="M172.89,403.83h0l-1.35.73-.21-.8,1.71-.91h.9v7.79h-1Z" transform="translate(-2.67 -5.47)"/><path class="cls-32" d="M178.42,402.43a13.93,13.93,0,0,1-1.13,2.84l-.67.08a18,18,0,0,0,.71-2.81Z" transform="translate(-2.67 -5.47)"/><path class="cls-32" d="M515,83.93a9.08,9.08,0,0,1,1.75-.16,3.06,3.06,0,0,1,2,.54,1.56,1.56,0,0,1,.62,1.31,1.76,1.76,0,0,1-1.25,1.63v0a1.91,1.91,0,0,1,1.52,1.86,2,2,0,0,1-.62,1.49,3.77,3.77,0,0,1-2.57.69,11.76,11.76,0,0,1-1.48-.09Zm1,3h.87c1,0,1.6-.53,1.6-1.24,0-.87-.66-1.21-1.63-1.21a3.48,3.48,0,0,0-.84.07Zm0,3.56a5.52,5.52,0,0,0,.8,0c1,0,1.9-.36,1.9-1.44s-.87-1.43-1.91-1.43h-.79Z" transform="translate(-2.67 -5.47)"/><path class="cls-32" d="M523.84,91.24l-.08-.67h0a2,2,0,0,1-1.63.79,1.52,1.52,0,0,1-1.63-1.53c0-1.28,1.14-2,3.2-2v-.11a1.1,1.1,0,0,0-1.21-1.23,2.66,2.66,0,0,0-1.38.4l-.22-.64a3.21,3.21,0,0,1,1.74-.47c1.63,0,2,1.11,2,2.17v2a7,7,0,0,0,.09,1.27Zm-.15-2.72c-1.05,0-2.25.17-2.25,1.2a.86.86,0,0,0,.91.93,1.34,1.34,0,0,0,1.29-.89,1.12,1.12,0,0,0,.05-.31Z" transform="translate(-2.67 -5.47)"/><path class="cls-32" d="M527.31,84.39v1.53h1.39v.73h-1.39v2.88c0,.66.19,1,.73,1a1.86,1.86,0,0,0,.56-.07l0,.73a2.25,2.25,0,0,1-.85.13,1.35,1.35,0,0,1-1-.4,2,2,0,0,1-.37-1.39V86.65h-.83v-.73h.83V84.64Z" transform="translate(-2.67 -5.47)"/><path class="cls-32" d="M529.79,83.43h1v3.32h0a1.8,1.8,0,0,1,.69-.68,2.06,2.06,0,0,1,1-.27c.72,0,1.86.44,1.86,2.27v3.17h-1V88.18c0-.85-.32-1.58-1.23-1.58a1.39,1.39,0,0,0-1.3,1,1.25,1.25,0,0,0-.06.46v3.21h-1Z" transform="translate(-2.67 -5.47)"/><path class="cls-32" d="M514.39,98.19h0l-1.25.67-.18-.73,1.56-.84h.82v7.15h-.93Z" transform="translate(-2.67 -5.47)"/><path class="cls-32" d="M522.68,100.79c0,2.43-.9,3.77-2.48,3.77-1.4,0-2.35-1.31-2.37-3.67s1-3.72,2.49-3.72S522.68,98.51,522.68,100.79Zm-3.88.11c0,1.86.57,2.92,1.45,2.92s1.46-1.16,1.46-3-.45-2.91-1.45-2.91C519.42,97.92,518.8,99,518.8,100.9Z" transform="translate(-2.67 -5.47)"/><path class="cls-32" d="M525.1,96.91a12.87,12.87,0,0,1-1,2.6l-.62.08A15.69,15.69,0,0,0,524.1,97Z" transform="translate(-2.67 -5.47)"/><path class="cls-32" d="M526.61,99.12l.76,1.14c.2.3.36.57.54.87h0c.18-.32.35-.59.53-.88l.74-1.13h1l-1.81,2.57,1.87,2.75h-1.11l-.78-1.2c-.2-.3-.38-.6-.57-.92h0c-.18.32-.36.6-.56.92l-.77,1.2h-1.07l1.89-2.71-1.8-2.61Z" transform="translate(-2.67 -5.47)"/><path class="cls-32" d="M535.21,98.11h-2.73l-.27,1.83a4.14,4.14,0,0,1,.58,0,3.06,3.06,0,0,1,1.54.38,2,2,0,0,1,1,1.84,2.48,2.48,0,0,1-2.66,2.44,3.49,3.49,0,0,1-1.78-.44l.24-.73a3.29,3.29,0,0,0,1.53.39,1.57,1.57,0,0,0,1.69-1.55c0-.92-.62-1.58-2-1.58a8,8,0,0,0-1,.07l.46-3.43h3.42Z" transform="translate(-2.67 -5.47)"/><path class="cls-32" d="M538.11,96.91a12.31,12.31,0,0,1-1,2.6l-.62.08a14.74,14.74,0,0,0,.65-2.58Z" transform="translate(-2.67 -5.47)"/><path class="cls-32" d="M424.68,63.24l-1.88-7.41h1l.88,3.75c.22.92.42,1.85.55,2.56h0c.12-.74.36-1.62.61-2.57l1-3.74h1l.9,3.76c.21.88.41,1.76.52,2.54h0c.15-.81.36-1.64.59-2.56l1-3.74h1l-2.1,7.41h-1l-.94-3.86a22.81,22.81,0,0,1-.48-2.42h0a23.89,23.89,0,0,1-.57,2.42l-1.06,3.86Z" transform="translate(-2.67 -5.47)"/><path class="cls-32" d="M435.33,63.24l-.08-.67h0a2,2,0,0,1-1.63.79A1.52,1.52,0,0,1,432,61.83c0-1.28,1.15-2,3.2-2v-.11A1.1,1.1,0,0,0,434,58.51a2.66,2.66,0,0,0-1.38.4l-.22-.64a3.25,3.25,0,0,1,1.75-.47c1.62,0,2,1.11,2,2.17v2a7,7,0,0,0,.09,1.27Zm-.15-2.72c-1.05,0-2.25.17-2.25,1.2a.86.86,0,0,0,.91.93,1.32,1.32,0,0,0,1.29-.89,1.12,1.12,0,0,0,.05-.31Z" transform="translate(-2.67 -5.47)"/><path class="cls-32" d="M437.68,55.43h1v7.81h-1Z" transform="translate(-2.67 -5.47)"/><path class="cls-32" d="M441.23,60.36h0c.13-.19.32-.42.47-.61l1.56-1.83h1.17l-2.06,2.19,2.34,3.13h-1.17l-1.84-2.55-.5.55v2h-1V55.43h1Z" transform="translate(-2.67 -5.47)"/><path class="cls-32" d="M447.57,59.91v.71h-2.72v-.71Z" transform="translate(-2.67 -5.47)"/><path class="cls-32" d="M449.78,56.42a.57.57,0,0,1-.61.6.6.6,0,0,1,0-1.2A.57.57,0,0,1,449.78,56.42Zm-1.08,6.82V57.92h1v5.32Z" transform="translate(-2.67 -5.47)"/><path class="cls-32" d="M451.28,59.36c0-.55,0-1,0-1.44h.86l.06.88h0a1.94,1.94,0,0,1,1.76-1c.74,0,1.88.44,1.88,2.26v3.18h-1V60.17c0-.86-.32-1.57-1.23-1.57a1.38,1.38,0,0,0-1.3,1,1.53,1.53,0,0,0-.06.45v3.2h-1Z" transform="translate(-2.67 -5.47)"/><path class="cls-32" d="M431.36,76.2a4.67,4.67,0,0,1-2,.35,3.46,3.46,0,0,1-3.66-3.75,3.68,3.68,0,0,1,3.87-3.89,3.83,3.83,0,0,1,1.76.33l-.23.78a3.41,3.41,0,0,0-1.49-.31,2.76,2.76,0,0,0-2.9,3.06,2.7,2.7,0,0,0,2.85,3,3.73,3.73,0,0,0,1.56-.31Z" transform="translate(-2.67 -5.47)"/><path class="cls-32" d="M432.53,68.63h1v7.81h-1Z" transform="translate(-2.67 -5.47)"/><path class="cls-32" d="M439.94,73.74a2.59,2.59,0,0,1-2.65,2.82,2.53,2.53,0,0,1-2.55-2.74A2.59,2.59,0,0,1,437.38,71,2.52,2.52,0,0,1,439.94,73.74Zm-4.22.05c0,1.17.67,2,1.61,2S439,75,439,73.77c0-.9-.45-2-1.59-2S435.72,72.78,435.72,73.79Z" transform="translate(-2.67 -5.47)"/><path class="cls-32" d="M441,75.45a2.52,2.52,0,0,0,1.28.39c.7,0,1-.35,1-.79s-.27-.72-1-1c-1-.34-1.41-.87-1.41-1.51A1.64,1.64,0,0,1,442.78,71a2.62,2.62,0,0,1,1.31.33l-.24.7a2.11,2.11,0,0,0-1.09-.31c-.57,0-.89.33-.89.73s.32.64,1,.9c.92.35,1.4.82,1.4,1.61s-.73,1.59-2,1.59a3,3,0,0,1-1.5-.36Z" transform="translate(-2.67 -5.47)"/><path class="cls-32" d="M446.06,74a1.7,1.7,0,0,0,1.82,1.84,3.57,3.57,0,0,0,1.48-.27l.16.69a4.19,4.19,0,0,1-1.77.33,2.47,2.47,0,0,1-2.62-2.68,2.58,2.58,0,0,1,2.5-2.87,2.25,2.25,0,0,1,2.2,2.5,4.19,4.19,0,0,1,0,.46Zm2.84-.7a1.38,1.38,0,0,0-1.35-1.57,1.6,1.6,0,0,0-1.48,1.57Z" transform="translate(-2.67 -5.47)"/><path class="cls-32" d="M452.2,69.59v1.53h1.38v.73H452.2v2.88c0,.66.18,1,.72,1a1.86,1.86,0,0,0,.56-.07l0,.73a2.35,2.35,0,0,1-.86.13,1.38,1.38,0,0,1-1.05-.4,2,2,0,0,1-.37-1.39V71.85h-.83v-.73h.83V69.84Z" transform="translate(-2.67 -5.47)"/><path class="cls-32" d="M154,231.93a9.08,9.08,0,0,1,1.75-.16,3.06,3.06,0,0,1,2,.54,1.56,1.56,0,0,1,.62,1.31,1.76,1.76,0,0,1-1.25,1.63v0a1.91,1.91,0,0,1,1.52,1.86,2,2,0,0,1-.62,1.49,3.77,3.77,0,0,1-2.57.69,11.76,11.76,0,0,1-1.48-.09Zm1,3h.87c1,0,1.6-.53,1.6-1.24,0-.87-.66-1.21-1.63-1.21a3.48,3.48,0,0,0-.84.07Zm0,3.56a5.52,5.52,0,0,0,.8,0c1,0,1.9-.36,1.9-1.44s-.87-1.43-1.91-1.43h-.79Z" transform="translate(-2.67 -5.47)"/><path class="cls-32" d="M162.84,239.24l-.08-.67h0a2,2,0,0,1-1.63.79,1.52,1.52,0,0,1-1.63-1.53c0-1.28,1.14-2,3.2-2v-.11a1.1,1.1,0,0,0-1.21-1.23,2.66,2.66,0,0,0-1.38.4l-.23-.64a3.27,3.27,0,0,1,1.75-.47c1.63,0,2,1.11,2,2.17v2a7,7,0,0,0,.09,1.27Zm-.15-2.72c-1.05,0-2.25.17-2.25,1.2a.86.86,0,0,0,.91.93,1.34,1.34,0,0,0,1.29-.89,1.12,1.12,0,0,0,.05-.31Z" transform="translate(-2.67 -5.47)"/><path class="cls-32" d="M166.31,232.39v1.53h1.39v.73h-1.39v2.88c0,.66.19,1,.73,1a1.86,1.86,0,0,0,.56-.07l0,.73a2.25,2.25,0,0,1-.85.13,1.35,1.35,0,0,1-1-.4,2,2,0,0,1-.37-1.39v-2.91h-.83v-.73h.83v-1.28Z" transform="translate(-2.67 -5.47)"/><path class="cls-32" d="M168.79,231.43h1v3.32h0a1.8,1.8,0,0,1,.69-.68,2.06,2.06,0,0,1,1-.27c.72,0,1.86.44,1.86,2.27v3.17h-1v-3.06c0-.85-.32-1.58-1.23-1.58a1.39,1.39,0,0,0-1.3,1,1.25,1.25,0,0,0-.06.46v3.21h-1Z" transform="translate(-2.67 -5.47)"/><path class="cls-32" d="M148.84,246.11h-2.73l-.27,1.83a4.14,4.14,0,0,1,.58,0,3.06,3.06,0,0,1,1.54.38,2,2,0,0,1,1,1.84,2.48,2.48,0,0,1-2.66,2.44,3.49,3.49,0,0,1-1.78-.44l.24-.73a3.29,3.29,0,0,0,1.53.39,1.57,1.57,0,0,0,1.69-1.55c0-.92-.62-1.58-2.05-1.58a8,8,0,0,0-1,.07l.46-3.43h3.42Z" transform="translate(-2.67 -5.47)"/><path class="cls-32" d="M151.74,244.91a12.31,12.31,0,0,1-1,2.6l-.62.08a14.74,14.74,0,0,0,.65-2.58Z" transform="translate(-2.67 -5.47)"/><path class="cls-32" d="M156.57,246a3.15,3.15,0,0,0-.72.05,2.91,2.91,0,0,0-2.49,2.54h0a2.18,2.18,0,0,1,3.89,1.48,2.39,2.39,0,0,1-2.38,2.52c-1.53,0-2.53-1.18-2.53-3a4.54,4.54,0,0,1,1.21-3.23,3.9,3.9,0,0,1,2.29-1,4,4,0,0,1,.7-.06Zm-.27,4.13a1.46,1.46,0,0,0-1.48-1.64,1.58,1.58,0,0,0-1.38.88.78.78,0,0,0-.11.43c0,1.18.56,2,1.57,2C155.74,251.82,156.3,251.12,156.3,250.1Z" transform="translate(-2.67 -5.47)"/><path class="cls-32" d="M159.65,244.91a12.91,12.91,0,0,1-1,2.6l-.62.08a16.76,16.76,0,0,0,.65-2.58Zm1.63,0a13.54,13.54,0,0,1-1,2.6l-.62.08a15.69,15.69,0,0,0,.65-2.58Z" transform="translate(-2.67 -5.47)"/><path class="cls-32" d="M162.79,247.12l.76,1.14c.19.3.36.57.53.87h0c.17-.32.35-.59.53-.88l.74-1.13h1.05l-1.82,2.57,1.87,2.75h-1.1l-.78-1.2c-.21-.3-.38-.6-.57-.92h0c-.18.32-.36.6-.56.92l-.77,1.2h-1.07l1.89-2.72-1.8-2.6Z" transform="translate(-2.67 -5.47)"/><path class="cls-32" d="M167,250.63a2,2,0,0,1,1.42-1.92v0a1.77,1.77,0,0,1-1.13-1.61,2,2,0,0,1,2.21-1.9,1.85,1.85,0,0,1,2.08,1.76,1.81,1.81,0,0,1-1.18,1.67v0a2,2,0,0,1,1.44,1.84,2.2,2.2,0,0,1-2.43,2.08C167.93,252.56,167,251.67,167,250.63Zm3.85,0c0-.87-.6-1.28-1.57-1.56A1.55,1.55,0,0,0,168,250.5a1.33,1.33,0,0,0,1.43,1.36A1.29,1.29,0,0,0,170.88,250.58ZM168.22,247c0,.71.54,1.1,1.36,1.32a1.41,1.41,0,0,0,1.09-1.3,1.11,1.11,0,0,0-1.21-1.17A1.14,1.14,0,0,0,168.22,247Z" transform="translate(-2.67 -5.47)"/><path class="cls-32" d="M174.29,244.91a12.31,12.31,0,0,1-1,2.6l-.62.08a15.69,15.69,0,0,0,.65-2.58Z" transform="translate(-2.67 -5.47)"/><path class="cls-32" d="M179.12,246a3.15,3.15,0,0,0-.72.05,2.9,2.9,0,0,0-2.49,2.54h0a2.18,2.18,0,0,1,3.89,1.48,2.39,2.39,0,0,1-2.38,2.52c-1.53,0-2.53-1.18-2.53-3a4.54,4.54,0,0,1,1.21-3.23,3.9,3.9,0,0,1,2.29-1,4,4,0,0,1,.7-.06Zm-.27,4.13a1.46,1.46,0,0,0-1.48-1.64,1.58,1.58,0,0,0-1.38.88.78.78,0,0,0-.11.43c0,1.18.56,2,1.57,2C178.29,251.82,178.85,251.12,178.85,250.1Z" transform="translate(-2.67 -5.47)"/><path class="cls-32" d="M182.2,244.91a12.91,12.91,0,0,1-1,2.6l-.62.08a16.76,16.76,0,0,0,.65-2.58Zm1.63,0a13.54,13.54,0,0,1-1,2.6l-.62.08a15.69,15.69,0,0,0,.65-2.58Z" transform="translate(-2.67 -5.47)"/><path class="cls-32" d="M450.36,229.27a9.65,9.65,0,0,1,1.9-.17,3.31,3.31,0,0,1,2.22.59,1.69,1.69,0,0,1,.68,1.42,1.93,1.93,0,0,1-1.37,1.78v0a2.08,2.08,0,0,1,1.67,2,2.18,2.18,0,0,1-.69,1.62,4.07,4.07,0,0,1-2.79.75,12.11,12.11,0,0,1-1.62-.09Zm1,3.31h1c1.1,0,1.75-.58,1.75-1.36,0-.95-.72-1.32-1.78-1.32a5,5,0,0,0-.92.07Zm0,3.87a5.13,5.13,0,0,0,.88.05c1.08,0,2.07-.4,2.07-1.57s-1-1.56-2.09-1.56h-.86Z" transform="translate(-2.67 -5.47)"/><path class="cls-32" d="M457.46,234.53a1.87,1.87,0,0,0,2,2,4,4,0,0,0,1.61-.3l.18.75a4.67,4.67,0,0,1-1.93.36,2.69,2.69,0,0,1-2.86-2.92c0-1.76,1-3.13,2.73-3.13a2.46,2.46,0,0,1,2.4,2.73,4.15,4.15,0,0,1,0,.49Zm3.1-.75a1.51,1.51,0,0,0-1.47-1.72,1.76,1.76,0,0,0-1.62,1.72Z" transform="translate(-2.67 -5.47)"/><path class="cls-32" d="M467.9,228.73v7c0,.52,0,1.11.05,1.5H467l-.05-1h0a2.15,2.15,0,0,1-2,1.14c-1.41,0-2.48-1.18-2.48-3,0-1.93,1.18-3.11,2.6-3.11a1.94,1.94,0,0,1,1.75.88h0v-3.46Zm-1.06,5.07a1.65,1.65,0,0,0,0-.44,1.54,1.54,0,0,0-1.52-1.23c-1.09,0-1.74,1-1.74,2.25s.58,2.14,1.72,2.14a1.67,1.67,0,0,0,1.59-1.71Z" transform="translate(-2.67 -5.47)"/><path class="cls-32" d="M469.65,233.25c0-.69,0-1.27,0-1.81h.92l0,1.14h.05a1.75,1.75,0,0,1,1.61-1.27,1.39,1.39,0,0,1,.3,0v1a1.32,1.32,0,0,0-.36,0,1.49,1.49,0,0,0-1.42,1.36,3.47,3.47,0,0,0,0,.49v3.09h-1.05Z" transform="translate(-2.67 -5.47)"/><path class="cls-32" d="M478.71,234.29a2.83,2.83,0,0,1-2.89,3.08,2.76,2.76,0,0,1-2.78-3,2.83,2.83,0,0,1,2.88-3.08A2.75,2.75,0,0,1,478.71,234.29Zm-4.6.06c0,1.27.73,2.23,1.76,2.23s1.76-.94,1.76-2.25c0-1-.49-2.23-1.74-2.23S474.11,233.25,474.11,234.35Z" transform="translate(-2.67 -5.47)"/><path class="cls-32" d="M485.3,234.29a2.83,2.83,0,0,1-2.89,3.08,2.76,2.76,0,0,1-2.79-3,2.83,2.83,0,0,1,2.88-3.08A2.75,2.75,0,0,1,485.3,234.29Zm-4.61.06c0,1.27.73,2.23,1.77,2.23s1.76-.94,1.76-2.25c0-1-.49-2.23-1.74-2.23S480.69,233.25,480.69,234.35Z" transform="translate(-2.67 -5.47)"/><path class="cls-32" d="M486.63,233c0-.6,0-1.09,0-1.57h.92l.05.93h0a2,2,0,0,1,1.83-1.06,1.71,1.71,0,0,1,1.64,1.16h0a2.46,2.46,0,0,1,.65-.76,2,2,0,0,1,1.28-.4c.77,0,1.91.5,1.91,2.51v3.42h-1V234c0-1.12-.41-1.79-1.26-1.79a1.36,1.36,0,0,0-1.25,1,1.64,1.64,0,0,0-.08.53v3.58h-1v-3.48c0-.92-.41-1.59-1.21-1.59a1.45,1.45,0,0,0-1.31,1.05,1.5,1.5,0,0,0-.09.52v3.5h-1Z" transform="translate(-2.67 -5.47)"/><path class="cls-32" d="M440.88,244.83h0l-1.35.73-.21-.8,1.71-.91h.9v7.79h-1Z" transform="translate(-2.67 -5.47)"/><path class="cls-32" d="M447,244.83h0l-1.36.73-.2-.8,1.7-.91h.9v7.79h-1Z" transform="translate(-2.67 -5.47)"/><path class="cls-32" d="M452.57,243.43a14.53,14.53,0,0,1-1.13,2.84l-.67.08a17,17,0,0,0,.7-2.81Z" transform="translate(-2.67 -5.47)"/><path class="cls-32" d="M454.21,245.84l.83,1.24c.21.33.39.63.58.95h0c.19-.35.38-.65.58-1l.81-1.23h1.14l-2,2.8,2,3h-1.2l-.85-1.31c-.23-.33-.42-.65-.62-1h0c-.19.35-.39.66-.61,1l-.84,1.31h-1.16l2.06-3-2-2.84Z" transform="translate(-2.67 -5.47)"/><path class="cls-32" d="M459.55,250.9a4.43,4.43,0,0,0,.85,0,2.9,2.9,0,0,0,1.63-.75,3.38,3.38,0,0,0,1-2.08h0a2.29,2.29,0,0,1-1.84.84,2.26,2.26,0,0,1-2.3-2.39,2.68,2.68,0,0,1,2.66-2.77c1.6,0,2.58,1.3,2.58,3.29a4.91,4.91,0,0,1-1.34,3.66,3.85,3.85,0,0,1-2.27,1,5,5,0,0,1-1,.06Zm.38-4.49a1.51,1.51,0,0,0,1.5,1.66,1.75,1.75,0,0,0,1.54-.82.67.67,0,0,0,.09-.38c0-1.33-.49-2.35-1.59-2.35C460.57,244.52,459.93,245.31,459.93,246.41Z" transform="translate(-2.67 -5.47)"/><path class="cls-32" d="M465.18,251a.71.71,0,0,1,.72-.76.76.76,0,1,1-.72.76Z" transform="translate(-2.67 -5.47)"/><path class="cls-32" d="M472.23,244.73h-3l-.3,2a3.4,3.4,0,0,1,.63-.05,3.28,3.28,0,0,1,1.68.42,2.23,2.23,0,0,1,1.12,2,2.71,2.71,0,0,1-2.91,2.66,3.8,3.8,0,0,1-1.94-.48l.27-.8a3.5,3.5,0,0,0,1.66.43,1.72,1.72,0,0,0,1.85-1.69c0-1-.68-1.73-2.24-1.73a7.29,7.29,0,0,0-1.08.09l.5-3.74h3.73Z" transform="translate(-2.67 -5.47)"/><path class="cls-32" d="M475.39,243.43a14.58,14.58,0,0,1-1.12,2.84l-.67.08a18,18,0,0,0,.71-2.81Zm1.77,0a14.63,14.63,0,0,1-1.11,2.84l-.67.08a17,17,0,0,0,.7-2.81Z" transform="translate(-2.67 -5.47)"/><path class="cls-32" d="M478.81,245.84l.83,1.24c.21.33.39.63.58.95h0c.19-.35.38-.65.58-1l.81-1.23h1.14l-2,2.8,2,3h-1.2l-.85-1.31c-.23-.33-.42-.65-.62-1h0c-.19.35-.39.66-.61,1l-.84,1.31h-1.16l2.06-3-2-2.84Z" transform="translate(-2.67 -5.47)"/><path class="cls-32" d="M485.83,244.83h0l-1.35.73-.2-.8,1.7-.91h.9v7.79h-1Z" transform="translate(-2.67 -5.47)"/><path class="cls-32" d="M493,251.64v-2.12h-3.63v-.7l3.48-5H494v4.84H495v.83H494v2.12Zm0-2.95v-2.6c0-.41,0-.82,0-1.22h0c-.25.45-.44.79-.65,1.15l-1.91,2.65v0Z" transform="translate(-2.67 -5.47)"/><path class="cls-32" d="M497.52,243.43a14.53,14.53,0,0,1-1.13,2.84l-.67.08a17,17,0,0,0,.7-2.81Z" transform="translate(-2.67 -5.47)"/><path class="cls-32" d="M498.94,250.9a4.53,4.53,0,0,0,.86,0,2.93,2.93,0,0,0,1.63-.75,3.49,3.49,0,0,0,1-2.08h0a2.34,2.34,0,0,1-4.13-1.55,2.67,2.67,0,0,1,2.66-2.77c1.59,0,2.58,1.3,2.58,3.29a4.91,4.91,0,0,1-1.35,3.66,3.82,3.82,0,0,1-2.26,1,5.15,5.15,0,0,1-1,.06Zm.39-4.49a1.51,1.51,0,0,0,1.5,1.66,1.72,1.72,0,0,0,1.53-.82.66.66,0,0,0,.1-.38c0-1.33-.49-2.35-1.6-2.35C500,244.52,499.33,245.31,499.33,246.41Z" transform="translate(-2.67 -5.47)"/><path class="cls-32" d="M506.14,243.43a14.63,14.63,0,0,1-1.11,2.84l-.67.08a18,18,0,0,0,.7-2.81Zm1.78,0a14.58,14.58,0,0,1-1.12,2.84l-.67.08a16,16,0,0,0,.71-2.81Z" transform="translate(-2.67 -5.47)"/><path class="cls-32" d="M48.39,150.69c-.06-1.13-.13-2.48-.12-3.49h0c-.27,1-.61,2-1,3.07l-1.42,3.92H45l-1.31-3.85c-.38-1.13-.71-2.18-.94-3.14h0c0,1-.08,2.36-.16,3.58l-.21,3.46h-1l.57-8.08h1.33l1.38,3.91c.33,1,.61,1.88.81,2.72h0c.2-.81.49-1.7.85-2.72l1.44-3.91h1.33l.5,8.08h-1Z" transform="translate(-2.67 -5.47)"/><path class="cls-32" d="M54.48,154.24l-.09-.73h0a2.16,2.16,0,0,1-1.78.86,1.65,1.65,0,0,1-1.77-1.66c0-1.41,1.24-2.17,3.49-2.16v-.12A1.21,1.21,0,0,0,53,149.08a2.82,2.82,0,0,0-1.51.44l-.24-.7a3.6,3.6,0,0,1,1.9-.51c1.78,0,2.21,1.21,2.21,2.37v2.17a7.38,7.38,0,0,0,.1,1.39Zm-.16-3c-1.15,0-2.46.18-2.46,1.31a.93.93,0,0,0,1,1,1.45,1.45,0,0,0,1.4-1,.92.92,0,0,0,.06-.33Z" transform="translate(-2.67 -5.47)"/><path class="cls-32" d="M58.22,146.81a.62.62,0,0,1-.67.64.63.63,0,0,1-.64-.64.64.64,0,0,1,.66-.66A.62.62,0,0,1,58.22,146.81Zm-1.17,7.43v-5.8H58.1v5.8Z" transform="translate(-2.67 -5.47)"/><path class="cls-32" d="M59.85,150c0-.6,0-1.09,0-1.57h.93l.06,1h0a2.11,2.11,0,0,1,1.91-1.09c.81,0,2.05.48,2.05,2.47v3.46H63.74V150.9c0-.94-.35-1.72-1.34-1.72A1.5,1.5,0,0,0,61,150.26a1.45,1.45,0,0,0-.07.49v3.49H59.85Z" transform="translate(-2.67 -5.47)"/><path class="cls-32" d="M73.28,150.45H70.14v2.92h3.5v.87H69.09v-8.08h4.37V147H70.14v2.56h3.14Z" transform="translate(-2.67 -5.47)"/><path class="cls-32" d="M75,150c0-.6,0-1.09,0-1.57h.94l.06,1h0a2.14,2.14,0,0,1,1.92-1.09c.81,0,2.05.48,2.05,2.47v3.46H78.85V150.9c0-.94-.35-1.72-1.35-1.72a1.5,1.5,0,0,0-1.41,1.08,1.45,1.45,0,0,0-.07.49v3.49H75Z" transform="translate(-2.67 -5.47)"/><path class="cls-32" d="M82.84,146.77v1.67h1.52v.8H82.84v3.13c0,.72.21,1.13.8,1.13a2.68,2.68,0,0,0,.61-.07l0,.79a2.73,2.73,0,0,1-.94.14,1.45,1.45,0,0,1-1.14-.44,2.15,2.15,0,0,1-.41-1.51v-3.17h-.9v-.8h.9v-1.39Z" transform="translate(-2.67 -5.47)"/><path class="cls-32" d="M85.55,150.25c0-.69,0-1.27,0-1.81h.92l0,1.14h0a1.75,1.75,0,0,1,1.61-1.27,1.32,1.32,0,0,1,.3,0v1a1.28,1.28,0,0,0-.36,0,1.47,1.47,0,0,0-1.41,1.36,2.38,2.38,0,0,0,0,.49v3.09h-1Z" transform="translate(-2.67 -5.47)"/><path class="cls-32" d="M90.15,148.44l1.27,3.43c.14.38.28.84.38,1.18h0c.11-.34.23-.79.37-1.21l1.15-3.4h1.12l-1.58,4.14c-.76,2-1.28,3-2,3.63a2.8,2.8,0,0,1-1.29.68l-.26-.88a3,3,0,0,0,.92-.52,3.22,3.22,0,0,0,.89-1.18.87.87,0,0,0,.08-.25.81.81,0,0,0-.07-.27L89,148.44Z" transform="translate(-2.67 -5.47)"/><path class="cls-32" d="M378,349.75a3.45,3.45,0,0,0,1.72.48c1,0,1.55-.52,1.55-1.27s-.4-1.08-1.4-1.47c-1.21-.43-2-1.06-2-2.1a2.13,2.13,0,0,1,2.4-2,3.34,3.34,0,0,1,1.64.36l-.26.78a3,3,0,0,0-1.41-.35c-1,0-1.4.6-1.4,1.11,0,.69.45,1,1.48,1.43,1.25.48,1.89,1.09,1.89,2.18s-.85,2.13-2.6,2.13a3.89,3.89,0,0,1-1.89-.47Z" transform="translate(-2.67 -5.47)"/><path class="cls-32" d="M380.12,355.58v1.53h1.38v.74h-1.38v2.87c0,.66.19,1,.72,1a2.28,2.28,0,0,0,.57-.07l0,.73a2.54,2.54,0,0,1-.86.13,1.31,1.31,0,0,1-1-.41,1.94,1.94,0,0,1-.38-1.39v-2.9h-.82v-.74h.82v-1.27Z" transform="translate(-2.67 -5.47)"/><path class="cls-32" d="M382.57,371.26a2.6,2.6,0,0,1-2.65,2.83,2.53,2.53,0,0,1-2.55-2.74,2.6,2.6,0,0,1,2.64-2.83A2.52,2.52,0,0,1,382.57,371.26Zm-4.22.06c0,1.16.67,2,1.61,2s1.62-.87,1.62-2.07c0-.9-.45-2-1.59-2S378.35,370.3,378.35,371.32Z" transform="translate(-2.67 -5.47)"/><path class="cls-32" d="M379,381.83c0-.63,0-1.16,0-1.66h.85l0,1.05h0a1.61,1.61,0,0,1,1.48-1.17,1.06,1.06,0,0,1,.27,0V381a1.06,1.06,0,0,0-.33,0,1.35,1.35,0,0,0-1.29,1.25,2,2,0,0,0-.05.45v2.84h-1Z" transform="translate(-2.67 -5.47)"/><path class="cls-32" d="M381.07,397l-.08-.67h0a2,2,0,0,1-1.63.79,1.51,1.51,0,0,1-1.63-1.52c0-1.29,1.15-2,3.21-2v-.1a1.1,1.1,0,0,0-1.21-1.24,2.66,2.66,0,0,0-1.39.4l-.22-.64a3.27,3.27,0,0,1,1.75-.47c1.63,0,2,1.11,2,2.18v2A7,7,0,0,0,382,397Zm-.14-2.71c-1.06,0-2.26.16-2.26,1.19a.86.86,0,0,0,.91.93,1.32,1.32,0,0,0,1.29-.89.85.85,0,0,0,.06-.31Z" transform="translate(-2.67 -5.47)"/><path class="cls-32" d="M382.29,403.23c0,.38-.05.81-.05,1.46v3.09a3,3,0,0,1-.76,2.43,2.77,2.77,0,0,1-1.93.64,3.39,3.39,0,0,1-1.77-.44l.24-.74a3,3,0,0,0,1.56.42c1,0,1.72-.52,1.72-1.86v-.59h0a1.9,1.9,0,0,1-1.69.89,2.38,2.38,0,0,1-2.27-2.6,2.55,2.55,0,0,1,2.4-2.82,1.76,1.76,0,0,1,1.66.92h0l.05-.8Zm-1,2.1a1.46,1.46,0,0,0-.06-.44,1.41,1.41,0,0,0-1.35-1c-.93,0-1.59.79-1.59,2,0,1,.53,1.91,1.58,1.91a1.41,1.41,0,0,0,1.34-1,1.82,1.82,0,0,0,.08-.52Z" transform="translate(-2.67 -5.47)"/><path class="cls-32" d="M378.56,417.59a1.7,1.7,0,0,0,1.82,1.85,3.61,3.61,0,0,0,1.48-.27l.16.69a4.36,4.36,0,0,1-1.77.33,2.48,2.48,0,0,1-2.62-2.69,2.59,2.59,0,0,1,2.5-2.87,2.26,2.26,0,0,1,2.2,2.51,4,4,0,0,1,0,.45Zm2.83-.69a1.37,1.37,0,0,0-1.34-1.57,1.59,1.59,0,0,0-1.48,1.57Z" transform="translate(-2.67 -5.47)"/><path class="cls-32" d="M258.59,443.52l-.85,1.13v0l1.35-.18v.61l-1.35-.16h0l.86,1.08-.57.33-.54-1.26h0l-.58,1.27-.51-.33.85-1.1h0l-1.33.17v-.61l1.32.17v0l-.84-1.1.55-.32.55,1.26h0l.55-1.26Z" transform="translate(-2.67 -5.47)"/><path class="cls-32" d="M261,447.47l-.63,1.91h-.81l2.06-6.06h1l2.07,6.06h-.84l-.65-1.91Zm2-.61-.6-1.74c-.13-.4-.22-.76-.31-1.11h0c-.09.36-.19.73-.3,1.1l-.6,1.75Z" transform="translate(-2.67 -5.47)"/><path class="cls-32" d="M265.5,443h.79v6.39h-.79Z" transform="translate(-2.67 -5.47)"/><path class="cls-32" d="M267.63,443h.79v6.39h-.79Z" transform="translate(-2.67 -5.47)"/><path class="cls-32" d="M271.68,443.4a10.3,10.3,0,0,1,1.67-.13,3.45,3.45,0,0,1,2.46.76,2.78,2.78,0,0,1,.85,2.18,3.16,3.16,0,0,1-.87,2.35,3.72,3.72,0,0,1-2.68.88,14.21,14.21,0,0,1-1.43-.07Zm.79,5.36a4.42,4.42,0,0,0,.79.05,2.33,2.33,0,0,0,2.58-2.58,2.16,2.16,0,0,0-2.45-2.34,4.77,4.77,0,0,0-.92.08Z" transform="translate(-2.67 -5.47)"/><path class="cls-32" d="M278.53,443.8a.46.46,0,0,1-.5.49.48.48,0,0,1-.48-.49.48.48,0,0,1,.5-.49A.46.46,0,0,1,278.53,443.8Zm-.88,5.58V445h.79v4.35Z" transform="translate(-2.67 -5.47)"/><path class="cls-32" d="M279.76,446.21c0-.46,0-.82,0-1.18h.7l0,.7h0a1.49,1.49,0,0,1,1.37-.8,1.29,1.29,0,0,1,1.23.87h0a1.82,1.82,0,0,1,.48-.57,1.5,1.5,0,0,1,1-.3c.57,0,1.43.37,1.43,1.89v2.56h-.78v-2.46c0-.84-.3-1.35-.94-1.35a1,1,0,0,0-.94.72,1.6,1.6,0,0,0-.06.4v2.69h-.77v-2.61c0-.69-.31-1.2-.91-1.2a1.07,1.07,0,0,0-1,.8,1,1,0,0,0-.07.38v2.63h-.77Z" transform="translate(-2.67 -5.47)"/><path class="cls-32" d="M287.7,447.35a1.4,1.4,0,0,0,1.5,1.51,3,3,0,0,0,1.21-.22l.13.56a3.48,3.48,0,0,1-1.45.27,2,2,0,0,1-2.14-2.19,2.11,2.11,0,0,1,2-2.35,1.84,1.84,0,0,1,1.8,2.05,3.12,3.12,0,0,1,0,.37Zm2.33-.57a1.13,1.13,0,0,0-1.1-1.29,1.33,1.33,0,0,0-1.22,1.29Z" transform="translate(-2.67 -5.47)"/><path class="cls-32" d="M291.77,446.21c0-.46,0-.82,0-1.18h.7l0,.72h0a1.6,1.6,0,0,1,1.44-.82c.61,0,1.54.36,1.54,1.85v2.6h-.79v-2.51c0-.7-.26-1.29-1-1.29a1.12,1.12,0,0,0-1.06.81,1.06,1.06,0,0,0-.06.37v2.62h-.79Z" transform="translate(-2.67 -5.47)"/><path class="cls-32" d="M296.66,448.57a2,2,0,0,0,1,.32c.58,0,.85-.29.85-.65s-.22-.59-.81-.8c-.78-.28-1.15-.71-1.15-1.23a1.34,1.34,0,0,1,1.5-1.28,2.1,2.1,0,0,1,1.07.27l-.2.57a1.75,1.75,0,0,0-.89-.25c-.46,0-.73.27-.73.6s.27.52.83.73c.76.29,1.15.67,1.15,1.32s-.6,1.3-1.63,1.3a2.51,2.51,0,0,1-1.23-.29Z" transform="translate(-2.67 -5.47)"/><path class="cls-32" d="M301.21,443.8a.46.46,0,0,1-.5.49.48.48,0,0,1-.48-.49.48.48,0,0,1,.5-.49A.46.46,0,0,1,301.21,443.8Zm-.88,5.58V445h.79v4.35Z" transform="translate(-2.67 -5.47)"/><path class="cls-32" d="M306.38,447.17a2.13,2.13,0,0,1-2.17,2.31,2.07,2.07,0,0,1-2.09-2.24,2.13,2.13,0,0,1,2.16-2.31A2.06,2.06,0,0,1,306.38,447.17Zm-3.46,0c0,1,.55,1.68,1.33,1.68s1.32-.71,1.32-1.69c0-.74-.37-1.68-1.3-1.68S302.92,446.38,302.92,447.21Z" transform="translate(-2.67 -5.47)"/><path class="cls-32" d="M307.38,446.21c0-.46,0-.82,0-1.18h.7l0,.72h0a1.58,1.58,0,0,1,1.44-.82c.6,0,1.54.36,1.54,1.85v2.6h-.79v-2.51c0-.7-.27-1.29-1-1.29a1.12,1.12,0,0,0-1.06.81,1.06,1.06,0,0,0-.06.37v2.62h-.79Z" transform="translate(-2.67 -5.47)"/><path class="cls-32" d="M312.27,448.57a2,2,0,0,0,1,.32c.58,0,.85-.29.85-.65s-.23-.59-.81-.8c-.79-.28-1.16-.71-1.16-1.23a1.34,1.34,0,0,1,1.51-1.28,2.1,2.1,0,0,1,1.07.27l-.2.57a1.78,1.78,0,0,0-.89-.25c-.47,0-.73.27-.73.6s.26.52.83.73c.75.29,1.14.67,1.14,1.32s-.59,1.3-1.63,1.3a2.47,2.47,0,0,1-1.22-.29Z" transform="translate(-2.67 -5.47)"/><path class="cls-32" d="M318.85,447.47l-.63,1.91h-.81l2.07-6.06h.94l2.07,6.06h-.84l-.64-1.91Zm2-.61-.59-1.74c-.14-.4-.23-.76-.32-1.11h0c-.09.36-.19.73-.31,1.1l-.59,1.75Z" transform="translate(-2.67 -5.47)"/><path class="cls-32" d="M323.33,446.38c0-.51,0-.95,0-1.35H324l0,.85h0a1.31,1.31,0,0,1,1.2-.95l.23,0v.75a1.06,1.06,0,0,0-.27,0,1.11,1.11,0,0,0-1.06,1,2,2,0,0,0,0,.37v2.32h-.78Z" transform="translate(-2.67 -5.47)"/><path class="cls-32" d="M326.62,447.35a1.4,1.4,0,0,0,1.5,1.51,3,3,0,0,0,1.2-.22l.14.56a3.48,3.48,0,0,1-1.45.27,2,2,0,0,1-2.15-2.19,2.12,2.12,0,0,1,2.05-2.35,1.85,1.85,0,0,1,1.8,2.05,2.73,2.73,0,0,1,0,.37Zm2.32-.57a1.13,1.13,0,0,0-1.1-1.29,1.31,1.31,0,0,0-1.21,1.29Z" transform="translate(-2.67 -5.47)"/><path class="cls-32" d="M333.6,447.47l-.63,1.91h-.81l2.07-6.06h.94l2.07,6.06h-.83l-.65-1.91Zm2-.61-.59-1.74c-.13-.4-.22-.76-.31-1.11h0c-.09.36-.19.73-.31,1.1l-.59,1.75Z" transform="translate(-2.67 -5.47)"/><path class="cls-32" d="M338.08,446.45c0-.56,0-1,0-1.42h.71l0,.74h0a1.7,1.7,0,0,1,1.55-.84,2,2,0,0,1,1.84,2.21,2.06,2.06,0,0,1-2,2.34,1.52,1.52,0,0,1-1.34-.68h0v2.37h-.78Zm.78,1.16a1.55,1.55,0,0,0,0,.32,1.22,1.22,0,0,0,1.19.93c.83,0,1.32-.68,1.32-1.68s-.46-1.62-1.3-1.62a1.25,1.25,0,0,0-1.19,1,1.13,1.13,0,0,0-.06.32Z" transform="translate(-2.67 -5.47)"/><path class="cls-32" d="M343.2,446.45c0-.56,0-1,0-1.42h.71l0,.74h0a1.7,1.7,0,0,1,1.55-.84,2,2,0,0,1,1.84,2.21,2.06,2.06,0,0,1-2,2.34,1.52,1.52,0,0,1-1.34-.68h0v2.37h-.78Zm.78,1.16a1.55,1.55,0,0,0,0,.32,1.22,1.22,0,0,0,1.19.93c.83,0,1.32-.68,1.32-1.68s-.46-1.62-1.3-1.62a1.25,1.25,0,0,0-1.19,1,1.13,1.13,0,0,0-.06.32Z" transform="translate(-2.67 -5.47)"/><path class="cls-32" d="M348.32,446.38c0-.51,0-.95,0-1.35h.7l0,.85h0a1.31,1.31,0,0,1,1.21-.95l.22,0v.75a1.06,1.06,0,0,0-.27,0,1.12,1.12,0,0,0-1.06,1,2,2,0,0,0,0,.37v2.32h-.78Z" transform="translate(-2.67 -5.47)"/><path class="cls-32" d="M355.12,447.17a2.13,2.13,0,0,1-2.17,2.31,2.07,2.07,0,0,1-2.09-2.24,2.12,2.12,0,0,1,2.16-2.31A2.07,2.07,0,0,1,355.12,447.17Zm-3.46,0c0,1,.55,1.68,1.32,1.68s1.33-.71,1.33-1.69c0-.74-.37-1.68-1.31-1.68S351.66,446.38,351.66,447.21Z" transform="translate(-2.67 -5.47)"/><path class="cls-32" d="M356.36,445l.62.93.44.71h0c.14-.26.28-.48.43-.72l.61-.92h.86l-1.49,2.1,1.53,2.25h-.9l-.64-1c-.17-.25-.31-.49-.47-.75h0c-.14.26-.29.49-.45.75l-.63,1h-.88l1.55-2.22L355.47,445Z" transform="translate(-2.67 -5.47)"/><path class="cls-32" d="M361,443.8a.49.49,0,1,1-.49-.49A.47.47,0,0,1,361,443.8Zm-.89,5.58V445h.8v4.35Z" transform="translate(-2.67 -5.47)"/><path class="cls-32" d="M362.26,446.21c0-.46,0-.82,0-1.18h.7l0,.7h0a1.49,1.49,0,0,1,1.37-.8,1.29,1.29,0,0,1,1.23.87h0a2,2,0,0,1,.49-.57,1.47,1.47,0,0,1,1-.3c.58,0,1.43.37,1.43,1.89v2.56h-.77v-2.46c0-.84-.31-1.35-.95-1.35a1,1,0,0,0-.93.72,1.24,1.24,0,0,0-.07.4v2.69H365v-2.61c0-.69-.31-1.2-.91-1.2a1.07,1.07,0,0,0-1,.8,1,1,0,0,0-.06.38v2.63h-.78Z" transform="translate(-2.67 -5.47)"/><path class="cls-32" d="M372.18,449.38l-.06-.55h0a1.6,1.6,0,0,1-1.33.65,1.24,1.24,0,0,1-1.34-1.25c0-1.05.94-1.63,2.62-1.62v-.09a.89.89,0,0,0-1-1,2.17,2.17,0,0,0-1.13.33l-.18-.53a2.73,2.73,0,0,1,1.43-.38c1.33,0,1.66.91,1.66,1.78v1.63a6.46,6.46,0,0,0,.07,1Zm-.12-2.22c-.86,0-1.84.13-1.84,1a.7.7,0,0,0,.74.76,1,1,0,0,0,1.1-1Z" transform="translate(-2.67 -5.47)"/><path class="cls-32" d="M375,443.77V445h1.14v.6H375V448c0,.54.16.84.6.84a1.72,1.72,0,0,0,.46-.05l0,.6a2,2,0,0,1-.7.1,1.09,1.09,0,0,1-.86-.33,1.63,1.63,0,0,1-.3-1.13v-2.38h-.68V445h.68v-1Z" transform="translate(-2.67 -5.47)"/><path class="cls-32" d="M377.43,447.35a1.4,1.4,0,0,0,1.5,1.51,2.91,2.91,0,0,0,1.2-.22l.14.56a3.48,3.48,0,0,1-1.45.27,2,2,0,0,1-2.14-2.19,2.11,2.11,0,0,1,2-2.35,1.85,1.85,0,0,1,1.8,2.05c0,.16,0,.29,0,.37Zm2.33-.57a1.13,1.13,0,0,0-1.1-1.29,1.33,1.33,0,0,0-1.22,1.29Z" transform="translate(-2.67 -5.47)"/></g></svg>