<svg xmlns="http://www.w3.org/2000/svg" viewBox="0 0 493.34 478.08"><defs><style>.cls-1,.cls-3,.cls-4{fill:none;}.cls-1,.cls-3,.cls-4,.cls-5{stroke:#c5a458;stroke-linecap:round;stroke-linejoin:round;}.cls-1,.cls-4{stroke-width:0.25px;}.cls-2{fill:#c5a458;}.cls-3{stroke-width:0.75px;}.cls-3,.cls-4{fill-rule:evenodd;}.cls-5{fill:#333;}.cls-6{font-size:9px;fill:#dedacf;font-family:ArialMT, Arial;}</style></defs><title>7-8</title><g id="Layer_2" data-name="Layer 2"><g id="Layer_25" data-name="Layer 25"><line class="cls-1" x1="427.01" y1="266.67" x2="449.69" y2="266.66"/><line class="cls-1" x1="449.69" y1="266.66" x2="449.68" y2="255.32"/><line class="cls-1" x1="449.68" y1="255.32" x2="427" y2="255.33"/><line class="cls-1" x1="427" y1="255.33" x2="427.01" y2="266.67"/><line class="cls-1" x1="428.43" y1="265.25" x2="428.42" y2="256.75"/><line class="cls-1" x1="428.42" y1="256.75" x2="431.26" y2="256.75"/><line class="cls-1" x1="431.26" y1="256.75" x2="431.26" y2="265.25"/><line class="cls-1" x1="431.26" y1="265.25" x2="428.43" y2="265.25"/><line class="cls-1" x1="432.68" y1="265.25" x2="432.67" y2="256.75"/><line class="cls-1" x1="432.67" y1="256.75" x2="444.01" y2="256.74"/><line class="cls-1" x1="444.01" y1="256.74" x2="444.02" y2="265.24"/><line class="cls-1" x1="444.02" y1="265.24" x2="432.68" y2="265.25"/><line class="cls-1" x1="448.27" y1="265.24" x2="445.43" y2="265.24"/><line class="cls-1" x1="445.43" y1="265.24" x2="445.43" y2="256.74"/><line class="cls-1" x1="445.43" y1="256.74" x2="448.26" y2="256.73"/><line class="cls-1" x1="448.26" y1="256.73" x2="448.27" y2="265.24"/><line class="cls-1" x1="469.81" y1="321.22" x2="469.83" y2="343.9"/><line class="cls-1" x1="469.83" y1="343.9" x2="481.16" y2="343.89"/><line class="cls-1" x1="481.16" y1="343.89" x2="481.15" y2="321.22"/><line class="cls-1" x1="481.15" y1="321.22" x2="469.81" y2="321.22"/><line class="cls-1" x1="471.23" y1="322.64" x2="479.73" y2="322.63"/><line class="cls-1" x1="479.73" y1="322.63" x2="479.73" y2="325.47"/><line class="cls-1" x1="479.73" y1="325.47" x2="471.23" y2="325.48"/><line class="cls-1" x1="471.23" y1="325.48" x2="471.23" y2="322.64"/><line class="cls-1" x1="471.23" y1="326.89" x2="479.74" y2="326.89"/><line class="cls-1" x1="479.74" y1="326.89" x2="479.74" y2="338.23"/><line class="cls-1" x1="479.74" y1="338.23" x2="471.24" y2="338.23"/><line class="cls-1" x1="471.24" y1="338.23" x2="471.23" y2="326.89"/><line class="cls-1" x1="471.24" y1="342.48" x2="471.24" y2="339.65"/><line class="cls-1" x1="471.24" y1="339.65" x2="479.74" y2="339.64"/><line class="cls-1" x1="479.74" y1="339.64" x2="479.75" y2="342.48"/><line class="cls-1" x1="479.75" y1="342.48" x2="471.24" y2="342.48"/><line class="cls-1" x1="469.79" y1="298.55" x2="469.81" y2="321.22"/><line class="cls-1" x1="469.81" y1="321.22" x2="481.15" y2="321.22"/><line class="cls-1" x1="481.15" y1="321.22" x2="481.13" y2="298.54"/><line class="cls-1" x1="481.13" y1="298.54" x2="469.79" y2="298.55"/><line class="cls-1" x1="471.21" y1="299.96" x2="479.72" y2="299.96"/><line class="cls-1" x1="479.72" y1="299.96" x2="479.72" y2="302.79"/><line class="cls-1" x1="479.72" y1="302.79" x2="471.21" y2="302.8"/><line class="cls-1" x1="471.21" y1="302.8" x2="471.21" y2="299.96"/><line class="cls-1" x1="471.22" y1="304.22" x2="479.72" y2="304.21"/><line class="cls-1" x1="479.72" y1="304.21" x2="479.73" y2="315.55"/><line class="cls-1" x1="479.73" y1="315.55" x2="471.22" y2="315.55"/><line class="cls-1" x1="471.22" y1="315.55" x2="471.22" y2="304.22"/><line class="cls-1" x1="471.23" y1="319.81" x2="471.22" y2="316.97"/><line class="cls-1" x1="471.22" y1="316.97" x2="479.73" y2="316.97"/><line class="cls-1" x1="479.73" y1="316.97" x2="479.73" y2="319.8"/><line class="cls-1" x1="479.73" y1="319.8" x2="471.23" y2="319.81"/><line class="cls-1" x1="138.57" y1="230.1" x2="118.52" y2="240.68"/><line class="cls-1" x1="118.52" y1="240.68" x2="123.81" y2="250.71"/><line class="cls-1" x1="123.81" y1="250.71" x2="143.86" y2="240.12"/><line class="cls-1" x1="143.86" y1="240.12" x2="138.57" y2="230.1"/><line class="cls-1" x1="137.98" y1="232.01" x2="141.95" y2="239.53"/><line class="cls-1" x1="141.95" y1="239.53" x2="139.44" y2="240.86"/><line class="cls-1" x1="139.44" y1="240.86" x2="135.47" y2="233.34"/><line class="cls-1" x1="135.47" y1="233.34" x2="137.98" y2="232.01"/><line class="cls-1" x1="134.22" y1="234" x2="138.19" y2="241.52"/><line class="cls-1" x1="138.19" y1="241.52" x2="128.16" y2="246.81"/><line class="cls-1" x1="128.16" y1="246.81" x2="124.19" y2="239.29"/><line class="cls-1" x1="124.19" y1="239.29" x2="134.22" y2="234"/><line class="cls-1" x1="120.43" y1="241.28" x2="122.94" y2="239.95"/><line class="cls-1" x1="122.94" y1="239.95" x2="126.91" y2="247.47"/><line class="cls-1" x1="126.91" y1="247.47" x2="124.4" y2="248.8"/><line class="cls-1" x1="124.4" y1="248.8" x2="120.43" y2="241.28"/><line class="cls-1" x1="282.24" y1="289.42" x2="259.57" y2="289.44"/><line class="cls-1" x1="259.57" y1="289.44" x2="259.57" y2="300.78"/><line class="cls-1" x1="259.57" y1="300.78" x2="282.25" y2="300.76"/><line class="cls-1" x1="282.25" y1="300.76" x2="282.24" y2="289.42"/><line class="cls-1" x1="280.83" y1="290.84" x2="280.83" y2="299.35"/><line class="cls-1" x1="280.83" y1="299.35" x2="278" y2="299.35"/><line class="cls-1" x1="278" y1="299.35" x2="277.99" y2="290.84"/><line class="cls-1" x1="277.99" y1="290.84" x2="280.83" y2="290.84"/><line class="cls-1" x1="276.57" y1="290.84" x2="276.58" y2="299.35"/><line class="cls-1" x1="276.58" y1="299.35" x2="265.24" y2="299.36"/><line class="cls-1" x1="265.24" y1="299.36" x2="265.24" y2="290.85"/><line class="cls-1" x1="265.24" y1="290.85" x2="276.57" y2="290.84"/><line class="cls-1" x1="260.98" y1="290.86" x2="263.82" y2="290.85"/><line class="cls-1" x1="263.82" y1="290.85" x2="263.82" y2="299.36"/><line class="cls-1" x1="263.82" y1="299.36" x2="260.99" y2="299.36"/><line class="cls-1" x1="260.99" y1="299.36" x2="260.98" y2="290.86"/><line class="cls-1" x1="259.57" y1="289.44" x2="236.89" y2="289.46"/><line class="cls-1" x1="236.89" y1="289.46" x2="236.9" y2="300.79"/><line class="cls-1" x1="236.9" y1="300.79" x2="259.57" y2="300.78"/><line class="cls-1" x1="259.57" y1="300.78" x2="259.57" y2="289.44"/><line class="cls-1" x1="258.15" y1="290.86" x2="258.16" y2="299.36"/><line class="cls-1" x1="258.16" y1="299.36" x2="255.32" y2="299.36"/><line class="cls-1" x1="255.32" y1="299.36" x2="255.31" y2="290.86"/><line class="cls-1" x1="255.31" y1="290.86" x2="258.15" y2="290.86"/><line class="cls-1" x1="253.9" y1="290.86" x2="253.9" y2="299.36"/><line class="cls-1" x1="253.9" y1="299.36" x2="242.56" y2="299.37"/><line class="cls-1" x1="242.56" y1="299.37" x2="242.56" y2="290.87"/><line class="cls-1" x1="242.56" y1="290.87" x2="253.9" y2="290.86"/><line class="cls-1" x1="238.31" y1="290.87" x2="241.14" y2="290.87"/><line class="cls-1" x1="241.14" y1="290.87" x2="241.15" y2="299.37"/><line class="cls-1" x1="241.15" y1="299.37" x2="238.31" y2="299.37"/><line class="cls-1" x1="238.31" y1="299.37" x2="238.31" y2="290.87"/><polygon class="cls-2" points="352.8 216.98 351.52 217.59 352.72 220.15 354.01 219.55 352.8 216.98 352.8 216.98"/><polygon class="cls-2" points="379.73 204.31 378.45 204.91 379.65 207.47 380.94 206.87 379.73 204.31 379.73 204.31"/><path class="cls-3" d="M378.45,204.91A28.33,28.33,0,0,0,369,193.7"/><polygon class="cls-2" points="368.97 193.7 352.8 216.98 353.96 217.79 370.14 194.51 368.97 193.7 368.97 193.7"/><polygon class="cls-2" points="179.22 171.73 178.09 172.26 179.15 174.52 180.28 173.99 179.22 171.73 179.22 171.73"/><polygon class="cls-2" points="155.52 182.88 154.39 183.41 155.46 185.67 156.58 185.14 155.52 182.88 155.52 182.88"/><path class="cls-3" d="M155.52,182.88a25,25,0,0,1-2.29-12.71"/><polygon class="cls-2" points="153.24 170.17 153.13 171.41 177.99 173.5 178.09 172.26 153.24 170.17 153.24 170.17"/><polygon class="cls-2" points="206.66 158.84 205.69 159.3 206.6 161.22 207.57 160.77 206.66 158.84 206.66 158.84"/><polygon class="cls-2" points="186.41 168.37 185.44 168.83 186.35 170.76 187.31 170.3 186.41 168.37 186.41 168.37"/><path class="cls-3" d="M186.41,168.37a21.36,21.36,0,0,1-2-10.87"/><polygon class="cls-2" points="184.45 157.51 184.36 158.57 205.6 160.36 205.69 159.3 184.45 157.51 184.45 157.51"/><polygon class="cls-2" points="149.97 185.56 148.84 186.09 149.9 188.35 151.03 187.82 149.97 185.56 149.97 185.56"/><polygon class="cls-2" points="126.27 196.72 125.14 197.25 126.2 199.51 127.33 198.97 126.27 196.72 126.27 196.72"/><path class="cls-3" d="M126.27,196.71A25,25,0,0,1,124,184"/><polygon class="cls-2" points="123.99 184 123.88 185.24 148.74 187.34 148.84 186.09 123.99 184 123.99 184"/><rect class="cls-1" x="326.56" y="232.3" width="1.14" height="2.28" transform="translate(-68.35 161.98) rotate(-25.27)"/><rect class="cls-1" x="304.9" y="242.5" width="1.14" height="2.28" transform="translate(-74.6 152.98) rotate(-25.16)"/><path class="cls-4" d="M305.5,242.36a22.78,22.78,0,0,1-2.09-11.61"/><rect class="cls-1" x="314.16" y="220.87" width="1.14" height="22.8" transform="translate(56.87 526.4) rotate(-85.19)"/><polygon class="cls-2" points="165.55 276.4 163.49 277.37 163.97 278.4 166.04 277.43 165.55 276.4 165.55 276.4"/><polygon class="cls-2" points="155.36 254.74 153.29 255.71 153.78 256.74 155.84 255.77 155.36 254.74 155.36 254.74"/><path class="cls-3" d="M155.84,255.77a22.8,22.8,0,0,1,11.61-2.09"/><polygon class="cls-2" points="166.32 253.59 164.41 276.31 165.55 276.4 167.45 253.68 166.32 253.59 166.32 253.59"/><polygon class="cls-2" points="138.88 225.23 136.82 226.21 137.31 227.24 139.37 226.27 138.88 225.23 138.88 225.23"/><polygon class="cls-2" points="128.69 203.57 126.63 204.54 127.11 205.58 129.18 204.6 128.69 203.57 128.69 203.57"/><path class="cls-3" d="M129.17,204.61a22.78,22.78,0,0,1,11.61-2.09"/><polygon class="cls-2" points="139.65 202.42 137.75 225.14 138.88 225.23 140.79 202.51 139.65 202.42 139.65 202.42"/><polygon class="cls-2" points="427.83 297.49 425.56 297.57 425.59 298.71 427.87 298.63 427.83 297.49 427.83 297.49"/><polygon class="cls-2" points="427.07 273.56 424.79 273.64 424.83 274.77 427.11 274.7 427.07 273.56 427.07 273.56"/><path class="cls-3" d="M427.11,274.7a22.81,22.81,0,0,1,11.49,2.69"/><polygon class="cls-2" points="437.59 276.85 426.83 296.96 427.83 297.49 438.6 277.39 437.59 276.85 437.59 276.85"/><polygon class="cls-2" points="407.84 228.74 405.7 229.75 406.2 230.82 408.35 229.81 407.84 228.74 407.84 228.74"/><polygon class="cls-2" points="418.46 251.26 416.31 252.27 416.82 253.34 418.96 252.33 418.46 251.26 418.46 251.26"/><path class="cls-3" d="M416.31,252.27a23.71,23.71,0,0,1-12.08,2.18"/><polygon class="cls-2" points="406.2 230.82 404.23 254.44 405.41 254.54 407.39 230.92 406.2 230.82 406.2 230.82"/><polygon class="cls-2" points="384.04 302.45 384.04 305.02 385.32 305.02 385.32 302.45 384.04 302.45 384.04 302.45"/><polygon class="cls-2" points="358.39 302.44 357.1 302.44 357.1 305.01 358.38 305.01 358.39 302.44 358.39 302.44"/><path class="cls-3" d="M358.39,302.44a25.64,25.64,0,0,1,3.44-12.82"/><polygon class="cls-2" points="361.83 289.62 361.19 290.73 383.4 303.56 384.04 302.45 361.83 289.62 361.83 289.62"/><polygon class="cls-2" points="216.38 302.45 216.38 305.02 217.66 305.02 217.66 302.45 216.38 302.45 216.38 302.45"/><polygon class="cls-2" points="190.72 302.44 189.44 302.44 189.44 305.01 190.72 305.01 190.72 302.44 190.72 302.44"/><path class="cls-3" d="M190.72,302.44a25.66,25.66,0,0,1,3.44-12.83"/><polygon class="cls-2" points="194.16 289.62 193.52 290.73 215.73 303.56 216.38 302.45 194.16 289.62 194.16 289.62"/><line class="cls-1" x1="119.3" y1="35.66" x2="109.04" y2="41.97"/><line class="cls-1" x1="109.04" y1="41.97" x2="109.19" y2="42.21"/><line class="cls-1" x1="109.19" y1="42.21" x2="119.44" y2="35.9"/><line class="cls-1" x1="119.44" y1="35.9" x2="119.3" y2="35.66"/><line class="cls-1" x1="107.83" y1="42.72" x2="97.57" y2="49.03"/><line class="cls-1" x1="97.57" y1="49.03" x2="97.72" y2="49.27"/><line class="cls-1" x1="97.72" y1="49.27" x2="107.98" y2="42.96"/><line class="cls-1" x1="107.98" y1="42.96" x2="107.83" y2="42.72"/><line class="cls-1" x1="120.06" y1="34.19" x2="95.92" y2="49.05"/><line class="cls-1" x1="118.85" y1="34.93" x2="119.89" y2="36.62"/><line class="cls-1" x1="121.1" y1="35.88" x2="96.96" y2="50.74"/><line class="cls-1" x1="121.1" y1="35.88" x2="120.06" y2="34.19"/><line class="cls-1" x1="95.92" y1="49.05" x2="96.96" y2="50.74"/><line class="cls-1" x1="98.17" y1="50" x2="97.13" y2="48.31"/><line class="cls-1" x1="107.38" y1="41.99" x2="108.42" y2="43.68"/><line class="cls-1" x1="109.63" y1="42.94" x2="108.59" y2="41.25"/><line class="cls-1" x1="122.88" y1="38.78" x2="98.74" y2="53.64"/><line class="cls-1" x1="116.34" y1="28.15" x2="92.2" y2="43.02"/><line class="cls-1" x1="153.09" y1="14.85" x2="142.83" y2="21.17"/><line class="cls-1" x1="142.83" y1="21.17" x2="142.98" y2="21.41"/><line class="cls-1" x1="142.98" y1="21.41" x2="153.24" y2="15.09"/><line class="cls-1" x1="153.24" y1="15.09" x2="153.09" y2="14.85"/><line class="cls-1" x1="141.62" y1="21.91" x2="131.37" y2="28.23"/><line class="cls-1" x1="131.37" y1="28.23" x2="131.51" y2="28.47"/><line class="cls-1" x1="131.51" y1="28.47" x2="141.77" y2="22.15"/><line class="cls-1" x1="141.77" y1="22.15" x2="141.62" y2="21.91"/><line class="cls-1" x1="153.85" y1="13.38" x2="129.71" y2="28.25"/><line class="cls-1" x1="152.64" y1="14.13" x2="153.68" y2="15.82"/><line class="cls-1" x1="154.89" y1="15.07" x2="130.75" y2="29.94"/><line class="cls-1" x1="154.89" y1="15.07" x2="153.85" y2="13.38"/><line class="cls-1" x1="129.71" y1="28.25" x2="130.75" y2="29.94"/><line class="cls-1" x1="131.96" y1="29.19" x2="130.92" y2="27.5"/><line class="cls-1" x1="141.18" y1="21.19" x2="142.22" y2="22.87"/><line class="cls-1" x1="143.43" y1="22.13" x2="142.39" y2="20.44"/><line class="cls-1" x1="156.68" y1="17.97" x2="132.54" y2="32.83"/><line class="cls-1" x1="150.14" y1="7.35" x2="126" y2="22.21"/><line class="cls-1" x1="38.43" y1="85.44" x2="28.17" y2="91.76"/><line class="cls-1" x1="28.17" y1="91.76" x2="28.32" y2="92"/><line class="cls-1" x1="28.32" y1="92" x2="38.58" y2="85.68"/><line class="cls-1" x1="38.58" y1="85.68" x2="38.43" y2="85.44"/><line class="cls-1" x1="26.97" y1="92.5" x2="16.71" y2="98.82"/><line class="cls-1" x1="16.71" y1="98.82" x2="16.86" y2="99.06"/><line class="cls-1" x1="16.86" y1="99.06" x2="27.11" y2="92.74"/><line class="cls-1" x1="27.11" y1="92.74" x2="26.97" y2="92.5"/><line class="cls-1" x1="39.19" y1="83.97" x2="15.05" y2="98.84"/><line class="cls-1" x1="37.99" y1="84.72" x2="39.03" y2="86.41"/><line class="cls-1" x1="40.23" y1="85.66" x2="16.1" y2="100.53"/><line class="cls-1" x1="40.23" y1="85.66" x2="39.19" y2="83.97"/><line class="cls-1" x1="15.05" y1="98.84" x2="16.1" y2="100.53"/><line class="cls-1" x1="17.3" y1="99.78" x2="16.26" y2="98.09"/><line class="cls-1" x1="26.52" y1="91.78" x2="27.56" y2="93.47"/><line class="cls-1" x1="28.77" y1="92.72" x2="27.73" y2="91.03"/><line class="cls-1" x1="42.02" y1="88.56" x2="17.88" y2="103.42"/><line class="cls-1" x1="35.48" y1="77.94" x2="11.34" y2="92.8"/><line class="cls-1" x1="72.23" y1="64.64" x2="61.97" y2="70.95"/><line class="cls-1" x1="61.97" y1="70.95" x2="62.12" y2="71.19"/><line class="cls-1" x1="62.12" y1="71.19" x2="72.37" y2="64.88"/><line class="cls-1" x1="72.37" y1="64.88" x2="72.23" y2="64.64"/><line class="cls-1" x1="60.76" y1="71.7" x2="50.5" y2="78.01"/><line class="cls-1" x1="50.5" y1="78.01" x2="50.65" y2="78.25"/><line class="cls-1" x1="50.65" y1="78.25" x2="60.91" y2="71.94"/><line class="cls-1" x1="60.91" y1="71.94" x2="60.76" y2="71.7"/><line class="cls-1" x1="72.99" y1="63.17" x2="48.85" y2="78.03"/><line class="cls-1" x1="71.78" y1="63.91" x2="72.82" y2="65.6"/><line class="cls-1" x1="74.03" y1="64.86" x2="49.89" y2="79.72"/><line class="cls-1" x1="74.03" y1="64.86" x2="72.99" y2="63.17"/><line class="cls-1" x1="48.85" y1="78.03" x2="49.89" y2="79.72"/><line class="cls-1" x1="51.1" y1="78.98" x2="50.06" y2="77.29"/><line class="cls-1" x1="60.31" y1="70.97" x2="61.35" y2="72.66"/><line class="cls-1" x1="62.56" y1="71.92" x2="61.52" y2="70.23"/><line class="cls-1" x1="75.81" y1="67.75" x2="51.67" y2="82.62"/><line class="cls-1" x1="69.27" y1="57.13" x2="45.13" y2="72"/><line class="cls-1" x1="372.01" y1="414.04" x2="396.14" y2="400.08"/><line class="cls-1" x1="372.22" y1="414.4" x2="396.35" y2="400.45"/><line class="cls-1" x1="372.43" y1="414.77" x2="396.56" y2="400.82"/><polygon class="cls-4" points="396.92 401.43 395.5 398.98 371.37 412.93 372.79 415.38 398.14 400.72 396.92 401.43"/><line class="cls-1" x1="239.86" y1="414.15" x2="263.99" y2="400.19"/><line class="cls-1" x1="240.08" y1="414.51" x2="264.21" y2="400.56"/><line class="cls-1" x1="240.29" y1="414.88" x2="264.42" y2="400.93"/><polygon class="cls-4" points="264.77 401.54 263.36 399.09 239.22 413.04 240.64 415.5 266 400.83 264.77 401.54"/><polyline class="cls-4" points="486.72 416.02 182.98 416.23 185.22 420.48 487.88 420.27"/><line class="cls-1" x1="186.96" y1="419.77" x2="487.88" y2="419.56"/><line class="cls-1" x1="186.96" y1="418.91" x2="486.72" y2="418.71"/><line class="cls-1" x1="186.96" y1="419.34" x2="487.22" y2="419.13"/><polygon class="cls-4" points="402.27 416.07 403.69 416.07 403.69 420.32 402.27 420.33 402.27 416.07 402.27 416.07"/><polygon class="cls-4" points="434.4 416.05 435.81 416.05 435.82 420.3 434.4 420.3 434.4 416.05 434.4 416.05"/><polygon class="cls-4" points="370.14 416.1 371.56 416.1 371.56 420.35 370.15 420.35 370.14 416.1 370.14 416.1"/><polygon class="cls-4" points="338.02 416.12 339.44 416.12 339.44 420.37 338.02 420.37 338.02 416.12 338.02 416.12"/><polygon class="cls-4" points="305.89 416.14 307.31 416.14 307.31 420.39 305.89 420.39 305.89 416.14 305.89 416.14"/><polygon class="cls-4" points="273.76 416.16 275.18 416.16 275.19 420.41 273.77 420.41 273.76 416.16 273.76 416.16"/><polygon class="cls-4" points="466.52 416.03 467.94 416.03 467.94 420.28 466.52 420.28 466.52 416.03 466.52 416.03"/><polygon class="cls-4" points="241.64 416.19 243.06 416.18 243.06 420.44 241.64 420.44 241.64 416.19 241.64 416.19"/><polygon class="cls-4" points="209.51 416.21 210.93 416.2 210.93 420.46 209.52 420.46 209.51 416.21 209.51 416.21"/><polygon class="cls-4" points="185.54 416.22 186.96 416.22 186.96 420.47 185.54 420.48 185.54 416.22 185.54 416.22"/><rect class="cls-1" x="464.7" y="305.02" width="17.01" height="17.01"/><path class="cls-4" d="M462.71,307.58l-24.38,0a1.13,1.13,0,0,0-1.13,1.13v11.34a1.13,1.13,0,0,0,1.13,1.13l24.38,0a1.13,1.13,0,0,0,1.13-1.13V308.71a1.13,1.13,0,0,0-1.13-1.13Z"/><circle class="cls-1" cx="446.31" cy="313.53" r="0.51"/><path class="cls-4" d="M446.56,308.72H440a1.7,1.7,0,0,0-1.7,1.7v7.94a1.7,1.7,0,0,0,1.7,1.7h6.52a1.7,1.7,0,0,0,1.7-1.7v-7.94a1.7,1.7,0,0,0-1.7-1.7Z"/><rect class="cls-1" x="436.36" y="305.03" width="28.35" height="17.01"/><rect class="cls-1" x="464.75" y="373.05" width="17.01" height="17.01"/><rect class="cls-1" x="464.72" y="322.03" width="17.01" height="34.02"/><rect class="cls-1" x="123.95" y="293.86" width="48.19" height="21.26" transform="translate(-125.01 104.3) rotate(-27.82)"/><path class="cls-4" d="M129.65,318.21l-3.31-6.27a5.67,5.67,0,0,1,2.37-7.66l30.08-15.88a5.67,5.67,0,0,1,7.66,2.37l2,3.88"/><path class="cls-4" d="M168.53,294.72l1.22,2.32a5.67,5.67,0,0,1-2.37,7.66l-30.08,15.88a5.67,5.67,0,0,1-7.66-2.37"/><line class="cls-1" x1="120.45" y1="303.83" x2="116.15" y2="295.68"/><path class="cls-4" d="M130.53,294.22a5.67,5.67,0,0,1-3,5.85"/><path class="cls-4" d="M125.47,284.64a16.35,16.35,0,0,1,3.34,4.36"/><path class="cls-4" d="M124.5,285.68a15,15,0,0,1,3.05,4"/><line class="cls-1" x1="111.85" y1="287.54" x2="116.15" y2="295.68"/><line class="cls-1" x1="115.02" y1="287.47" x2="118.66" y2="294.36"/><path class="cls-4" d="M119,283.78a5.67,5.67,0,0,1,6.5.86"/><path class="cls-4" d="M119.63,285a4.25,4.25,0,0,1,4.88.64"/><line class="cls-1" x1="118.97" y1="283.78" x2="111.85" y2="287.54"/><line class="cls-1" x1="119.63" y1="285.04" x2="115.02" y2="287.47"/><path class="cls-4" d="M128.81,289a16.37,16.37,0,0,1,1.71,5.22"/><line class="cls-1" x1="127.57" y1="300.08" x2="120.45" y2="303.83"/><path class="cls-4" d="M127.56,289.66a15,15,0,0,1,1.57,4.77"/><line class="cls-1" x1="122.3" y1="301.26" x2="118.66" y2="294.36"/><path class="cls-4" d="M129.12,294.43a4.25,4.25,0,0,1-2.22,4.39"/><line class="cls-1" x1="126.9" y1="298.82" x2="122.3" y2="301.26"/><line class="cls-1" x1="116.15" y1="295.68" x2="121.89" y2="292.66"/><line class="cls-1" x1="120.8" y1="293.23" x2="121.68" y2="294.92"/><line class="cls-1" x1="120.8" y1="293.23" x2="119.91" y2="291.55"/><path class="cls-4" d="M88.46,243.21l13.16-6.95a6.37,6.37,0,0,0,2.66-8.62h0A6.37,6.37,0,0,0,95.67,225L82.5,231.93Z"/><circle class="cls-1" cx="98.64" cy="230.62" r="4.25" transform="translate(-96.24 72.71) rotate(-27.82)"/><rect class="cls-1" x="405.62" y="187.38" width="48.19" height="21.26" transform="translate(-43.41 201.88) rotate(-25.21)"/><path class="cls-4" d="M410.7,210.87l-3-6.41a5.67,5.67,0,0,1,2.71-7.54l30.78-14.49a5.66,5.66,0,0,1,7.54,2.71l1.87,4"/><path class="cls-4" d="M450.62,189.18l1.12,2.37A5.67,5.67,0,0,1,449,199.1l-30.78,14.49a5.67,5.67,0,0,1-7.54-2.71"/><path class="cls-4" d="M481.7,291.2H466.81a6.38,6.38,0,0,1-6.38-6.37h0a6.38,6.38,0,0,1,6.37-6.38h14.88Z"/><circle class="cls-1" cx="466.81" cy="284.83" r="4.25"/><line class="cls-1" x1="466.64" y1="219.88" x2="462.72" y2="211.55"/><path class="cls-4" d="M452.91,222.15a5.67,5.67,0,0,0,6.46,1.16"/><path class="cls-4" d="M448.29,212.35a16.41,16.41,0,0,0,1.47,5.29"/><path class="cls-4" d="M449.7,212.2A15,15,0,0,0,451,217"/><line class="cls-1" x1="458.79" y1="203.21" x2="462.72" y2="211.55"/><line class="cls-1" x1="456.83" y1="205.7" x2="460.15" y2="212.75"/><path class="cls-4" d="M451.52,206.64a5.67,5.67,0,0,0-3.22,5.71"/><path class="cls-4" d="M452.12,207.92a4.25,4.25,0,0,0-2.42,4.28"/><line class="cls-1" x1="451.52" y1="206.64" x2="458.79" y2="203.21"/><line class="cls-1" x1="452.12" y1="207.92" x2="456.83" y2="205.7"/><path class="cls-4" d="M449.76,217.64a16.38,16.38,0,0,0,3.14,4.51"/><line class="cls-1" x1="459.36" y1="223.31" x2="466.64" y2="219.88"/><path class="cls-4" d="M451,217a15,15,0,0,0,2.87,4.12"/><line class="cls-1" x1="463.47" y1="219.81" x2="460.15" y2="212.75"/><path class="cls-4" d="M453.92,221.16a4.25,4.25,0,0,0,4.84.87"/><line class="cls-1" x1="458.76" y1="222.03" x2="463.47" y2="219.81"/><line class="cls-1" x1="462.72" y1="211.55" x2="456.85" y2="214.31"/><line class="cls-1" x1="457.97" y1="213.78" x2="458.78" y2="215.5"/><line class="cls-1" x1="457.97" y1="213.78" x2="457.16" y2="212.06"/><line class="cls-1" x1="473.25" y1="373.05" x2="481.75" y2="364.54"/><line class="cls-1" x1="481.74" y1="356.04" x2="464.74" y2="373.05"/><line class="cls-1" x1="481.75" y1="373.04" x2="464.73" y2="356.05"/><line class="cls-1" x1="473.25" y1="373.05" x2="473.24" y2="356.04"/><line class="cls-1" x1="464.74" y1="364.55" x2="473.25" y2="373.05"/><circle class="cls-1" cx="468.99" cy="368.8" r="0.85"/><circle class="cls-1" cx="477.5" cy="368.79" r="0.85"/><line class="cls-1" x1="464.74" y1="364.55" x2="473.24" y2="356.04"/><line class="cls-1" x1="473.24" y1="356.04" x2="481.75" y2="364.54"/><circle class="cls-1" cx="477.49" cy="360.29" r="0.85"/><circle class="cls-1" cx="468.99" cy="360.3" r="0.85"/><line class="cls-1" x1="481.75" y1="364.54" x2="464.74" y2="364.55"/><rect class="cls-1" x="464.74" y="356.04" width="17.01" height="17.01"/><line class="cls-1" x1="212.53" y1="471.62" x2="208.2" y2="463.4"/><polyline class="cls-4" points="212.53 471.62 492.72 471.43 492.8 463.21 208.2 463.4"/><line class="cls-1" x1="492.72" y1="467.32" x2="210.37" y2="467.51"/><line class="cls-1" x1="286.05" y1="465.02" x2="286.05" y2="469.9"/><line class="cls-1" x1="290.93" y1="465.02" x2="290.94" y2="469.9"/><line class="cls-1" x1="286.05" y1="465.02" x2="290.93" y2="465.02"/><line class="cls-1" x1="286.05" y1="469.9" x2="290.94" y2="469.9"/><circle class="cls-1" cx="288.49" cy="467.46" r="1.87"/><line class="cls-1" x1="277.55" y1="465.02" x2="277.55" y2="469.91"/><line class="cls-1" x1="282.43" y1="465.02" x2="282.43" y2="469.91"/><line class="cls-1" x1="277.55" y1="465.02" x2="282.43" y2="465.02"/><line class="cls-1" x1="277.55" y1="469.91" x2="282.43" y2="469.91"/><path class="cls-4" d="M281.86,467.46a1.87,1.87,0,1,0-1.86,1.87,1.87,1.87,0,0,0,1.86-1.87Z"/><line class="cls-1" x1="269.04" y1="465.03" x2="269.05" y2="469.91"/><line class="cls-1" x1="273.93" y1="465.03" x2="273.93" y2="469.91"/><line class="cls-1" x1="269.04" y1="465.03" x2="273.93" y2="465.03"/><line class="cls-1" x1="269.05" y1="469.91" x2="273.93" y2="469.91"/><circle class="cls-1" cx="271.49" cy="467.47" r="1.87" transform="translate(-0.49 0.28) rotate(-0.06)"/><line class="cls-1" x1="260.54" y1="465.04" x2="260.54" y2="469.92"/><line class="cls-1" x1="265.42" y1="465.03" x2="265.43" y2="469.92"/><line class="cls-1" x1="260.54" y1="465.04" x2="265.42" y2="465.03"/><line class="cls-1" x1="260.54" y1="469.92" x2="265.43" y2="469.92"/><circle class="cls-1" cx="262.98" cy="467.48" r="1.87"/><line class="cls-1" x1="252.03" y1="465.04" x2="252.04" y2="469.93"/><line class="cls-1" x1="256.92" y1="465.04" x2="256.92" y2="469.92"/><line class="cls-1" x1="252.03" y1="465.04" x2="256.92" y2="465.04"/><line class="cls-1" x1="252.04" y1="469.93" x2="256.92" y2="469.92"/><circle class="cls-1" cx="254.48" cy="467.48" r="1.87" transform="translate(-0.49 0.27) rotate(-0.06)"/><line class="cls-1" x1="243.53" y1="465.05" x2="243.53" y2="469.93"/><line class="cls-1" x1="248.41" y1="465.04" x2="248.42" y2="469.93"/><line class="cls-1" x1="243.53" y1="465.05" x2="248.41" y2="465.04"/><line class="cls-1" x1="243.53" y1="469.93" x2="248.42" y2="469.93"/><circle class="cls-1" cx="245.97" cy="467.49" r="1.87"/><line class="cls-1" x1="235.03" y1="465.05" x2="235.03" y2="469.94"/><line class="cls-1" x1="239.91" y1="465.05" x2="239.91" y2="469.93"/><line class="cls-1" x1="235.03" y1="465.05" x2="239.91" y2="465.05"/><line class="cls-1" x1="235.03" y1="469.94" x2="239.91" y2="469.93"/><circle class="cls-1" cx="237.47" cy="467.49" r="1.87"/><line class="cls-1" x1="226.52" y1="465.06" x2="226.53" y2="469.94"/><line class="cls-1" x1="231.41" y1="465.06" x2="231.41" y2="469.94"/><line class="cls-1" x1="226.52" y1="465.06" x2="231.41" y2="465.06"/><line class="cls-1" x1="226.53" y1="469.94" x2="231.41" y2="469.94"/><circle class="cls-1" cx="228.97" cy="467.5" r="1.87"/><line class="cls-1" x1="218.02" y1="465.07" x2="218.02" y2="469.95"/><line class="cls-1" x1="222.9" y1="465.06" x2="222.91" y2="469.95"/><line class="cls-1" x1="218.02" y1="465.07" x2="222.9" y2="465.06"/><line class="cls-1" x1="218.02" y1="469.95" x2="222.91" y2="469.95"/><circle class="cls-1" cx="220.46" cy="467.51" r="1.87"/><line class="cls-1" x1="354.08" y1="464.97" x2="354.08" y2="469.86"/><line class="cls-1" x1="358.97" y1="464.97" x2="358.97" y2="469.85"/><line class="cls-1" x1="354.08" y1="464.97" x2="358.97" y2="464.97"/><line class="cls-1" x1="354.08" y1="469.86" x2="358.97" y2="469.85"/><circle class="cls-1" cx="356.53" cy="467.41" r="1.87"/><line class="cls-1" x1="345.58" y1="464.98" x2="345.58" y2="469.86"/><line class="cls-1" x1="350.46" y1="464.97" x2="350.47" y2="469.86"/><line class="cls-1" x1="345.58" y1="464.98" x2="350.46" y2="464.97"/><line class="cls-1" x1="345.58" y1="469.86" x2="350.47" y2="469.86"/><circle class="cls-1" cx="348.02" cy="467.42" r="1.87"/><line class="cls-1" x1="337.07" y1="464.98" x2="337.08" y2="469.87"/><line class="cls-1" x1="341.96" y1="464.98" x2="341.96" y2="469.87"/><line class="cls-1" x1="337.07" y1="464.98" x2="341.96" y2="464.98"/><line class="cls-1" x1="337.08" y1="469.87" x2="341.96" y2="469.87"/><circle class="cls-1" cx="339.52" cy="467.42" r="1.87" transform="matrix(1, 0, 0, 1, -0.49, 0.36)"/><line class="cls-1" x1="328.57" y1="464.99" x2="328.57" y2="469.87"/><line class="cls-1" x1="333.45" y1="464.99" x2="333.46" y2="469.87"/><line class="cls-1" x1="328.57" y1="464.99" x2="333.45" y2="464.99"/><line class="cls-1" x1="328.57" y1="469.87" x2="333.46" y2="469.87"/><circle class="cls-1" cx="331.01" cy="467.43" r="1.87" transform="translate(-0.49 0.35) rotate(-0.06)"/><line class="cls-1" x1="320.07" y1="465" x2="320.07" y2="469.88"/><line class="cls-1" x1="324.95" y1="464.99" x2="324.95" y2="469.88"/><line class="cls-1" x1="320.07" y1="465" x2="324.95" y2="464.99"/><line class="cls-1" x1="320.07" y1="469.88" x2="324.95" y2="469.88"/><circle class="cls-1" cx="322.51" cy="467.44" r="1.87"/><line class="cls-1" x1="311.56" y1="465" x2="311.57" y2="469.88"/><line class="cls-1" x1="316.45" y1="465" x2="316.45" y2="469.88"/><line class="cls-1" x1="311.56" y1="465" x2="316.45" y2="465"/><line class="cls-1" x1="311.57" y1="469.88" x2="316.45" y2="469.88"/><circle class="cls-1" cx="314.01" cy="467.44" r="1.87"/><line class="cls-1" x1="303.06" y1="465.01" x2="303.06" y2="469.89"/><line class="cls-1" x1="307.94" y1="465" x2="307.95" y2="469.89"/><line class="cls-1" x1="303.06" y1="465.01" x2="307.94" y2="465"/><line class="cls-1" x1="303.06" y1="469.89" x2="307.95" y2="469.89"/><circle class="cls-1" cx="305.5" cy="467.45" r="1.87"/><line class="cls-1" x1="294.55" y1="465.01" x2="294.56" y2="469.9"/><line class="cls-1" x1="299.44" y1="465.01" x2="299.44" y2="469.89"/><line class="cls-1" x1="294.55" y1="465.01" x2="299.44" y2="465.01"/><line class="cls-1" x1="294.56" y1="469.9" x2="299.44" y2="469.89"/><circle class="cls-1" cx="297" cy="467.45" r="1.87"/><line class="cls-1" x1="422.11" y1="464.92" x2="422.12" y2="469.81"/><line class="cls-1" x1="427" y1="464.92" x2="427" y2="469.81"/><line class="cls-1" x1="422.11" y1="464.92" x2="427" y2="464.92"/><line class="cls-1" x1="422.12" y1="469.81" x2="427" y2="469.81"/><circle class="cls-1" cx="424.56" cy="467.37" r="1.87"/><line class="cls-1" x1="413.61" y1="464.93" x2="413.61" y2="469.82"/><line class="cls-1" x1="418.49" y1="464.93" x2="418.5" y2="469.81"/><line class="cls-1" x1="413.61" y1="464.93" x2="418.49" y2="464.93"/><line class="cls-1" x1="413.61" y1="469.82" x2="418.5" y2="469.81"/><circle class="cls-1" cx="416.05" cy="467.37" r="1.87"/><line class="cls-1" x1="405.1" y1="464.94" x2="405.11" y2="469.82"/><line class="cls-1" x1="409.99" y1="464.93" x2="409.99" y2="469.82"/><line class="cls-1" x1="405.1" y1="464.94" x2="409.99" y2="464.93"/><line class="cls-1" x1="405.11" y1="469.82" x2="409.99" y2="469.82"/><circle class="cls-1" cx="407.55" cy="467.38" r="1.87"/><line class="cls-1" x1="396.6" y1="464.94" x2="396.6" y2="469.83"/><line class="cls-1" x1="401.49" y1="464.94" x2="401.49" y2="469.82"/><line class="cls-1" x1="396.6" y1="464.94" x2="401.49" y2="464.94"/><line class="cls-1" x1="396.6" y1="469.83" x2="401.49" y2="469.82"/><circle class="cls-1" cx="399.05" cy="467.38" r="1.87"/><line class="cls-1" x1="388.1" y1="464.95" x2="388.1" y2="469.83"/><line class="cls-1" x1="392.98" y1="464.95" x2="392.99" y2="469.83"/><line class="cls-1" x1="388.1" y1="464.95" x2="392.98" y2="464.95"/><line class="cls-1" x1="388.1" y1="469.83" x2="392.99" y2="469.83"/><circle class="cls-1" cx="390.54" cy="467.39" r="1.87"/><line class="cls-1" x1="379.59" y1="464.95" x2="379.6" y2="469.84"/><line class="cls-1" x1="384.48" y1="464.95" x2="384.48" y2="469.84"/><line class="cls-1" x1="379.59" y1="464.95" x2="384.48" y2="464.95"/><line class="cls-1" x1="379.6" y1="469.84" x2="384.48" y2="469.84"/><circle class="cls-1" cx="382.04" cy="467.4" r="1.87"/><line class="cls-1" x1="371.09" y1="464.96" x2="371.09" y2="469.84"/><line class="cls-1" x1="375.97" y1="464.96" x2="375.98" y2="469.84"/><line class="cls-1" x1="371.09" y1="464.96" x2="375.97" y2="464.96"/><line class="cls-1" x1="371.09" y1="469.84" x2="375.98" y2="469.84"/><circle class="cls-1" cx="373.53" cy="467.4" r="1.87"/><line class="cls-1" x1="362.59" y1="464.97" x2="362.59" y2="469.85"/><line class="cls-1" x1="367.47" y1="464.96" x2="367.47" y2="469.85"/><line class="cls-1" x1="362.59" y1="464.97" x2="367.47" y2="464.96"/><line class="cls-1" x1="362.59" y1="469.85" x2="367.47" y2="469.85"/><circle class="cls-1" cx="365.03" cy="467.41" r="1.87"/><line class="cls-1" x1="481.64" y1="464.88" x2="481.64" y2="469.77"/><line class="cls-1" x1="486.53" y1="464.88" x2="486.53" y2="469.77"/><line class="cls-1" x1="481.64" y1="464.88" x2="486.53" y2="464.88"/><line class="cls-1" x1="481.64" y1="469.77" x2="486.53" y2="469.77"/><circle class="cls-1" cx="484.08" cy="467.32" r="1.87"/><line class="cls-1" x1="473.14" y1="464.89" x2="473.14" y2="469.77"/><line class="cls-1" x1="478.02" y1="464.89" x2="478.02" y2="469.77"/><line class="cls-1" x1="473.14" y1="464.89" x2="478.02" y2="464.89"/><line class="cls-1" x1="473.14" y1="469.77" x2="478.02" y2="469.77"/><circle class="cls-1" cx="475.58" cy="467.33" r="1.87"/><line class="cls-1" x1="464.63" y1="464.9" x2="464.64" y2="469.78"/><line class="cls-1" x1="469.52" y1="464.89" x2="469.52" y2="469.78"/><line class="cls-1" x1="464.63" y1="464.9" x2="469.52" y2="464.89"/><line class="cls-1" x1="464.64" y1="469.78" x2="469.52" y2="469.78"/><circle class="cls-1" cx="467.08" cy="467.34" r="1.87"/><line class="cls-1" x1="456.13" y1="464.9" x2="456.13" y2="469.79"/><line class="cls-1" x1="461.01" y1="464.9" x2="461.02" y2="469.78"/><line class="cls-1" x1="456.13" y1="464.9" x2="461.01" y2="464.9"/><line class="cls-1" x1="456.13" y1="469.79" x2="461.02" y2="469.78"/><circle class="cls-1" cx="458.57" cy="467.34" r="1.87"/><line class="cls-1" x1="447.63" y1="464.91" x2="447.63" y2="469.79"/><line class="cls-1" x1="452.51" y1="464.9" x2="452.51" y2="469.79"/><line class="cls-1" x1="447.63" y1="464.91" x2="452.51" y2="464.9"/><line class="cls-1" x1="447.63" y1="469.79" x2="452.51" y2="469.79"/><circle class="cls-1" cx="450.07" cy="467.35" r="1.87"/><line class="cls-1" x1="439.12" y1="464.91" x2="439.12" y2="469.8"/><line class="cls-1" x1="444.01" y1="464.91" x2="444.01" y2="469.79"/><line class="cls-1" x1="439.12" y1="464.91" x2="444.01" y2="464.91"/><line class="cls-1" x1="439.12" y1="469.8" x2="444.01" y2="469.79"/><circle class="cls-1" cx="441.56" cy="467.35" r="1.87"/><line class="cls-1" x1="430.62" y1="464.92" x2="430.62" y2="469.8"/><line class="cls-1" x1="435.5" y1="464.92" x2="435.5" y2="469.8"/><line class="cls-1" x1="430.62" y1="464.92" x2="435.5" y2="464.92"/><line class="cls-1" x1="430.62" y1="469.8" x2="435.5" y2="469.8"/><circle class="cls-1" cx="433.06" cy="467.36" r="1.87"/><path class="cls-5" d="M114.77,29.12l3.57,5.79a.43.43,0,0,0,.59.14l.48-.3a.41.41,0,0,0,.15-.18.42.42,0,0,0,0-.18L122.46,39a.5.5,0,0,0,.68.16l9.66-5.94a.5.5,0,0,0,.16-.68l-2.85-4.64a.42.42,0,0,0,.18,0,.42.42,0,0,0,.22-.06l.48-.3a.43.43,0,0,0,.14-.58l-3.57-5.79a.43.43,0,0,0-.59-.14l-12.07,7.43a.42.42,0,0,0-.14.58Z"/><path class="cls-5" d="M247.76,185.2,222.5,131.54,221.29,129,160.8.5,148.71,7.73a.43.43,0,0,0-.2.43.42.42,0,0,0,.06.16l3.57,5.79a.43.43,0,0,0,.59.14h0l.48-.3h0a.42.42,0,0,0,.16-.2.45.45,0,0,0,0-.07.39.39,0,0,0,0-.1l2.86,4.64a.5.5,0,0,0,.68.16l3-1.83,63.2,134.26-15.47,7.28a.28.28,0,0,0-.14.38l1,2.05a.28.28,0,0,0,.26.16l.12,0,15.47-7.28,16.52,35.08-2.95,1.39a.5.5,0,0,0-.24.66l5,10.51-36.43,17.15-21.68-46,1-.48a.28.28,0,0,0,.14-.38l-1-2.05a.28.28,0,0,0-.16-.14.29.29,0,0,0-.22,0l-4.62,2.17a.29.29,0,0,0-.15.16.28.28,0,0,0,0,.22l1,2.05a.28.28,0,0,0,.26.16l.12,0,1-.48,37.38,79.4,0,0,0,0a.28.28,0,0,0,.18.07l69.29,0,.12,0,16.31-7.68a.28.28,0,0,0,.14-.38l-1-2.05a.29.29,0,0,0-.38-.14L288.28,250l-67.1,0-13.8-29.32,36.52-17.19a.49.49,0,0,0,.24.07.51.51,0,0,0,.21,0l12.82-6a.49.49,0,0,0,.27-.36l59.14-27.84,26,55.14-15.13,7.12a.28.28,0,0,0-.14.38l1,2.05a.28.28,0,0,0,.26.16l.12,0L344,226.92l9.75-4.59a.28.28,0,0,0,.14-.38l-3-6.41a.29.29,0,0,0-.38-.14l-3.08,1.45-23.91-50.78-3.37-6.78-68.92,32.63Z"/><path class="cls-5" d="M71.27,63.89a.43.43,0,0,0,.59.14h0l.48-.3h0a.42.42,0,0,0,.16-.2.46.46,0,0,0,0-.07.45.45,0,0,0,0-.1L75.39,68a.5.5,0,0,0,.68.16l14.78-9.1,59.37,126.12s0,0,0,0a.28.28,0,0,0,0,.12s0,.07,0,.1l1,2.05a.28.28,0,0,0,.26.16l.12,0L155,186a.28.28,0,0,0,.14-.38l-1-2.05a.29.29,0,0,0-.38-.14l-1,.48L93.28,57.58,99,54.06a.5.5,0,0,0,.16-.68l-2.85-4.64a.41.41,0,0,0,.41,0h0l.48-.3h0a.42.42,0,0,0,.16-.2.45.45,0,0,0,0-.07.41.41,0,0,0,0-.12.35.35,0,0,0,0,0,.42.42,0,0,0-.06-.16l-3.57-5.79a.43.43,0,0,0-.59-.14L67.84,57.51a.43.43,0,0,0-.2.43.42.42,0,0,0,.06.16Z"/><path class="cls-5" d="M37.48,84.7a.43.43,0,0,0,.59.14h0l.48-.3h0a.42.42,0,0,0,.16-.2.45.45,0,0,0,0-.07.43.43,0,0,0,0-.1l2.86,4.64a.5.5,0,0,0,.68.16L51.93,83a.5.5,0,0,0,.16-.68l-2.85-4.64a.43.43,0,0,0,.18,0,.42.42,0,0,0,.22-.06l.48-.3h0a.42.42,0,0,0,.16-.2.45.45,0,0,0,0-.07.41.41,0,0,0,0-.12.35.35,0,0,0,0,0,.42.42,0,0,0-.06-.16L46.7,71,46.65,71a.42.42,0,0,0-.53-.08L34,78.32a.43.43,0,0,0-.14.58Z"/><path class="cls-5" d="M453.13,167.42,378.7,202.12a.28.28,0,0,0-.14.38l3,6.41a.28.28,0,0,0,.26.16l.12,0,11.68-5.5L406,229.69a.28.28,0,0,0,.26.16l.12,0,2.05-1a.28.28,0,0,0,.14-.38l-12.31-26.14,50.64-23.84,23.85,50.66-1,.48a.5.5,0,0,0-.24.66l6,12.82a.5.5,0,0,0,.45.29.51.51,0,0,0,.21,0l1-.48,4.23,9v15l-54.77,0-7.12-15.13a.29.29,0,0,0-.38-.14l-2.05,1a.28.28,0,0,0-.14.38l7.34,15.59v4.93a.28.28,0,0,0,.28.28h2.27a.28.28,0,0,0,.28-.28v-3.77l54.28,0,.1,192.42a.28.28,0,0,0,.28.28h7.09a.27.27,0,0,0,.21-.1h1a.28.28,0,0,0,.21.1h2.27a.28.28,0,0,0,.28-.28h0l-.1-208.75Z"/><path class="cls-5" d="M358.23,302.83a.28.28,0,0,0-.28-.28l-61,0v-16a.28.28,0,0,0-.28-.28l-62.65,0a.28.28,0,0,0-.28.28v16h-16a.28.28,0,0,0-.28.28v2.27h0a.28.28,0,0,0,.28.28l83.59-.06,0,30.83h-7a.5.5,0,0,0-.5.5v14.17a.5.5,0,0,0,.5.5h7l0,64.72a.28.28,0,0,0,.28.28H304a.28.28,0,0,0,.28-.28l0-64.73h4.36a.5.5,0,0,0,.5-.5V336.74a.5.5,0,0,0-.5-.5h-4.36l0-30.83,53.69,0a.28.28,0,0,0,.28-.28v-2.27Zm-63.79.33-58.11,0a.28.28,0,0,1-.28-.28v-14h0a.28.28,0,0,1,.28-.28l58.11,0a.28.28,0,0,1,.28.28v14h0A.28.28,0,0,1,294.44,303.16Z"/><path class="cls-5" d="M470.08,302.75a.28.28,0,0,0-.28-.28l-42.66,0v-3.14h0a.28.28,0,0,0-.28-.28h-2.27a.28.28,0,0,0-.28.28v3.14l-37.73,0a.28.28,0,0,0-.28.28v2.27h0a.28.28,0,0,0,.28.28l83.22-.06a.28.28,0,0,0,.28-.28v-2.27Z"/><path class="cls-5" d="M215.86,477a.4.4,0,0,0,0-.08v0l-29.91-56.67,0,0-.06-.07-.07,0-.07,0-.09,0h-.39l-2.07-3.91,0,0-.05,0-.06,0h-2.77l-45.91-87,44.61-23.54H189.2a.28.28,0,0,0,.28-.28v-2.27h0a.28.28,0,0,0-.28-.28h-8.8l-13.33-25.25a.28.28,0,0,0-.38-.12l-2,1.06a.28.28,0,0,0-.12.38l11.86,22.48L132,324.66l-37.74-71.5,44.42-23.45,13.83,26.2a.28.28,0,0,0,.25.15h0a.29.29,0,0,0,.13,0l2-1.06a.28.28,0,0,0,.12-.38l-15-28.46a.28.28,0,0,0-.38-.12l-2,1.06L92.95,250.65,79.69,225.54l45.49-21.42.27.52a.28.28,0,0,0,.25.15h0a.28.28,0,0,0,.13,0l2-1.06a.28.28,0,0,0,.12-.38l-2.07-3.92-1-2.05a.28.28,0,0,0-.16-.14.29.29,0,0,0-.22,0l-1.9.89-46,21.66L16.12,105.09l2-1.24a.5.5,0,0,0,.16-.68l-2.85-4.64a.41.41,0,0,0,.41,0h0l.48-.3h0a.43.43,0,0,0,.2-.43.42.42,0,0,0-.06-.16l-3.57-5.79a.43.43,0,0,0-.43-.2l-.07,0-.09,0h0L.7,98.85l-.05,0L.59,99l0,.07a.37.37,0,0,0,0,.07.39.39,0,0,0,0,.08.41.41,0,0,0,0,.08.42.42,0,0,0,0,.08.4.4,0,0,0,0,.07L200,477.36l0,0a.41.41,0,0,0,.12.12l0,0a.41.41,0,0,0,.2.05h15.06a.42.42,0,0,0,.18,0h0l0,0,.07-.06,0-.07,0-.07a.4.4,0,0,0,0-.09.37.37,0,0,0,0-.06v0A.45.45,0,0,0,215.86,477Z"/><text class="cls-6" transform="translate(353.48 350.55)">Кухня-столовая<tspan x="22.42" y="11">23.90</tspan></text><text class="cls-6" transform="translate(145.51 112.39)">Спальня<tspan x="7.38" y="11">14.11</tspan></text><text class="cls-6" transform="translate(68.85 146.39)">Спальня<tspan x="7.05" y="11">14.33</tspan></text><text class="cls-6" transform="translate(349.99 260.05)">Холл<tspan x="-0.77" y="11">17.70</tspan></text><text class="cls-6" transform="translate(109.6 220.05)">С.у.<tspan x="-0.76" y="11">1.77</tspan></text><text class="cls-6" transform="translate(441.1 286.05)">С.у.<tspan x="-0.76" y="11">2.21</tspan></text><text class="cls-6" transform="translate(122.71 266.39)">Ванная <tspan x="8.13" y="11">4.82</tspan></text><text class="cls-6" transform="translate(418.38 233.05)">Ванная <tspan x="8.13" y="11">5.60</tspan></text><text class="cls-6" transform="translate(214.43 357.39)">Гостиная<tspan x="7.96" y="11">19.91</tspan></text><text class="cls-6" transform="translate(312.95 438.89)">Балкон<tspan x="3.94" y="11">13.90</tspan></text><text class="cls-6" transform="translate(260.19 215.8)">Гардероб<tspan x="11.49" y="11">8.20</tspan></text><text class="cls-6" transform="translate(200.86 182.3)">Гард.<tspan x="2.32" y="11">2.80</tspan></text></g></g></svg>