<?xml version="1.0" encoding="UTF-8"?>
<!-- Generator: Adobe Illustrator 22.1.0, SVG Export Plug-In . SVG Version: 6.00 Build 0)  -->
<svg version="1.1" xmlns="http://www.w3.org/2000/svg" xmlns:xlink="http://www.w3.org/1999/xlink" x="0px" y="0px" viewBox="0 0 423 381.6" style="enable-background:new 0 0 423 381.6;" xml:space="preserve">
<style type="text/css">
	.st0{fill:none;stroke:#231F20;stroke-width:0.5;stroke-linecap:square;stroke-miterlimit:10;}
	.st1{fill:none;stroke:#231F20;stroke-width:0.25;stroke-linecap:square;stroke-miterlimit:10;}
	.st2{fill:none;stroke:#231F20;stroke-width:0.25;stroke-linecap:square;stroke-miterlimit:10;stroke-dasharray:2.966,1.977;}
	.st3{fill:none;stroke:#231F20;stroke-width:0.25;stroke-linecap:square;stroke-miterlimit:10;stroke-dasharray:2.989,1.993;}
	.st4{fill:none;stroke:#231F20;stroke-width:0.25;stroke-linecap:square;stroke-miterlimit:10;stroke-dasharray:2.866,1.911;}
	.st5{fill:none;stroke:#231F20;stroke-width:0.25;stroke-linecap:square;stroke-miterlimit:10;stroke-dasharray:2.968,1.979;}
	.st6{fill:none;stroke:#231F20;stroke-width:0.25;stroke-linecap:square;stroke-miterlimit:10;stroke-dasharray:2.647,1.765;}
	.st7{fill:none;stroke:#231F20;stroke-width:0.25;stroke-linecap:square;stroke-miterlimit:10;stroke-dasharray:2.871,1.914;}
	.st8{fill-rule:evenodd;clip-rule:evenodd;fill:#231F20;}
	.st9{fill:#231F20;}
	.st10{fill:none;stroke:#231F20;stroke-width:0.25;stroke-linecap:square;stroke-miterlimit:10;stroke-dasharray:2.967,1.978;}
	.st11{fill:none;stroke:#231F20;stroke-width:0.25;stroke-linecap:square;stroke-miterlimit:10;stroke-dasharray:2.941,1.961;}
	.st12{fill:none;stroke:#231F20;stroke-width:0.25;stroke-linecap:square;stroke-miterlimit:10;stroke-dasharray:3,2;}
	.st13{fill:none;stroke:#231F20;stroke-width:0.25;stroke-linecap:square;stroke-miterlimit:10;stroke-dasharray:3.087,2.058;}
	.st14{fill:none;stroke:#231F20;stroke-width:0.25;stroke-linecap:square;stroke-miterlimit:10;stroke-dasharray:2.761,1.841;}
	.st15{fill:none;stroke:#231F20;stroke-width:0.25;stroke-linecap:square;stroke-miterlimit:10;stroke-dasharray:2.994,1.996;}
	.st16{fill:none;stroke:#231F20;stroke-width:0.25;stroke-linecap:square;stroke-miterlimit:10;stroke-dasharray:2.981,1.988;}
	.st17{fill:none;stroke:#231F20;stroke-width:0.25;stroke-linecap:square;stroke-miterlimit:10;stroke-dasharray:3.129,2.086;}
	.st18{fill:none;stroke:#231F20;stroke-width:0.25;stroke-linecap:square;stroke-miterlimit:10;stroke-dasharray:3.032,2.021;}
	.st19{fill:none;stroke:#231F20;stroke-width:0.25;stroke-linecap:square;stroke-miterlimit:10;stroke-dasharray:3.469,2.313;}
	.st20{fill:none;stroke:#231F20;stroke-width:0.25;stroke-linecap:square;stroke-miterlimit:10;stroke-dasharray:2.621,1.747;}
	.st21{fill:none;stroke:#231F20;stroke-width:0.25;stroke-linecap:square;stroke-miterlimit:10;stroke-dasharray:1.125,1.125;}
	.st22{fill:none;stroke:#231F20;stroke-width:0.25;stroke-linecap:square;stroke-miterlimit:10;stroke-dasharray:3.126,2.084;}
	.st23{fill:none;stroke:#231F20;stroke-width:0.25;stroke-linecap:square;stroke-miterlimit:10;stroke-dasharray:2.953,1.969;}
	.st24{fill:none;stroke:#231F20;stroke-width:0.25;stroke-linecap:square;stroke-miterlimit:10;stroke-dasharray:3.029,2.019;}
	.st25{fill:none;stroke:#231F20;stroke-width:0.25;stroke-linecap:square;stroke-miterlimit:10;stroke-dasharray:3.019,2.012;}
	.st26{fill:none;stroke:#231F20;stroke-width:0.25;stroke-linecap:square;stroke-miterlimit:10;stroke-dasharray:2.982,1.988;}
	.st27{fill:none;stroke:#231F20;stroke-width:0.25;stroke-linecap:square;stroke-miterlimit:10;stroke-dasharray:3.013,2.009;}
	.st28{fill:none;stroke:#231F20;stroke-width:0.25;stroke-linecap:square;stroke-miterlimit:10;stroke-dasharray:2.572,1.715;}
	.st29{fill:none;stroke:#231F20;stroke-width:0.25;stroke-linecap:square;stroke-miterlimit:10;stroke-dasharray:3.124,2.082;}
	.st30{fill:none;stroke:#231F20;stroke-width:0.25;stroke-linecap:square;stroke-miterlimit:10;stroke-dasharray:2.969,1.98;}
	.st31{fill:none;stroke:#231F20;stroke-width:0.25;stroke-linecap:square;stroke-miterlimit:10;stroke-dasharray:3.048,2.032;}
	.st32{fill:none;stroke:#231F20;stroke-width:0.25;stroke-linecap:square;stroke-miterlimit:10;stroke-dasharray:2.99,1.994;}
	.st33{fill:none;stroke:#231F20;stroke-width:0.25;stroke-linecap:square;stroke-miterlimit:10;stroke-dasharray:2.571,1.714;}
	.st34{fill:none;stroke:#231F20;stroke-width:0.25;stroke-linecap:square;stroke-miterlimit:10;stroke-dasharray:2.917,1.944;}
	.st35{fill:none;stroke:#231F20;stroke-width:0.25;stroke-linecap:square;stroke-miterlimit:10;stroke-dasharray:3.047,2.031;}
	.st36{fill:none;stroke:#231F20;stroke-width:0.25;stroke-linecap:square;stroke-miterlimit:10;stroke-dasharray:2.805,1.87;}
	.st37{fill:none;stroke:#231F20;stroke-width:0.25;stroke-linecap:square;stroke-miterlimit:10;stroke-dasharray:3.057,2.038;}
	.st38{fill:none;stroke:#231F20;stroke-width:0.25;stroke-linecap:square;stroke-miterlimit:10;stroke-dasharray:2.619,1.746;}
	.st39{fill:none;stroke:#231F20;stroke-width:0.25;stroke-linecap:square;stroke-miterlimit:10;stroke-dasharray:2.644,1.763;}
	.st40{fill:none;stroke:#231F20;stroke-width:0.25;stroke-linecap:square;stroke-miterlimit:10;stroke-dasharray:2.634,1.756;}
	.st41{fill:none;stroke:#231F20;stroke-width:0.25;stroke-linecap:square;stroke-miterlimit:10;stroke-dasharray:3.036,2.024;}
	.st42{fill:none;stroke:#231F20;stroke-width:0.25;stroke-linecap:square;stroke-miterlimit:10;stroke-dasharray:2.917,1.945;}
	.st43{fill:none;stroke:#231F20;stroke-width:0.25;stroke-linecap:square;stroke-miterlimit:10;stroke-dasharray:3.02,2.013;}
	.st44{fill:none;stroke:#231F20;stroke-width:0.25;stroke-linecap:square;stroke-miterlimit:10;stroke-dasharray:2.997,1.998;}
	.st45{fill:none;stroke:#231F20;stroke-width:0.25;stroke-linecap:square;stroke-miterlimit:10;stroke-dasharray:3.023,2.016;}
	.st46{fill:none;stroke:#231F20;stroke-width:0.25;stroke-linecap:square;stroke-miterlimit:10;stroke-dasharray:3.164,2.109;}
	.st47{fill:none;stroke:#231F20;stroke-width:0.25;stroke-linecap:square;stroke-miterlimit:10;stroke-dasharray:3.107,2.071;}
	.st48{fill:none;stroke:#231F20;stroke-width:0.25;stroke-linecap:square;stroke-miterlimit:10;stroke-dasharray:2.919,1.946;}
	.st49{fill:none;stroke:#231F20;stroke-width:0.25;stroke-linecap:square;stroke-miterlimit:10;stroke-dasharray:2.909,1.939;}
	.st50{fill:none;stroke:#231F20;stroke-width:0.25;stroke-linecap:square;stroke-miterlimit:10;stroke-dasharray:3.007,2.005;}
	.st51{fill:none;stroke:#231F20;stroke-width:0.25;stroke-linecap:square;stroke-miterlimit:10;stroke-dasharray:3.024,2.016;}
	.st52{fill:none;stroke:#231F20;stroke-width:0.25;stroke-linecap:square;stroke-miterlimit:10;stroke-dasharray:2.746,1.831;}
	.st53{fill:none;stroke:#231F20;stroke-width:0.25;stroke-linecap:square;stroke-miterlimit:10;stroke-dasharray:3.138,2.092;}
	.st54{fill:none;stroke:#231F20;stroke-width:0.25;stroke-linecap:square;stroke-miterlimit:10;stroke-dasharray:2.838,1.892;}
	.st55{fill:none;stroke:#A7A9AC;stroke-width:0.25;stroke-linecap:square;stroke-miterlimit:10;}
</style>
<g id="BG">
</g>
<g id="Plan_A">
	<g>
		<line class="st0" x1="301.5" y1="158.9" x2="279.4" y2="158.9"/>
		<line class="st0" x1="301.5" y1="154.7" x2="279.4" y2="154.7"/>
		<line class="st0" x1="301.5" y1="138.1" x2="279.4" y2="138.1"/>
		<line class="st0" x1="279.4" y1="117.3" x2="301.5" y2="117.3"/>
		<line class="st0" x1="301.5" y1="117.3" x2="301.5" y2="158.9"/>
		<line class="st0" x1="297.4" y1="117.3" x2="297.4" y2="138.1"/>
		<line class="st0" x1="297.4" y1="138.1" x2="297.4" y2="158.9"/>
		<line class="st0" x1="279.4" y1="158.9" x2="279.4" y2="117.3"/>
		<line class="st0" x1="279.4" y1="121.5" x2="301.5" y2="121.5"/>
		<line class="st0" x1="299.5" y1="199.7" x2="299.5" y2="208"/>
		<line class="st0" x1="287" y1="208" x2="287" y2="199.7"/>
		<line class="st0" x1="299.5" y1="208" x2="287" y2="208"/>
		<path class="st0" d="M287,205.7c4,1.4,8.4,1.4,12.5,0"/>
		<line class="st0" x1="262.7" y1="176.2" x2="304.3" y2="176.2"/>
		<line class="st0" x1="304.3" y1="199.7" x2="262.7" y2="199.7"/>
		<line class="st0" x1="299.5" y1="167.9" x2="287" y2="167.9"/>
		<path class="st0" d="M299.5,170.2c-4-1.4-8.4-1.4-12.5,0"/>
		<line class="st0" x1="299.5" y1="176.2" x2="299.5" y2="167.9"/>
		<line class="st0" x1="279.2" y1="176.2" x2="279.2" y2="167.9"/>
		<line class="st0" x1="287" y1="167.9" x2="287" y2="176.2"/>
		<line class="st0" x1="266.8" y1="167.9" x2="266.8" y2="176.2"/>
		<line class="st0" x1="262.7" y1="199.7" x2="262.7" y2="176.2"/>
		<line class="st0" x1="279.2" y1="167.9" x2="266.8" y2="167.9"/>
		<path class="st0" d="M279.2,170.2c-4-1.4-8.4-1.4-12.5,0"/>
		<line class="st0" x1="279.2" y1="199.7" x2="279.2" y2="208"/>
		<line class="st0" x1="266.8" y1="208" x2="266.8" y2="199.7"/>
		<line class="st0" x1="279.2" y1="208" x2="266.8" y2="208"/>
		<path class="st0" d="M266.7,205.7c4,1.4,8.4,1.4,12.5,0"/>
		<line class="st0" x1="223.2" y1="88.6" x2="248.1" y2="88.6"/>
		<line class="st0" x1="223.2" y1="84.4" x2="248.1" y2="84.4"/>
		<line class="st0" x1="248.1" y1="105.2" x2="223.2" y2="105.2"/>
		<line class="st0" x1="223.2" y1="105.2" x2="223.2" y2="84.4"/>
		<line class="st0" x1="248.1" y1="84.4" x2="248.1" y2="105.2"/>
		<line class="st0" x1="244" y1="84.4" x2="244" y2="105.2"/>
		<line class="st0" x1="227.4" y1="84.4" x2="227.4" y2="105.2"/>
		<line class="st0" x1="251" y1="88.6" x2="275.9" y2="88.6"/>
		<line class="st0" x1="251" y1="84.4" x2="275.9" y2="84.4"/>
		<line class="st0" x1="275.9" y1="105.2" x2="251" y2="105.2"/>
		<line class="st0" x1="251" y1="105.2" x2="251" y2="84.4"/>
		<line class="st0" x1="275.9" y1="84.4" x2="275.9" y2="105.2"/>
		<line class="st0" x1="271.8" y1="84.4" x2="271.8" y2="105.2"/>
		<line class="st0" x1="255.1" y1="84.4" x2="255.1" y2="105.2"/>
		<line class="st0" x1="120.3" y1="136.8" x2="134.1" y2="136.8"/>
		<line class="st0" x1="134.1" y1="120.1" x2="120.3" y2="120.1"/>
		<line class="st0" x1="134.1" y1="197.5" x2="120.3" y2="197.5"/>
		<line class="st0" x1="120.3" y1="180.8" x2="134.1" y2="180.8"/>
		<line class="st0" x1="120" y1="179.7" x2="177.5" y2="179.7"/>
		<line class="st0" x1="177.5" y1="138.1" x2="120" y2="138.1"/>
		<line class="st0" x1="177.5" y1="138.1" x2="177.5" y2="179.7"/>
		<line class="st0" x1="136.6" y1="138.1" x2="136.6" y2="179.7"/>
		<line class="st0" x1="134.5" y1="177.1" x2="134.5" y2="160.5"/>
		<line class="st0" x1="124.2" y1="160.5" x2="124.2" y2="177.1"/>
		<line class="st0" x1="134.5" y1="160.5" x2="124.2" y2="160.5"/>
		<line class="st0" x1="124.2" y1="177.1" x2="134.5" y2="177.1"/>
		<line class="st0" x1="134.1" y1="180.8" x2="134.1" y2="197.5"/>
		<line class="st0" x1="124.2" y1="157.3" x2="124.2" y2="140.7"/>
		<line class="st0" x1="134.5" y1="140.7" x2="134.5" y2="157.3"/>
		<line class="st0" x1="124.2" y1="140.7" x2="134.5" y2="140.7"/>
		<line class="st0" x1="134.5" y1="157.3" x2="124.2" y2="157.3"/>
		<line class="st0" x1="134.1" y1="136.8" x2="134.1" y2="120.1"/>
		<line class="st0" x1="122.1" y1="138.1" x2="122.1" y2="179.7"/>
		<line class="st0" x1="120.3" y1="197.5" x2="120.3" y2="180.8"/>
		<line class="st0" x1="120.3" y1="120.1" x2="120.3" y2="136.8"/>
		<line class="st0" x1="120" y1="138.1" x2="120" y2="179.7"/>
		<line class="st0" x1="205.3" y1="130.1" x2="204.6" y2="130.1"/>
		<line class="st0" x1="207.3" y1="131.9" x2="207.3" y2="134.6"/>
		<line class="st0" x1="205.3" y1="136.4" x2="205.3" y2="130.1"/>
		<line class="st0" x1="208" y1="131.9" x2="207.3" y2="131.9"/>
		<line class="st0" x1="208" y1="134.6" x2="207.3" y2="134.6"/>
		<line class="st0" x1="207.3" y1="132.9" x2="205.3" y2="132.9"/>
		<line class="st0" x1="207.3" y1="133.6" x2="205.3" y2="133.6"/>
		<line class="st0" x1="211.4" y1="117.3" x2="211.4" y2="147.1"/>
		<line class="st0" x1="208" y1="128.4" x2="208" y2="136"/>
		<line class="st0" x1="208.6" y1="147.1" x2="208" y2="136"/>
		<line class="st0" x1="208.6" y1="117.3" x2="208" y2="128.4"/>
		<line class="st0" x1="208.6" y1="117.3" x2="208.6" y2="147.1"/>
		<line class="st0" x1="208.6" y1="117.3" x2="211.4" y2="117.3"/>
		<line class="st0" x1="208.6" y1="147.1" x2="211.4" y2="147.1"/>
		<line class="st0" x1="205.3" y1="136.4" x2="204.6" y2="136.4"/>
		<line class="st0" x1="283" y1="101.5" x2="283" y2="84.8"/>
		<line class="st0" x1="299.6" y1="84.8" x2="299.6" y2="101.5"/>
		<line class="st0" x1="299.6" y1="101.5" x2="283" y2="101.5"/>
		<line class="st0" x1="283" y1="84.8" x2="299.6" y2="84.8"/>
		<line class="st0" x1="235.9" y1="154.7" x2="235.9" y2="121.5"/>
		<line class="st0" x1="256.6" y1="121.5" x2="256.6" y2="154.7"/>
		<line class="st0" x1="256.6" y1="154.7" x2="235.9" y2="154.7"/>
		<line class="st0" x1="235.9" y1="121.5" x2="256.6" y2="121.5"/>
		<path class="st0" d="M234.6,266.1c-2.3,0-4.2-1.9-4.2-4.2s1.9-4.2,4.2-4.2"/>
		<path class="st0" d="M234.6,254.2c-2.3,0-4.2-1.9-4.2-4.2c0-2.3,1.9-4.2,4.2-4.2"/>
		<path class="st0" d="M234.6,242.2c-2.3,0-4.2-1.9-4.2-4.2c0-2.3,1.9-4.2,4.2-4.2"/>
		<line class="st1" x1="196" y1="224" x2="196" y2="225.4"/>
		<line class="st2" x1="196" y1="227.2" x2="196" y2="244.5"/>
		<line class="st1" x1="196" y1="245.4" x2="196" y2="246.8"/>
		<line class="st1" x1="295.9" y1="307.5" x2="295.9" y2="306.1"/>
		<line class="st3" x1="295.9" y1="304.3" x2="295.9" y2="250"/>
		<line class="st1" x1="295.9" y1="249.1" x2="295.9" y2="247.7"/>
		<line class="st1" x1="256.1" y1="307.5" x2="257.5" y2="307.5"/>
		<line class="st4" x1="259.2" y1="307.5" x2="293.6" y2="307.5"/>
		<line class="st1" x1="294.5" y1="307.5" x2="295.9" y2="307.5"/>
		<line class="st1" x1="241.2" y1="226.1" x2="241.2" y2="227.5"/>
		<line class="st5" x1="241.2" y1="229.3" x2="241.2" y2="269.5"/>
		<line class="st1" x1="241.2" y1="270.5" x2="241.2" y2="271.8"/>
		<polyline class="st1" points="243.3,229.1 241.9,229.1 241.9,230.5   "/>
		<line class="st6" x1="241.9" y1="232.1" x2="241.9" y2="243.5"/>
		<polyline class="st1" points="241.9,244.3 241.9,245.7 243.3,245.7   "/>
		<line class="st6" x1="244.9" y1="245.7" x2="256.3" y2="245.7"/>
		<polyline class="st1" points="257.1,245.7 258.5,245.7 258.5,244.3   "/>
		<line class="st6" x1="258.5" y1="242.7" x2="258.5" y2="231.3"/>
		<polyline class="st1" points="258.5,230.5 258.5,229.1 257.1,229.1   "/>
		<line class="st6" x1="255.5" y1="229.1" x2="244.1" y2="229.1"/>
		<line class="st1" x1="125.2" y1="245.5" x2="125.2" y2="244.2"/>
		<line class="st7" x1="125.2" y1="242.4" x2="125.2" y2="203.5"/>
		<line class="st1" x1="125.2" y1="202.6" x2="125.2" y2="201.2"/>
		<line class="st1" x1="176.6" y1="245.2" x2="176.6" y2="243.9"/>
		<line class="st7" x1="176.6" y1="242.1" x2="176.6" y2="203.2"/>
		<line class="st1" x1="176.6" y1="202.3" x2="176.6" y2="200.9"/>
		<path class="st1" d="M225.7,311.9c0-13.8-11.2-24.9-24.9-24.9"/>
		<path class="st1" d="M200.4,85.4c-13,0-23.5,10.5-23.5,23.5"/>
		<path class="st1" d="M172.7,252.3c0,11.5,9.3,20.8,20.8,20.8"/>
		<path class="st1" d="M201.8,173.4c-12.2,0-22.2,9.9-22.2,22.2"/>
		<path class="st1" d="M203.2,212.3c5.4,0.4,10.1-3.6,10.6-9.1c0-0.5,0-1,0-1.5"/>
		<path class="st1" d="M213.8,223.2c0.3-5.7-4.1-10.6-9.8-10.9c-0.3,0-0.5,0-0.8,0"/>
		<path class="st1" d="M203.2,212.4c5.4,0.4,10.1-3.6,10.6-9.1c0-0.5,0-1,0-1.5"/>
		<path class="st1" d="M203.2,212.3c5.4,0.4,10.1-3.6,10.6-9.1c0-0.5,0-1,0-1.5"/>
		<path class="st1" d="M213.8,246.1c0.4-5.4-3.6-10.1-9.1-10.6c-0.5,0-1,0-1.5,0"/>
		<path class="st1" d="M203.2,235.5c5.7,0.1,10.5-4.4,10.6-10.2c0-0.3,0-0.5,0-0.8"/>
		<line class="st0" x1="182.4" y1="113.2" x2="152.6" y2="113.2"/>
		<line class="st0" x1="151.3" y1="113.2" x2="135.3" y2="113.2"/>
		<line class="st0" x1="285.6" y1="79.9" x2="270.4" y2="79.9"/>
		<line class="st0" x1="269" y1="79.9" x2="238.5" y2="79.9"/>
		<line class="st0" x1="237.1" y1="79.9" x2="221.9" y2="79.9"/>
		<line class="st0" x1="133.9" y1="115.2" x2="183.8" y2="115.2"/>
		<line class="st0" x1="133.9" y1="111.1" x2="183.8" y2="111.1"/>
		<line class="st0" x1="287" y1="82" x2="220.5" y2="82"/>
		<line class="st0" x1="287" y1="82" x2="220.5" y2="82"/>
		<line class="st0" x1="287" y1="77.8" x2="220.5" y2="77.8"/>
		<rect x="133.9" y="111.1" class="st0" width="1.4" height="4.2"/>
		<rect x="133.9" y="111.1" class="st0" width="1.4" height="4.2"/>
		<rect x="151.3" y="111.1" class="st0" width="1.4" height="4.2"/>
		<rect x="182.4" y="111.1" class="st0" width="1.4" height="4.2"/>
		<rect x="269" y="77.8" class="st0" width="1.4" height="4.2"/>
		<rect x="220.5" y="77.8" class="st0" width="1.4" height="4.2"/>
		<rect x="285.6" y="77.8" class="st0" width="1.4" height="4.2"/>
		<rect x="237.1" y="77.8" class="st0" width="1.4" height="4.2"/>
		<line class="st0" x1="200.4" y1="85.4" x2="200.4" y2="109"/>
		<line class="st0" x1="225.7" y1="311.9" x2="200.8" y2="311.9"/>
		<line class="st0" x1="200.8" y1="316" x2="225.7" y2="316"/>
		<line class="st0" x1="204.6" y1="85.4" x2="204.6" y2="109"/>
		<polyline class="st0" points="200.8,312.6 200.8,286.9 202,286.9   "/>
		<line class="st0" x1="202" y1="311.9" x2="202" y2="287"/>
		<polyline class="st0" points="200.4,107.8 176.9,107.8 176.9,109   "/>
		<line class="st0" x1="201.1" y1="109" x2="176.9" y2="109"/>
		<rect x="136.4" y="202.5" class="st0" width="1" height="20.8"/>
		<line class="st0" x1="136.4" y1="202.5" x2="136.4" y2="223.2"/>
		<rect x="135.3" y="223.2" class="st0" width="1" height="20.8"/>
		<rect x="165.1" y="202.5" class="st0" width="1" height="20.8"/>
		<line class="st0" x1="166.1" y1="202.5" x2="166.1" y2="223.2"/>
		<rect x="166.1" y="223.2" class="st0" width="1" height="20.8"/>
		<line class="st0" x1="203.2" y1="201.8" x2="213.8" y2="201.8"/>
		<line class="st0" x1="203.2" y1="223.2" x2="213.8" y2="223.2"/>
		<line class="st0" x1="203.2" y1="246.1" x2="213.8" y2="246.1"/>
		<line class="st0" x1="203.2" y1="224.6" x2="213.8" y2="224.6"/>
		<path class="st0" d="M125.1,279.9l6.8-1.4c1.2-0.2,2.4-0.2,3.5,0.3c0.7,0.2,1.3,0.6,1.8,1.1c0.5,0.5,0.9,1,1.2,1.7    c0.6,1.2,0.6,2.6,0,3.8c-0.3,0.6-0.7,1.2-1.2,1.7c-0.5,0.5-1.1,0.8-1.8,1.1c-1.1,0.4-2.3,0.5-3.5,0.3l-6.8-1.4v2.3    c0,0.5-0.4,0.9-0.9,0.9h-4c-0.5,0-0.9-0.4-0.9-0.9v-11.7c0-0.5,0.4-0.9,0.9-0.9h4c0.5,0,0.9,0.4,0.9,0.9V279.9z M164.4,293.9    h-41.6v-1.4h-4.2v-19.4h15.2v-23.5h59.6v26.3"/>
		<line class="st0" x1="133.9" y1="249.6" x2="193.5" y2="249.6"/>
		<line class="st0" x1="193.5" y1="252.3" x2="193.5" y2="275.9"/>
		<rect x="151.3" y="246.9" class="st0" width="19.4" height="1.2"/>
		<line class="st0" x1="122.9" y1="292.5" x2="122.9" y2="316.7"/>
		<path class="st0" d="M120.3,290.2c-0.5,0-0.9-0.4-0.9-0.9v-11.7c0-0.5,0.4-0.9,0.9-0.9h4c0.5,0,0.9,0.4,0.9,0.9v11.7    c0,0.5-0.4,0.9-0.9,0.9H120.3z"/>
		<path class="st0" d="M137.3,282.7C137.3,282.7,137.3,282.7,137.3,282.7c0-0.1,0-0.1-0.1-0.2c0,0,0-0.1,0-0.1c0,0,0-0.1,0-0.1    c0,0,0-0.1,0-0.1c0,0,0-0.1,0-0.1c0,0,0-0.1,0-0.1c0,0,0-0.1,0-0.1c0,0,0-0.1,0-0.1c0,0,0-0.1,0-0.1c0,0,0-0.1-0.1-0.1    c0,0,0-0.1-0.1-0.1c0,0,0-0.1-0.1-0.1c0,0,0-0.1-0.1-0.1c0,0,0-0.1-0.1-0.1c0,0,0-0.1-0.1-0.1c0,0,0-0.1-0.1-0.1    c0,0,0-0.1-0.1-0.1c0,0,0-0.1-0.1-0.1c0,0,0-0.1-0.1-0.1c0,0,0,0-0.1-0.1c0,0-0.1,0-0.1-0.1c0,0-0.1,0-0.1-0.1c0,0-0.1,0-0.1-0.1    c0,0-0.1,0-0.1-0.1c0,0-0.1,0-0.1-0.1c0,0-0.1,0-0.1-0.1c0,0-0.1,0-0.1-0.1c0,0-0.1,0-0.1-0.1c0,0-0.1,0-0.1-0.1s-0.1,0-0.1-0.1    c0,0-0.1,0-0.1-0.1c0,0-0.1,0-0.1-0.1c0,0-0.1,0-0.1,0c0,0-0.1,0-0.1,0c0,0-0.1,0-0.1,0c0,0-0.1,0-0.1,0c0,0-0.1,0-0.1,0    c0,0-0.1,0-0.1,0c0,0-0.1,0-0.1,0c0,0-0.1,0-0.1,0c0,0-0.1,0-0.1,0c0,0-0.1,0-0.1,0c0,0-0.1,0-0.1,0c0,0-0.1,0-0.1,0    c0,0-0.1,0-0.1,0c0,0-0.1,0-0.1,0c0,0-0.1,0-0.1,0s-0.1,0-0.1,0c0,0-0.1,0-0.1,0c0,0-0.1,0-0.1,0c0,0-0.1,0-0.1,0c0,0-0.1,0-0.1,0    c0,0-0.1,0-0.1,0c0,0-0.1,0-0.1,0c0,0-0.1,0-0.1,0c0,0-0.1,0-0.1,0c0,0-0.1,0-0.1,0c0,0-0.1,0-0.1,0c0,0-0.1,0-0.1,0    c0,0-0.1,0-0.1,0c0,0-0.1,0-0.1,0c0,0-0.1,0-0.1,0c0,0-0.1,0-0.1,0s-0.1,0-0.1,0c0,0-0.1,0-0.1,0c0,0-0.1,0-0.1,0c0,0-0.1,0-0.1,0    c0,0-0.1,0-0.1,0c0,0-0.1,0-0.1,0c0,0-0.1,0-0.1,0c0,0-0.1,0-0.1,0c0,0-0.1,0-0.1,0c0,0-0.1,0-0.1,0c0,0-0.1,0-0.1,0    c0,0-0.1,0-0.1,0c0,0-0.1,0-0.1,0c0,0-0.1,0-0.1,0c0,0-0.1,0-0.1,0c0,0-0.1,0-0.1,0.1c0,0-0.1,0-0.1,0.1c0,0-0.1,0-0.1,0.1    c0,0-0.1,0-0.1,0.1c0,0-0.1,0-0.1,0.1c0,0-0.1,0-0.1,0.1c0,0-0.1,0-0.1,0.1c0,0-0.1,0-0.1,0.1c0,0-0.1,0-0.1,0.1    c0,0-0.1,0-0.1,0.1c0,0-0.1,0-0.1,0.1c0,0-0.1,0-0.1,0.1c0,0-0.1,0-0.1,0.1c0,0-0.1,0-0.1,0.1c0,0,0,0.1-0.1,0.1    c0,0,0,0.1-0.1,0.1c0,0,0,0.1-0.1,0.1c0,0,0,0.1-0.1,0.1c0,0,0,0.1-0.1,0.1c0,0,0,0.1-0.1,0.1c0,0,0,0.1-0.1,0.1    c0,0,0,0.1-0.1,0.1c0,0,0,0.1-0.1,0.1c0,0,0,0.1,0,0.1c0,0,0,0.1,0,0.1c0,0,0,0.1,0,0.1c0,0,0,0.1,0,0.1c0,0,0,0.1,0,0.1    c0,0,0,0.1,0,0.1c0,0,0,0.1,0,0.1c0,0,0,0.1,0,0.1c0,0,0,0.1,0,0.1c0,0,0,0.1,0,0.1c0,0,0,0.1,0,0.1c0,0,0,0.1,0,0.1    c0,0,0,0.1,0,0.1c0,0,0,0.1,0,0.1c0,0,0,0.1,0,0.1c0,0,0,0.1,0,0.1c0,0,0,0.1,0,0.1c0,0,0,0.1,0,0.1c0,0,0,0.1,0,0.1    c0,0,0,0.1,0,0.1c0,0,0,0.1,0,0.1c0,0,0,0.1,0,0.1c0,0,0,0.1,0,0.1c0,0,0,0.1,0,0.1c0,0,0,0.1,0,0.1c0,0,0,0.1,0,0.1    c0,0,0,0.1,0,0.1c0,0,0,0.1,0,0.1c0,0,0,0.1,0,0.1c0,0,0,0.1,0,0.1c0,0,0,0.1,0,0.1c0,0,0,0.1,0,0.1c0,0,0,0.1,0,0.1    c0,0,0,0.1,0,0.1c0,0,0,0.1,0,0.1c0,0,0,0.1,0,0.1c0,0,0,0.1,0.1,0.1c0,0,0,0.1,0.1,0.1c0,0,0,0.1,0.1,0.1c0,0,0,0.1,0.1,0.1    c0,0,0,0.1,0.1,0.1c0,0,0,0.1,0.1,0.1c0,0,0,0.1,0.1,0.1c0,0,0,0.1,0.1,0.1c0,0,0,0.1,0.1,0.1c0,0,0,0,0.1,0.1c0,0,0.1,0,0.1,0.1    c0,0,0.1,0,0.1,0.1c0,0,0.1,0,0.1,0.1c0,0,0.1,0,0.1,0.1c0,0,0.1,0,0.1,0.1c0,0,0.1,0,0.1,0.1c0,0,0.1,0,0.1,0.1    c0,0,0.1,0,0.1,0.1c0,0,0.1,0,0.1,0.1c0,0,0.1,0,0.1,0.1s0.1,0,0.1,0.1c0,0,0.1,0,0.1,0.1c0,0,0.1,0,0.1,0.1c0,0,0.1,0,0.1,0    c0,0,0.1,0,0.1,0c0,0,0.1,0,0.1,0c0,0,0.1,0,0.1,0c0,0,0.1,0,0.1,0c0,0,0.1,0,0.1,0c0,0,0.1,0,0.1,0c0,0,0.1,0,0.1,0    c0,0,0.1,0,0.1,0c0,0,0.1,0,0.1,0c0,0,0.1,0,0.1,0c0,0,0.1,0,0.1,0c0,0,0.1,0,0.1,0c0,0,0.1,0,0.1,0c0,0,0.1,0,0.1,0s0.1,0,0.1,0    c0,0,0.1,0,0.1,0c0,0,0.1,0,0.1,0c0,0,0.1,0,0.1,0c0,0,0.1,0,0.1,0c0,0,0.1,0,0.1,0c0,0,0.1,0,0.1,0c0,0,0.1,0,0.1,0    c0,0,0.1,0,0.1,0c0,0,0.1,0,0.1,0c0,0,0.1,0,0.1,0c0,0,0.1,0,0.1,0c0,0,0.1,0,0.1,0c0,0,0.1,0,0.1,0c0,0,0.1,0,0.1,0    c0,0,0.1,0,0.1,0s0.1,0,0.1,0c0,0,0.1,0,0.1,0c0,0,0.1,0,0.1,0c0,0,0.1,0,0.1,0c0,0,0.1,0,0.1,0c0,0,0.1,0,0.1,0c0,0,0.1,0,0.1,0    c0,0,0.1,0,0.1,0c0,0,0.1,0,0.1,0c0,0,0.1,0,0.1,0c0,0,0.1,0,0.1,0s0.1,0,0.1,0c0,0,0.1,0,0.1,0c0,0,0.1,0,0.1,0c0,0,0.1,0,0.1,0    c0,0,0.1,0,0.1-0.1c0,0,0.1,0,0.1-0.1c0,0,0.1,0,0.1-0.1s0.1,0,0.1-0.1c0,0,0.1,0,0.1-0.1c0,0,0.1,0,0.1-0.1c0,0,0.1,0,0.1-0.1    c0,0,0.1,0,0.1-0.1c0,0,0.1,0,0.1-0.1c0,0,0.1,0,0.1-0.1c0,0,0.1,0,0.1-0.1c0,0,0.1,0,0.1-0.1c0,0,0.1,0,0.1-0.1    c0,0,0.1,0,0.1-0.1c0,0,0-0.1,0.1-0.1c0,0,0-0.1,0.1-0.1c0,0,0-0.1,0.1-0.1c0,0,0-0.1,0.1-0.1c0,0,0-0.1,0.1-0.1    c0,0,0-0.1,0.1-0.1c0,0,0-0.1,0.1-0.1c0,0,0-0.1,0.1-0.1c0,0,0-0.1,0.1-0.1c0,0,0-0.1,0-0.1c0,0,0-0.1,0-0.1c0,0,0-0.1,0-0.1    c0,0,0-0.1,0-0.1c0,0,0-0.1,0-0.1c0,0,0-0.1,0-0.1c0,0,0-0.1,0-0.1c0,0,0-0.1,0-0.1c0,0,0-0.1,0-0.1c0,0,0-0.1,0-0.1    c0,0,0-0.1,0-0.1c0,0,0-0.1,0-0.1c0,0,0-0.1,0-0.1c0,0,0-0.1,0-0.1c0,0,0-0.1,0-0.1c0,0,0-0.1,0-0.1c0,0,0-0.1,0-0.1    c0,0,0-0.1,0-0.1c0,0,0-0.1,0-0.1c0,0,0-0.1,0-0.1c0,0,0-0.1,0-0.1c0,0,0-0.1,0-0.1c0,0,0-0.1,0-0.1c0,0,0-0.1,0-0.1    C137.3,282.9,137.3,282.8,137.3,282.7C137.3,282.8,137.3,282.8,137.3,282.7z"/>
		<circle class="st0" cx="128.3" cy="305.4" r="0.7"/>
		<path class="st0" d="M128.4,313c-2-0.4-3.4-2.1-3.4-4.1v-7c0-2,1.4-3.7,3.4-4.1c10.3-1.9,20.9-1.9,31.2,0c2,0.4,3.4,2.1,3.4,4.1v7    c0,2-1.4,3.7-3.4,4.1C149.3,314.8,138.7,314.8,128.4,313z"/>
		<path class="st0" d="M126.3,271.5c2.9,0,5.3-2.9,5.3-6.4c0-3.5-2.4-6.4-5.3-6.4c-2.9,0-5.3,2.9-5.3,6.4    C121,268.6,123.3,271.5,126.3,271.5z"/>
		<rect x="170.5" y="284.9" class="st0" width="18.7" height="21.8"/>
		<line class="st0" x1="203.2" y1="201.8" x2="213.8" y2="201.8"/>
		<line class="st0" x1="203.2" y1="201.8" x2="213.8" y2="201.8"/>
		<line class="st0" x1="254.9" y1="298.8" x2="254.9" y2="315.5"/>
		<line class="st0" x1="254.9" y1="315.5" x2="234.1" y2="315.5"/>
		<line class="st0" x1="234.1" y1="315.5" x2="234.1" y2="298.8"/>
		<line class="st0" x1="254.9" y1="298.8" x2="234.1" y2="298.8"/>
		<line class="st0" x1="234.1" y1="299.9" x2="254.9" y2="299.9"/>
		<line class="st0" x1="255.6" y1="298.8" x2="255.6" y2="316.2"/>
		<line class="st0" x1="256.1" y1="298.8" x2="256.1" y2="316.2"/>
		<line class="st0" x1="287.6" y1="247.5" x2="304.2" y2="247.5"/>
		<line class="st0" x1="304.2" y1="226.2" x2="287.6" y2="226.2"/>
		<line class="st0" x1="304.2" y1="226.7" x2="287.6" y2="226.7"/>
		<line class="st0" x1="287.6" y1="243.4" x2="287.6" y2="243.1"/>
		<line class="st0" x1="287.6" y1="226.7" x2="287.6" y2="226.2"/>
		<line class="st0" x1="233.4" y1="298.8" x2="233.4" y2="316.2"/>
		<line class="st0" x1="286.6" y1="226.1" x2="286.6" y2="298.5"/>
		<line class="st0" x1="286.6" y1="298.8" x2="286.6" y2="283.3"/>
		<polyline class="st0" points="304.2,247.5 287.6,247.5 287.6,226.7 304.2,226.7   "/>
		<rect x="234.6" y="226.1" class="st0" width="24.9" height="45.7"/>
		<rect x="245.7" y="248.5" class="st0" width="10" height="8.7"/>
		<rect x="245.7" y="258.5" class="st0" width="10" height="8.7"/>
		<polygon class="st0" points="243.3,268.6 243.3,247.1 257.1,247.1 257.1,249.9 257.1,268.6   "/>
		<rect x="244" y="255.4" class="st0" width="1" height="4.8"/>
		<line class="st0" x1="232.9" y1="298.8" x2="286.6" y2="298.8"/>
		<line class="st0" x1="286.6" y1="226.1" x2="304.2" y2="226.1"/>
		<line class="st0" x1="286.6" y1="263.1" x2="303.2" y2="263.1"/>
		<polyline class="st0" points="286.6,263.1 303.2,263.1 303.2,283.8 286.6,283.8   "/>
		<line class="st0" x1="286.6" y1="263.1" x2="286.6" y2="283.8"/>
		<line class="st0" x1="232.9" y1="298.8" x2="232.9" y2="316.2"/>
		<line class="st0" x1="128" y1="245.5" x2="128" y2="201.2"/>
		<line class="st0" x1="173.7" y1="245.2" x2="173.7" y2="200.9"/>
		<line class="st0" x1="200.4" y1="59.9" x2="117.3" y2="59.9"/>
		<line class="st0" x1="200.4" y1="77.9" x2="200.4" y2="59.9"/>
		<line class="st0" x1="117.3" y1="59.9" x2="117.3" y2="111.2"/>
		<polyline class="st0" points="201.8,76.5 201.8,58.5 117.3,58.5 117.3,57.1 203.2,57.1 203.2,76.5   "/>
		
			<rect x="166" y="271.2" transform="matrix(0.7071 -0.7071 0.7071 0.7071 -141.6674 201.3877)" class="st0" width="12.5" height="1.1"/>
		
			<rect x="181.6" y="265.4" transform="matrix(0.7071 -0.7071 0.7071 0.7071 -138.7991 208.3634)" class="st0" width="1.1" height="12.5"/>
		<rect x="179.7" y="194.3" class="st0" width="22.1" height="1.2"/>
		<rect x="172.8" y="252.3" class="st0" width="20.7" height="1.2"/>
		<line class="st0" x1="163.1" y1="290.8" x2="164.2" y2="290.8"/>
		<line class="st0" x1="163.1" y1="279.2" x2="163.1" y2="290.8"/>
		<line class="st0" x1="164.2" y1="279.2" x2="163.1" y2="279.2"/>
		<line class="st0" x1="164.2" y1="291.3" x2="162.7" y2="291.3"/>
		<line class="st0" x1="162.7" y1="291.3" x2="162.7" y2="278.8"/>
		<line class="st0" x1="162.7" y1="278.8" x2="164.2" y2="278.8"/>
		<path class="st0" d="M118.8,292.5h-0.1H118.8z"/>
		<circle class="st0" cx="297.7" cy="278.9" r="3.1"/>
		<circle class="st0" cx="290.9" cy="267.7" r="3.1"/>
		<line class="st0" x1="294.6" y1="267.7" x2="292.8" y2="267.7"/>
		<line class="st0" x1="290.9" y1="264" x2="290.9" y2="265.7"/>
		<line class="st0" x1="289" y1="267.7" x2="287.3" y2="267.7"/>
		<line class="st0" x1="290.9" y1="269.6" x2="290.9" y2="271.3"/>
		<line class="st0" x1="301.3" y1="278.9" x2="299.6" y2="278.9"/>
		<line class="st0" x1="297.7" y1="275.2" x2="297.7" y2="276.9"/>
		<line class="st0" x1="295.7" y1="278.9" x2="294" y2="278.9"/>
		<line class="st0" x1="297.7" y1="280.8" x2="297.7" y2="282.5"/>
		<line class="st0" x1="292.8" y1="279.3" x2="291.5" y2="279.3"/>
		<line class="st0" x1="290.4" y1="276.9" x2="290.4" y2="278.3"/>
		<line class="st0" x1="289.4" y1="279.3" x2="288" y2="279.3"/>
		<line class="st0" x1="290.4" y1="280.4" x2="290.4" y2="281.7"/>
		<circle class="st0" cx="298.2" cy="267.2" r="2.1"/>
		<circle class="st0" cx="290.4" cy="279.3" r="2.1"/>
		<line class="st0" x1="300.6" y1="267.2" x2="299.2" y2="267.2"/>
		<line class="st0" x1="298.2" y1="264.8" x2="298.2" y2="266.1"/>
		<line class="st0" x1="297.1" y1="267.2" x2="295.8" y2="267.2"/>
		<line class="st0" x1="298.2" y1="268.2" x2="298.2" y2="269.6"/>
		<line class="st0" x1="203.2" y1="246.8" x2="203.2" y2="224"/>
		<line class="st0" x1="203.2" y1="224" x2="203.2" y2="201.1"/>
		<line class="st0" x1="203.2" y1="224" x2="186.6" y2="224"/>
		<path class="st8" d="M192.1,275.9v30.5h4.2v-30.5v-2.8h-2.8v2.8H192.1z M167.2,311.9v-36h-2.8v40.2h-45.7v-66.5h22.2v-1.1v-1.9    v-1.1h-2.8v-1.4h-2.8v1.4h-16.6v-44.3h16.6v1.4h2.8v-4.2h-19.4v-83.1h15.2v-4.2h-18v209.1h80.3v-4.2h-4.2v-4.2h-6.9H167.2z"/>
		<path class="st0" d="M192.1,275.9v30.5h4.2v-30.5v-2.8h-2.8v2.8H192.1z M167.2,311.9v-36h-2.8v40.2h-45.7v-66.5h22.2v-1.1v-1.9    v-1.1h-2.8v-1.4h-2.8v1.4h-16.6v-44.3h16.6v1.4h2.8v-4.2h-19.4v-83.1h15.2v-4.2h-18v209.1h80.3v-4.2h-4.2v-4.2h-6.9H167.2z"/>
		<polygon class="st8" points="204.6,246.8 186.6,246.8 186.6,249.6 193.5,249.6 193.5,252.4 196.3,252.4 196.3,249.6 204.6,249.6       "/>
		<polygon class="st0" points="204.6,246.8 186.6,246.8 186.6,249.6 193.5,249.6 193.5,252.4 196.3,252.4 196.3,249.6 204.6,249.6       "/>
		<polygon class="st8" points="204.6,109 200.4,109 200.4,111.1 183.8,111.1 183.8,115.2 201.8,115.2 201.8,173.4 204.6,173.4   "/>
		<polygon class="st0" points="204.6,109 200.4,109 200.4,111.1 183.8,111.1 183.8,115.2 201.8,115.2 201.8,173.4 204.6,173.4   "/>
		<polygon class="st8" points="233,311.9 230.2,311.9 225.7,311.9 225.7,316.1 230.2,316.1 230.2,320.2 307.1,320.2 307.1,77.8     287,77.8 287,82 304.3,82 304.3,218.2 304.3,221 304.3,316.1 233,316.1   "/>
		<polygon class="st0" points="233,311.9 230.2,311.9 225.7,311.9 225.7,316.1 230.2,316.1 230.2,320.2 307.1,320.2 307.1,77.8     287,77.8 287,82 304.3,82 304.3,218.2 304.3,221 304.3,316.1 233,316.1   "/>
		<polygon class="st8" points="181,248.5 161.6,248.5 161.6,249.6 183.8,249.6 186.6,249.6 186.6,201.1 204.6,201.1 204.6,195.6     201.8,195.6 201.8,198.3 164.4,198.3 164.4,202.5 167.2,202.5 167.2,201.1 183.8,201.1 183.8,245.4 174.8,245.4 167.2,245.4     167.2,244.1 164.4,244.1 164.4,245.4 161.6,245.4 161.6,246.6 181,246.6   "/>
		<polygon class="st0" points="181,248.5 161.6,248.5 161.6,249.6 183.8,249.6 186.6,249.6 186.6,201.1 204.6,201.1 204.6,195.6     201.8,195.6 201.8,198.3 164.4,198.3 164.4,202.5 167.2,202.5 167.2,201.1 183.8,201.1 183.8,245.4 174.8,245.4 167.2,245.4     167.2,244.1 164.4,244.1 164.4,245.4 161.6,245.4 161.6,246.6 181,246.6   "/>
		<polygon class="st8" points="220.5,82 220.5,77.8 200.4,77.8 200.4,85.5 204.6,85.5 204.6,82   "/>
		<polygon class="st0" points="220.5,82 220.5,77.8 200.4,77.8 200.4,85.5 204.6,85.5 204.6,82   "/>
		<polygon class="st8" points="200.8,311.9 196.3,311.9 196.3,306.4 192.1,306.4 192.1,316.1 200.8,316.1   "/>
		<polygon class="st0" points="200.8,311.9 196.3,311.9 196.3,306.4 192.1,306.4 192.1,316.1 200.8,316.1   "/>
		<rect x="118.8" y="292.5" class="st9" width="4" height="23.5"/>
		<rect x="118.8" y="292.5" class="st0" width="4" height="23.5"/>
		<g>
			<path class="st9" d="M226,159h0.6v3.6h1.9v0.5H226V159z"/>
			<path class="st9" d="M229.1,159h0.6v4.1h-0.6V159z"/>
			<path class="st9" d="M230.3,159h0.6l1,2.9c0.1,0.2,0.2,0.6,0.2,0.6h0c0,0,0.1-0.3,0.2-0.6l1-2.9h0.6l-1.5,4.1h-0.6L230.3,159z"/>
			<path class="st9" d="M234.6,159h0.6v4.1h-0.6V159z"/>
			<path class="st9" d="M236.3,159h0.6l1.8,2.7c0.2,0.2,0.3,0.6,0.3,0.6h0c0,0,0-0.4,0-0.6V159h0.6v4.1H239l-1.9-2.7     c-0.2-0.2-0.3-0.6-0.3-0.6h0c0,0,0,0.4,0,0.6v2.7h-0.6V159z"/>
			<path class="st9" d="M242.5,158.9c1,0,1.5,0.5,1.5,0.5l-0.3,0.4c0,0-0.5-0.4-1.2-0.4c-1,0-1.6,0.7-1.6,1.6c0,1,0.7,1.6,1.5,1.6     c0.7,0,1.2-0.5,1.2-0.5v-0.6h-0.7V161h1.2v2.1h-0.5v-0.3c0-0.1,0-0.2,0-0.2h0c0,0-0.5,0.5-1.3,0.5c-1.1,0-2-0.9-2-2.1     C240.4,159.8,241.3,158.9,242.5,158.9z"/>
			<path class="st9" d="M246.3,158.7h0.5l-1.5,4.6h-0.5L246.3,158.7z"/>
			<path class="st9" d="M247.5,159h1.4c1.3,0,2.1,0.8,2.1,2.1c0,1.3-0.8,2.1-2.1,2.1h-1.4V159z M248.9,162.6c0.9,0,1.5-0.6,1.5-1.6     c0-1-0.6-1.6-1.5-1.6h-0.8v3.1H248.9z"/>
			<path class="st9" d="M251.9,159h0.6v4.1h-0.6V159z"/>
			<path class="st9" d="M253.6,159h0.6l1.8,2.7c0.2,0.2,0.3,0.6,0.3,0.6h0c0,0,0-0.4,0-0.6V159h0.6v4.1h-0.6l-1.9-2.7     c-0.2-0.2-0.3-0.6-0.3-0.6h0c0,0,0,0.4,0,0.6v2.7h-0.6V159z"/>
			<path class="st9" d="M258,159h0.6v4.1H258V159z"/>
			<path class="st9" d="M259.7,159h0.6l1.8,2.7c0.2,0.2,0.3,0.6,0.3,0.6h0c0,0,0-0.4,0-0.6V159h0.6v4.1h-0.6l-1.9-2.7     c-0.2-0.2-0.3-0.6-0.3-0.6h0c0,0,0,0.4,0,0.6v2.7h-0.6V159z"/>
			<path class="st9" d="M266,158.9c1,0,1.5,0.5,1.5,0.5l-0.3,0.4c0,0-0.5-0.4-1.2-0.4c-1,0-1.6,0.7-1.6,1.6c0,1,0.7,1.6,1.5,1.6     c0.7,0,1.2-0.5,1.2-0.5v-0.6h-0.7V161h1.2v2.1h-0.5v-0.3c0-0.1,0-0.2,0-0.2h0c0,0-0.5,0.5-1.3,0.5c-1.1,0-2-0.9-2-2.1     C263.9,159.8,264.8,158.9,266,158.9z"/>
		</g>
		<g>
			<path class="st9" d="M253.2,278.9h0.6v1.7h0.6l1-1.7h0.6l-1.2,2v0l1.3,2.2h-0.7l-1.1-1.9h-0.6v1.9h-0.6V278.9z"/>
			<path class="st9" d="M256.8,278.9h0.6v4.1h-0.6V278.9z"/>
			<path class="st9" d="M259.4,279.4H258v-0.5h3.4v0.5H260v3.6h-0.6V279.4z"/>
			<path class="st9" d="M263.5,278.8c1,0,1.5,0.5,1.5,0.5l-0.3,0.4c0,0-0.5-0.5-1.2-0.5c-0.9,0-1.5,0.7-1.5,1.6     c0,0.9,0.6,1.6,1.5,1.6c0.8,0,1.3-0.5,1.3-0.5l0.3,0.4c0,0-0.6,0.7-1.6,0.7c-1.2,0-2.1-1-2.1-2.2     C261.4,279.8,262.3,278.8,263.5,278.8z"/>
			<path class="st9" d="M266,278.9h0.6v1.8h2.2v-1.8h0.6v4.1h-0.6v-1.8h-2.2v1.8H266V278.9z"/>
			<path class="st9" d="M270.4,278.9h2.4v0.5H271v1.3h1.5v0.5H271v1.3h1.9v0.5h-2.5V278.9z"/>
			<path class="st9" d="M273.8,278.9h0.6l1.8,2.7c0.2,0.2,0.3,0.6,0.3,0.6h0c0,0,0-0.4,0-0.6v-2.7h0.6v4.1h-0.6l-1.9-2.7     c-0.2-0.2-0.3-0.6-0.3-0.6h0c0,0,0,0.4,0,0.6v2.7h-0.6V278.9z"/>
		</g>
		<g>
			<path class="st9" d="M143.1,79.2h1.5c0.7,0,1.2,0.4,1.2,1.1c0,0.4-0.2,0.7-0.5,0.9v0c0.4,0.1,0.7,0.5,0.7,1     c0,0.8-0.6,1.2-1.3,1.2h-1.5V79.2z M144.5,81c0.4,0,0.6-0.3,0.6-0.6s-0.2-0.6-0.6-0.6h-0.9V81H144.5z M144.6,82.9     c0.4,0,0.7-0.3,0.7-0.7c0-0.4-0.3-0.7-0.7-0.7h-0.9v1.4H144.6z"/>
			<path class="st9" d="M148.8,82.2h-1.6l-0.4,1.2h-0.6l1.5-4.1h0.6l1.5,4.1h-0.6L148.8,82.2z M148.1,79.8c0,0-0.1,0.4-0.2,0.6     l-0.5,1.3h1.3l-0.5-1.3C148.2,80.2,148.1,79.8,148.1,79.8L148.1,79.8z"/>
			<path class="st9" d="M150.5,79.2h0.6v3.6h1.9v0.5h-2.4V79.2z"/>
			<path class="st9" d="M155.2,79.1c1,0,1.5,0.5,1.5,0.5l-0.3,0.4c0,0-0.5-0.5-1.2-0.5c-0.9,0-1.5,0.7-1.5,1.6     c0,0.9,0.6,1.6,1.5,1.6c0.8,0,1.3-0.5,1.3-0.5l0.3,0.4c0,0-0.6,0.7-1.6,0.7c-1.2,0-2.1-1-2.1-2.2C153.1,80.1,154,79.1,155.2,79.1     z"/>
			<path class="st9" d="M159.3,79.1c1.2,0,2.1,0.9,2.1,2.1c0,1.2-0.9,2.2-2.1,2.2c-1.2,0-2.1-1-2.1-2.2     C157.2,80.1,158.1,79.1,159.3,79.1z M159.3,82.9c0.8,0,1.5-0.7,1.5-1.6c0-0.9-0.7-1.6-1.5-1.6c-0.8,0-1.5,0.7-1.5,1.6     C157.8,82.2,158.5,82.9,159.3,82.9z"/>
			<path class="st9" d="M162.3,79.2h0.6l1.8,2.7c0.2,0.2,0.3,0.6,0.3,0.6h0c0,0,0-0.4,0-0.6v-2.7h0.6v4.1H165l-1.9-2.7     c-0.2-0.2-0.3-0.6-0.3-0.6h0c0,0,0,0.4,0,0.6v2.7h-0.6V79.2z"/>
			<path class="st9" d="M167.6,81.6l-1.4-2.4h0.7l0.8,1.4c0.1,0.2,0.3,0.5,0.3,0.5h0c0,0,0.1-0.3,0.3-0.5l0.8-1.4h0.7l-1.4,2.4v1.8     h-0.6V81.6z"/>
		</g>
		<g>
			<path class="st9" d="M141.2,152.8h1.5c0.7,0,1.2,0.4,1.2,1.1c0,0.4-0.2,0.7-0.5,0.9v0c0.4,0.1,0.7,0.5,0.7,1     c0,0.8-0.6,1.2-1.3,1.2h-1.5V152.8z M142.7,154.5c0.4,0,0.6-0.3,0.6-0.6s-0.2-0.6-0.6-0.6h-0.9v1.2H142.7z M142.7,156.4     c0.4,0,0.7-0.3,0.7-0.7c0-0.4-0.3-0.7-0.7-0.7h-0.9v1.4H142.7z"/>
			<path class="st9" d="M144.9,152.8h2.4v0.5h-1.8v1.3h1.5v0.5h-1.5v1.3h1.9v0.5h-2.5V152.8z"/>
			<path class="st9" d="M148.3,152.8h1.4c1.3,0,2.1,0.8,2.1,2.1c0,1.3-0.8,2.1-2.1,2.1h-1.4V152.8z M149.6,156.4     c0.9,0,1.5-0.6,1.5-1.6c0-1-0.6-1.6-1.5-1.6h-0.8v3.1H149.6z"/>
			<path class="st9" d="M152.6,152.8h1.3c0.4,0,0.6,0,0.8,0.1c0.4,0.2,0.7,0.6,0.7,1.1c0,0.5-0.3,1-0.7,1.1v0c0,0,0,0.1,0.1,0.2     l0.9,1.6H155l-0.9-1.7h-0.9v1.7h-0.6V152.8z M154.1,154.8c0.5,0,0.7-0.3,0.7-0.8c0-0.3-0.1-0.5-0.3-0.6c-0.1-0.1-0.2-0.1-0.6-0.1     h-0.7v1.5H154.1z"/>
			<path class="st9" d="M158.3,152.7c1.2,0,2.1,0.9,2.1,2.1c0,1.2-0.9,2.2-2.1,2.2c-1.2,0-2.1-1-2.1-2.2     C156.1,153.6,157.1,152.7,158.3,152.7z M158.3,156.5c0.8,0,1.5-0.7,1.5-1.6c0-0.9-0.7-1.6-1.5-1.6c-0.8,0-1.5,0.7-1.5,1.6     C156.7,155.8,157.4,156.5,158.3,156.5z"/>
			<path class="st9" d="M163.1,152.7c1.2,0,2.1,0.9,2.1,2.1c0,1.2-0.9,2.2-2.1,2.2c-1.2,0-2.1-1-2.1-2.2     C160.9,153.6,161.9,152.7,163.1,152.7z M163.1,156.5c0.8,0,1.5-0.7,1.5-1.6c0-0.9-0.7-1.6-1.5-1.6c-0.8,0-1.5,0.7-1.5,1.6     C161.5,155.8,162.2,156.5,163.1,156.5z"/>
			<path class="st9" d="M166.2,152.8h0.6l1,2.2c0.1,0.2,0.2,0.6,0.2,0.6h0c0,0,0.1-0.3,0.2-0.6l1-2.2h0.6l0.3,4.1h-0.6l-0.2-2.6     c0-0.3,0-0.6,0-0.6h0c0,0-0.1,0.4-0.2,0.6l-0.8,1.9h-0.5l-0.8-1.9c-0.1-0.2-0.2-0.6-0.2-0.6h0c0,0,0,0.4,0,0.6l-0.2,2.6h-0.6     L166.2,152.8z"/>
		</g>
		<g>
			<path class="st9" d="M176.6,293.6l0.7,2.5c0,0.2,0.1,0.4,0.1,0.4h0c0,0,0-0.2,0.1-0.4l0.6-2.5h0.5l-0.9,3.5h-0.6l-0.6-2.2     c-0.1-0.2-0.1-0.5-0.1-0.5h0c0,0,0,0.3-0.1,0.5l-0.6,2.2h-0.6l-0.9-3.5h0.5l0.6,2.5c0,0.2,0.1,0.4,0.1,0.4h0c0,0,0-0.2,0.1-0.4     l0.7-2.5H176.6z"/>
			<path class="st9" d="M179.7,293.4h0.4l-1.2,3.9h-0.4L179.7,293.4z"/>
			<path class="st9" d="M180.7,293.6h1.1c1.1,0,1.8,0.6,1.8,1.7c0,1.1-0.7,1.7-1.8,1.7h-1.1V293.6z M181.8,296.6     c0.8,0,1.3-0.5,1.3-1.3c0-0.8-0.5-1.3-1.3-1.3h-0.6v2.6H181.8z"/>
		</g>
		<g>
			<path class="st9" d="M242.8,305.3h1.9v0.4h-1.4v1.1h1.2v0.4h-1.2v1.5h-0.5V305.3z"/>
		</g>
		<g>
			<path class="st9" d="M193.4,210.8h1.3c0.6,0,1.1,0.4,1.1,1.1c0,0.7-0.5,1.1-1.1,1.1h-0.8v1.3h-0.5V210.8z M194.6,212.6     c0.4,0,0.7-0.3,0.7-0.7c0-0.4-0.3-0.7-0.7-0.7h-0.7v1.3H194.6z"/>
		</g>
		<g>
			<path class="st9" d="M291.9,232.1h0.5l0.8,1.9c0.1,0.2,0.2,0.5,0.2,0.5h0c0,0,0.1-0.3,0.2-0.5l0.8-1.9h0.5l0.3,3.5h-0.5l-0.2-2.2     c0-0.2,0-0.5,0-0.5h0c0,0-0.1,0.3-0.2,0.5l-0.7,1.6h-0.4l-0.7-1.6c-0.1-0.2-0.2-0.5-0.2-0.5h0c0,0,0,0.3,0,0.5l-0.2,2.2h-0.5     L291.9,232.1z"/>
			<path class="st9" d="M298,232.1l0.7,2.5c0,0.2,0.1,0.4,0.1,0.4h0c0,0,0-0.2,0.1-0.4l0.6-2.5h0.5l-0.9,3.5h-0.6l-0.6-2.2     c-0.1-0.2-0.1-0.5-0.1-0.5h0c0,0,0,0.3-0.1,0.5l-0.6,2.2h-0.6l-0.9-3.5h0.5l0.6,2.5c0,0.2,0.1,0.4,0.1,0.4h0c0,0,0-0.2,0.1-0.4     l0.7-2.5H298z"/>
		</g>
		<g>
			<path class="st9" d="M294.3,237.9c1,0,1.8,0.8,1.8,1.8c0,1-0.8,1.8-1.8,1.8c-1,0-1.8-0.8-1.8-1.8     C292.5,238.7,293.3,237.9,294.3,237.9z M294.3,241.1c0.7,0,1.3-0.6,1.3-1.4c0-0.8-0.6-1.3-1.3-1.3c-0.7,0-1.3,0.6-1.3,1.3     C293,240.5,293.6,241.1,294.3,241.1z"/>
			<path class="st9" d="M296.1,238h0.5l0.9,2.4c0.1,0.2,0.1,0.5,0.1,0.5h0c0,0,0.1-0.3,0.1-0.5l0.9-2.4h0.5l-1.3,3.5h-0.5L296.1,238     z"/>
		</g>
		<g>
			<path class="st9" d="M246.3,235.5h1.1c1.1,0,1.8,0.6,1.8,1.7c0,1.1-0.7,1.7-1.8,1.7h-1.1V235.5z M247.4,238.5     c0.8,0,1.3-0.5,1.3-1.3c0-0.8-0.5-1.3-1.3-1.3h-0.6v2.6H247.4z"/>
			<path class="st9" d="M251.8,235.5l0.7,2.5c0,0.2,0.1,0.4,0.1,0.4h0c0,0,0-0.2,0.1-0.4l0.6-2.5h0.5l-0.9,3.5h-0.6l-0.6-2.2     c-0.1-0.2-0.1-0.5-0.1-0.5h0c0,0,0,0.3-0.1,0.5l-0.6,2.2h-0.6l-0.9-3.5h0.5l0.6,2.5c0,0.2,0.1,0.4,0.1,0.4h0c0,0,0-0.2,0.1-0.4     l0.7-2.5H251.8z"/>
		</g>
		<g>
			<path class="st9" d="M145.3,264.9h1.5c0.7,0,1.2,0.4,1.2,1.1c0,0.4-0.2,0.7-0.5,0.9v0c0.4,0.1,0.7,0.5,0.7,1     c0,0.8-0.6,1.2-1.3,1.2h-1.5V264.9z M146.7,266.6c0.4,0,0.6-0.3,0.6-0.6s-0.2-0.6-0.6-0.6h-0.9v1.2H146.7z M146.8,268.5     c0.4,0,0.7-0.3,0.7-0.7s-0.3-0.7-0.7-0.7h-0.9v1.4H146.8z"/>
			<path class="st9" d="M151.1,267.9h-1.6l-0.4,1.2h-0.6l1.5-4.1h0.6l1.5,4.1h-0.6L151.1,267.9z M150.3,265.5c0,0-0.1,0.4-0.2,0.6     l-0.5,1.3h1.3l-0.5-1.3C150.4,265.8,150.3,265.5,150.3,265.5L150.3,265.5z"/>
			<path class="st9" d="M153.1,265.4h-1.4v-0.5h3.4v0.5h-1.4v3.6h-0.6V265.4z"/>
			<path class="st9" d="M155.6,264.9h0.6v1.8h2.2v-1.8h0.6v4.1h-0.6v-1.8h-2.2v1.8h-0.6V264.9z"/>
		</g>
		<g>
			<path class="st9" d="M204.5,318.9h2.4v0.5H205v1.3h1.5v0.5H205v1.3h1.9v0.5h-2.5V318.9z"/>
			<path class="st9" d="M207.8,318.9h0.6l1.8,2.7c0.2,0.2,0.3,0.6,0.3,0.6h0c0,0,0-0.4,0-0.6v-2.7h0.6v4.1h-0.6l-1.9-2.7     c-0.2-0.2-0.3-0.6-0.3-0.6h0c0,0,0,0.4,0,0.6v2.7h-0.6V318.9z"/>
			<path class="st9" d="M213.2,319.4h-1.4v-0.5h3.4v0.5h-1.4v3.6h-0.6V319.4z"/>
			<path class="st9" d="M215.8,318.9h1.3c0.4,0,0.6,0,0.8,0.1c0.4,0.2,0.7,0.6,0.7,1.1c0,0.5-0.3,1-0.7,1.1v0c0,0,0,0.1,0.1,0.2     l0.9,1.6h-0.7l-0.9-1.7h-0.9v1.7h-0.6V318.9z M217.2,320.9c0.5,0,0.7-0.3,0.7-0.8c0-0.3-0.1-0.5-0.3-0.6     c-0.1-0.1-0.2-0.1-0.6-0.1h-0.7v1.5H217.2z"/>
			<path class="st9" d="M220.2,321.3l-1.4-2.4h0.7l0.8,1.4c0.1,0.2,0.3,0.5,0.3,0.5h0c0,0,0.1-0.3,0.3-0.5l0.8-1.4h0.7l-1.4,2.4v1.8     h-0.6V321.3z"/>
		</g>
		<g>
			<path class="st9" d="M143.4,161h0.8v-2.2c0-0.1,0-0.2,0-0.2h0c0,0,0,0.1-0.2,0.2l-0.3,0.3l-0.3-0.3l0.8-0.8h0.4v3h0.8v0.4h-2V161     z"/>
			<path class="st9" d="M145.9,159.7c0-1,0.3-1.8,1.2-1.8c0.9,0,1.2,0.8,1.2,1.8c0,1-0.3,1.8-1.2,1.8     C146.2,161.5,145.9,160.7,145.9,159.7z M147.8,159.7c0-0.7-0.2-1.3-0.7-1.3c-0.6,0-0.7,0.6-0.7,1.3c0,0.8,0.2,1.3,0.7,1.3     C147.7,161.1,147.8,160.5,147.8,159.7z"/>
			<path class="st9" d="M148.9,157.9h0.4v0.9h-0.4V157.9z"/>
			<path class="st9" d="M149.9,159.7c0-1,0.3-1.8,1.2-1.8c0.9,0,1.2,0.8,1.2,1.8c0,1-0.3,1.8-1.2,1.8     C150.2,161.5,149.9,160.7,149.9,159.7z M151.9,159.7c0-0.7-0.2-1.3-0.7-1.3c-0.6,0-0.7,0.6-0.7,1.3c0,0.8,0.2,1.3,0.7,1.3     C151.7,161.1,151.9,160.5,151.9,159.7z"/>
			<path class="st9" d="M153,157.9h0.4v0.9H153V157.9z M153.7,157.9h0.4v0.9h-0.4V157.9z"/>
			<path class="st9" d="M155.6,160.5c0,0,0,0.1-0.1,0.1l-0.5,0.8h-0.5l0.8-1.3l-0.8-1.2h0.5l0.5,0.8c0,0.1,0.1,0.1,0.1,0.1h0     c0,0,0-0.1,0.1-0.1l0.5-0.8h0.5l-0.8,1.2l0.8,1.3h-0.5l-0.5-0.8C155.6,160.6,155.6,160.5,155.6,160.5L155.6,160.5z"/>
			<path class="st9" d="M158.4,161h0.8v-2.2c0-0.1,0-0.2,0-0.2h0c0,0,0,0.1-0.2,0.2l-0.3,0.3l-0.3-0.3l0.8-0.8h0.4v3h0.8v0.4h-2V161     z"/>
			<path class="st9" d="M160.8,159.7c0-1,0.3-1.8,1.2-1.8c0.9,0,1.2,0.8,1.2,1.8c0,1-0.3,1.8-1.2,1.8     C161.1,161.5,160.8,160.7,160.8,159.7z M162.7,159.7c0-0.7-0.2-1.3-0.7-1.3c-0.6,0-0.7,0.6-0.7,1.3c0,0.8,0.2,1.3,0.7,1.3     C162.6,161.1,162.7,160.5,162.7,159.7z"/>
			<path class="st9" d="M163.9,157.9h0.4v0.9h-0.4V157.9z"/>
			<path class="st9" d="M164.8,159.7c0-1,0.3-1.8,1.2-1.8c0.9,0,1.2,0.8,1.2,1.8c0,1-0.3,1.8-1.2,1.8     C165.1,161.5,164.8,160.7,164.8,159.7z M166.8,159.7c0-0.7-0.2-1.3-0.7-1.3c-0.6,0-0.7,0.6-0.7,1.3c0,0.8,0.2,1.3,0.7,1.3     C166.6,161.1,166.8,160.5,166.8,159.7z"/>
			<path class="st9" d="M167.9,157.9h0.4v0.9h-0.4V157.9z M168.6,157.9h0.4v0.9h-0.4V157.9z"/>
		</g>
		<g>
			<path class="st9" d="M145.7,87.7h0.8v-2.2c0-0.1,0-0.2,0-0.2h0c0,0,0,0.1-0.2,0.2l-0.3,0.3l-0.3-0.3l0.8-0.8h0.4v3h0.8v0.4h-2     V87.7z"/>
			<path class="st9" d="M148.2,86.4c0-1,0.3-1.8,1.2-1.8c0.9,0,1.2,0.8,1.2,1.8c0,1-0.3,1.8-1.2,1.8     C148.5,88.2,148.2,87.4,148.2,86.4z M150.1,86.4c0-0.7-0.2-1.3-0.7-1.3c-0.6,0-0.7,0.6-0.7,1.3c0,0.8,0.2,1.3,0.7,1.3     C150,87.7,150.1,87.1,150.1,86.4z"/>
			<path class="st9" d="M151.4,84.6h0.5l-0.3,1h-0.4L151.4,84.6z"/>
			<path class="st9" d="M152.3,86.4c0-1,0.3-1.8,1.2-1.8c0.9,0,1.2,0.8,1.2,1.8c0,1-0.3,1.8-1.2,1.8     C152.6,88.2,152.3,87.4,152.3,86.4z M154.2,86.4c0-0.7-0.2-1.3-0.7-1.3c-0.6,0-0.7,0.6-0.7,1.3c0,0.8,0.2,1.3,0.7,1.3     C154.1,87.7,154.2,87.1,154.2,86.4z"/>
			<path class="st9" d="M155.4,84.6h0.4v0.9h-0.4V84.6z M156,84.6h0.4v0.9H156V84.6z"/>
			<path class="st9" d="M158,87.1c0,0,0,0.1-0.1,0.1l-0.5,0.8h-0.5l0.8-1.3l-0.8-1.2h0.5l0.5,0.8c0,0.1,0.1,0.1,0.1,0.1h0     c0,0,0-0.1,0.1-0.1l0.5-0.8h0.5l-0.8,1.2l0.8,1.3h-0.5l-0.5-0.8C158,87.2,158,87.1,158,87.1L158,87.1z"/>
			<path class="st9" d="M160.8,86.5c0-0.9,0.5-1.9,1.6-1.9c0.4,0,0.7,0.1,0.7,0.1l-0.2,0.4c0,0-0.2-0.1-0.5-0.1c-0.6,0-1,0.6-1,1.2     h0c0.1-0.2,0.5-0.3,0.8-0.3c0.7,0,1.1,0.5,1.1,1.1c0,0.7-0.5,1.2-1.1,1.2C161.3,88.2,160.8,87.5,160.8,86.5z M162.7,87     c0-0.4-0.3-0.7-0.7-0.7c-0.4,0-0.7,0.2-0.7,0.5c0,0.5,0.3,1,0.8,1C162.4,87.7,162.7,87.4,162.7,87z"/>
			<path class="st9" d="M163.7,84.6h0.4v0.9h-0.4V84.6z"/>
			<path class="st9" d="M164.7,87.8c0-1.2,1.7-1.4,1.7-2.2c0-0.3-0.3-0.6-0.6-0.6c-0.5,0-0.7,0.4-0.7,0.4l-0.4-0.2     c0,0,0.3-0.7,1.1-0.7c0.6,0,1.1,0.4,1.1,1c0,1.1-1.7,1.3-1.7,2.1h1.7v0.4h-2.2C164.7,88,164.7,87.9,164.7,87.8z"/>
			<path class="st9" d="M167.5,84.6h0.4v0.9h-0.4V84.6z M168.2,84.6h0.4v0.9h-0.4V84.6z"/>
		</g>
		<g>
			<path class="st9" d="M141.7,273.1c0,0,0.3,0.4,0.8,0.4c0.4,0,0.8-0.3,0.8-0.7c0-0.4-0.3-0.7-0.8-0.7c-0.3,0-0.6,0.2-0.6,0.2     l-0.3-0.1l0.2-1.7h1.7v0.4h-1.3l-0.1,0.7c0,0.1,0,0.2,0,0.2h0c0,0,0.2-0.1,0.4-0.1c0.7,0,1.2,0.5,1.2,1.1c0,0.7-0.5,1.2-1.2,1.2     c-0.7,0-1.1-0.5-1.1-0.5L141.7,273.1z"/>
			<path class="st9" d="M144.2,270.3h0.4v0.9h-0.4V270.3z"/>
			<path class="st9" d="M145.2,272.3c0-0.9,0.5-1.9,1.6-1.9c0.4,0,0.7,0.1,0.7,0.1l-0.2,0.4c0,0-0.2-0.1-0.5-0.1c-0.6,0-1,0.6-1,1.2     h0c0.1-0.2,0.5-0.3,0.8-0.3c0.7,0,1.1,0.5,1.1,1.1c0,0.7-0.5,1.2-1.1,1.2C145.8,273.9,145.2,273.3,145.2,272.3z M147.1,272.8     c0-0.4-0.3-0.7-0.7-0.7c-0.4,0-0.7,0.2-0.7,0.5c0,0.5,0.3,1,0.8,1C146.9,273.5,147.1,273.2,147.1,272.8z"/>
			<path class="st9" d="M148.1,270.3h0.4v0.9h-0.4V270.3z M148.8,270.3h0.4v0.9h-0.4V270.3z"/>
			<path class="st9" d="M150.8,272.9c0,0,0,0.1-0.1,0.1l-0.5,0.8h-0.5l0.8-1.3l-0.8-1.2h0.5l0.5,0.8c0,0.1,0.1,0.1,0.1,0.1h0     c0,0,0-0.1,0.1-0.1l0.5-0.8h0.5l-0.8,1.2l0.8,1.3h-0.5l-0.5-0.8C150.8,273,150.8,272.9,150.8,272.9L150.8,272.9z"/>
			<path class="st9" d="M154.1,271.9c-0.2-0.2-0.4-0.4-0.4-0.7c0-0.5,0.3-0.9,1.1-0.9c0.6,0,1.1,0.4,1.1,0.9c0,0.5-0.4,0.9-0.4,0.9     c0.3,0.2,0.5,0.4,0.5,0.7c0,0.5-0.5,1-1.2,1c-0.7,0-1.2-0.4-1.2-1.1C153.5,272.3,154,272,154.1,271.9z M154.4,272.1     c-0.1,0.1-0.4,0.3-0.4,0.7c0,0.4,0.3,0.7,0.7,0.7c0.4,0,0.7-0.2,0.7-0.6C155.4,272.5,154.9,272.4,154.4,272.1z M155.1,272     c0.1-0.1,0.3-0.3,0.3-0.7c0-0.3-0.3-0.5-0.6-0.5c-0.4,0-0.6,0.2-0.6,0.5C154.2,271.6,154.6,271.8,155.1,272z"/>
			<path class="st9" d="M156.5,270.3h0.4v0.9h-0.4V270.3z"/>
			<path class="st9" d="M157.5,272.1c0-1,0.3-1.8,1.2-1.8c0.9,0,1.2,0.8,1.2,1.8c0,1-0.3,1.8-1.2,1.8     C157.8,273.9,157.5,273.1,157.5,272.1z M159.5,272.1c0-0.7-0.2-1.3-0.7-1.3c-0.6,0-0.7,0.6-0.7,1.3c0,0.8,0.2,1.3,0.7,1.3     C159.3,273.5,159.5,272.9,159.5,272.1z"/>
			<path class="st9" d="M160.6,270.3h0.4v0.9h-0.4V270.3z M161.3,270.3h0.4v0.9h-0.4V270.3z"/>
		</g>
		<g>
			<path class="st9" d="M255.7,285.7c-0.2-0.2-0.4-0.4-0.4-0.7c0-0.5,0.3-0.9,1.1-0.9c0.6,0,1.1,0.4,1.1,0.9c0,0.5-0.4,0.9-0.4,0.9     c0.3,0.2,0.5,0.4,0.5,0.7c0,0.5-0.5,1-1.2,1c-0.7,0-1.2-0.4-1.2-1.1C255.2,286.1,255.6,285.8,255.7,285.7z M256.1,285.9     c-0.1,0.1-0.4,0.3-0.4,0.7c0,0.4,0.3,0.7,0.7,0.7c0.4,0,0.7-0.2,0.7-0.6C257.1,286.3,256.6,286.1,256.1,285.9z M256.7,285.7     c0.1-0.1,0.3-0.3,0.3-0.7c0-0.3-0.3-0.5-0.6-0.5c-0.4,0-0.6,0.2-0.6,0.5C255.8,285.4,256.3,285.5,256.7,285.7z"/>
			<path class="st9" d="M258.2,284.1h0.4v0.9h-0.4V284.1z"/>
			<path class="st9" d="M260.6,284.9c0.1-0.2,0.2-0.3,0.2-0.3v0c0,0-0.1,0-0.3,0H259v-0.4h2.3v0.3l-1.6,3.1h-0.5L260.6,284.9z"/>
			<path class="st9" d="M261.8,284.1h0.4v0.9h-0.4V284.1z M262.4,284.1h0.4v0.9h-0.4V284.1z"/>
			<path class="st9" d="M264.4,286.7c0,0,0,0.1-0.1,0.1l-0.5,0.8h-0.5l0.8-1.3l-0.8-1.2h0.5l0.5,0.8c0,0.1,0.1,0.1,0.1,0.1h0     c0,0,0-0.1,0.1-0.1l0.5-0.8h0.5l-0.8,1.2l0.8,1.3H265l-0.5-0.8C264.4,286.7,264.4,286.7,264.4,286.7L264.4,286.7z"/>
			<path class="st9" d="M267.1,287.2h0.8V285c0-0.1,0-0.2,0-0.2h0c0,0,0,0.1-0.2,0.2l-0.3,0.3l-0.3-0.3l0.8-0.8h0.4v3h0.8v0.4h-2     V287.2z"/>
			<path class="st9" d="M269.5,287.2h0.8V285c0-0.1,0-0.2,0-0.2h0c0,0,0,0.1-0.2,0.2l-0.3,0.3l-0.3-0.3l0.8-0.8h0.4v3h0.8v0.4h-2     V287.2z"/>
			<path class="st9" d="M272,284.1h0.4v0.9H272V284.1z"/>
			<path class="st9" d="M273.1,287.5l0.2-0.4c0,0,0.2,0.1,0.5,0.1c0.6,0,1-0.6,1-1.2h0c-0.1,0.2-0.5,0.3-0.8,0.3     c-0.7,0-1.1-0.5-1.1-1.1c0-0.7,0.5-1.2,1.1-1.2c0.7,0,1.3,0.6,1.3,1.6c0,0.9-0.5,1.9-1.6,1.9     C273.3,287.7,273.1,287.5,273.1,287.5z M274.8,285.5c0-0.5-0.3-1-0.8-1c-0.4,0-0.6,0.3-0.6,0.7c0,0.4,0.3,0.7,0.7,0.7     C274.5,286,274.8,285.7,274.8,285.5z"/>
			<path class="st9" d="M275.9,284.1h0.4v0.9h-0.4V284.1z M276.6,284.1h0.4v0.9h-0.4V284.1z"/>
		</g>
		<g>
			<path class="st9" d="M235.8,167.7h0.8v-2.2c0-0.1,0-0.2,0-0.2h0c0,0,0,0.1-0.2,0.2l-0.3,0.3l-0.3-0.3l0.8-0.8h0.4v3h0.8v0.4h-2     V167.7z"/>
			<path class="st9" d="M238.1,167.9c0-1.2,1.7-1.4,1.7-2.2c0-0.3-0.3-0.6-0.6-0.6c-0.5,0-0.7,0.4-0.7,0.4l-0.4-0.2     c0,0,0.3-0.7,1.1-0.7c0.6,0,1.1,0.4,1.1,1c0,1.1-1.7,1.3-1.7,2.1h1.7v0.4h-2.2C238.1,168.1,238.1,168,238.1,167.9z"/>
			<path class="st9" d="M241,164.6h0.4v0.9H241V164.6z"/>
			<path class="st9" d="M242,166.4c0-1,0.3-1.8,1.2-1.8c0.9,0,1.2,0.8,1.2,1.8c0,1-0.3,1.8-1.2,1.8C242.3,168.2,242,167.4,242,166.4     z M243.9,166.4c0-0.7-0.2-1.3-0.7-1.3c-0.6,0-0.7,0.6-0.7,1.3c0,0.8,0.2,1.3,0.7,1.3C243.8,167.8,243.9,167.2,243.9,166.4z"/>
			<path class="st9" d="M245,164.6h0.4v0.9H245V164.6z M245.7,164.6h0.4v0.9h-0.4V164.6z"/>
			<path class="st9" d="M247.6,167.2c0,0,0,0.1-0.1,0.1l-0.5,0.8h-0.5l0.8-1.3l-0.8-1.2h0.5l0.5,0.8c0,0.1,0.1,0.1,0.1,0.1h0     c0,0,0-0.1,0.1-0.1l0.5-0.8h0.5l-0.8,1.2l0.8,1.3h-0.5l-0.5-0.8C247.7,167.3,247.6,167.2,247.6,167.2L247.6,167.2z"/>
			<path class="st9" d="M250.4,167.7h0.8v-2.2c0-0.1,0-0.2,0-0.2h0c0,0,0,0.1-0.2,0.2l-0.3,0.3l-0.3-0.3l0.8-0.8h0.4v3h0.8v0.4h-2     V167.7z"/>
			<path class="st9" d="M252.8,166.6c0-0.9,0.5-1.9,1.6-1.9c0.4,0,0.7,0.1,0.7,0.1l-0.2,0.4c0,0-0.2-0.1-0.5-0.1c-0.6,0-1,0.6-1,1.2     h0c0.1-0.2,0.5-0.3,0.8-0.3c0.7,0,1.1,0.5,1.1,1.1c0,0.7-0.5,1.2-1.1,1.2C253.4,168.2,252.8,167.6,252.8,166.6z M254.7,167     c0-0.4-0.3-0.7-0.7-0.7c-0.4,0-0.7,0.2-0.7,0.5c0,0.5,0.3,1,0.8,1C254.5,167.8,254.7,167.5,254.7,167z"/>
			<path class="st9" d="M255.8,164.6h0.4v0.9h-0.4V164.6z"/>
			<path class="st9" d="M258.2,165.4c0.1-0.2,0.2-0.3,0.2-0.3v0c0,0-0.1,0-0.3,0h-1.5v-0.4h2.3v0.3l-1.6,3.1h-0.5L258.2,165.4z"/>
			<path class="st9" d="M259.4,164.6h0.4v0.9h-0.4V164.6z M260,164.6h0.4v0.9H260V164.6z"/>
		</g>
	</g>
</g>
<g id="Plan_B">
</g>
<g id="Plan_B1">
</g>
<g id="Plan_B2">
</g>
<g id="Plan_B2a">
</g>
<g id="Plan_C">
</g>
<g id="Plan_D">
</g>
</svg>