<?xml version="1.0" encoding="UTF-8"?>
<!-- Generator: Adobe Illustrator 22.0.1, SVG Export Plug-In . SVG Version: 6.00 Build 0)  -->
<svg version="1.1" id="Layer_1" xmlns="http://www.w3.org/2000/svg" xmlns:xlink="http://www.w3.org/1999/xlink" x="0px" y="0px" viewBox="0 0 1000 1000" style="enable-background:new 0 0 1000 1000;" xml:space="preserve">
<style type="text/css">
	.st0{fill:none;stroke:#5B5D65;stroke-width:1.4615;stroke-linecap:round;stroke-linejoin:round;stroke-miterlimit:10;}
	.st1{fill:#FFFFFF;stroke:#5B5D65;stroke-width:1.4615;stroke-linecap:round;stroke-linejoin:round;stroke-miterlimit:10;}
	.st2{fill-rule:evenodd;clip-rule:evenodd;fill:#5B5D65;}
	.st3{fill:#5B5D65;}
	.st4{fill:#5B5D65;stroke:#5B5D65;stroke-width:2.9231;stroke-linecap:round;stroke-linejoin:round;stroke-miterlimit:10;}
</style>
<g>
	<line class="st0" x1="28.9" y1="864" x2="28.9" y2="685.4"/>
	<line class="st0" x1="89.2" y1="868.5" x2="89.2" y2="680.8"/>
	<line class="st0" x1="43.7" y1="868.5" x2="43.7" y2="680.8"/>
</g>
<g>
	<line class="st0" x1="679.6" y1="-0.6" x2="858.3" y2="-0.6"/>
	<line class="st0" x1="675.1" y1="59.7" x2="862.8" y2="59.7"/>
	<line class="st0" x1="862.8" y1="14.1" x2="675.1" y2="14.1"/>
</g>
<g>
	<line class="st0" x1="502.2" y1="-0.6" x2="323.6" y2="-0.6"/>
	<line class="st0" x1="506.7" y1="59.7" x2="319" y2="59.7"/>
	<line class="st0" x1="506.7" y1="14.1" x2="319" y2="14.1"/>
</g>
<g>
	<g>
		<path class="st0" d="M197.5,304.5l39.6,68.5c-12,7-25.7,10.6-39.6,10.6"/>
		<path class="st0" d="M197.5,462.6l39.6-68.5c-12-6.9-25.7-10.6-39.6-10.6"/>
	</g>
	<polygon class="st0" points="55.2,25.8 55.2,509.2 43.9,509.2 43.9,14.4 177,14.4 177,25.8  "/>
	<path class="st0" d="M576.1,551.1l-89.6-51.8c-9.1,15.7-13.9,33.6-13.9,51.8"/>
</g>
<path class="st0" d="M598.9,551.1l89.7-51.8c9.1,15.7,13.9,33.6,13.9,51.8"/>
<path class="st0" d="M860.5,642.2l57.4,99.5c-17.5,10.1-37.3,15.4-57.4,15.4"/>
<path class="st0" d="M456.6,585.3l-51.8,89.7c15.7,9.1,33.6,13.9,51.8,13.9"/>
<path class="st0" d="M770.7,774.1l-79.9-46.1c-8,14-12.3,29.9-12.3,46.1"/>
<path class="st0" d="M524.9,774.1l79.9-46.1c8,14,12.3,29.9,12.3,46.1"/>
<g>
	<rect x="409" y="940.2" class="st1" width="216" height="36.4"/>
	<polyline class="st2" points="625.1,976.6 603.5,943.8 409,940.2 625.1,940.2 625.1,976.6  "/>
</g>
<g>
	<g>
		<rect x="400" y="840.3" class="st1" width="105.8" height="56.9"/>
		<rect x="405.7" y="846" class="st1" width="11.4" height="45.5"/>
		<rect x="422.7" y="846" class="st1" width="60.3" height="45.5"/>
		<rect x="488.7" y="846" class="st1" width="11.4" height="45.5"/>
	</g>
	<g>
		<rect x="400" y="897.2" class="st1" width="105.8" height="56.9"/>
		<rect x="405.7" y="902.9" class="st1" width="11.4" height="45.5"/>
		<rect x="422.7" y="902.9" class="st1" width="60.3" height="45.5"/>
		<rect x="488.7" y="902.9" class="st1" width="11.4" height="45.5"/>
	</g>
</g>
<g>
	<rect x="512.4" y="976.6" class="st3" width="190" height="22.8"/>
	<g>
		<polygon class="st3" points="465.7,688.8 456.6,688.8 456.6,840.3 465.7,840.3 465.7,783.2 524.9,783.2 524.9,774.1 465.7,774.1       "/>
		<polygon class="st3" points="634.1,976.6 634.1,783.2 678.5,783.2 678.5,774.1 617,774.1 617,783.2 625.1,783.2 625.1,976.6   "/>
		<rect x="505.8" y="931.1" class="st3" width="119.3" height="9.1"/>
		<rect x="838.9" y="757" class="st3" width="21.6" height="242.3"/>
		<rect x="702.4" y="551.1" class="st3" width="136.5" height="9.1"/>
		<polygon class="st3" points="472.6,551.1 456.6,551.1 456.6,585.3 465.7,585.3 465.7,560.2 472.6,560.2   "/>
		<polygon class="st3" points="584.1,241.7 584.1,551.1 576.1,551.1 576.1,560.2 598.9,560.2 598.9,551.1 593.2,551.1 593.2,241.7       "/>
		<rect x="770.7" y="774.1" class="st3" width="68.2" height="9.1"/>
		<polygon class="st3" points="838.9,551.1 838.9,642.2 860.5,642.2 860.5,572.7 969.8,572.7 969.8,551.1   "/>
	</g>
</g>
<rect x="400" y="954" class="st3" width="9" height="22.7"/>
<g>
	<g>
		<path class="st0" d="M247.5,966c-4.6,0-8.3-3.7-8.3-8.2c0-4.6,3.7-8.3,8.3-8.3c4.6,0,8.2,3.7,8.2,8.3    C255.7,962.3,252,966,247.5,966"/>
		<path class="st0" d="M243.7,943.2c-6.6,0-11.9-5.4-11.9-12s5.3-11.9,11.9-11.9s11.9,5.3,11.9,11.9S250.3,943.2,243.7,943.2"/>
		<path class="st0" d="M212.8,965.8c-5.7,0-10.2-4.6-10.2-10.2c0-5.7,4.6-10.2,10.2-10.2c5.7,0,10.2,4.6,10.2,10.2    C223.1,961.3,218.5,965.8,212.8,965.8"/>
		<path class="st0" d="M210.5,937.9c-4.6,0-8.2-3.7-8.2-8.3c0-4.5,3.7-8.2,8.2-8.2c4.6,0,8.3,3.7,8.3,8.2    C218.8,934.2,215.1,937.9,210.5,937.9"/>
		<rect x="195.2" y="908.3" class="st0" width="68.3" height="68.3"/>
	</g>
	<rect x="263.5" y="908.3" class="st0" width="68.3" height="68.3"/>
	<g>
		<rect x="339.7" y="922" class="st0" width="52.3" height="41"/>
		<polygon class="st0" points="366.9,970.3 366.9,947.8 364.8,947.8 364.8,970.3   "/>
		<rect x="331.7" y="908.3" class="st0" width="68.3" height="68.3"/>
	</g>
</g>
<g>
	<path class="st0" d="M586.1,931.1h-36.6l-1.3-39.5c-0.2-5.2,0.5-9.4,1.1-12.4c0.7-3.2,1.6-7.2,4.2-11.7c1.6-2.8,3.4-5.8,7.1-8.1   c1.4-0.8,3.8-2.3,7.2-2.2c3.4,0,5.8,1.4,7.2,2.2c3.7,2.2,5.5,5.3,7.1,8.1c2.6,4.5,3.5,8.5,4.2,11.7c0.6,3,1.3,7.2,1.1,12.4   L586.1,931.1"/>
	<path class="st0" d="M587.3,893.3c-0.3,5.5-2.5,10.7-6.2,14.8c-3.4,3.8-8.2,6-13.3,6l0,0c-5.1,0-10-2.2-13.3-6   c-3.7-4.1-5.9-9.3-6.2-14.8"/>
	<polyline class="st0" points="546.5,931.1 545.7,929.6 545,928.1 544.4,926.5 543.9,924.9 543.5,923.2 543.2,921.6 543.1,919.9    543,918.2 543.2,917.1 543.6,916 544.3,915 545.2,914.1 546.3,913.5 547.6,913.1 548.9,912.9 550.2,913.1 554.6,913.7 558.9,914.2    563.3,914.5 567.8,914.6 572.2,914.5 576.6,914.2 581,913.7 585.3,913.1 586.7,912.9 587.9,913.1 589.2,913.5 590.3,914.1    591.2,915 591.9,916 592.4,917.1 592.5,918.2 592.5,919.9 592.3,921.6 592,923.2 591.6,924.9 591.1,926.5 590.5,928.1 589.8,929.6    589,931.1 546.5,931.1  "/>
	<path class="st0" d="M566.1,923.6c0,0.8,0.7,1.5,1.7,1.5c0.9,0,1.7-0.7,1.7-1.5c0-0.9-0.8-1.5-1.7-1.5   C566.8,922.1,566.1,922.8,566.1,923.6"/>
</g>
<g>
	<g>
		<path class="st0" d="M660.3,890.1h-26.1v-68.3h26.1c3.4,0.3,9,1.2,14.1,5.1c11,8.2,11,22.9,11,29c0,6.1,0,20.9-11,29.1    C669.3,888.9,663.7,889.8,660.3,890.1z"/>
		<path class="st0" d="M660.3,882.6c7.3-1.2,11.9-6.6,12.1-6.9c0,0,3.8-4.6,5-15.6c0.2-2,0.2-3.5,0.2-4.2    c0.1-13.5-5.3-19.8-5.3-19.8c-0.3-0.3-4.9-5.7-12.1-6.8c-2.7-0.4-4.6-0.1-5.2,0c-1.3,0.2-4.7,0.9-7.3,3.9c-3.4,3.7-3.1,8.4-3,9.3    v27c-0.1,0.9-0.3,5.6,3,9.3c2.7,2.9,6,3.6,7.3,3.9C655.6,882.7,657.5,883.1,660.3,882.6z"/>
		<path class="st0" d="M657.8,854c-1.1,0-2,0.8-2,1.9c0,1.1,0.9,2,2,2c1.1,0,2-0.9,2-2C659.8,854.8,658.9,854,657.8,854"/>
	</g>
	<g>
		<rect x="634.1" y="896.9" class="st0" width="193.4" height="79.6"/>
		<path class="st0" d="M787.3,970.2H656.8c-1.3,0-3.3-0.2-5.5-1c-2.7-1-4.4-2.4-4.8-2.7c-0.9-0.8-1.5-1.5-1.9-2    c-0.8-1-2.1-2.5-3-4.8c-0.8-2.1-0.9-4-0.9-5.5v-35c0-1.4,0.1-3.3,0.9-5.4c0.9-2.3,2.1-3.8,3-4.8c0.4-0.5,1-1.2,1.9-2    c0.5-0.4,2.2-1.8,4.8-2.8c2.2-0.8,4.2-1,5.5-1h130.5c2.7,0,12.7,0.2,21.8,7.8c1.5,1.3,9.4,8.1,11.5,19.8c0.5,2.5,0.9,6.7,0,11.6    c-2.1,11.7-9.9,18.5-11.5,19.8C800,969.9,790,970.2,787.3,970.2z"/>
		<path class="st0" d="M661.5,939.6c1.5,0,2.9-1.3,2.9-2.8c0-1.6-1.4-2.8-2.9-2.8s-3,1.3-3,2.8C658.5,938.3,660,939.6,661.5,939.6"/>
	</g>
</g>
<g>
	<polygon class="st4" points="512.4,976.6 89.2,976.6 89.2,868.5 43.7,868.5 43.7,864 28.9,864 28.9,999.4 512.4,999.4  "/>
	<polygon class="st4" points="858.3,-0.6 858.3,14.1 862.8,14.1 862.8,59.7 947,59.7 947,551.1 969.8,551.1 969.8,-0.6  "/>
	<polygon class="st4" points="679.6,-0.6 502.2,-0.6 502.2,14.1 506.7,14.1 506.7,59.7 583,59.7 583,241.7 605.7,241.7 605.7,59.7    675.1,59.7 675.1,14.1 679.6,14.1  "/>
	<polygon class="st4" points="323.6,-0.6 176.7,-0.6 176.7,308.8 191.6,308.8 191.6,304.2 240.5,304.2 240.5,59.7 319,59.7    319,14.1 323.6,14.1  "/>
	<polygon class="st4" points="456.6,550 240.5,550 240.5,462.4 191.6,462.4 191.6,457.8 176.7,457.8 176.7,509 28.9,509 28.9,685.4    43.7,685.4 43.7,680.8 89.2,680.8 89.2,572.7 456.6,572.7  "/>
	<rect x="702.4" y="976.6" class="st4" width="136.5" height="22.8"/>
</g>
<g>
	<path class="st3" d="M115.6,49.6c1.9,0,3.4,0.7,4.8,2c1.3,1.3,2,2.9,2,4.8c0,1.3-0.4,2.6-1.2,3.9l-8.5,13.6h8.4   c0.9,0,1.3,0.4,1.3,1.3s-0.4,1.3-1.3,1.3h-10.8c-0.9,0-1.3-0.4-1.3-1.3c0-0.3,0.1-0.5,0.2-0.8l9.9-15.8c0.4-0.7,0.7-1.5,0.7-2.2   c0-1.1-0.4-2.1-1.2-2.9c-0.8-0.8-1.7-1.2-2.9-1.2c-1.5,0-2.9,1.1-4.2,3.4c-0.2,0.4-0.6,0.7-1.2,0.7c-0.9,0-1.3-0.4-1.3-1.3   c0-0.2,0-0.4,0.1-0.6C110.7,51.2,112.9,49.6,115.6,49.6z"/>
	<path class="st3" d="M129.4,73.9c0.9,0,1.3,0.4,1.3,1.3c0,0.1-0.5,2-1.4,5.7c-0.2,0.7-0.6,1-1.3,1c-0.9,0-1.3-0.4-1.3-1.3   c0-0.6,0.5-2.5,1.4-5.7C128.3,74.2,128.7,73.9,129.4,73.9z"/>
	<path class="st3" d="M142.4,63.1h-2.7c-0.9,0-1.3-0.4-1.3-1.3c0-0.9,0.4-1.3,1.3-1.3h2.7c1.1,0,2.1-0.4,2.9-1.2   c0.8-0.8,1.2-1.7,1.2-2.9c0-1.1-0.4-2.1-1.2-2.9c-0.8-0.8-1.7-1.2-2.9-1.2H137c-0.9,0-1.3-0.4-1.3-1.3s0.4-1.3,1.3-1.3h5.4   c1.9,0,3.4,0.7,4.8,2c1.3,1.3,2,2.9,2,4.8c0,2.2-0.9,4-2.7,5.4c1.8,1.4,2.7,3.2,2.7,5.4v2.7c0,1.9-0.7,3.4-2,4.8   c-1.3,1.3-2.9,2-4.8,2H137c-0.9,0-1.3-0.4-1.3-1.3s0.4-1.3,1.3-1.3h5.4c1.1,0,2.1-0.4,2.9-1.2s1.2-1.7,1.2-2.9v-2.7   c0-1.1-0.4-2.1-1.2-2.9C144.5,63.5,143.5,63.1,142.4,63.1z"/>
	<path class="st3" d="M101.6,104.9c0,2.7,0.3,5.4,0.8,8.1c0.3,1.6,0.9,3.7,1.8,6.2c0.1,0.2,0.1,0.4,0.1,0.5c0,0.4-0.1,0.7-0.4,0.9   s-0.6,0.4-1,0.4c-0.6,0-1-0.2-1.1-0.6c-0.7-1.6-1.4-3.8-2-6.7c-0.6-2.9-0.9-5.8-0.9-8.8c0-3,0.3-5.9,0.9-8.8c0.6-2.9,1.3-5.1,2-6.7   c0.2-0.4,0.6-0.6,1.1-0.6c0.9,0,1.4,0.4,1.4,1.3c0,0.1,0,0.3-0.1,0.5c-0.9,2.5-1.5,4.6-1.8,6.2C101.9,99.4,101.6,102.1,101.6,104.9   z"/>
	<path class="st3" d="M108.2,111.6c0-0.1,0-0.3,0-0.4l5.4-18.8c0.2-0.7,0.6-1,1.3-1c0.9,0,1.3,0.4,1.3,1.3c0,0.1,0,0.3,0,0.4   l-4.9,17.1h6.3v-4c0-0.9,0.4-1.3,1.3-1.3c0.9,0,1.3,0.4,1.3,1.3v4h2.7c0.9,0,1.3,0.4,1.3,1.3c0,0.9-0.4,1.3-1.3,1.3h-2.7v4   c0,0.9-0.4,1.3-1.3,1.3c-0.9,0-1.3-0.4-1.3-1.3v-4h-8.1C108.6,112.9,108.2,112.5,108.2,111.6z"/>
	<path class="st3" d="M130.5,115.6c0.9,0,1.3,0.4,1.3,1.3c0,0.1-0.5,2-1.4,5.7c-0.2,0.7-0.6,1-1.3,1c-0.9,0-1.3-0.4-1.3-1.3   c0-0.6,0.5-2.5,1.4-5.7C129.4,116,129.9,115.6,130.5,115.6z"/>
	<path class="st3" d="M145.7,91.4c0.9,0,1.3,0.4,1.3,1.3c0,0.7-0.2,1.1-0.7,1.2c-2,0.5-3.7,1.7-5.2,3.6c-1.2,1.5-1.9,3.1-2.1,4.7   h3.9c1.9,0,3.5,0.7,4.8,2c1.3,1.3,1.9,2.9,1.9,4.8v2.7c0,1.9-0.7,3.5-2,4.8c-1.3,1.3-2.9,2-4.8,2c-1.9,0-3.5-0.6-4.8-1.9   c-1.3-1.3-2-2.9-2-4.7v-8.1c0-3,1-5.7,3-8c1.6-1.8,3.3-3,5.2-3.8C145,91.5,145.4,91.4,145.7,91.4z M139,104.9v6.7   c0,1.1,0.4,2.1,1.2,2.9s1.7,1.2,2.9,1.2s2.1-0.4,2.9-1.2c0.8-0.8,1.2-1.7,1.2-2.9v-2.7c0-1.1-0.4-2.1-1.2-2.9   c-0.8-0.8-1.7-1.2-2.9-1.2H139z"/>
	<path class="st3" d="M156.4,104.9c0-2.7-0.3-5.4-0.8-8.1c-0.3-1.5-0.9-3.6-1.8-6.2c-0.1-0.2-0.1-0.3-0.1-0.5c0-0.4,0.1-0.7,0.4-0.9   s0.6-0.4,1-0.4c0.6,0,1,0.2,1.1,0.6c0.7,1.6,1.4,3.8,2,6.7c0.6,2.9,0.9,5.8,0.9,8.8c0,3-0.3,5.9-0.9,8.8c-0.6,2.9-1.3,5.1-2,6.7   c-0.2,0.4-0.6,0.6-1.1,0.6c-0.4,0-0.7-0.1-0.9-0.4c-0.3-0.3-0.4-0.6-0.4-0.9c0-0.2,0-0.3,0.1-0.5c0.9-2.6,1.5-4.7,1.8-6.2   C156.1,110.3,156.4,107.6,156.4,104.9z"/>
</g>
<g>
	<path class="st3" d="M738.5,645c0.9,0,1.3,0.4,1.3,1.3c0,0.7-0.2,1.1-0.7,1.2c-2,0.5-3.7,1.7-5.2,3.6c-1.2,1.5-1.9,3.1-2.1,4.7h3.9   c1.9,0,3.5,0.7,4.8,2c1.3,1.3,1.9,2.9,1.9,4.8v2.7c0,1.9-0.7,3.5-2,4.8c-1.3,1.3-2.9,2-4.8,2c-1.9,0-3.5-0.6-4.8-1.9   c-1.3-1.3-2-2.9-2-4.7v-8.1c0-3,1-5.7,3-8c1.6-1.8,3.3-3,5.2-3.8C737.8,645.1,738.2,645,738.5,645z M731.8,658.4v6.7   c0,1.1,0.4,2.1,1.2,2.9c0.8,0.8,1.7,1.2,2.9,1.2s2.1-0.4,2.9-1.2c0.8-0.8,1.2-1.7,1.2-2.9v-2.7c0-1.1-0.4-2.1-1.2-2.9   c-0.8-0.8-1.7-1.2-2.9-1.2H731.8z"/>
	<path class="st3" d="M748.9,669.2c0.9,0,1.3,0.4,1.3,1.3c0,0.1-0.5,2-1.4,5.7c-0.2,0.7-0.6,1-1.3,1c-0.9,0-1.3-0.4-1.3-1.3   c0-0.6,0.5-2.5,1.4-5.7C747.8,669.5,748.3,669.2,748.9,669.2z"/>
	<path class="st3" d="M758,649.6l-3.1,3.1c-0.3,0.3-0.6,0.4-0.9,0.4c-0.9,0-1.3-0.4-1.3-1.3c0-0.4,0.1-0.7,0.4-0.9l5.3-5.3   c0.4-0.4,0.7-0.5,1.1-0.5c0.9,0,1.3,0.4,1.3,1.3v24.2c0,0.9-0.4,1.3-1.3,1.3s-1.3-0.4-1.3-1.3V649.6z"/>
</g>
<g>
	<path class="st3" d="M112.5,649.6l-3.1,3.1c-0.3,0.3-0.6,0.4-0.9,0.4c-0.9,0-1.3-0.4-1.3-1.3c0-0.4,0.1-0.7,0.4-0.9l5.3-5.3   c0.4-0.4,0.7-0.5,1.1-0.5c0.9,0,1.3,0.4,1.3,1.3v24.2c0,0.9-0.4,1.3-1.3,1.3c-0.9,0-1.3-0.4-1.3-1.3V649.6z"/>
	<path class="st3" d="M133.6,658.4c0,3.2-0.4,6-1.2,8.3c-1.2,3.4-3,5.1-5.5,5.1s-4.4-1.7-5.5-5.1c-0.8-2.3-1.2-5.1-1.2-8.3   s0.4-6,1.2-8.3c1.2-3.4,3-5.1,5.5-5.1s4.4,1.7,5.5,5.1C133.2,652.4,133.6,655.2,133.6,658.4z M130.9,658.4c0-2.2-0.2-4.3-0.7-6.3   c-0.7-3-1.8-4.5-3.3-4.5c-1.5,0-2.6,1.5-3.3,4.5c-0.5,2-0.7,4.1-0.7,6.3c0,2.2,0.2,4.3,0.7,6.3c0.7,3,1.8,4.5,3.3,4.5   s2.6-1.5,3.3-4.5C130.6,662.7,130.9,660.6,130.9,658.4z"/>
	<path class="st3" d="M139.5,669.2c0.9,0,1.3,0.4,1.3,1.3c0,0.1-0.5,2-1.4,5.7c-0.2,0.7-0.6,1-1.3,1c-0.9,0-1.3-0.4-1.3-1.3   c0-0.6,0.5-2.5,1.4-5.7C138.4,669.5,138.8,669.2,139.5,669.2z"/>
	<path class="st3" d="M152,671.9c-1.9,0-3.4-0.7-4.8-2c-1.3-1.3-2-2.9-2-4.8v-2.7c0-2.2,0.9-4,2.7-5.4c-1.8-1.4-2.7-3.2-2.7-5.4   c0-1.9,0.7-3.4,2-4.8c1.3-1.3,2.9-2,4.8-2s3.4,0.7,4.8,2c1.3,1.3,2,2.9,2,4.8c0,2.2-0.9,4-2.7,5.4c1.3,1,2.1,2.2,2.4,3.6   c0.2,0.7,0.2,2.2,0.2,4.5c0,1.9-0.7,3.4-2,4.8C155.4,671.2,153.9,671.9,152,671.9z M152,655.7c1.1,0,2.1-0.4,2.9-1.2   c0.8-0.8,1.2-1.7,1.2-2.9c0-1.1-0.4-2.1-1.2-2.9c-0.8-0.8-1.7-1.2-2.9-1.2c-1.1,0-2.1,0.4-2.9,1.2c-0.8,0.8-1.2,1.7-1.2,2.9   c0,1.1,0.4,2.1,1.2,2.9C149.9,655.3,150.9,655.7,152,655.7z M152,669.2c1.1,0,2.1-0.4,2.9-1.2c0.8-0.8,1.2-1.7,1.2-2.9v-2.7   c0-1.1-0.4-2.1-1.2-2.9c-0.8-0.8-1.7-1.2-2.9-1.2c-1.1,0-2.1,0.4-2.9,1.2c-0.8,0.8-1.2,1.7-1.2,2.9v2.7c0,1.1,0.4,2.1,1.2,2.9   C149.9,668.8,150.9,669.2,152,669.2z"/>
</g>
<g>
	<path class="st3" d="M264,512.7l-3.1,3.1c-0.3,0.3-0.6,0.4-0.9,0.4c-0.9,0-1.3-0.4-1.3-1.3c0-0.4,0.1-0.7,0.4-0.9l5.3-5.3   c0.4-0.4,0.7-0.5,1.1-0.5c0.9,0,1.3,0.4,1.3,1.3v24.2c0,0.9-0.4,1.3-1.3,1.3c-0.9,0-1.3-0.4-1.3-1.3V512.7z"/>
	<path class="st3" d="M278.4,508.1c1.9,0,3.4,0.7,4.8,2c1.3,1.3,2,2.9,2,4.8c0,1.3-0.4,2.6-1.2,3.9l-8.5,13.6h8.4   c0.9,0,1.3,0.4,1.3,1.3c0,0.9-0.4,1.3-1.3,1.3H273c-0.9,0-1.3-0.4-1.3-1.3c0-0.3,0.1-0.5,0.2-0.8l9.9-15.8c0.4-0.7,0.7-1.5,0.7-2.2   c0-1.1-0.4-2.1-1.2-2.9c-0.8-0.8-1.7-1.2-2.9-1.2c-1.5,0-2.9,1.1-4.2,3.4c-0.2,0.4-0.6,0.7-1.2,0.7c-0.9,0-1.3-0.4-1.3-1.3   c0-0.2,0-0.4,0.1-0.6C273.5,509.7,275.7,508.1,278.4,508.1z"/>
	<path class="st3" d="M292.3,532.4c0.9,0,1.3,0.4,1.3,1.3c0,0.1-0.5,2-1.4,5.7c-0.2,0.7-0.6,1-1.3,1c-0.9,0-1.3-0.4-1.3-1.3   c0-0.6,0.5-2.5,1.4-5.7C291.2,532.7,291.6,532.4,292.3,532.4z"/>
	<path class="st3" d="M301.2,535.1c-0.4,0-0.7-0.1-0.9-0.4c-0.3-0.3-0.4-0.6-0.4-0.9c0-0.6,0.2-1,0.7-1.2c1-0.3,1.8-0.7,2.4-1.1   c2.9-1.9,4.5-4.3,4.9-7.1h-3.9c-1.9,0-3.4-0.7-4.8-2c-1.3-1.3-2-2.9-2-4.8v-2.7c0-1.9,0.7-3.4,2-4.8c1.3-1.3,2.9-2,4.8-2   c1.9,0,3.5,0.6,4.8,1.9c1.3,1.3,2,2.9,2,4.7v8.1c0,4.6-2.1,8.2-6.4,10.8C302.9,534.6,301.9,535.1,301.2,535.1z M307.9,521.6v-6.7   c0-1.1-0.4-2.1-1.2-2.9c-0.8-0.8-1.7-1.2-2.9-1.2s-2.1,0.4-2.9,1.2c-0.8,0.8-1.2,1.7-1.2,2.9v2.7c0,1.1,0.4,2.1,1.2,2.9   c0.8,0.8,1.7,1.2,2.9,1.2H307.9z"/>
</g>
<g>
	<path class="st3" d="M713.4,80l-3.1,3.1c-0.3,0.3-0.6,0.4-0.9,0.4c-0.9,0-1.3-0.4-1.3-1.3c0-0.4,0.1-0.7,0.4-0.9l5.3-5.3   c0.4-0.4,0.7-0.5,1.1-0.5c0.9,0,1.3,0.4,1.3,1.3v24.2c0,0.9-0.4,1.3-1.3,1.3s-1.3-0.4-1.3-1.3V80z"/>
	<path class="st3" d="M727.8,88.8h-2.7c-0.9,0-1.3-0.4-1.3-1.3c0-0.9,0.4-1.3,1.3-1.3h2.7c1.1,0,2.1-0.4,2.9-1.2   c0.8-0.8,1.2-1.7,1.2-2.9c0-1.1-0.4-2.1-1.2-2.9c-0.8-0.8-1.7-1.2-2.9-1.2h-5.4c-0.9,0-1.3-0.4-1.3-1.3s0.4-1.3,1.3-1.3h5.4   c1.9,0,3.4,0.7,4.8,2c1.3,1.3,2,2.9,2,4.8c0,2.2-0.9,4-2.7,5.4c1.8,1.4,2.7,3.2,2.7,5.4v2.7c0,1.9-0.7,3.4-2,4.8   c-1.3,1.3-2.9,2-4.8,2h-5.4c-0.9,0-1.3-0.4-1.3-1.3s0.4-1.3,1.3-1.3h5.4c1.1,0,2.1-0.4,2.9-1.2c0.8-0.8,1.2-1.7,1.2-2.9v-2.7   c0-1.1-0.4-2.1-1.2-2.9C729.9,89.2,728.9,88.8,727.8,88.8z"/>
	<path class="st3" d="M740.9,99.6c0.9,0,1.3,0.4,1.3,1.3c0,0.1-0.5,2-1.4,5.7c-0.2,0.7-0.6,1-1.3,1c-0.9,0-1.3-0.4-1.3-1.3   c0-0.6,0.5-2.5,1.4-5.7C739.8,99.9,740.3,99.6,740.9,99.6z"/>
	<path class="st3" d="M754,75.4c1.9,0,3.4,0.7,4.8,2c1.3,1.3,2,2.9,2,4.8c0,1.3-0.4,2.6-1.2,3.9L751,99.6h8.4c0.9,0,1.3,0.4,1.3,1.3   s-0.4,1.3-1.3,1.3h-10.8c-0.9,0-1.3-0.4-1.3-1.3c0-0.3,0.1-0.5,0.2-0.8l9.9-15.8c0.4-0.7,0.7-1.5,0.7-2.2c0-1.1-0.4-2.1-1.2-2.9   S755.1,78,754,78c-1.5,0-2.9,1.1-4.2,3.4c-0.2,0.4-0.6,0.7-1.2,0.7c-0.9,0-1.3-0.4-1.3-1.3c0-0.2,0-0.4,0.1-0.6   C749,77,751.2,75.4,754,75.4z"/>
</g>
<g>
	<path class="st3" d="M728.8,824.8h-2.7c-0.9,0-1.3-0.4-1.3-1.3c0-0.9,0.4-1.3,1.3-1.3h2.7c1.1,0,2.1-0.4,2.9-1.2   c0.8-0.8,1.2-1.7,1.2-2.9c0-1.1-0.4-2.1-1.2-2.9c-0.8-0.8-1.7-1.2-2.9-1.2h-5.4c-0.9,0-1.3-0.4-1.3-1.3c0-0.9,0.4-1.3,1.3-1.3h5.4   c1.9,0,3.4,0.7,4.8,2c1.3,1.3,2,2.9,2,4.8c0,2.2-0.9,4-2.7,5.4c1.8,1.4,2.7,3.2,2.7,5.4v2.7c0,1.9-0.7,3.4-2,4.8   c-1.3,1.3-2.9,2-4.8,2h-5.4c-0.9,0-1.3-0.4-1.3-1.3s0.4-1.3,1.3-1.3h5.4c1.1,0,2.1-0.4,2.9-1.2c0.8-0.8,1.2-1.7,1.2-2.9v-2.7   c0-1.1-0.4-2.1-1.2-2.9S729.9,824.8,728.8,824.8z"/>
	<path class="st3" d="M741.9,835.6c0.9,0,1.3,0.4,1.3,1.3c0,0.1-0.5,2-1.4,5.7c-0.2,0.7-0.6,1-1.3,1c-0.9,0-1.3-0.4-1.3-1.3   c0-0.6,0.5-2.5,1.4-5.7C740.8,835.9,741.3,835.6,741.9,835.6z"/>
	<path class="st3" d="M760.7,824.8c0,3.2-0.4,6-1.2,8.3c-1.2,3.4-3,5.1-5.5,5.1s-4.4-1.7-5.5-5.1c-0.8-2.3-1.2-5.1-1.2-8.3   s0.4-6,1.2-8.3c1.2-3.4,3-5.1,5.5-5.1s4.4,1.7,5.5,5.1C760.3,818.8,760.7,821.6,760.7,824.8z M758,824.8c0-2.2-0.2-4.3-0.7-6.3   c-0.7-3-1.8-4.5-3.3-4.5c-1.5,0-2.6,1.5-3.3,4.5c-0.5,2-0.7,4.1-0.7,6.3c0,2.2,0.2,4.3,0.7,6.3c0.7,3,1.8,4.5,3.3,4.5   s2.6-1.5,3.3-4.5C757.8,829.1,758,827,758,824.8z"/>
</g>
<g>
	<path class="st3" d="M557.4,815.9l-3.1,3.1c-0.3,0.3-0.6,0.4-0.9,0.4c-0.9,0-1.3-0.4-1.3-1.3c0-0.4,0.1-0.7,0.4-0.9l5.3-5.3   c0.4-0.4,0.7-0.5,1.1-0.5c0.9,0,1.3,0.4,1.3,1.3v24.2c0,0.9-0.4,1.3-1.3,1.3s-1.3-0.4-1.3-1.3V815.9z"/>
	<path class="st3" d="M567.2,835.6c0.9,0,1.3,0.4,1.3,1.3c0,0.1-0.5,2-1.4,5.7c-0.2,0.7-0.6,1-1.3,1c-0.9,0-1.3-0.4-1.3-1.3   c0-0.6,0.5-2.5,1.4-5.7C566.1,835.9,566.5,835.6,567.2,835.6z"/>
	<path class="st3" d="M573.5,823.5v-10.8c0-0.9,0.4-1.3,1.3-1.3h9.4c0.9,0,1.3,0.4,1.3,1.3c0,0.9-0.4,1.3-1.3,1.3h-8.1v8.1h4   c1.9,0,3.4,0.7,4.8,2c1.3,1.3,2,2.9,2,4.8v2.7c0,1.9-0.7,3.4-2,4.8c-1.3,1.3-2.9,2-4.8,2h-5.4c-0.9,0-1.3-0.4-1.3-1.3   s0.4-1.3,1.3-1.3h5.4c1.1,0,2.1-0.4,2.9-1.2c0.8-0.8,1.2-1.7,1.2-2.9v-2.7c0-1.1-0.4-2.1-1.2-2.9s-1.7-1.2-2.9-1.2h-5.4   C573.9,824.8,573.5,824.4,573.5,823.5z"/>
</g>
</svg>