<?xml version="1.0" encoding="UTF-8"?>
<svg class="" width="512px" height="512px" viewBox="0 0 480 480" xmlns="http://www.w3.org/2000/svg">
<path class="active-path" d="m413.44 85.359-24.457 24.457c17.383 12.559 32.641 27.816 45.199 45.199l24.457-24.457z" fill="#08E8DE" data-old_color="#9bc9ff" data-original="#9BC9FF"/>
<path class="active-path" d="m272 440c92.785 0 168-75.215 168-168s-75.215-168-168-168-168 75.215-168 168 75.215 168 168 168zm-16-120 111.2-111.2-111.2 111.2-53.254-53.258z" fill="#08E8DE" data-old_color="#9bc9ff" data-original="#9BC9FF"/>
<g fill="#FFE15C">
<path class="" d="m272 448c97.203 0 176-78.797 176-176s-78.797-176-176-176-176 78.797-176 176c0.10938 97.156 78.844 175.89 176 176zm-8-335.59v23.594c0 4.418 3.582 8 8 8s8-3.582 8-8v-23.594c81.934 4.1719 147.42 69.66 151.59 151.59h-31.594c-4.418 0-8 3.582-8 8s3.582 8 8 8h31.594c-4.1719 81.934-69.66 147.42-151.59 151.59v-23.594c0-4.418-3.582-8-8-8s-8 3.582-8 8v23.594c-81.934-4.1719-147.42-69.66-151.59-151.59h23.59c4.418 0 8-3.582 8-8s-3.582-8-8-8h-23.59c4.168-81.934 69.656-147.42 151.59-151.59z" data-old_color="#000000" data-original="#000000"/>
<path class="" d="m444.54 156 19.754-19.754c3.1211-3.1211 3.1211-8.1875 0-11.309l-45.199-45.203c-3.125-3.1211-8.1875-3.1211-11.312 0l-19.785 19.723c-32-21.605-69.414-33.82-108-35.258v-48.199h56c4.418 0 8-3.582 8-8s-3.582-8-8-8h-128c-4.418 0-8 3.582-8 8s3.582 8 8 8h56v48.273c-71.348 2.7227-136.3 41.891-172 103.73h-44c-4.418 0-8 3.582-8 8s3.582 8 8 8h48c0.20703 0 0.38281-0.10547 0.59375-0.12109 2.8828 0.039063 5.5547-1.4922 6.9844-4 42.105-76.953 131.01-115.59 216-93.855 84.984 21.73 144.44 98.297 144.44 186.02 0 87.723-59.453 164.29-144.44 186.02-84.984 21.73-173.89-16.902-216-93.855-1.4141-2.5156-4.0859-4.0625-6.9688-4.0391-0.20703 0-0.39453-0.12109-0.60938-0.12109h-48c-4.418 0-8 3.582-8 8 0 4.418 3.582 8 8 8h44c37.992 65.809 108.86 105.65 184.82 103.91 75.969-1.7383 144.93-44.785 179.87-112.27 34.934-67.477 30.277-148.64-12.152-211.68zm-43.488-46.91 12.387-12.387 33.887 33.891-12.383 12.383c-9.9648-12.562-21.336-23.945-33.891-33.922z" data-old_color="#000000" data-original="#000000"/>
<path class="" d="m80 272c0-4.418-3.582-8-8-8h-64c-4.418 0-8 3.582-8 8s3.582 8 8 8h64c4.418 0 8-3.582 8-8z" data-old_color="#000000" data-original="#000000"/>
<path class="" d="m24 232h56c4.418 0 8-3.582 8-8s-3.582-8-8-8h-56c-4.418 0-8 3.582-8 8s3.582 8 8 8z" data-old_color="#000000" data-original="#000000"/>
<path class="" d="m88 320c0-4.418-3.582-8-8-8h-56c-4.418 0-8 3.582-8 8s3.582 8 8 8h56c4.418 0 8-3.582 8-8z" data-old_color="#000000" data-original="#000000"/>
<path class="" d="m250.34 325.66c3.125 3.1211 8.1875 3.1211 11.312 0l111.2-111.2c3.0312-3.1406 2.9883-8.1289-0.097657-11.215-3.0859-3.0859-8.0742-3.1289-11.215-0.097657l-105.54 105.54-47.598-47.598c-3.1406-3.0352-8.1289-2.9922-11.215 0.09375-3.0859 3.0859-3.1289 8.0781-0.097656 11.215z" data-old_color="#000000" data-original="#000000"/>
</g>
</svg>
