<?xml version="1.0" encoding="UTF-8"?>
<svg class="" enable-background="new 0 0 512 512" version="1.1" viewBox="0 0 512 512" xml:space="preserve" xmlns="http://www.w3.org/2000/svg">
	<circle class="active-path" cx="256" cy="246.15" r="246.15" fill="#05A29B" data-old_color="#A4C2F7" data-original="#A4C2F7"/>
	<ellipse class="" cx="256" cy="246.15" rx="216.62" ry="246.15" fill="#08E8DE" data-old_color="#E3E7F2" data-original="#E3E7F2"/>
	<path class="" d="m39.385 246.15c0-135.95 96.982-246.15 216.62-246.15-135.95 0-246.15 110.21-246.15 246.15s110.21 246.15 246.15 246.15c-119.63 0-216.62-110.21-216.62-246.15z" fill="#fff" data-original="#FFFFFF"/>
	<g fill="#FFE15C">
		<path class="" d="m256 512c-141.38 0-256-114.62-256-256s114.62-256 256-256 256 114.62 256 256c-0.158 141.32-114.68 255.84-256 256zm0-492.31c-130.51 0-236.31 105.8-236.31 236.31s105.8 236.31 236.31 236.31 236.31-105.8 236.31-236.31c-0.15-130.45-105.86-236.16-236.31-236.31z" data-old_color="#428DFF" data-original="#428DFF"/>
		<path class="" d="m167.38 354.46c-3.982-1e-3 -7.571-2.4-9.095-6.078-1.524-3.679-0.682-7.913 2.133-10.729l177.23-177.23c2.479-2.525 6.123-3.525 9.544-2.619s6.092 3.577 6.998 6.998-0.094 7.064-2.619 9.544l-177.23 177.23c-1.844 1.849-4.35 2.888-6.961 2.885z" data-old_color="#428DFF" data-original="#428DFF"/>
		<path class="" d="m344.62 354.46c-2.612 3e-3 -5.117-1.035-6.961-2.885l-177.23-177.23c-3.785-3.855-3.757-10.04 0.063-13.86s10.005-3.848 13.86-0.063l177.23 177.23c2.815 2.816 3.657 7.05 2.133 10.729s-5.113 6.078-9.095 6.079z" data-old_color="#428DFF" data-original="#428DFF"/>
	</g>
 </svg>
