<?xml version="1.0" encoding="UTF-8"?>
<svg class="" width="512px" height="512px" viewBox="0 0 496 496.01" xmlns="http://www.w3.org/2000/svg">
<path class="" d="m455.88 128-60.801-27.047-27.07-60.824-66.168 6.9102-53.832-39.039-53.863 39.039-66.137-6.9102-27.051 60.797-60.824 27.074 6.9141 66.168-39.039 53.832 39.039 53.863-6.9141 66.137 60.801 27.047 27.074 60.824 66.168-6.9102 53.832 39.039 53.863-39.039 66.137 6.9102 27.047-60.801 60.824-27.07-6.9141-66.168 39.043-53.832-39.043-53.863zm-255.87 216-67.922-67.922 22.641-22.559 45.281 45.199 135.76-135.76 22.641 22.637z" fill="#08E8DE" data-old_color="#57a4ff" data-original="#57A4FF"/>
<g fill="#FFE15C">
<path class="active-path" d="m494.49 243.31-37.25-51.387 6.6016-63.109c0.35938-3.4492-1.5391-6.7344-4.707-8.1445l-57.98-25.801-25.801-57.984c-1.418-3.1602-4.6992-5.0547-8.1445-4.7109l-63.121 6.5977-51.383-37.246c-2.8008-2.0312-6.5898-2.0312-9.3906 0l-51.387 37.246-63.117-6.5977c-3.4414-0.32812-6.7109 1.5625-8.1445 4.7031l-25.801 57.984-57.984 25.809c-3.1641 1.4062-5.0625 4.6914-4.7031 8.1367l6.5977 63.117-37.246 51.387c-2.0312 2.8008-2.0312 6.5898 0 9.3906l37.246 51.383-6.5977 63.121c-0.36328 3.4453 1.5352 6.7344 4.7031 8.1445l57.984 25.801 25.801 57.984c1.4258 3.1484 4.6992 5.043 8.1445 4.7109l63.117-6.6016 51.387 37.25c2.8008 2.0312 6.5898 2.0312 9.3906 0l51.383-37.25 63.121 6.6016c3.4453 0.34766 6.7227-1.5469 8.1445-4.7031l25.801-57.984 57.98-25.809c3.1641-1.4102 5.0625-4.6914 4.707-8.1367l-6.6016-63.121 37.25-51.383c2.0352-2.8008 2.0352-6.5977 0-9.3984zm-52 53.863c-1.1602 1.5977-1.6875 3.5664-1.4805 5.5273l6.3047 60.383-55.48 24.699c-1.8125 0.79688-3.2656 2.2422-4.0664 4.0547l-24.68 55.48-60.398-6.3125c-1.9609-0.20312-3.9258 0.32812-5.5195 1.4883l-49.16 35.633-49.168-35.633c-1.3633-0.99609-3.0039-1.5312-4.6875-1.5273-0.28125 0-0.5625 0-0.80078 0.039062l-60.402 6.3125-24.68-55.48c-0.80469-1.8125-2.25-3.2617-4.0625-4.0664l-55.512-24.688 6.3047-60.383c0.20312-1.9609-0.32422-3.9297-1.4805-5.5273l-35.633-49.168 35.633-49.168c1.1562-1.5977 1.6836-3.5664 1.4805-5.5273l-6.3047-60.387 55.48-24.695c1.8125-0.79687 3.2617-2.2422 4.0625-4.0547l24.68-55.48 60.402 6.3125c1.957 0.19531 3.9219-0.33594 5.5195-1.4883l49.168-35.633 49.168 35.633c1.5938 1.1562 3.5586 1.6836 5.5195 1.4883l60.398-6.3125 24.68 55.48c0.80469 1.8125 2.2539 3.2578 4.0664 4.0625l55.48 24.688-6.3047 60.387c-0.20703 1.9609 0.32031 3.9297 1.4805 5.5273l35.629 49.168z" data-old_color="#000000" data-original="#000000"/>
<path class="active-path" d="m341.43 157.31c-3.125-3.125-8.1875-3.125-11.312 0l-130.1 130.1-39.625-39.551c-3.1211-3.1133-8.1758-3.1133-11.297 0l-22.68 22.543c-1.5039 1.5-2.3516 3.5391-2.3516 5.6641s0.84766 4.1641 2.3516 5.6641l67.922 67.922c3.1211 3.1211 8.1875 3.1211 11.312 0l158.4-158.4c3.1211-3.1211 3.1211-8.1875 0-11.312zm-141.41 175.38-56.602-56.602 11.312-11.285 39.641 39.559c3.1211 3.1172 8.1797 3.1172 11.305 0l130.1-130.09 11.328 11.328z" data-old_color="#000000" data-original="#000000"/>
</g>
</svg>
