<?xml version="1.0"?>
<svg xmlns="http://www.w3.org/2000/svg" enable-background="new 0 0 44 58" height="512px" viewBox="0 0 44 58" width="512px"><g><path d="m22 58c-.267 0-.523-.106-.711-.297-.869-.879-21.289-21.666-21.289-34.303 0-12.903 9.869-23.4 22-23.4s22 10.497 22 23.4c0 12.637-20.42 33.424-21.289 34.303-.188.191-.444.297-.711.297zm0-56c-11.028 0-20 9.601-20 21.4 0 10.556 16.358 28.333 20 32.16 3.642-3.826 20-21.604 20-32.159 0-11.8-8.972-21.401-20-21.401z" data-original="#000000" class="active-path" data-old_color="#000000" fill="#08E8DE"/><path d="m22 39c-9.374 0-17-7.626-17-17s7.626-17 17-17 17 7.626 17 17-7.626 17-17 17zm0-32c-8.271 0-15 6.729-15 15s6.729 15 15 15 15-6.729 15-15-6.729-15-15-15z" data-original="#000000" class="active-path" data-old_color="#000000" fill="#08E8DE"/><path d="m22 58c-.552 0-1-.447-1-1v-8c0-.553.448-1 1-1s1 .447 1 1v8c0 .553-.448 1-1 1z" data-original="#000000" class="active-path" data-old_color="#000000" fill="#08E8DE"/><path d="m28 32c-.552 0-1-.447-1-1v-13.586l-5-5-5 5v13.586c0 .553-.448 1-1 1s-1-.447-1-1v-14c0-.266.105-.52.293-.707l6-6c.39-.391 1.024-.391 1.414 0l6 6c.188.187.293.441.293.707v14c0 .553-.448 1-1 1z" data-original="#000000" class="active-path" data-old_color="#000000" fill="#08E8DE"/><path d="m11 23c-.256 0-.512-.098-.707-.293-.391-.391-.391-1.023 0-1.414l5-5c.39-.391 1.024-.391 1.414 0 .391.391.391 1.023 0 1.414l-5 5c-.195.195-.451.293-.707.293z" data-original="#000000" class="active-path" data-old_color="#000000" fill="#08E8DE"/><path d="m33 23c-.256 0-.512-.098-.707-.293l-5-5c-.391-.391-.391-1.023 0-1.414.39-.391 1.024-.391 1.414 0l5 5c.391.391.391 1.023 0 1.414-.195.195-.451.293-.707.293z" data-original="#000000" class="active-path" data-old_color="#000000" fill="#08E8DE"/><path d="m24 29h-4c-.552 0-1-.447-1-1v-6c0-.553.448-1 1-1h4c.552 0 1 .447 1 1v6c0 .553-.448 1-1 1zm-3-2h2v-4h-2z" data-original="#000000" class="active-path" data-old_color="#000000" fill="#08E8DE"/></g> </svg>
