<?xml version="1.0" encoding="UTF-8" standalone="no"?>
<!DOCTYPE svg PUBLIC "-//W3C//DTD SVG 1.1//EN" "http://www.w3.org/Graphics/SVG/1.1/DTD/svg11.dtd">
<svg width="100%" height="100%" viewBox="0 0 175 216" version="1.1" xmlns="http://www.w3.org/2000/svg" xmlns:xlink="http://www.w3.org/1999/xlink" xml:space="preserve" xmlns:serif="http://www.serif.com/" style="fill-rule:evenodd;clip-rule:evenodd;stroke-linejoin:round;stroke-miterlimit:2;">
    <g transform="matrix(1,0,0,1,-4377.63,-2436.25)">
        <g transform="matrix(1,0,0,1,4203.14,2313.08)">
            <g transform="matrix(1,0,0,1,-4203.14,-2313.08)">
                <path d="M4443.04,2651.38C4443.19,2651.29 4443.35,2651.2 4443.5,2651.1C4445.02,2650.15 4446.71,2648.65 4446.71,2648.65C4448.34,2647.35 4450.12,2646.24 4451.98,2645.27C4451.98,2645.27 4460.05,2642.71 4465.52,2642.74C4470.35,2642.81 4475.17,2643.77 4479.57,2645.78C4482.27,2647.02 4485.09,2649.88 4487.61,2651.38L4443.04,2651.38ZM4377.63,2625.71C4388,2629.74 4398.05,2634.83 4409.14,2633.97C4416.36,2633.41 4423.37,2630.67 4429.14,2626.19L4433.73,2622.65C4435.95,2620.98 4438.13,2619.28 4440.39,2617.65C4446.75,2613.09 4456.43,2610.27 4465.54,2610.31C4474.15,2610.38 4482.67,2612.91 4489.92,2617.52L4492.28,2619.04L4499.16,2624.11C4500.19,2624.89 4501.21,2625.67 4502.24,2626.44C4503.63,2627.48 4503.98,2627.69 4504.88,2628.24C4514.57,2634.22 4527.02,2635.27 4537.7,2631.32C4542.46,2629.52 4547.19,2627.65 4551.93,2625.81L4552.19,2625.71C4544.24,2630.71 4536.47,2636.34 4527.95,2638.63C4521.31,2640.41 4511.38,2640.38 4503.62,2637.75C4501.1,2636.9 4498.67,2635.8 4496.34,2634.53L4493.47,2632.97C4487.02,2629.35 4481.15,2624.94 4474.12,2623.06C4464.93,2620.59 4454.76,2622.18 4446.7,2627.36C4446.47,2627.49 4446.26,2627.61 4446.26,2627.61L4439.62,2631.51C4437.83,2632.53 4436.04,2633.55 4434.26,2634.57C4432.44,2635.6 4432.78,2635.46 4430.93,2636.29C4418.46,2641.88 4403.35,2641.33 4391.45,2634.24C4386.91,2631.47 4382.4,2628.66 4377.88,2625.87L4377.63,2625.71ZM4377.63,2594.34C4377.84,2594.33 4378.04,2594.33 4378.24,2594.33C4383.07,2594.4 4387.89,2595.36 4392.29,2597.37C4395.19,2598.7 4398.23,2601.91 4400.89,2603.28C4405.07,2605.43 4410.06,2605.89 4414.69,2604.8C4416.85,2604.28 4418.99,2603.7 4421.14,2603.14L4421.27,2603.11C4416.56,2606.64 4411.98,2610.2 4405.88,2611.2C4400.74,2612.04 4395.78,2611.35 4390.72,2609.06C4389.71,2608.64 4389.59,2608.61 4389.06,2608.43C4386.97,2607.72 4386,2607.32 4384.87,2606.97C4382.53,2606.26 4380.08,2605.93 4377.63,2605.95L4377.63,2594.34ZM4552.19,2594.33L4552.19,2605.8C4546.95,2605.9 4542.3,2607.21 4538.98,2608.74C4537.36,2609.49 4537.33,2609.54 4536.77,2609.76C4530.4,2612.21 4523.03,2611.9 4516.91,2608.84C4515.84,2608.3 4514.42,2607.34 4514.42,2607.34C4512.49,2605.98 4510.59,2604.58 4508.67,2603.19L4508.55,2603.11C4514.9,2604.78 4521.52,2606.84 4528.05,2604.28C4530.14,2603.46 4532.11,2602.33 4533.86,2600.89C4534.38,2600.46 4533.6,2601.01 4535.21,2599.88C4536.42,2599.03 4538.24,2597.98 4538.24,2597.98C4542.49,2595.76 4547.17,2594.45 4552.19,2594.33L4552.19,2594.33ZM4377.63,2571.93C4388,2575.96 4398.05,2581.05 4409.14,2580.19C4416.36,2579.63 4423.37,2576.89 4429.14,2572.41L4433.73,2568.87C4435.95,2567.2 4438.13,2565.5 4440.39,2563.86C4446.75,2559.31 4456.43,2556.49 4465.54,2556.52C4474.15,2556.6 4482.67,2559.12 4489.92,2563.74C4489.92,2563.74 4492.28,2565.26 4492.28,2565.26L4499.16,2570.33C4500.19,2571.11 4501.21,2571.89 4502.24,2572.66C4503.63,2573.69 4503.98,2573.91 4504.88,2574.46C4514.57,2580.43 4527.02,2581.49 4537.7,2577.54C4542.46,2575.73 4547.19,2573.87 4551.93,2572.03L4552.19,2571.93C4544.24,2576.93 4536.47,2582.56 4527.95,2584.85C4521.31,2586.62 4511.38,2586.6 4503.62,2583.97C4501.1,2583.12 4498.67,2582.02 4496.34,2580.74L4493.47,2579.19C4487.02,2575.56 4481.15,2571.16 4474.12,2569.27C4464.93,2566.81 4454.76,2568.39 4446.7,2573.58C4446.47,2573.7 4446.26,2573.83 4446.26,2573.83L4439.62,2577.73C4437.83,2578.75 4436.04,2579.76 4434.26,2580.79C4432.44,2581.81 4432.78,2581.68 4430.93,2582.51C4418.46,2588.09 4403.35,2587.55 4391.45,2580.45C4386.91,2577.69 4382.4,2574.87 4377.88,2572.08L4377.63,2571.93ZM4377.63,2540.55C4377.84,2540.55 4378.04,2540.55 4378.24,2540.55C4383.07,2540.62 4387.89,2541.58 4392.29,2543.59C4395.19,2544.92 4398.23,2548.12 4400.89,2549.49C4405.07,2551.64 4410.06,2552.1 4414.69,2551.02C4416.85,2550.49 4418.99,2549.91 4421.14,2549.36L4421.27,2549.32C4416.56,2552.86 4411.98,2556.42 4405.88,2557.42C4400.74,2558.26 4395.78,2557.57 4390.72,2555.28C4389.71,2554.85 4389.59,2554.83 4389.06,2554.65C4386.97,2553.94 4386,2553.54 4384.87,2553.19C4382.53,2552.48 4380.08,2552.14 4377.63,2552.17L4377.63,2540.55ZM4552.19,2540.55L4552.19,2552.02C4546.95,2552.12 4542.3,2553.43 4538.98,2554.96C4537.36,2555.71 4537.33,2555.76 4536.77,2555.97C4530.4,2558.43 4523.03,2558.12 4516.91,2555.06C4515.84,2554.52 4514.42,2553.55 4514.42,2553.55C4512.49,2552.19 4510.59,2550.79 4508.67,2549.41L4508.55,2549.32C4514.9,2551 4521.52,2553.05 4528.05,2550.5C4530.14,2549.68 4532.11,2548.54 4533.86,2547.11C4534.38,2546.68 4533.6,2547.23 4535.21,2546.09C4536.42,2545.25 4538.24,2544.19 4538.24,2544.19C4542.49,2541.97 4547.17,2540.67 4552.19,2540.55L4552.19,2540.55ZM4377.63,2502.74C4377.84,2502.74 4378.05,2502.74 4378.26,2502.74C4386.87,2502.81 4395.39,2505.34 4402.65,2509.95C4402.65,2509.95 4405,2511.47 4405,2511.47L4411.89,2516.55C4412.91,2517.32 4413.93,2518.1 4414.96,2518.88C4416.35,2519.91 4416.7,2520.13 4417.6,2520.68C4427.3,2526.65 4439.74,2527.7 4450.43,2523.76C4455.18,2521.95 4459.91,2520.08 4464.65,2518.24L4464.91,2518.14C4475.28,2522.18 4485.33,2527.26 4496.41,2526.41C4503.64,2525.85 4510.65,2523.1 4516.42,2518.63L4521.01,2515.08C4523.23,2513.41 4525.41,2511.72 4527.67,2510.08C4533.88,2505.63 4543.27,2502.84 4552.19,2502.74L4552.19,2514.36C4545.79,2514.44 4539.4,2516.3 4533.98,2519.79C4533.75,2519.92 4533.54,2520.04 4533.54,2520.04L4526.9,2523.94C4525.11,2524.96 4523.32,2525.98 4521.54,2527C4519.72,2528.03 4520.06,2527.89 4518.21,2528.72C4505.74,2534.31 4490.63,2533.76 4478.73,2526.67C4474.19,2523.91 4469.68,2521.09 4465.16,2518.3L4464.91,2518.14C4456.97,2523.15 4449.19,2528.78 4440.67,2531.06C4434.03,2532.84 4424.11,2532.82 4416.34,2530.19C4413.82,2529.33 4411.39,2528.24 4409.06,2526.96L4406.19,2525.4C4399.74,2521.78 4393.88,2517.38 4386.85,2515.49C4383.84,2514.68 4380.74,2514.31 4377.63,2514.36L4377.63,2502.74ZM4465.22,2487.43C4470.5,2487.55 4475.73,2489.13 4480.33,2491.82C4484.21,2494.08 4487.45,2497.3 4492.34,2498.28C4495.62,2498.93 4499,2498.84 4502.19,2497.95L4503.62,2497.54C4503.62,2497.54 4508.43,2496.29 4508.43,2496.29L4504.4,2499.18C4497.48,2503.97 4488.59,2505.89 4479.91,2502.2C4477.64,2501.23 4477.61,2501.1 4475.02,2500.28C4465.85,2497.48 4457.05,2499.37 4451.7,2501.84C4450.08,2502.59 4450.05,2502.63 4449.48,2502.85C4443.12,2505.31 4435.75,2505 4429.64,2501.94C4428.56,2501.4 4427.14,2500.43 4427.14,2500.43C4425.21,2499.07 4423.31,2497.67 4421.39,2496.29L4421.27,2496.2C4427.63,2497.88 4434.24,2499.93 4440.77,2497.38C4442.86,2496.56 4444.83,2495.42 4446.58,2493.98C4447.1,2493.56 4446.32,2494.11 4447.94,2492.97C4449.14,2492.12 4450.96,2491.07 4450.96,2491.07C4455.21,2488.85 4459.89,2487.54 4464.91,2487.42C4465.01,2487.42 4465.11,2487.43 4465.22,2487.43ZM4552.19,2448.96L4552.19,2460.57C4545.79,2460.66 4539.4,2462.52 4533.98,2466.01C4533.75,2466.14 4533.54,2466.26 4533.54,2466.26L4526.9,2470.16C4525.11,2471.18 4523.32,2472.2 4521.54,2473.22C4519.72,2474.25 4520.06,2474.11 4518.21,2474.94C4505.74,2480.53 4490.63,2479.98 4478.73,2472.89C4474.19,2470.13 4469.68,2467.31 4465.16,2464.52L4464.91,2464.36C4475.28,2468.39 4485.33,2473.48 4496.41,2472.62C4503.64,2472.06 4510.65,2469.32 4516.42,2464.84L4521.01,2461.3C4523.23,2459.63 4525.41,2457.93 4527.67,2456.3C4533.88,2451.85 4543.27,2449.05 4552.19,2448.96ZM4377.63,2448.96C4377.84,2448.96 4378.05,2448.96 4378.26,2448.96C4386.87,2449.03 4395.39,2451.55 4402.65,2456.17L4405,2457.69L4411.89,2462.76C4412.91,2463.54 4413.93,2464.32 4414.96,2465.1C4416.35,2466.13 4416.7,2466.34 4417.6,2466.89C4427.3,2472.87 4439.74,2473.92 4450.43,2469.97C4455.18,2468.17 4459.91,2466.3 4464.65,2464.46L4464.91,2464.36C4456.97,2469.36 4449.19,2474.99 4440.67,2477.28C4434.03,2479.06 4424.11,2479.03 4416.34,2476.4C4413.82,2475.55 4411.39,2474.45 4409.06,2473.18L4406.19,2471.62C4399.74,2468 4393.88,2463.59 4386.85,2461.71C4383.84,2460.9 4380.74,2460.53 4377.63,2460.57L4377.63,2448.96ZM4487.61,2436.25C4487.8,2436.36 4487.99,2436.46 4488.17,2436.55C4492.35,2438.7 4497.34,2439.16 4501.97,2438.08C4504.13,2437.55 4506.27,2436.97 4508.42,2436.42L4508.55,2436.38C4503.84,2439.92 4499.26,2443.48 4493.15,2444.48C4488.02,2445.32 4483.06,2444.63 4477.99,2442.34C4476.99,2441.91 4476.87,2441.89 4476.34,2441.71C4474.24,2441 4473.28,2440.6 4472.15,2440.25C4466.99,2438.68 4461.33,2438.93 4456.3,2440.91C4454.46,2441.34 4452.1,2442.29 4451.93,2442.37C4451.8,2442.43 4451.67,2442.49 4451.54,2442.55C4446.91,2444.67 4441.73,2445.36 4436.73,2444.57C4434.5,2444.21 4430.22,2442.75 4427.14,2440.62C4425.21,2439.26 4423.31,2437.85 4421.39,2436.47L4421.27,2436.38C4428.36,2438.23 4435.71,2440.56 4443.04,2436.25L4487.61,2436.25Z"/>
            </g>
        </g>
    </g>
</svg>
