<?xml version="1.0" encoding="UTF-8"?>
<!DOCTYPE svg  PUBLIC '-//W3C//DTD SVG 1.1//EN'  'http://www.w3.org/Graphics/SVG/1.1/DTD/svg11.dtd'>
<svg clip-rule="evenodd" fill-rule="evenodd" stroke-linejoin="round" stroke-miterlimit="2" version="1.1" viewBox="0 0 300 177" xml:space="preserve" xmlns="http://www.w3.org/2000/svg" xmlns:serif="http://www.serif.com/">
    <g transform="translate(-1450 -316.53)">
        <g transform="matrix(.2892 0 0 .57847 1111.9 -352.11)" serif:id="Белый логотип - RGB">
            <g transform="matrix(3.4578 0 0 1.8226 581.14 319.34)">
                <path d="m217.08 607.13c2.671 0.014 5.346 0.171 8.015 0.391l0.18 0.016c13.084 1.914 25.537 7.23 38.024 9.404 0 0 3.685 0.797 6.372 1.283 13.201 2.386 26.734 2.578 39.638 0.569 3.486-0.56 6.969-1.138 10.454-1.708l0.237-0.038c-13.109 4.676-26.097 8.802-40.683 9.613-5.909 0.329-11.746 0.137-17.515-0.566-7.449-0.907-16.112-4.174-23.52-6.296-1.748-0.501-3.509-0.958-5.279-1.371-2.889-0.673-5.807-1.222-8.74-1.665 0 0-4-0.763-6.859-1.221-12.139-1.945-24.588-2.024-36.701-0.193-3.494 0.545-6.985 1.109-10.478 1.664l-0.225 0.035c14.819-5.378 30.022-9.781 46.012-9.915 0.356-1e-3 0.712-2e-3 1.068-2e-3zm38.96-19.667c7.842 0.024 15.656 0.452 23.43 1.25l0.286 0.03c15.279 2.06 30.304 5.924 45.017 10.344 10.158 3.028 20.512 5.394 30.995 7.077 0 0 7.538 1.341 13.126 2.1 26.275 3.566 53.132 3.142 79.766-1.782 6.961-1.303 13.914-2.649 20.871-3.975l0.469-0.088c-22.912 6.538-45.578 12.711-69.93 14.296-14.963 0.974-30.023 0.5-44.711-1.352 0 0-5.756-0.895-10.306-1.799-21.664-4.301-42.604-12.404-65.801-15.632 0 0-5.536-0.892-9.966-1.453-26.19-3.32-52.98-2.688-78.442 2.017-6.801 1.272-13.599 2.56-20.399 3.84l-0.445 0.083c24.438-7.046 49.063-13.496 75.117-14.72 3.648-0.172 7.269-0.24 10.923-0.236zm111.04-9.589c2.671 0.014 5.346 0.171 8.015 0.391l0.18 0.015c13.084 1.915 25.537 7.23 38.024 9.405 0 0 3.685 0.797 6.372 1.282 13.201 2.387 26.734 2.579 39.638 0.569 3.486-0.56 6.969-1.138 10.454-1.707l0.237-0.038c-13.109 4.676-26.097 8.802-40.683 9.613-5.909 0.329-11.746 0.137-17.515-0.566-7.449-0.907-16.112-4.174-23.52-6.296-1.748-0.501-3.509-0.958-5.279-1.371-2.889-0.673-5.807-1.223-8.74-1.665 0 0-4-0.764-6.859-1.222-12.139-1.944-24.588-2.024-36.701-0.193-3.494 0.546-6.985 1.11-10.478 1.665l-0.225 0.035c14.819-5.378 30.022-9.781 46.012-9.915 0.356-2e-3 0.712-2e-3 1.068-2e-3z" fill="#fff"/>
            </g>
            <g transform="matrix(3.4578 0 0 1.7287 581.14 366.14)">
                <path d="m191.14 564.58h-13.065v-52.861c0-3.391-0.466-5.901-1.397-7.53s-2.792-2.443-5.585-2.443h-0.997v-2.993h27.527c6.782 0 12.966 1.247 18.551 3.741 5.585 2.493 8.378 7.264 8.378 14.312 0 4.854-1.48 8.561-4.438 11.12-2.959 2.56-6.866 4.472-11.719 5.735l10.472 17.454c3.923 6.583 8.045 10.24 12.367 10.971v2.494c-0.532 0.266-1.496 0.498-2.892 0.698-1.396 0.199-2.726 0.299-3.99 0.299-3.59 0-6.915-1.097-9.973-3.291-3.059-2.194-6.151-5.918-9.276-11.171l-9.973-16.656h-3.99v30.121zm246.35-34.409h-5.486c0-2.261 0.15-4.189 0.449-5.785s0.981-2.992 2.045-4.189c2.061-2.327 7.048-3.491 14.96-3.491 6.649 0 11.719 1.745 15.21 5.236s5.236 8.727 5.236 15.709v26.929h-8.477l-3.491-4.488h-0.499c-0.997 1.529-2.543 2.825-4.637 3.889-2.095 1.064-4.539 1.596-7.331 1.596-5.386 0-9.558-1.213-12.517-3.64s-4.438-5.702-4.438-9.824c0-3.325 0.781-6.084 2.343-8.279 1.563-2.194 4.306-3.856 8.229-4.986 3.923-1.131 9.375-1.696 16.357-1.696h1.496c0-5.785-0.798-9.89-2.394-12.317s-3.956-3.641-7.081-3.641c-2.594 0-4.721 0.632-6.384 1.895-1.662 1.264-2.859 3.624-3.59 7.082zm-87.17 12.766c0 6.317 0.964 10.921 2.892 13.813 1.929 2.893 4.621 4.339 8.079 4.339 3.192 0 5.868-0.715 8.029-2.144 2.161-1.43 4.239-3.475 6.233-6.134l3.092 2.294c-1.928 2.992-4.338 5.485-7.231 7.48-2.892 1.995-6.765 2.992-11.619 2.992-4.588 0-8.611-1.064-12.068-3.191-3.458-2.128-6.134-5.037-8.029-8.727-1.895-3.691-2.842-7.863-2.842-12.517 0-5.187 0.947-9.608 2.842-13.265s4.505-6.433 7.829-8.328c3.325-1.895 7.082-2.843 11.271-2.843 4.122 0 7.846 0.831 11.17 2.494 3.325 1.662 5.951 4.006 7.879 7.031 1.929 3.025 2.893 6.499 2.893 10.422l-0.399 6.284h-30.021zm-65.527 22.64h-3.591l-16.855-36.404c-1.795-3.723-3.325-6.333-4.588-7.829s-2.693-2.311-4.289-2.444v-1.994l3.691-0.2c4.454 0 8.195 0.864 11.22 2.593s5.668 5.02 7.929 9.874l8.777 19.15 13.564-30.62h5.386l-21.244 47.874zm42.588-0.997h-12.966v-33.911c0-3.391-0.466-5.901-1.397-7.53-0.93-1.629-2.792-2.443-5.585-2.443h-0.997v-2.993h11.968c2.394 0 4.222 0.399 5.486 1.197 1.263 0.798 2.161 2.111 2.693 3.94 0.532 1.828 0.798 4.438 0.798 7.829v33.911zm-76.499 0h-12.965v-33.911c0-3.391-0.466-5.901-1.397-7.53s-2.792-2.443-5.585-2.443h-0.997v-2.993h11.968c2.394 0 4.222 0.399 5.486 1.197 1.263 0.798 2.161 2.111 2.693 3.94 0.531 1.828 0.797 4.438 0.797 7.829v33.911zm153.99 0h-12.966v-33.911c0-3.391-0.449-5.901-1.346-7.53-0.898-1.629-2.743-2.443-5.536-2.443h-0.997v-2.993h9.874c2.261 0 4.039 0.283 5.336 0.848 1.296 0.565 2.31 1.513 3.042 2.843 3.59-3.125 7.779-4.688 12.567-4.688 2.859 0 5.219 0.665 7.081 1.995 1.197 0.864 2.061 1.812 2.593 2.842 0.532 1.031 0.798 1.579 0.798 1.646l-5.087 3.89c-0.731-1.064-1.695-1.978-2.892-2.743s-2.527-1.147-3.989-1.147c-3.857 0-6.816 1.031-8.877 3.092 0.266 2.128 0.399 3.723 0.399 4.787v33.512zm52.063-22.94h-1.496c-4.721 0-8.146 0.848-10.273 2.544-2.128 1.695-3.192 4.338-3.192 7.929 0 2.726 0.565 4.82 1.696 6.283 1.13 1.463 2.726 2.194 4.787 2.194 1.995 0 3.74-0.665 5.236-1.994 1.496-1.33 2.577-2.826 3.242-4.489v-12.467zm-89.664-3.191c0-6.25-0.731-10.689-2.194-13.315-1.463-2.627-3.557-3.94-6.283-3.94-2.527 0-4.572 1.347-6.134 4.04-1.563 2.692-2.344 7.098-2.344 13.215h16.955zm-170.15-7.979c3.724 0 6.899-1.114 9.525-3.341 2.627-2.228 3.94-5.735 3.94-10.523 0-4.787-1.297-8.294-3.89-10.522-2.593-2.227-5.718-3.341-9.375-3.341-1.729 0-3.79 0.233-6.184 0.698v27.029h5.984zm123.77-18.152c-2.394 0-4.239-0.732-5.536-2.195-1.296-1.462-1.945-3.258-1.945-5.385 0-1.729 0.516-3.092 1.546-4.09 1.031-0.997 2.344-1.496 3.94-1.496 2.394 0 4.239 0.732 5.535 2.195 1.297 1.462 1.945 3.258 1.945 5.385 0 1.729-0.515 3.092-1.546 4.09-1.03 0.997-2.344 1.496-3.939 1.496zm-76.498 0c-2.394 0-4.239-0.732-5.536-2.195-1.296-1.462-1.945-3.258-1.945-5.385 0-1.729 0.516-3.092 1.546-4.09 1.031-0.997 2.344-1.496 3.94-1.496 2.393 0 4.239 0.732 5.535 2.195 1.297 1.462 1.945 3.258 1.945 5.385 0 1.729-0.515 3.092-1.546 4.09-1.03 0.997-2.344 1.496-3.939 1.496z" fill="#fff" fill-rule="nonzero"/>
            </g>
            <g transform="matrix(3.4578 0 0 1.7287 581.14 366.14)">
                <path d="m464.66 465.15h3.975v1.626h-3.975v10.66c0 1.301 0.156 2.199 0.469 2.693 0.314 0.493 0.783 0.74 1.41 0.74 0.987 0 1.939-0.325 2.854-0.975l0.506 1.012c-1.204 1.06-2.77 1.59-4.697 1.59-1.663 0-2.951-0.452-3.867-1.356-0.915-0.903-1.373-2.21-1.373-3.92v-10.444h-2.168v-1.626h2.168v-3.252l1.807-2.168h2.891v5.42zm-19.803 9.143c0 2.288 0.349 3.957 1.048 5.005 0.699 1.047 1.674 1.571 2.927 1.571 1.156 0 2.126-0.259 2.909-0.777 0.783-0.517 1.536-1.258 2.258-2.222l1.121 0.831c-0.699 1.084-1.572 1.988-2.62 2.71-1.048 0.723-2.451 1.085-4.21 1.085-1.662 0-3.12-0.386-4.372-1.157-1.253-0.771-2.223-1.825-2.909-3.162-0.687-1.337-1.03-2.848-1.03-4.535 0-1.879 0.343-3.481 1.03-4.806 0.686-1.325 1.632-2.331 2.836-3.017 1.205-0.687 2.566-1.03 4.084-1.03 1.493 0 2.842 0.301 4.047 0.903 1.204 0.603 2.156 1.452 2.855 2.548 0.698 1.096 1.048 2.355 1.048 3.776l-0.145 2.277h-10.877zm-29.957 6.215c-1.228 1.325-2.734 1.988-4.517 1.988-2.288 0-3.975-0.53-5.059-1.59s-1.626-2.747-1.626-5.059v-5.999c0-1.229-0.169-2.138-0.506-2.728-0.337-0.591-1.012-0.886-2.024-0.886h-0.361v-1.084h4.336c0.868 0 1.53 0.145 1.988 0.434s0.783 0.765 0.976 1.427c0.192 0.663 0.289 1.608 0.289 2.837v6.035c0 1.806 0.253 3.089 0.759 3.848 0.505 0.759 1.276 1.138 2.312 1.138 0.771 0 1.428-0.24 1.97-0.722s0.969-1.024 1.283-1.626v-13.371h4.697v16.984h-3.071l-1.265-1.626h-0.181zm13.551 1.626h-4.697v-19.152c0-1.229-0.169-2.138-0.506-2.728-0.338-0.59-1.012-0.886-2.024-0.886h-0.361v-1.084h4.336c0.867 0 1.53 0.145 1.987 0.434 0.458 0.289 0.783 0.765 0.976 1.427 0.193 0.663 0.289 1.608 0.289 2.837v10.299l4.373-5.348c0.819-0.988 1.59-1.699 2.312-2.132 0.723-0.434 1.687-0.651 2.891-0.651h0.723v0.94c-0.723 0-1.373 0.144-1.951 0.433s-1.133 0.747-1.663 1.374l-3.505 4.264 4.806 6.36c1.157 1.565 2.277 2.481 3.361 2.746v0.867c-0.193 0.097-0.548 0.181-1.066 0.253s-0.994 0.109-1.427 0.109c-1.06 0-2.03-0.223-2.909-0.669-0.88-0.446-1.705-1.186-2.476-2.222l-3.469-4.553v7.082zm-59.66 0h-4.698v-19.152c0-1.229-0.169-2.138-0.506-2.728s-1.012-0.886-2.024-0.886h-0.361v-1.084h9.937c2.482 0 4.728 0.488 6.74 1.464 2.011 0.976 3.017 2.909 3.017 5.8 0 1.879-0.524 3.336-1.572 4.372s-2.222 1.723-3.523 2.06-2.493 0.506-3.578 0.506h-3.432v9.648zm19.585 0h-4.697v-19.152c0-1.229-0.169-2.138-0.506-2.728-0.338-0.59-1.012-0.886-2.024-0.886h-0.361v-1.084h4.336c0.867 0 1.53 0.145 1.988 0.434 0.457 0.289 0.782 0.765 0.975 1.427 0.193 0.663 0.289 1.608 0.289 2.837v3.18c0.458-0.361 1.048-0.681 1.771-0.958s1.457-0.415 2.204-0.415c1.952 0 3.584 0.5 4.897 1.499 1.313 1 1.969 2.705 1.969 5.114v10.732h-4.698v-10.552c0-1.734-0.307-2.999-0.921-3.794s-1.391-1.192-2.331-1.192c-0.939 0-1.903 0.421-2.891 1.264v14.274zm62.624-9.467c0-2.265-0.265-3.873-0.795-4.825-0.53-0.951-1.289-1.427-2.276-1.427-0.916 0-1.657 0.488-2.223 1.463-0.566 0.976-0.849 2.572-0.849 4.789h6.143zm-80.041-1.627c1.421 0 2.589-0.433 3.505-1.301 0.915-0.867 1.373-2.324 1.373-4.372 0-2.024-0.452-3.469-1.355-4.336-0.903-0.868-2.018-1.301-3.343-1.301-0.698 0-1.481 0.084-2.348 0.253v11.057h2.168z" fill="#fff" fill-rule="nonzero"/>
            </g>
            <g transform="matrix(1.8079 0 0 .90386 -9911.6 -288.6)">
                <circle cx="6470.1" cy="1624" r="6.93" fill="#fff"/>
            </g>
            <g transform="matrix(3.4578 0 0 1.7287 581.14 366.14)">
                <path d="m258.12 482.14h-4.661v-2.132c-1.398 1.759-3.361 2.638-5.891 2.638-2.409 0-4.474-0.921-6.197-2.764-1.722-1.843-2.584-4.102-2.584-6.776s0.862-4.932 2.584-6.775c1.723-1.843 3.788-2.765 6.197-2.765 2.53 0 4.493 0.88 5.891 2.638v-2.132h4.661v18.068zm53.409 0h-4.661v-2.132c-1.397 1.759-3.361 2.638-5.89 2.638-2.409 0-4.475-0.921-6.198-2.764-1.722-1.843-2.583-4.102-2.583-6.776s0.861-4.932 2.583-6.775c1.723-1.843 3.789-2.765 6.198-2.765 2.529 0 4.493 0.88 5.89 2.638v-2.132h4.661v18.068zm-76.066 0h-4.662v-2.132c-1.373 1.759-3.324 2.638-5.854 2.638-2.433 0-4.511-0.921-6.233-2.764-1.723-1.843-2.584-4.102-2.584-6.776s0.861-4.932 2.584-6.775c1.722-1.843 3.8-2.765 6.233-2.765 2.53 0 4.481 0.88 5.854 2.638v-9.359h4.662v25.295zm-41.448 0h-5.421l-1.517-4.553h-10.082l-1.518 4.553h-5.384l8.853-25.295h6.179l8.89 25.295zm6.902 0h-4.662v-18.068h4.662v2.024c1.132-1.687 2.927-2.53 5.384-2.53 1.975 0 3.608 0.663 4.896 1.988 1.289 1.325 1.934 3.156 1.934 5.492v11.094h-4.662v-10.515c0-1.205-0.325-2.126-0.975-2.765-0.651-0.638-1.518-0.957-2.602-0.957-1.205 0-2.168 0.373-2.891 1.12s-1.084 1.867-1.084 3.36v9.757zm119.5 0h-4.662v-18.068h4.662v2.024c1.132-1.687 2.927-2.53 5.384-2.53 1.976 0 3.608 0.663 4.897 1.988 1.288 1.325 1.933 3.156 1.933 5.492v11.094h-4.662v-10.515c0-1.205-0.325-2.126-0.975-2.765-0.651-0.638-1.518-0.957-2.602-0.957-1.205 0-2.168 0.373-2.891 1.12s-1.084 1.867-1.084 3.36v9.757zm-53.409 0h-4.662v-18.068h4.662v1.915c1.084-1.614 2.758-2.421 5.023-2.421 2.216 0 3.854 0.867 4.914 2.602 1.205-1.735 2.999-2.602 5.384-2.602 2.072 0 3.728 0.675 4.969 2.024s1.861 3.156 1.861 5.42v11.13h-4.661v-10.805c0-1.084-0.265-1.927-0.795-2.529s-1.277-0.903-2.241-0.903c-1.06 0-1.885 0.349-2.475 1.048-0.59 0.698-0.886 1.71-0.886 3.035v10.154h-4.661v-10.805c0-1.084-0.265-1.927-0.795-2.529s-1.277-0.903-2.241-0.903c-1.035 0-1.861 0.349-2.475 1.048-0.614 0.698-0.921 1.71-0.921 3.035v10.154zm-22.152-5.366c0.94 0.952 2.132 1.427 3.578 1.427 1.445 0 2.644-0.475 3.595-1.427 0.952-0.952 1.428-2.174 1.428-3.668 0-1.493-0.476-2.716-1.428-3.668-0.951-0.951-2.15-1.427-3.595-1.427-1.446 0-2.638 0.476-3.578 1.427-0.939 0.952-1.409 2.175-1.409 3.668 0 1.494 0.47 2.716 1.409 3.668zm53.409 0c0.94 0.952 2.132 1.427 3.578 1.427 1.445 0 2.644-0.475 3.595-1.427 0.952-0.952 1.428-2.174 1.428-3.668 0-1.493-0.476-2.716-1.428-3.668-0.951-0.951-2.15-1.427-3.595-1.427-1.446 0-2.638 0.476-3.578 1.427-0.939 0.952-1.409 2.175-1.409 3.668 0 1.494 0.47 2.716 1.409 3.668zm-76.048 0c0.952 0.952 2.15 1.427 3.596 1.427 1.445 0 2.637-0.475 3.577-1.427s1.409-2.174 1.409-3.668c0-1.493-0.469-2.716-1.409-3.668-0.94-0.951-2.132-1.427-3.577-1.427-1.446 0-2.644 0.476-3.596 1.427-0.952 0.952-1.427 2.175-1.427 3.668 0 1.494 0.475 2.716 1.427 3.668zm-43.634-3.849h6.938l-3.469-10.334-3.469 10.334z" fill="#fff" fill-rule="nonzero"/>
            </g>
        </g>
    </g>
</svg>
