<?xml version="1.0" encoding="UTF-8"?>
<svg enable-background="new 0 0 512 512" version="1.1" viewBox="0 0 512 512" xml:space="preserve" xmlns="http://www.w3.org/2000/svg">
<path d="m256 512c139.7-52.258 232.28-185.74 232.28-334.89v-90.397c-47.892 0-86.716-38.824-86.716-86.716h-291.12c0 47.892-38.824 86.716-86.716 86.716v90.396c0 149.15 92.581 282.63 232.28 334.89z" fill="#FFDB0C"/>
<path d="m256 512c139.7-52.258 232.28-185.74 232.28-334.89v-90.397c-47.892 0-86.716-38.824-86.716-86.716h-145.56v512z" fill="#FBBF00"/>
<polygon points="223.64 346.28 146.64 269.28 189.07 226.85 223.64 261.43 322.93 162.14 365.36 204.56" fill="#F1F1F2"/>
<polygon points="256 313.92 256 229.07 322.93 162.14 365.36 204.56" fill="#E6E6E6"/>
</svg>
