<?xml version="1.0" encoding="UTF-8"?>
<svg class="" width="512px" height="512px" enable-background="new 0 0 612.07 612.07" version="1.1" viewBox="0 0 612.07 612.07" xml:space="preserve" xmlns="http://www.w3.org/2000/svg">
		<g fill="#fff">
			<path class="active-path" d="m454.52 228.11c-4.463 2.769-10.38 1.395-13.147-3.068-2.771-4.462-1.396-10.379 3.066-13.148l152.98-95.688c4.463-2.789 10.358-1.395 13.147 3.068 0.978 1.574 1.436 3.307 1.436 5.041h0.021v363.47c0 3.586-1.991 6.713-4.921 8.367l-171.53 114.33c-2.85 1.893-6.355 2.03-9.265 0.696v0.021l-243.73-112.52-167.67 111.78c-4.383 2.93-10.34 1.734-13.249-2.647-1.255-1.894-1.753-4.064-1.574-6.156l0.12-360.06c0-3.486 1.873-6.534 4.682-8.188l-0.02-0.02 133.74-79.013c4.522-2.669 10.38-1.175 13.069 3.347 2.669 4.542 1.175 10.399-3.367 13.069l-129.06 76.264-0.119 337.61 157.25-104.85 0.02 0.02c2.67-1.793 6.176-2.172 9.284-0.738l243.79 112.5 163.42-108.92v-341.14l-138.38 86.564z" data-old_color="#000000" data-original="#000000"/>
			<path class="active-path" d="m306.01 0c36.956 0 70.426 15.001 94.651 39.227l0.02 0.02 0.021-0.02c24.226 24.206 39.207 57.716 39.207 94.692 0 37.474-20.938 82.001-47.437 123.88-26.078 41.24-57.337 79.77-79.092 106.33-3.348 4.084-9.383 4.682-13.448 1.336-0.717-0.598-1.334-1.275-1.833-2.012-21.855-26.679-52.915-65.048-78.634-105.71-26.477-41.897-47.376-86.404-47.376-123.84 0-36.976 15.002-70.466 39.208-94.691 24.247-24.207 57.738-39.208 94.713-39.208zm81.203 52.735c-20.778-20.739-49.487-33.589-81.183-33.589-31.697 0-60.405 12.85-81.165 33.609s-33.629 49.467-33.629 81.144c0 33.291 19.584 74.411 44.388 113.68 22.592 35.721 49.527 69.829 70.366 95.409 20.878-25.642 47.893-59.828 70.386-95.37 24.823-39.227 44.427-80.387 44.427-113.72 0-31.696-12.85-60.405-33.608-81.164l0.018 1e-3z" data-old_color="#000000" data-original="#000000"/>
			<path class="active-path" d="m306.01 76.522c15.838 0 30.222 6.435 40.582 16.814v0.04c10.379 10.38 16.814 24.744 16.814 40.542 0 15.799-6.437 30.163-16.814 40.542l-0.04 0.04c-10.38 10.379-24.744 16.814-40.542 16.814-15.838 0-30.223-6.435-40.583-16.814-10.379-10.36-16.814-24.744-16.814-40.583 0-15.818 6.435-30.163 16.814-40.542v-0.04c10.381-10.377 24.744-16.813 40.583-16.813zm27.074 30.322-0.021 0.021c-6.913-6.913-16.495-11.196-27.055-11.196-10.559 0-20.142 4.283-27.055 11.196l-0.02-0.021c-6.894 6.933-11.177 16.496-11.177 27.075 0 10.559 4.283 20.142 11.197 27.055 6.913 6.913 16.496 11.196 27.055 11.196 10.56 0 20.121-4.264 27.055-11.157l0.039-0.04c6.895-6.914 11.157-16.496 11.157-27.055 0.022-10.578-4.262-20.161-11.175-27.074z" data-old_color="#000000" data-original="#000000"/>
			<path class="active-path" d="m439.85 602.52c0 5.259-4.264 9.521-9.521 9.521-5.26 0-9.523-4.264-9.523-9.521l0.04-344.28c0-5.26 4.265-9.523 9.522-9.523 5.26 0 9.522 4.264 9.522 9.523l-0.04 344.28z" data-old_color="#000000" data-original="#000000"/>
			<path class="active-path" d="m191.16 483.6c0 5.261-4.263 9.523-9.523 9.523-5.259 0-9.523-4.264-9.523-9.523l0.06-225.38c0-5.26 4.263-9.523 9.522-9.523 5.26 0 9.523 4.263 9.523 9.523l-0.059 225.38z" data-old_color="#000000" data-original="#000000"/>
		</g>
 </svg>
