<?xml version="1.0" encoding="UTF-8"?>
<svg class="" width="512px" height="512px" enable-background="new 0 0 427.484 427.484" version="1.1" viewBox="0 0 427.48 427.48" xml:space="preserve" xmlns="http://www.w3.org/2000/svg">
	<path class="active-path" d="m405.94 290.25-103.85 135.08c-1.04 1.354-2.66 2.146-4.374 2.146-1.702 0-3.321-0.798-4.368-2.146l-103.84-135.08c-0.769-0.993-1.144-2.176-1.144-3.357 0-1.152 0.364-2.329 1.108-3.322 1.499-1.975 4.125-2.707 6.434-1.809l68.76 27.166v-287.92c0-3.047 2.477-5.503 5.515-5.503h55.106c3.038 0 5.509 2.456 5.509 5.503v287.92l68.76-27.166c2.305-0.898 4.93-0.166 6.419 1.809 1.495 1.986 1.483 4.705-0.035 6.679zm-167.93-146.34c0.744-0.993 1.105-2.167 1.105-3.322 0-1.176-0.379-2.367-1.142-3.36l-103.85-135.08c-1.044-1.356-2.667-2.148-4.366-2.148-1.714 0-3.328 0.798-4.377 2.148l-103.84 135.08c-1.519 1.969-1.525 4.69-0.03 6.683 1.487 1.968 4.114 2.707 6.419 1.803l68.766-27.163v287.92c0 3.05 2.462 5.509 5.506 5.509h55.109c3.041 0 5.515-2.459 5.515-5.509v-287.92l68.763 27.163c2.299 0.905 4.923 0.165 6.425-1.802z" fill="#08e8de" data-old_color="#000000" data-original="#000000"/>
 </svg>
