<?xml version="1.0" encoding="UTF-8"?>
<svg enable-background="new 0 0 512 512" version="1.1" viewBox="0 0 512 512" xml:space="preserve" xmlns="http://www.w3.org/2000/svg">
<path d="m503.2 423.7h-494.4c-4.9 0-8.8-4-8.8-8.8v-317.8c0-4.9 4-8.8 8.8-8.8h494.3c4.9 0 8.8 4 8.8 8.8v317.8c0.1 4.9-3.9 8.8-8.7 8.8z" fill="#F5F5F5"/>
<g fill="#FF4B55">
	<path d="m503.2 423.7h-494.4c-4.9 0-8.8-4-8.8-8.8v-44.1h512v44.1c0 4.9-4 8.8-8.8 8.8z"/>
	<path d="M8.8,88.3h494.3c4.9,0,8.8,4,8.8,8.8v44.1H0V97.1C0,92.2,4,88.3,8.8,88.3z"/>
</g>
<rect y="194.2" width="512" height="123.6" fill="#41479B"/>
</svg>