<?xml version="1.0" encoding="UTF-8"?>
<svg class="" enable-background="new 0 0 90 90" version="1.1" viewBox="0 0 90 90" xml:space="preserve" xmlns="http://www.w3.org/2000/svg">
	<path class="active-path" d="m70.939 65.832h-4.939l0.023-2.869c0-1.275 1.047-2.318 2.326-2.318h0.315c1.282 0 2.332 1.043 2.332 2.318l-0.057 2.869zm-18.526-6.148c-1.253 0-2.278 0.842-2.278 1.873v13.953c0 1.029 1.025 1.869 2.278 1.869 1.258 0 2.284-0.84 2.284-1.869v-13.953c0-1.032-1.026-1.873-2.284-1.873zm30.087-7.805v26.544c0 6.367-5.521 11.577-12.27 11.577h-50.459c-6.751 0-12.271-5.21-12.271-11.577v-26.544c0-6.367 5.52-11.578 12.271-11.578h50.459c6.749 0 12.27 5.211 12.27 11.578zm-59.363 29.426-4e-3 -27.961 6.255 2e-3v-4.143l-16.674-0.025v4.073l5.205 0.015v28.039h5.218zm18.75-23.796h-5.215v14.931c0 2.16 0.131 3.24-8e-3 3.621-0.424 1.158-2.33 2.388-3.073 0.125-0.126-0.396-0.015-1.591-0.017-3.643l-0.021-15.034h-5.186l0.016 14.798c4e-3 2.268-0.051 3.959 0.018 4.729 0.127 1.357 0.082 2.939 1.341 3.843 2.346 1.69 6.843-0.252 7.968-2.668l-0.01 3.083 4.188 5e-3 -1e-3 -23.79zm16.683 17.098-0.011-12.427c-4e-3 -4.736-3.547-7.572-8.356-3.74l0.021-9.239-5.209 8e-3 -0.025 31.89 4.284-0.062 0.39-1.986c5.473 5.021 8.914 1.58 8.906-4.444zm16.321-1.647-3.91 0.021c-2e-3 0.155-8e-3 0.334-0.01 0.529v2.182c0 1.168-0.965 2.119-2.137 2.119h-0.766c-1.174 0-2.139-0.951-2.139-2.119v-5.739h8.954v-3.37c0-2.463-0.063-4.925-0.267-6.333-0.641-4.454-6.893-5.161-10.051-2.881-0.991 0.712-1.748 1.665-2.188 2.945-0.444 1.281-0.665 3.031-0.665 5.254v7.41c2e-3 12.318 14.964 10.577 13.179-0.018zm-20.058-40.228c0.269 0.654 0.687 1.184 1.254 1.584 0.56 0.394 1.276 0.592 2.134 0.592 0.752 0 1.418-0.203 1.998-0.622 0.578-0.417 1.065-1.04 1.463-1.871l-0.099 2.046h5.813v-24.721h-4.576v19.24c0 1.042-0.858 1.895-1.907 1.895-1.043 0-1.904-0.853-1.904-1.895v-19.24h-4.776v16.674c0 2.124 0.039 3.54 0.102 4.258 0.065 0.713 0.229 1.397 0.498 2.06zm-17.616-13.962c0-2.373 0.198-4.226 0.591-5.562 0.396-1.331 1.107-2.401 2.137-3.208 1.027-0.811 2.342-1.217 3.941-1.217 1.345 0 2.497 0.264 3.459 0.781 0.967 0.52 1.713 1.195 2.23 2.028 0.527 0.836 0.885 1.695 1.076 2.574 0.195 0.891 0.291 2.235 0.291 4.048v6.252c0 2.293-0.092 3.98-0.271 5.051-0.177 1.074-0.557 2.07-1.146 3.004-0.58 0.924-1.329 1.615-2.237 2.056-0.918 0.445-1.968 0.663-3.154 0.663-1.325 0-2.441-0.183-3.361-0.565-0.923-0.38-1.636-0.953-2.144-1.714-0.513-0.762-0.874-1.69-1.092-2.772-0.219-1.081-0.323-2.707-0.323-4.874l3e-3 -6.545zm4.553 9.82c0 1.4 1.042 2.543 2.311 2.543 1.27 0 2.308-1.143 2.308-2.543v-13.16c0-1.398-1.038-2.541-2.308-2.541-1.269 0-2.311 1.143-2.311 2.541v13.16zm-16.088 6.645h5.484l6e-3 -18.96 6.48-16.242h-5.998l-3.445 12.064-3.494-12.097h-5.936l6.894 16.284 9e-3 18.951z" fill="#000" data-old_color="#000000" data-original="#000000"/>
 </svg>
